<svg width="625" height="225" viewBox="0 0 625 225" fill="none" xmlns="http://www.w3.org/2000/svg">
<g opacity="0.9">
<path d="M317.883 -78.069C347.199 -28.9127 410.392 -13.0618 459.029 -42.665C507.665 -72.2683 523.327 -136.116 494.011 -185.272C464.695 -234.428 401.502 -250.279 352.865 -220.676C304.229 -191.073 288.567 -127.225 317.883 -78.069Z" stroke="url(#paint0_linear_221_4737)" stroke-opacity="0.8" stroke-width="2.66025" stroke-miterlimit="10"/>
<path d="M303.263 -69.2102C334.43 -16.9503 401.613 -0.0986801 453.321 -31.571C505.028 -63.0434 521.679 -130.922 490.512 -183.182C459.345 -235.442 392.161 -252.293 340.454 -220.821C288.747 -189.349 272.096 -121.47 303.263 -69.2102Z" stroke="url(#paint1_linear_221_4737)" stroke-opacity="0.8" stroke-width="2.66025" stroke-miterlimit="10"/>
<path d="M288.513 -60.2729C321.574 -4.83687 392.84 13.039 447.69 -20.3461C502.54 -53.7312 520.203 -125.735 487.141 -181.171C454.08 -236.607 382.814 -254.483 327.964 -221.098C273.114 -187.713 255.451 -115.709 288.513 -60.2729Z" stroke="url(#paint2_linear_221_4737)" stroke-opacity="0.8" stroke-width="2.66025" stroke-miterlimit="10"/>
<path d="M273.654 -51.2686C308.646 7.40473 384.074 26.3245 442.127 -9.01011C500.18 -44.3447 518.874 -120.553 483.882 -179.226C448.89 -237.9 373.462 -256.82 315.409 -221.485C257.357 -186.15 238.662 -109.942 273.654 -51.2686Z" stroke="url(#paint3_linear_221_4737)" stroke-opacity="0.8" stroke-width="2.66025" stroke-miterlimit="10"/>
<path d="M258.704 -42.2095C295.657 19.7519 375.311 39.7321 436.617 2.41733C497.923 -34.8974 517.665 -115.377 480.712 -177.338C443.759 -239.3 364.104 -259.28 302.798 -221.965C241.492 -184.65 221.751 -104.171 258.704 -42.2095Z" stroke="url(#paint4_linear_221_4737)" stroke-opacity="0.8" stroke-width="2.66025" stroke-miterlimit="10"/>
<path d="M243.674 -33.1024C282.614 32.1905 366.552 53.2446 431.154 13.9233C495.757 -25.3979 516.561 -110.204 477.621 -175.497C438.681 -240.79 354.743 -261.845 290.14 -222.523C225.538 -183.202 204.734 -98.3954 243.674 -33.1024Z" stroke="url(#paint5_linear_221_4737)" stroke-opacity="0.8" stroke-width="2.66025" stroke-miterlimit="10"/>
<path d="M228.58 -23.9563C269.53 44.7056 357.798 66.8462 425.734 25.4962C493.67 -15.8539 515.547 -105.036 474.598 -173.698C433.649 -242.36 345.38 -264.501 277.444 -223.151C209.508 -181.801 187.631 -92.6182 228.58 -23.9563Z" stroke="url(#paint6_linear_221_4737)" stroke-opacity="0.8" stroke-width="2.66025" stroke-miterlimit="10"/>
<path d="M213.428 -14.773C256.405 57.2897 349.046 80.5271 420.346 37.1291C491.646 -6.26885 514.607 -99.8682 471.629 -171.931C428.652 -243.994 336.012 -267.231 264.711 -223.833C193.411 -180.435 170.45 -86.8358 213.428 -14.773Z" stroke="url(#paint7_linear_221_4737)" stroke-opacity="0.8" stroke-width="2.66025" stroke-miterlimit="10"/>
<path d="M198.225 -5.56118C243.247 69.9298 340.295 94.2724 414.987 48.8097C489.68 3.34697 513.733 -94.7054 468.711 -170.196C423.689 -245.687 326.641 -270.03 251.949 -224.567C177.256 -179.104 153.203 -81.0521 198.225 -5.56118Z" stroke="url(#paint8_linear_221_4737)" stroke-opacity="0.8" stroke-width="2.66025" stroke-miterlimit="10"/>
<path d="M182.981 3.67775C230.062 82.6211 331.548 108.077 409.657 60.5347C487.766 12.9927 512.919 -89.5439 465.838 -168.487C418.757 -247.431 317.271 -272.886 239.162 -225.344C161.053 -177.802 135.9 -75.2656 182.981 3.67775Z" stroke="url(#paint9_linear_221_4737)" stroke-opacity="0.8" stroke-width="2.66025" stroke-miterlimit="10"/>
<path d="M167.698 12.9396C216.851 95.3563 322.802 121.932 404.347 72.2986C485.892 22.665 512.152 -84.383 463 -166.8C413.847 -249.216 307.896 -275.792 226.351 -226.159C144.805 -176.525 118.546 -69.4771 167.698 12.9396Z" stroke="url(#paint10_linear_221_4737)" stroke-opacity="0.8" stroke-width="2.66025" stroke-miterlimit="10"/>
<path d="M152.382 22.2217C203.617 108.13 314.058 135.832 399.058 84.0953C484.058 32.3587 511.431 -79.2248 460.196 -165.133C408.961 -251.042 298.521 -278.744 213.52 -227.007C128.52 -175.27 101.147 -63.6868 152.382 22.2217Z" stroke="url(#paint11_linear_221_4737)" stroke-opacity="0.8" stroke-width="2.66025" stroke-miterlimit="10"/>
<path d="M137.038 31.5196C190.365 120.937 305.316 149.77 393.787 95.9205C482.258 42.0712 510.748 -74.069 457.421 -163.486C404.094 -252.903 289.144 -281.736 200.672 -227.887C112.201 -174.038 83.711 -57.8973 137.038 31.5196Z" stroke="url(#paint12_linear_221_4737)" stroke-opacity="0.8" stroke-width="2.66025" stroke-miterlimit="10"/>
<path d="M121.667 40.8358C177.095 133.775 296.574 163.744 388.531 107.773C480.488 51.8026 510.1 -68.9129 454.672 -161.852C399.244 -254.792 279.766 -284.761 187.809 -228.79C95.852 -172.819 66.2395 -52.1035 121.667 40.8358Z" stroke="url(#paint13_linear_221_4737)" stroke-opacity="0.8" stroke-width="2.66025" stroke-miterlimit="10"/>
<path d="M106.274 50.1638C163.811 146.639 287.835 177.748 383.29 119.648C478.745 61.5485 509.483 -63.7592 451.947 -160.234C394.41 -256.709 270.386 -287.819 174.931 -229.719C79.4766 -171.619 48.7378 -46.3113 106.274 50.1638Z" stroke="url(#paint14_linear_221_4737)" stroke-opacity="0.8" stroke-width="2.66025" stroke-miterlimit="10"/>
</g>
<defs>
<linearGradient id="paint0_linear_221_4737" x1="352.865" y1="-220.676" x2="460.623" y2="-43.6355" gradientUnits="userSpaceOnUse">
<stop stop-color="#FF7300"/>
<stop offset="0.0001" stop-color="white"/>
<stop offset="0.9999" stop-color="#FF7300"/>
</linearGradient>
<linearGradient id="paint1_linear_221_4737" x1="340.454" y1="-220.821" x2="455.016" y2="-32.6028" gradientUnits="userSpaceOnUse">
<stop stop-color="#FF7300"/>
<stop offset="0.0001" stop-color="white"/>
<stop offset="0.9999" stop-color="#FF7300"/>
</linearGradient>
<linearGradient id="paint2_linear_221_4737" x1="327.964" y1="-221.098" x2="449.488" y2="-21.4406" gradientUnits="userSpaceOnUse">
<stop stop-color="#FF7300"/>
<stop offset="0.0001" stop-color="white"/>
<stop offset="0.9999" stop-color="#FF7300"/>
</linearGradient>
<linearGradient id="paint3_linear_221_4737" x1="315.409" y1="-221.485" x2="444.03" y2="-10.1685" gradientUnits="userSpaceOnUse">
<stop stop-color="#FF7300"/>
<stop offset="0.0001" stop-color="white"/>
<stop offset="0.9999" stop-color="#FF7300"/>
</linearGradient>
<linearGradient id="paint4_linear_221_4737" x1="302.798" y1="-221.965" x2="438.627" y2="1.194" gradientUnits="userSpaceOnUse">
<stop stop-color="#FF7300"/>
<stop offset="0.0001" stop-color="white"/>
<stop offset="0.9999" stop-color="#FF7300"/>
</linearGradient>
<linearGradient id="paint5_linear_221_4737" x1="290.14" y1="-222.523" x2="433.272" y2="12.6343" gradientUnits="userSpaceOnUse">
<stop stop-color="#FF7300"/>
<stop offset="0.0001" stop-color="white"/>
<stop offset="0.9999" stop-color="#FF7300"/>
</linearGradient>
<linearGradient id="paint6_linear_221_4737" x1="277.444" y1="-223.151" x2="427.961" y2="24.1406" gradientUnits="userSpaceOnUse">
<stop stop-color="#FF7300"/>
<stop offset="0.0001" stop-color="white"/>
<stop offset="0.9999" stop-color="#FF7300"/>
</linearGradient>
<linearGradient id="paint7_linear_221_4737" x1="264.711" y1="-223.833" x2="422.684" y2="35.7064" gradientUnits="userSpaceOnUse">
<stop stop-color="#FF7300"/>
<stop offset="0.0001" stop-color="white"/>
<stop offset="0.9999" stop-color="#FF7300"/>
</linearGradient>
<linearGradient id="paint8_linear_221_4737" x1="251.949" y1="-224.567" x2="417.436" y2="47.3193" gradientUnits="userSpaceOnUse">
<stop stop-color="#FF7300"/>
<stop offset="0.0001" stop-color="white"/>
<stop offset="0.9999" stop-color="#FF7300"/>
</linearGradient>
<linearGradient id="paint9_linear_221_4737" x1="239.162" y1="-225.344" x2="412.217" y2="58.9761" gradientUnits="userSpaceOnUse">
<stop stop-color="#FF7300"/>
<stop offset="0.0001" stop-color="white"/>
<stop offset="0.9999" stop-color="#FF7300"/>
</linearGradient>
<linearGradient id="paint10_linear_221_4737" x1="226.351" y1="-226.159" x2="407.02" y2="70.6714" gradientUnits="userSpaceOnUse">
<stop stop-color="#FF7300"/>
<stop offset="0.0001" stop-color="white"/>
<stop offset="0.9999" stop-color="#FF7300"/>
</linearGradient>
<linearGradient id="paint11_linear_221_4737" x1="213.52" y1="-227.007" x2="401.845" y2="82.3992" gradientUnits="userSpaceOnUse">
<stop stop-color="#FF7300"/>
<stop offset="0.0001" stop-color="white"/>
<stop offset="0.9999" stop-color="#FF7300"/>
</linearGradient>
<linearGradient id="paint12_linear_221_4737" x1="200.672" y1="-227.887" x2="396.688" y2="94.1551" gradientUnits="userSpaceOnUse">
<stop stop-color="#FF7300"/>
<stop offset="0.0001" stop-color="white"/>
<stop offset="0.9999" stop-color="#FF7300"/>
</linearGradient>
<linearGradient id="paint13_linear_221_4737" x1="187.809" y1="-228.79" x2="391.546" y2="105.938" gradientUnits="userSpaceOnUse">
<stop stop-color="#FF7300"/>
<stop offset="0.0001" stop-color="white"/>
<stop offset="0.9999" stop-color="#FF7300"/>
</linearGradient>
<linearGradient id="paint14_linear_221_4737" x1="174.931" y1="-229.719" x2="386.419" y2="117.744" gradientUnits="userSpaceOnUse">
<stop stop-color="#FF7300"/>
<stop offset="0.0001" stop-color="white"/>
<stop offset="0.9999" stop-color="#FF7300"/>
</linearGradient>
</defs>
</svg>
