<svg width="1300" height="1251" viewBox="0 0 1300 1251" fill="none" xmlns="http://www.w3.org/2000/svg">
<g filter="url(#filter0_f_6010_353)">
<ellipse cx="650" cy="625.5" rx="304" ry="279.5" fill="#FF7300"/>
</g>
<g opacity="0.9">
<path d="M477.204 468.93C489.193 497.333 475.837 530.165 447.375 542.263C418.912 554.361 386.119 541.143 374.131 512.74C362.143 484.337 375.498 451.504 403.961 439.407C432.424 427.309 465.216 440.527 477.204 468.93Z" stroke="url(#paint0_linear_6010_353)" stroke-opacity="0.8" stroke-width="2.27114" stroke-miterlimit="10"/>
<path d="M488.728 464.036C501.452 494.183 487.278 529.031 457.067 541.872C426.857 554.712 392.052 540.682 379.327 510.535C366.603 480.388 380.778 445.539 410.988 432.699C441.198 419.859 476.003 433.888 488.728 464.036Z" stroke="url(#paint1_linear_6010_353)" stroke-opacity="0.8" stroke-width="2.27114" stroke-miterlimit="10"/>
<path d="M500.718 458.945C514.287 491.092 499.171 528.253 466.955 541.946C434.74 555.639 397.624 540.678 384.055 508.531C370.487 476.383 385.603 439.223 417.818 425.53C450.034 411.837 487.149 426.797 500.718 458.945Z" stroke="url(#paint2_linear_6010_353)" stroke-opacity="0.8" stroke-width="2.27114" stroke-miterlimit="10"/>
<path d="M513.093 453.689C527.596 488.05 511.44 527.769 477.007 542.404C442.574 557.04 402.904 541.049 388.401 506.688C373.898 472.328 390.054 432.608 424.487 417.973C458.92 403.338 498.59 419.328 513.093 453.689Z" stroke="url(#paint3_linear_6010_353)" stroke-opacity="0.8" stroke-width="2.27114" stroke-miterlimit="10"/>
<path d="M525.784 448.3C541.294 485.047 524.016 527.525 487.191 543.177C450.367 558.829 407.941 541.727 392.431 504.98C376.92 468.233 394.199 425.755 431.023 410.103C467.848 394.451 510.273 411.552 525.784 448.3Z" stroke="url(#paint4_linear_6010_353)" stroke-opacity="0.8" stroke-width="2.27114" stroke-miterlimit="10"/>
<path d="M538.731 442.802C555.308 482.077 536.841 527.478 497.482 544.207C458.124 560.936 412.779 542.658 396.201 503.382C379.624 464.106 398.091 418.706 437.45 401.977C476.808 385.248 522.153 403.526 538.731 442.802Z" stroke="url(#paint5_linear_6010_353)" stroke-opacity="0.8" stroke-width="2.27114" stroke-miterlimit="10"/>
<path d="M551.89 437.213C569.584 479.134 549.873 527.592 507.865 545.447C465.856 563.303 417.457 543.794 399.763 501.873C382.069 459.952 401.78 411.494 443.789 393.638C485.798 375.783 534.196 395.292 551.89 437.213Z" stroke="url(#paint6_linear_6010_353)" stroke-opacity="0.8" stroke-width="2.27114" stroke-miterlimit="10"/>
<path d="M565.224 431.55C584.075 476.212 563.075 527.839 518.319 546.862C473.564 565.885 422 545.1 403.149 500.438C384.298 455.776 405.298 404.149 450.054 385.126C494.81 366.103 546.373 386.888 565.224 431.55Z" stroke="url(#paint7_linear_6010_353)" stroke-opacity="0.8" stroke-width="2.27114" stroke-miterlimit="10"/>
<path d="M578.7 425.826C598.741 473.308 576.415 528.195 528.834 548.419C481.252 568.643 426.433 546.546 406.391 499.064C386.35 451.582 408.676 396.696 456.258 376.471C503.84 356.247 558.659 378.344 578.7 425.826Z" stroke="url(#paint8_linear_6010_353)" stroke-opacity="0.8" stroke-width="2.27114" stroke-miterlimit="10"/>
<path d="M592.296 420.052C613.556 470.42 589.873 528.642 539.399 550.095C488.926 571.548 430.775 548.108 409.516 497.741C388.256 447.373 411.939 389.151 462.413 367.698C512.886 346.244 571.037 369.684 592.296 420.052Z" stroke="url(#paint9_linear_6010_353)" stroke-opacity="0.8" stroke-width="2.27114" stroke-miterlimit="10"/>
<path d="M605.992 414.236C628.493 467.544 603.427 529.167 550.007 551.873C496.586 574.578 435.039 549.77 412.538 496.461C390.038 443.152 415.103 381.53 468.524 358.824C521.945 336.118 583.492 360.927 605.992 414.236Z" stroke="url(#paint10_linear_6010_353)" stroke-opacity="0.8" stroke-width="2.27114" stroke-miterlimit="10"/>
<path d="M619.773 408.383C643.535 464.679 617.065 529.755 560.65 553.733C504.235 577.711 439.24 551.512 415.478 495.216C391.716 438.92 418.187 373.844 474.601 349.866C531.016 325.887 596.011 352.086 619.773 408.383Z" stroke="url(#paint11_linear_6010_353)" stroke-opacity="0.8" stroke-width="2.27114" stroke-miterlimit="10"/>
<path d="M633.626 402.5C658.665 461.823 630.772 530.398 571.323 555.665C511.875 580.933 443.385 553.326 418.345 494.002C393.306 434.679 421.2 366.104 480.648 340.837C540.096 315.569 608.587 343.176 633.626 402.5Z" stroke="url(#paint12_linear_6010_353)" stroke-opacity="0.8" stroke-width="2.27114" stroke-miterlimit="10"/>
<path d="M647.538 396.591C673.87 458.975 644.537 531.088 582.021 557.659C519.506 584.231 447.481 555.199 421.15 492.814C394.819 430.43 424.152 358.317 486.667 331.746C549.183 305.174 621.207 334.206 647.538 396.591Z" stroke="url(#paint13_linear_6010_353)" stroke-opacity="0.8" stroke-width="2.27114" stroke-miterlimit="10"/>
<path d="M661.505 390.659C689.141 456.133 658.355 531.818 592.744 559.705C527.132 587.593 451.54 557.122 423.905 491.648C396.269 426.174 427.055 350.489 492.667 322.602C558.278 294.715 633.87 325.185 661.505 390.659Z" stroke="url(#paint14_linear_6010_353)" stroke-opacity="0.8" stroke-width="2.27114" stroke-miterlimit="10"/>
<path d="M675.517 384.708C704.467 453.297 672.217 532.582 603.484 561.796C534.751 591.01 455.563 559.091 426.612 490.502C397.662 421.913 429.913 342.628 498.646 313.414C567.379 284.199 646.567 316.119 675.517 384.708Z" stroke="url(#paint15_linear_6010_353)" stroke-opacity="0.8" stroke-width="2.27114" stroke-miterlimit="10"/>
<path d="M689.568 378.74C719.843 450.466 686.117 533.377 614.24 563.927C542.363 594.478 459.554 561.099 429.279 489.373C399.005 417.647 432.731 334.736 504.608 304.186C576.485 273.635 659.294 307.014 689.568 378.74Z" stroke="url(#paint16_linear_6010_353)" stroke-opacity="0.8" stroke-width="2.27114" stroke-miterlimit="10"/>
<path d="M703.655 372.757C735.261 447.639 700.052 534.198 625.013 566.092C549.974 597.987 463.521 563.139 431.915 488.257C400.308 413.376 435.518 326.817 510.557 294.922C585.596 263.028 672.048 297.876 703.655 372.757Z" stroke="url(#paint17_linear_6010_353)" stroke-opacity="0.8" stroke-width="2.27114" stroke-miterlimit="10"/>
<path d="M717.772 366.762C750.717 444.816 714.016 535.042 635.797 568.288C557.579 601.534 467.463 565.21 434.517 487.156C401.572 409.102 438.273 318.875 516.492 285.629C594.71 252.383 684.826 288.708 717.772 366.762Z" stroke="url(#paint18_linear_6010_353)" stroke-opacity="0.8" stroke-width="2.27114" stroke-miterlimit="10"/>
<path d="M731.914 360.755C766.205 441.997 728.005 535.908 646.592 570.511C565.18 605.115 471.384 567.307 437.093 486.065C402.803 404.823 441.002 310.912 522.415 276.309C603.827 241.705 697.623 279.513 731.914 360.755Z" stroke="url(#paint19_linear_6010_353)" stroke-opacity="0.8" stroke-width="2.27114" stroke-miterlimit="10"/>
<path d="M746.081 354.738C781.723 439.18 742.018 536.791 657.398 572.757C572.778 608.724 475.287 569.427 439.646 484.985C404.004 400.543 443.709 302.932 528.329 266.966C612.949 230.999 710.44 270.296 746.081 354.738Z" stroke="url(#paint20_linear_6010_353)" stroke-opacity="0.8" stroke-width="2.27114" stroke-miterlimit="10"/>
<path d="M760.269 348.713C797.266 436.367 756.051 537.691 668.213 575.026C580.374 612.361 479.174 571.568 442.177 483.914C405.18 396.259 446.395 294.935 534.233 257.601C622.072 220.266 723.272 261.058 760.269 348.713Z" stroke="url(#paint21_linear_6010_353)" stroke-opacity="0.8" stroke-width="2.27114" stroke-miterlimit="10"/>
</g>
<defs>
<filter id="filter0_f_6010_353" x="0.899506" y="0.899506" width="1298.2" height="1249.2" filterUnits="userSpaceOnUse" color-interpolation-filters="sRGB">
<feFlood flood-opacity="0" result="BackgroundImageFix"/>
<feBlend mode="normal" in="SourceGraphic" in2="BackgroundImageFix" result="shape"/>
<feGaussianBlur stdDeviation="172.55" result="effect1_foregroundBlur_6010_353"/>
</filter>
<linearGradient id="paint0_linear_6010_353" x1="403.961" y1="439.407" x2="447.632" y2="542.153" gradientUnits="userSpaceOnUse">
<stop stop-color="#FF7300"/>
<stop offset="0.548077" stop-color="#991F17"/>
<stop offset="0.783654" stop-color="white"/>
</linearGradient>
<linearGradient id="paint1_linear_6010_353" x1="410.988" y1="432.699" x2="457.341" y2="541.755" gradientUnits="userSpaceOnUse">
<stop stop-color="#FF7300"/>
<stop offset="0.548077" stop-color="#991F17"/>
<stop offset="0.783654" stop-color="white"/>
</linearGradient>
<linearGradient id="paint2_linear_6010_353" x1="417.818" y1="425.53" x2="467.247" y2="541.822" gradientUnits="userSpaceOnUse">
<stop stop-color="#FF7300"/>
<stop offset="0.548077" stop-color="#991F17"/>
<stop offset="0.783654" stop-color="white"/>
</linearGradient>
<linearGradient id="paint3_linear_6010_353" x1="424.487" y1="417.973" x2="477.319" y2="542.272" gradientUnits="userSpaceOnUse">
<stop stop-color="#FF7300"/>
<stop offset="0.548077" stop-color="#991F17"/>
<stop offset="0.783654" stop-color="white"/>
</linearGradient>
<linearGradient id="paint4_linear_6010_353" x1="431.023" y1="410.103" x2="487.524" y2="543.035" gradientUnits="userSpaceOnUse">
<stop stop-color="#FF7300"/>
<stop offset="0.548077" stop-color="#991F17"/>
<stop offset="0.783654" stop-color="white"/>
</linearGradient>
<linearGradient id="paint5_linear_6010_353" x1="437.45" y1="401.977" x2="497.839" y2="544.055" gradientUnits="userSpaceOnUse">
<stop stop-color="#FF7300"/>
<stop offset="0.548077" stop-color="#991F17"/>
<stop offset="0.783654" stop-color="white"/>
</linearGradient>
<linearGradient id="paint6_linear_6010_353" x1="443.789" y1="393.638" x2="508.245" y2="545.286" gradientUnits="userSpaceOnUse">
<stop stop-color="#FF7300"/>
<stop offset="0.548077" stop-color="#991F17"/>
<stop offset="0.783654" stop-color="white"/>
</linearGradient>
<linearGradient id="paint7_linear_6010_353" x1="450.054" y1="385.126" x2="518.724" y2="546.69" gradientUnits="userSpaceOnUse">
<stop stop-color="#FF7300"/>
<stop offset="0.548077" stop-color="#991F17"/>
<stop offset="0.783654" stop-color="white"/>
</linearGradient>
<linearGradient id="paint8_linear_6010_353" x1="456.258" y1="376.471" x2="529.264" y2="548.236" gradientUnits="userSpaceOnUse">
<stop stop-color="#FF7300"/>
<stop offset="0.548077" stop-color="#991F17"/>
<stop offset="0.783654" stop-color="white"/>
</linearGradient>
<linearGradient id="paint9_linear_6010_353" x1="462.413" y1="367.698" x2="539.856" y2="549.901" gradientUnits="userSpaceOnUse">
<stop stop-color="#FF7300"/>
<stop offset="0.548077" stop-color="#991F17"/>
<stop offset="0.783654" stop-color="white"/>
</linearGradient>
<linearGradient id="paint10_linear_6010_353" x1="468.524" y1="358.824" x2="550.49" y2="551.667" gradientUnits="userSpaceOnUse">
<stop stop-color="#FF7300"/>
<stop offset="0.548077" stop-color="#991F17"/>
<stop offset="0.783654" stop-color="white"/>
</linearGradient>
<linearGradient id="paint11_linear_6010_353" x1="474.601" y1="349.866" x2="561.16" y2="553.516" gradientUnits="userSpaceOnUse">
<stop stop-color="#FF7300"/>
<stop offset="0.548077" stop-color="#991F17"/>
<stop offset="0.783654" stop-color="white"/>
</linearGradient>
<linearGradient id="paint12_linear_6010_353" x1="480.648" y1="340.837" x2="571.861" y2="555.437" gradientUnits="userSpaceOnUse">
<stop stop-color="#FF7300"/>
<stop offset="0.548077" stop-color="#991F17"/>
<stop offset="0.783654" stop-color="white"/>
</linearGradient>
<linearGradient id="paint13_linear_6010_353" x1="486.667" y1="331.746" x2="582.587" y2="557.419" gradientUnits="userSpaceOnUse">
<stop stop-color="#FF7300"/>
<stop offset="0.548077" stop-color="#991F17"/>
<stop offset="0.783654" stop-color="white"/>
</linearGradient>
<linearGradient id="paint14_linear_6010_353" x1="492.667" y1="322.602" x2="593.337" y2="559.453" gradientUnits="userSpaceOnUse">
<stop stop-color="#FF7300"/>
<stop offset="0.548077" stop-color="#991F17"/>
<stop offset="0.783654" stop-color="white"/>
</linearGradient>
<linearGradient id="paint15_linear_6010_353" x1="498.646" y1="313.414" x2="604.106" y2="561.532" gradientUnits="userSpaceOnUse">
<stop stop-color="#FF7300"/>
<stop offset="0.548077" stop-color="#991F17"/>
<stop offset="0.783654" stop-color="white"/>
</linearGradient>
<linearGradient id="paint16_linear_6010_353" x1="504.608" y1="304.186" x2="614.89" y2="563.651" gradientUnits="userSpaceOnUse">
<stop stop-color="#FF7300"/>
<stop offset="0.548077" stop-color="#991F17"/>
<stop offset="0.783654" stop-color="white"/>
</linearGradient>
<linearGradient id="paint17_linear_6010_353" x1="510.557" y1="294.922" x2="625.692" y2="565.804" gradientUnits="userSpaceOnUse">
<stop stop-color="#FF7300"/>
<stop offset="0.548077" stop-color="#991F17"/>
<stop offset="0.783654" stop-color="white"/>
</linearGradient>
<linearGradient id="paint18_linear_6010_353" x1="516.492" y1="285.629" x2="636.505" y2="567.987" gradientUnits="userSpaceOnUse">
<stop stop-color="#FF7300"/>
<stop offset="0.548077" stop-color="#991F17"/>
<stop offset="0.783654" stop-color="white"/>
</linearGradient>
<linearGradient id="paint19_linear_6010_353" x1="522.415" y1="276.309" x2="647.329" y2="570.198" gradientUnits="userSpaceOnUse">
<stop stop-color="#FF7300"/>
<stop offset="0.548077" stop-color="#991F17"/>
<stop offset="0.783654" stop-color="white"/>
</linearGradient>
<linearGradient id="paint20_linear_6010_353" x1="528.329" y1="266.966" x2="658.164" y2="572.432" gradientUnits="userSpaceOnUse">
<stop stop-color="#FF7300"/>
<stop offset="0.548077" stop-color="#991F17"/>
<stop offset="0.783654" stop-color="white"/>
</linearGradient>
<linearGradient id="paint21_linear_6010_353" x1="534.233" y1="257.601" x2="669.008" y2="574.688" gradientUnits="userSpaceOnUse">
<stop stop-color="#FF7300"/>
<stop offset="0.548077" stop-color="#991F17"/>
<stop offset="0.783654" stop-color="white"/>
</linearGradient>
</defs>
</svg>
