<svg width="539" height="520" viewBox="0 0 539 520" fill="none" xmlns="http://www.w3.org/2000/svg">
<g filter="url(#filter0_f_6010_354)">
<ellipse cx="269.5" cy="260.005" rx="113.5" ry="104" fill="#FF7300"/>
</g>
<g opacity="0.9">
<path d="M368.026 260.791C359.764 275.117 364.699 293.479 379.05 301.804C393.401 310.128 411.733 305.263 419.995 290.936C428.258 276.61 423.322 258.248 408.971 249.923C394.62 241.599 376.288 246.464 368.026 260.791Z" stroke="url(#paint0_linear_6010_354)" stroke-opacity="0.8" stroke-width="2.27114" stroke-miterlimit="10"/>
<path d="M362.215 257.423C353.446 272.629 358.684 292.119 373.916 300.954C389.148 309.79 408.605 304.625 417.375 289.419C426.145 274.213 420.906 254.724 405.674 245.888C390.442 237.053 370.985 242.217 362.215 257.423Z" stroke="url(#paint1_linear_6010_354)" stroke-opacity="0.8" stroke-width="2.27114" stroke-miterlimit="10"/>
<path d="M356.17 253.918C346.818 270.133 352.405 290.916 368.648 300.338C384.891 309.76 405.64 304.253 414.991 288.038C424.343 271.823 418.756 251.04 402.513 241.618C386.27 232.196 365.521 237.703 356.17 253.918Z" stroke="url(#paint2_linear_6010_354)" stroke-opacity="0.8" stroke-width="2.27114" stroke-miterlimit="10"/>
<path d="M349.93 250.302C339.934 267.633 345.905 289.847 363.266 299.917C380.627 309.988 402.804 304.102 412.8 286.77C422.795 269.439 416.824 247.225 399.463 237.155C382.102 227.084 359.925 232.97 349.93 250.302Z" stroke="url(#paint3_linear_6010_354)" stroke-opacity="0.8" stroke-width="2.27114" stroke-miterlimit="10"/>
<path d="M343.531 246.592C332.841 265.127 339.227 288.884 357.794 299.654C376.361 310.424 400.078 304.129 410.768 285.594C421.457 267.058 415.071 243.302 396.504 232.532C377.938 221.762 354.22 228.057 343.531 246.592Z" stroke="url(#paint4_linear_6010_354)" stroke-opacity="0.8" stroke-width="2.27114" stroke-miterlimit="10"/>
<path d="M337.003 242.808C325.577 262.619 332.403 288.01 352.247 299.521C372.092 311.032 397.441 304.304 408.866 284.494C420.291 264.683 413.466 239.292 393.621 227.781C373.777 216.27 348.428 222.998 337.003 242.808Z" stroke="url(#paint5_linear_6010_354)" stroke-opacity="0.8" stroke-width="2.27114" stroke-miterlimit="10"/>
<path d="M330.367 238.961C318.173 260.106 325.457 287.207 346.638 299.494C367.819 311.78 394.875 304.599 407.07 283.454C419.264 262.309 411.98 235.208 390.799 222.922C369.618 210.635 342.562 217.817 330.367 238.961Z" stroke="url(#paint6_linear_6010_354)" stroke-opacity="0.8" stroke-width="2.27114" stroke-miterlimit="10"/>
<path d="M323.644 235.065C310.652 257.593 318.413 286.466 340.979 299.556C363.545 312.645 392.37 304.995 405.362 282.467C418.354 259.94 410.593 231.066 388.027 217.977C365.461 204.887 336.636 212.538 323.644 235.065Z" stroke="url(#paint7_linear_6010_354)" stroke-opacity="0.8" stroke-width="2.27114" stroke-miterlimit="10"/>
<path d="M316.849 231.126C303.037 255.076 311.288 285.772 335.279 299.688C359.269 313.604 389.915 305.471 403.727 281.521C417.539 257.571 409.288 226.875 385.297 212.959C361.307 199.043 330.661 207.176 316.849 231.126Z" stroke="url(#paint8_linear_6010_354)" stroke-opacity="0.8" stroke-width="2.27114" stroke-miterlimit="10"/>
<path d="M309.994 227.152C295.342 252.557 304.095 285.119 329.544 299.881C354.992 314.643 387.5 306.014 402.152 280.609C416.804 255.204 408.051 222.642 382.602 207.88C357.153 193.118 324.646 201.746 309.994 227.152Z" stroke="url(#paint9_linear_6010_354)" stroke-opacity="0.8" stroke-width="2.27114" stroke-miterlimit="10"/>
<path d="M303.088 223.149C287.581 250.038 296.844 284.501 323.779 300.125C350.714 315.749 385.12 306.617 400.627 279.728C416.135 252.84 406.871 218.376 379.936 202.752C353.001 187.128 318.595 196.26 303.088 223.149Z" stroke="url(#paint10_linear_6010_354)" stroke-opacity="0.8" stroke-width="2.27114" stroke-miterlimit="10"/>
<path d="M296.139 219.12C279.763 247.515 289.546 283.91 317.99 300.41C346.435 316.909 382.769 307.265 399.145 278.87C415.521 250.474 405.739 214.079 377.294 197.58C348.85 181.08 312.516 190.724 296.139 219.12Z" stroke="url(#paint11_linear_6010_354)" stroke-opacity="0.8" stroke-width="2.27114" stroke-miterlimit="10"/>
<path d="M289.154 215.072C271.898 244.994 282.207 283.346 312.18 300.732C342.154 318.119 380.442 307.957 397.699 278.034C414.956 248.112 404.647 209.76 374.673 192.374C344.699 174.987 306.411 185.149 289.154 215.072Z" stroke="url(#paint12_linear_6010_354)" stroke-opacity="0.8" stroke-width="2.27114" stroke-miterlimit="10"/>
<path d="M282.14 211.005C263.992 242.471 274.833 282.802 306.354 301.085C337.874 319.369 378.137 308.683 396.285 277.216C414.432 245.75 403.591 205.419 372.071 187.136C340.55 168.852 300.287 179.538 282.14 211.005Z" stroke="url(#paint13_linear_6010_354)" stroke-opacity="0.8" stroke-width="2.27114" stroke-miterlimit="10"/>
<path d="M275.097 206.923C256.051 239.947 267.429 282.275 300.51 301.465C333.591 320.654 375.849 309.438 394.895 276.413C413.941 243.388 402.563 201.06 369.482 181.871C336.401 162.682 294.143 173.898 275.097 206.923Z" stroke="url(#paint14_linear_6010_354)" stroke-opacity="0.8" stroke-width="2.27114" stroke-miterlimit="10"/>
<path d="M268.032 202.828C248.08 237.424 259.999 281.765 294.654 301.868C329.309 321.97 373.577 310.22 393.53 275.624C413.482 241.029 401.563 196.687 366.907 176.585C332.252 156.482 287.984 168.232 268.032 202.828Z" stroke="url(#paint15_linear_6010_354)" stroke-opacity="0.8" stroke-width="2.27114" stroke-miterlimit="10"/>
<path d="M260.947 198.719C240.083 234.898 252.547 281.267 288.787 302.289C325.028 323.311 371.32 311.024 392.185 274.846C413.05 238.668 400.585 192.298 364.345 171.276C328.104 150.255 281.812 162.541 260.947 198.719Z" stroke="url(#paint16_linear_6010_354)" stroke-opacity="0.8" stroke-width="2.27114" stroke-miterlimit="10"/>
<path d="M253.845 194.602C232.062 232.372 245.075 280.782 282.909 302.728C320.744 324.675 369.073 311.847 390.856 274.077C412.639 236.308 399.626 187.898 361.791 165.951C323.957 144.005 275.627 156.832 253.845 194.602Z" stroke="url(#paint17_linear_6010_354)" stroke-opacity="0.8" stroke-width="2.27114" stroke-miterlimit="10"/>
<path d="M246.726 190.477C224.021 229.847 237.585 280.308 277.023 303.184C316.46 326.061 366.838 312.69 389.543 273.32C412.249 233.95 398.684 183.489 359.247 160.612C319.809 137.736 269.432 151.107 246.726 190.477Z" stroke="url(#paint18_linear_6010_354)" stroke-opacity="0.8" stroke-width="2.27114" stroke-miterlimit="10"/>
<path d="M239.596 186.343C215.963 227.321 230.081 279.842 271.129 303.653C312.177 327.463 364.611 313.546 388.244 272.568C411.877 231.59 397.759 179.069 356.711 155.258C315.663 131.448 263.228 145.365 239.596 186.343Z" stroke="url(#paint19_linear_6010_354)" stroke-opacity="0.8" stroke-width="2.27114" stroke-miterlimit="10"/>
<path d="M232.452 182.201C207.888 224.793 222.562 279.384 265.228 304.132C307.893 328.881 362.393 314.416 386.957 271.824C411.52 229.231 396.846 174.641 354.181 149.892C311.516 125.144 257.016 139.609 232.452 182.201Z" stroke="url(#paint20_linear_6010_354)" stroke-opacity="0.8" stroke-width="2.27114" stroke-miterlimit="10"/>
<path d="M225.298 178.054C199.8 222.267 215.032 278.934 259.321 304.624C303.609 330.314 360.182 315.299 385.68 271.086C411.179 226.874 395.946 170.206 351.658 144.516C307.37 118.826 250.797 133.842 225.298 178.054Z" stroke="url(#paint21_linear_6010_354)" stroke-opacity="0.8" stroke-width="2.27114" stroke-miterlimit="10"/>
</g>
<defs>
<filter id="filter0_f_6010_354" x="0.899994" y="0.905365" width="537.2" height="518.2" filterUnits="userSpaceOnUse" color-interpolation-filters="sRGB">
<feFlood flood-opacity="0" result="BackgroundImageFix"/>
<feBlend mode="normal" in="SourceGraphic" in2="BackgroundImageFix" result="shape"/>
<feGaussianBlur stdDeviation="77.55" result="effect1_foregroundBlur_6010_354"/>
</filter>
<linearGradient id="paint0_linear_6010_354" x1="408.971" y1="249.923" x2="378.921" y2="301.728" gradientUnits="userSpaceOnUse">
<stop stop-color="#FF7300"/>
<stop offset="0.548077" stop-color="#991F17"/>
<stop offset="0.783654" stop-color="white"/>
</linearGradient>
<linearGradient id="paint1_linear_6010_354" x1="405.674" y1="245.888" x2="373.779" y2="300.874" gradientUnits="userSpaceOnUse">
<stop stop-color="#FF7300"/>
<stop offset="0.548077" stop-color="#991F17"/>
<stop offset="0.783654" stop-color="white"/>
</linearGradient>
<linearGradient id="paint2_linear_6010_354" x1="402.513" y1="241.618" x2="368.501" y2="300.253" gradientUnits="userSpaceOnUse">
<stop stop-color="#FF7300"/>
<stop offset="0.548077" stop-color="#991F17"/>
<stop offset="0.783654" stop-color="white"/>
</linearGradient>
<linearGradient id="paint3_linear_6010_354" x1="399.463" y1="237.155" x2="363.109" y2="299.826" gradientUnits="userSpaceOnUse">
<stop stop-color="#FF7300"/>
<stop offset="0.548077" stop-color="#991F17"/>
<stop offset="0.783654" stop-color="white"/>
</linearGradient>
<linearGradient id="paint4_linear_6010_354" x1="396.504" y1="232.532" x2="357.626" y2="299.556" gradientUnits="userSpaceOnUse">
<stop stop-color="#FF7300"/>
<stop offset="0.548077" stop-color="#991F17"/>
<stop offset="0.783654" stop-color="white"/>
</linearGradient>
<linearGradient id="paint5_linear_6010_354" x1="393.621" y1="227.781" x2="352.068" y2="299.417" gradientUnits="userSpaceOnUse">
<stop stop-color="#FF7300"/>
<stop offset="0.548077" stop-color="#991F17"/>
<stop offset="0.783654" stop-color="white"/>
</linearGradient>
<linearGradient id="paint6_linear_6010_354" x1="390.799" y1="222.922" x2="346.447" y2="299.382" gradientUnits="userSpaceOnUse">
<stop stop-color="#FF7300"/>
<stop offset="0.548077" stop-color="#991F17"/>
<stop offset="0.783654" stop-color="white"/>
</linearGradient>
<linearGradient id="paint7_linear_6010_354" x1="388.027" y1="217.977" x2="340.775" y2="299.437" gradientUnits="userSpaceOnUse">
<stop stop-color="#FF7300"/>
<stop offset="0.548077" stop-color="#991F17"/>
<stop offset="0.783654" stop-color="white"/>
</linearGradient>
<linearGradient id="paint8_linear_6010_354" x1="385.297" y1="212.959" x2="335.062" y2="299.562" gradientUnits="userSpaceOnUse">
<stop stop-color="#FF7300"/>
<stop offset="0.548077" stop-color="#991F17"/>
<stop offset="0.783654" stop-color="white"/>
</linearGradient>
<linearGradient id="paint9_linear_6010_354" x1="382.602" y1="207.88" x2="329.313" y2="299.747" gradientUnits="userSpaceOnUse">
<stop stop-color="#FF7300"/>
<stop offset="0.548077" stop-color="#991F17"/>
<stop offset="0.783654" stop-color="white"/>
</linearGradient>
<linearGradient id="paint10_linear_6010_354" x1="379.936" y1="202.752" x2="323.535" y2="299.984" gradientUnits="userSpaceOnUse">
<stop stop-color="#FF7300"/>
<stop offset="0.548077" stop-color="#991F17"/>
<stop offset="0.783654" stop-color="white"/>
</linearGradient>
<linearGradient id="paint11_linear_6010_354" x1="377.294" y1="197.58" x2="317.733" y2="300.26" gradientUnits="userSpaceOnUse">
<stop stop-color="#FF7300"/>
<stop offset="0.548077" stop-color="#991F17"/>
<stop offset="0.783654" stop-color="white"/>
</linearGradient>
<linearGradient id="paint12_linear_6010_354" x1="374.673" y1="192.374" x2="311.909" y2="300.575" gradientUnits="userSpaceOnUse">
<stop stop-color="#FF7300"/>
<stop offset="0.548077" stop-color="#991F17"/>
<stop offset="0.783654" stop-color="white"/>
</linearGradient>
<linearGradient id="paint13_linear_6010_354" x1="372.071" y1="187.136" x2="306.068" y2="300.92" gradientUnits="userSpaceOnUse">
<stop stop-color="#FF7300"/>
<stop offset="0.548077" stop-color="#991F17"/>
<stop offset="0.783654" stop-color="white"/>
</linearGradient>
<linearGradient id="paint14_linear_6010_354" x1="369.482" y1="181.871" x2="300.211" y2="301.291" gradientUnits="userSpaceOnUse">
<stop stop-color="#FF7300"/>
<stop offset="0.548077" stop-color="#991F17"/>
<stop offset="0.783654" stop-color="white"/>
</linearGradient>
<linearGradient id="paint15_linear_6010_354" x1="366.907" y1="176.585" x2="294.341" y2="301.686" gradientUnits="userSpaceOnUse">
<stop stop-color="#FF7300"/>
<stop offset="0.548077" stop-color="#991F17"/>
<stop offset="0.783654" stop-color="white"/>
</linearGradient>
<linearGradient id="paint16_linear_6010_354" x1="364.345" y1="171.276" x2="288.459" y2="302.099" gradientUnits="userSpaceOnUse">
<stop stop-color="#FF7300"/>
<stop offset="0.548077" stop-color="#991F17"/>
<stop offset="0.783654" stop-color="white"/>
</linearGradient>
<linearGradient id="paint17_linear_6010_354" x1="361.791" y1="165.951" x2="282.567" y2="302.53" gradientUnits="userSpaceOnUse">
<stop stop-color="#FF7300"/>
<stop offset="0.548077" stop-color="#991F17"/>
<stop offset="0.783654" stop-color="white"/>
</linearGradient>
<linearGradient id="paint18_linear_6010_354" x1="359.247" y1="160.612" x2="276.666" y2="302.977" gradientUnits="userSpaceOnUse">
<stop stop-color="#FF7300"/>
<stop offset="0.548077" stop-color="#991F17"/>
<stop offset="0.783654" stop-color="white"/>
</linearGradient>
<linearGradient id="paint19_linear_6010_354" x1="356.711" y1="155.258" x2="270.758" y2="303.437" gradientUnits="userSpaceOnUse">
<stop stop-color="#FF7300"/>
<stop offset="0.548077" stop-color="#991F17"/>
<stop offset="0.783654" stop-color="white"/>
</linearGradient>
<linearGradient id="paint20_linear_6010_354" x1="354.181" y1="149.892" x2="264.842" y2="303.909" gradientUnits="userSpaceOnUse">
<stop stop-color="#FF7300"/>
<stop offset="0.548077" stop-color="#991F17"/>
<stop offset="0.783654" stop-color="white"/>
</linearGradient>
<linearGradient id="paint21_linear_6010_354" x1="351.658" y1="144.516" x2="258.92" y2="304.392" gradientUnits="userSpaceOnUse">
<stop stop-color="#FF7300"/>
<stop offset="0.548077" stop-color="#991F17"/>
<stop offset="0.783654" stop-color="white"/>
</linearGradient>
</defs>
</svg>
