<svg width="141" height="435" viewBox="0 0 141 435" fill="none" xmlns="http://www.w3.org/2000/svg">
<path d="M39.5426 9.88939C41.5736 12.6396 44.5438 15.6775 46.8576 17.9054C47.5809 18.6017 47.5706 17.9388 48.0881 18.4126C49.091 19.3303 49.7437 20.4198 50.7536 21.3149C51.0867 21.6067 51.2495 20.7564 51.5882 21.0739C53.4545 22.8347 54.8415 24.7865 56.5741 26.7027C58.1318 28.4254 59.6593 30.1669 61.1615 31.9247C67.6916 39.6272 73.5921 48.1694 79.3716 56.9448C81.7016 60.4941 84.8897 64.6158 86.8414 68.551C87.0696 69.0119 86.4058 69.0401 86.4123 69.1489C86.5246 70.8424 87.3022 69.8051 87.9346 70.5986C90.4289 73.7325 92.575 77.576 94.0835 81.0609C94.7175 82.5376 92.9454 81.6169 94.2589 82.7759C94.3487 82.857 94.7279 82.2125 94.984 82.5786C95.1378 82.7991 95.3017 83.0833 95.4645 83.3919C95.9263 84.2667 96.3692 85.327 96.6383 85.8262C97.3399 87.1239 97.4289 87.3403 97.9841 88.6235C98.7357 90.3575 99.8299 92.3431 100.299 94.2888C100.396 94.7026 99.6168 94.3627 99.7127 95.0376C99.813 95.7038 100.327 97.3774 100.601 97.9135C100.882 98.4466 101.317 98.0957 101.454 98.1714C102.618 98.8209 101.639 101.104 101.626 101.339C101.707 106.015 102.159 109.969 101.141 114.429C100.561 116.924 99.5924 119.496 98.6239 121.962C98.2969 122.794 97.9671 123.625 97.6545 124.433C96.1946 128.193 95.0565 131.478 93.2211 135.016C93.0281 135.387 92.5738 134.611 92.3379 135.061C89.8134 139.86 87.2245 144.612 84.838 149.542C84.5971 150.039 85.532 149.775 85.324 150.294C84.0683 153.436 82.2662 158.67 78.7536 158.743C77.6028 160.7 76.1578 163.05 75.4781 165.061C75.0419 166.353 76.3624 165.712 75.1863 166.869C74.9208 167.131 74.6738 166.379 74.3149 166.798C72.8146 168.548 71.5258 170.716 69.9243 172.371C69.5985 172.705 69.2141 172.27 69.055 172.315C67.7448 172.716 67.7615 175 67.603 175.381C67.445 175.757 67.28 176.112 67.1087 176.451C65.9751 178.698 64.585 180.176 63.0972 182.145C62.6987 182.673 62.5702 181.59 62.1651 182.08C60.0773 184.621 58.0287 187.343 56.2856 190.078C55.8989 190.688 56.8171 190.575 56.6581 190.887C55.9497 192.258 54.784 191.756 54.0823 193.052C53.9329 193.324 54.4732 193.538 54.4857 193.619C54.6829 194.901 53.1506 194.641 52.9861 194.797C50.8822 196.748 50.8274 199.052 48.9267 201.049C48.6979 201.287 48.6278 200.268 48.0173 200.965C43.9562 205.592 39.9124 210.704 36.3862 215.72C35.8407 216.496 36.6788 216.324 36.6899 216.411C36.8314 217.813 35.3847 217.412 35.1464 217.613C33.2784 219.237 32.6723 221.702 30.3539 221.917C26.9387 226.376 23.1786 230.54 19.5952 234.825C16.5412 238.483 13.6445 242.254 11.2869 246.436C11.2211 246.55 11.8956 246.771 11.7628 246.996C10.1698 249.736 9.70085 248.633 7.4293 249.613C6.84248 249.882 7.18841 252.098 7.21034 252.273C7.27075 252.929 8.3936 253.045 8.36566 253.231C8.10465 254.773 5.4678 252.754 4.40597 254.47C4.37858 254.526 5.032 254.62 4.99742 254.793C4.89551 255.325 4.42045 255.654 4.34981 256.198C4.19791 257.458 5.4102 258.541 3.82214 259.689C3.62582 259.842 2.05066 258.706 1.39851 260.469C1.10379 261.143 0.0446794 264.366 0.0364488 265.336C-0.0237559 266.282 0.692023 265.757 0.703965 265.83C0.769588 266.34 0.855342 266.709 0.948704 266.983C1.34109 268.115 1.78327 267.769 2.66548 268.735C3.79811 269.874 1.01398 269.514 0.697463 270.014C0.374802 270.522 1.12668 272.244 1.40151 272.63C1.66713 273.028 2.00117 272.474 2.16398 272.829C3.26695 275.141 0.901187 274.059 0.562262 274.936C-0.201964 277.054 2.14258 278.19 2.73274 279.816C2.89644 280.264 2.34515 279.998 2.40238 280.42C2.46722 280.877 2.58583 281.273 2.72067 281.641C3.10271 282.651 3.54703 283.496 4.00093 285.061C4.03608 285.38 4.28051 287.724 5.76953 287.782C5.97146 287.783 6.00185 287.124 6.64305 287.529C7.59821 288.139 9.25099 289.125 10.1504 289.859C10.82 290.409 9.5352 290.641 10.6022 290.959C11.0808 291.097 10.5625 290.225 11.4225 290.508C12.2791 290.796 14.2499 291.851 14.9974 292.234C15.7574 292.63 15.048 293.001 15.0925 293.072C15.3437 293.477 16.6924 294.469 16.8277 294.529C19.5269 295.833 22.2296 296.832 24.9299 297.781C28.7707 299.126 32.6163 300.368 36.3787 302.098C36.8835 302.328 36.2878 302.826 36.3622 302.868C38.015 303.833 37.2988 301.595 38.7443 301.514C38.0532 302.731 38.8819 302.79 40.0533 303.416C40.619 303.719 40.0995 304.091 40.1334 304.163C40.716 305.269 41.7296 304.535 41.9601 304.394C42.8297 303.884 43.1257 305.006 43.7195 304.669C44.3105 304.336 43.676 303.251 44.8607 303.725C45.0105 304.316 43.664 305.182 44.4827 305.727C47.59 307.796 54.3174 309.3 57.0907 310.249C59.8616 311.199 60.7102 311.621 62.3672 312.062C65.3589 312.859 63.9625 313.355 65.5915 314.448C67.2247 315.543 67.1991 312.999 67.6378 312.622C68.0722 312.243 68.1618 312.838 68.5759 312.697C68.9889 312.555 68.4339 311.973 69.2082 312.156C69.98 312.338 71.6792 313.955 71.7486 314.551C71.8997 315.814 70.5656 316.572 72.6702 316.93C72.7913 316.949 72.6487 316.229 73.101 316.334C76.6856 317.188 80.2422 318.513 83.7998 319.422C84.2869 319.546 84.1182 318.74 84.4042 318.804C87.4151 319.484 85.957 320.175 87.0622 321.99C87.3354 320.246 88.5618 319.585 90.7319 320.412C92.0234 320.904 91.528 321.52 92.1793 322.342C92.3752 322.59 93.4713 322.46 93.5043 322.853C93.6324 324.147 92.3167 325.026 94.7035 325.402C94.808 325.416 94.7344 324.707 95.0786 324.8C97.0606 325.34 97.1812 326.344 98.6614 327.285C98.89 327.429 99.1479 327.571 99.4442 327.71C101.21 328.534 104.722 329.177 106.815 329.953C107.552 328.155 109.314 329.404 109.559 330.982C110.898 331.519 112.293 332.245 113.627 332.679C114.091 332.832 114.048 332.188 114.129 332.16C115.372 331.7 115.39 333.163 115.635 333.342C118.417 335.291 121.344 335.757 123.461 338.317C123.54 338.414 122.919 339.612 124.156 339.281C124.245 339.262 123.753 338.155 124.981 338.979C126.116 339.726 128.415 340.874 129.499 342.681C129.581 342.815 129.654 342.952 129.716 343.092C129.949 343.572 129.77 345.093 130.964 345.426C131.129 345.474 131.386 345.152 131.668 345.204C132.584 345.41 131.534 346.327 132.888 346.487C134.239 346.64 135.775 348.051 135.441 350.435C135.433 350.516 134.478 351.222 134.591 351.873C134.782 352.917 135.12 354.429 135.122 355.557C135.123 356.097 134.449 355.755 134.438 355.848C134.367 356.539 134.312 357.187 134.27 357.818C134.069 360.29 133.775 362.582 132.872 365.57C132.665 366.26 131.056 367.782 131.166 369.327C131.282 371.023 134.935 370.94 132.766 373.827C131.885 374.999 127.36 374.825 128.234 378.031C127.608 379.047 127.079 380.079 126.59 381.133C125.076 384.395 123.951 387.764 121.722 390.79C121.586 390.977 120.236 391.044 120.008 391.511C119.667 392.213 119.959 392.823 119.729 393.331C118.789 395.439 117.369 397.06 116.351 399.028C115.96 399.778 116.594 399.8 116.13 400.685C115.658 401.582 114.691 401.781 114.315 403.15C114.045 404.164 114.831 405.827 114.288 407.097C112.969 406.389 112.53 407.199 111.328 408.438C111.1 408.67 110.828 408.111 110.697 408.207C110.154 408.591 110.229 409.302 109.674 409.656C109.539 409.743 109.099 409.484 108.966 409.537C107.82 409.978 107.943 411.975 107.97 412.311C108.055 413.622 107.222 413.704 107.045 414.554C106.863 415.409 107.832 414.563 107.476 415.476C106.741 417.362 105.293 419.487 104.219 421.194C103.786 421.876 103.512 421.043 103.437 421.132C102.384 422.443 102.062 424.257 100.426 424.272C102.725 427.163 99.5833 424.937 98.8584 427.292C98.8012 427.48 100.049 428.602 100.653 428.135C101.255 427.672 101.43 426.47 102.299 425.841C102.504 425.694 104.55 425.413 104.733 425.303C106.152 424.48 104.177 422.962 104.105 422.823C103.355 421.279 105.648 420.814 105.989 420.495C107.52 419.089 108.128 417.472 109.344 416.239C110.132 415.438 111.566 416.208 111.983 415.439C113.353 412.9 111.932 410.871 115.007 409.557C115.666 409.269 116.895 410.685 116.759 408.166C116.752 408.007 116.431 406.028 117.577 405.66C117.721 405.614 118.167 405.877 118.279 405.771C119.021 405.048 118.992 404.271 119.702 403.422C120.41 402.576 121.308 401.58 121.756 400.411C122.03 399.7 121.64 398.406 121.607 397.974C121.489 396.772 122.989 396.341 122.553 395.41C122.119 394.465 120.434 394.952 120.735 393.251C121.951 393.829 123.236 394.354 124.476 394.901C126.139 391.667 127.366 388.295 129.012 385.053C129.219 384.647 129.666 385.381 129.904 384.956C130.241 384.352 130.505 383.724 130.736 383.115C131.188 381.929 131.559 380.739 132.273 379.547C133.115 378.146 134.569 376.853 135.464 375.365C134.505 373.767 136.037 371.651 136.642 369.834C136.856 369.195 136.456 369.085 136.513 368.591C136.722 366.737 137.671 368.019 138.056 367.625C139.681 365.876 136.88 364.687 137.655 362.204C137.699 362.107 139.702 360.688 139.838 360.386C140.759 358.733 139.329 360.023 139.34 358.921C139.337 358.638 139.324 358.351 139.303 358.083C139.154 356.703 138.951 355.609 139.262 353.824C139.374 353.236 140.256 351.612 139.259 350.52C139.129 350.379 138.61 350.56 138.557 350.44C137.598 348.315 139.187 347.856 139.297 346.283C139.395 344.679 137.288 343.064 136.769 342.882C135.434 342.303 136.876 343.836 136.809 343.943C136.203 345.039 135.715 343.58 135.009 342.65C133.515 343.383 132.749 342.131 134.27 341.702C134.445 341.659 134.827 342.493 135.009 342.65C135.723 341.224 135.099 339.675 133.391 339.016C133.091 338.933 132.739 338.867 132.339 338.828C131.231 338.74 131.249 339.858 129.605 337.921C128.832 337.065 129.915 336.476 129.297 335.57C127.818 333.468 124.703 332.765 122.796 331.489C122.108 331.028 123.12 330.878 122.656 330.543C121.41 329.649 119.989 329.434 118.774 328.549C118.66 328.466 119.263 328.031 118.836 327.807C115.694 326.151 112.744 325.275 109.381 323.837C107.778 323.149 105.029 321.615 103.306 321.004C102.712 320.792 102.064 320.598 101.383 320.412C98.8101 319.717 95.9596 319.217 94.0625 318.283C92.4917 317.514 93.0951 317.041 92.5669 316.355C91.5371 315.023 88.6215 315.573 88.2196 315.678C88.2014 315.68 89.5426 316.362 88.6755 316.391C87.9857 316.881 88.2359 315.688 88.2196 315.678C87.9611 315.746 85.1325 314.821 84.6289 314.494C84.3536 314.314 84.7448 313.795 84.5968 313.713C81.0873 311.771 77.439 310.21 73.5808 309.051C73.5103 309.038 73.3607 309.729 73.1981 309.689C70.9118 309.15 69.8266 307.821 68.2173 306.664C66.6066 305.506 65.1279 305.123 63.6395 305.838C62.3428 305.18 60.2154 304.933 58.9875 304.806C57.7592 304.68 58.0891 303.349 58.0013 303.287C55.2564 301.309 53.2112 301.355 50.0029 300.241C48.4849 299.717 45.5628 298.365 44.0045 297.592C42.7558 296.972 41.8823 296.97 40.7687 296.31C40.6194 296.221 41.0035 295.722 40.9635 295.681C39.9227 294.489 40.0062 296.115 39.6389 296.253C38.2811 296.748 37.5128 296.994 35.9774 295.89C35.6289 295.638 35.3012 293.207 34.643 292.805C33.7919 292.288 33.8609 293.142 32.9607 292.574C32.8848 292.526 33.0774 292.096 32.4837 291.875C31.082 291.349 29.5663 290.821 28.1075 290.284C26.6567 289.747 25.2799 289.211 23.9171 288.581C23.547 288.412 24.3244 287.939 23.8005 287.685C21.2854 286.466 18.5672 285.22 16.1846 284.333C15.6075 284.121 15.6924 284.763 15.502 284.836C14.2925 285.252 14.0129 283.496 13.8809 283.381C12.6739 282.364 11.6674 281.606 11.1489 281.168C10.6419 280.675 10.5603 280.987 10.1173 279.639C9.80143 278.591 9.56177 277.452 9.47963 276.221C9.45345 275.947 10.5746 273.863 9.24043 273.223C9.15099 273.187 7.76881 272.485 8.59113 271.698C8.64388 271.654 9.33683 272.081 9.21012 271.246C9.0843 270.4 9.51023 269.152 8.89187 268.304C8.85598 268.253 8.78686 268.186 8.7053 268.11C8.35615 267.654 7.78821 266.782 8.80664 266.19C8.89551 266.085 11.5011 265.453 10.2304 264.382C10.0259 264.202 8.39347 263.663 9.73565 262.781C9.99569 262.62 10.1442 263.187 10.6371 262.695C11.3937 261.946 11.684 260.47 13.0376 259.697C13.2746 259.561 14.7712 259.32 14.4952 258.16C14.4533 257.977 13.8437 257.877 14.0372 257.47C14.9587 255.532 16.6 253.906 17.6501 251.875C18.0162 251.168 17.044 250.94 17.3656 250.12C17.6801 249.308 18.5424 247.83 19.4328 247.384C20.3059 246.96 20.8358 248.618 21.7527 247.664C23.6914 245.652 25.4235 243.46 27.1186 241.228C28.9303 238.845 30.705 236.382 32.634 234.035C33.1937 233.355 33.1101 234.25 33.9557 233.28C37.0795 229.703 42.7995 223.769 44.6345 219.889C46.1 216.79 42.8911 219.539 44.2539 217.372C44.9116 216.328 47.0525 216.407 47.286 216.212C49.5551 214.354 50.2706 212.334 52.1102 210.481C52.4898 210.099 52.6796 210.941 52.9965 210.611C54.0849 209.487 54.8959 208.027 55.8895 206.907C56.3353 206.407 56.6604 206.834 57.0206 206.332C57.8883 205.132 58.5431 203.983 59.0719 202.556C59.1199 202.426 58.0586 202.702 58.7275 201.84C59.8123 200.445 60.8123 198.436 62.4713 197.158C62.965 196.78 63.9143 197.506 64.0778 195.975C64.1124 195.654 62.7736 195.037 64.6832 194.62C65.0014 194.552 67.8923 193.583 67.8132 191.931C67.7933 191.496 67.383 190.113 67.9735 189.652C68.0574 189.592 68.3217 190.298 68.7413 189.858C70.2091 188.304 71.5089 186.492 72.9893 184.861C73.3846 184.428 73.3914 185.523 73.9636 184.863C74.5128 184.229 75.0715 183.511 75.6134 182.764C76.6399 181.348 77.6146 179.815 78.4016 178.496C78.8489 177.745 78.0504 177.911 78.0392 177.824C77.845 176.431 79.2573 176.715 79.5153 176.486C81.111 175.042 81.5236 173.384 82.7598 171.89C83.1 171.476 83.3988 172.144 83.5054 172.088C84.5821 171.491 83.1898 171.527 83.4829 170.884C84.3042 169.074 85.5627 167.305 86.7247 165.699C87.1516 165.11 87.3056 166.193 87.6817 165.659C89.9165 162.51 92.0338 159.055 93.6562 155.615C93.9608 154.966 93.2499 155.059 93.2178 154.866C92.9864 153.526 94.7938 152.873 95.0724 152.629C96.3244 151.55 96.2109 150.761 96.9814 149.603C100.776 143.939 104.371 136.221 106.7 130.038C107.291 128.489 107.817 126.985 108.29 125.512C110.249 119.301 111.64 113.335 111.776 105.95C111.781 105.371 112.53 105.952 112.541 105.446C112.641 98.8219 110.676 92.6863 108.725 87.0547C108.56 86.585 109.477 86.9955 109.233 86.2362C108.734 84.6693 107.895 82.8167 107.017 81.4444C106.595 80.784 106.479 81.982 106.065 81.3142C105.577 80.5273 105.123 79.7351 104.68 78.8902C104.254 78.0797 103.842 77.2166 103.485 76.3873C103.178 75.6723 104.353 76.3928 103.901 75.4853C100.84 69.3403 97.6611 63.4689 93.3728 58.0815C93.078 57.712 91.6099 58.1114 91.3416 57.1191C91.6518 56.8455 92.0639 56.6022 92.4197 56.35C87.5437 47.8123 81.8728 39.9378 76.078 31.8906C75.8342 31.5533 76.8842 31.6888 76.4152 31.0341C74.7314 28.687 73.0895 26.3228 71.1946 24.0865C70.0328 22.7192 68.8009 21.4043 67.4254 20.1634C67.0684 19.8395 66.1545 20.8815 65.4483 19.6767C65.3219 19.458 64.1439 17.7193 64.0358 17.1217C64.0232 17.0359 64.7617 16.9304 64.3429 16.3905C61.9267 13.2916 59.1565 10.2514 56.3178 7.56484C55.8634 7.1371 55.7816 8.08119 55.4536 7.78064C53.1109 5.62013 51.2684 2.73452 48.9535 0.904432C47.405 -0.32601 46.9514 0.96982 45.3976 0.880188C45.1753 0.866022 44.4088 -0.0733019 43.8386 0.284865C42.3953 1.1821 41.3027 2.79715 39.7225 3.69956C39.3807 3.89836 38.6533 2.24291 38.5328 3.63948C38.525 3.73677 39.0598 4.94145 39.0057 5.38301C38.9691 5.69193 38.1853 5.80277 38.2445 6.33202C38.3056 6.86222 39.0621 6.89083 39.2708 7.67021C39.4798 8.45304 38.6731 8.70307 39.5426 9.88939ZM53.4559 304.22C52.192 304.432 52.9006 302.141 53.8081 303.105C53.8509 303.154 53.5204 304.21 53.4559 304.22ZM125.726 387.492C125.431 385.725 127.263 385.513 127.538 386.798C127.803 388.096 125.813 388.032 125.726 387.492ZM117.957 400.458C118.061 398.569 121.156 399.985 119.664 401.247C119.578 401.321 117.95 400.569 117.957 400.458ZM48.2525 4.84725C48.2164 4.85452 47.6225 4.20247 47.6314 4.1635C47.9076 3.31432 49.0968 4.6216 48.2525 4.84725ZM109.659 412.898C109.539 412.218 110.793 411.18 110.936 412.042C111.049 412.739 109.802 413.756 109.659 412.898ZM3.88003 279.592C3.84055 279.584 3.66542 278.968 3.86585 278.937C4.50679 278.836 4.52891 279.731 3.88003 279.592ZM95.7908 434.095C97.8078 430.926 96.7325 427.501 94.7248 431.024C94.3584 431.663 96.3537 430.219 96.0374 431.133C95.4476 432.818 93.3646 432.743 93.1369 434.731C93.0983 435.092 95.6845 434.276 95.7978 434.092C95.7954 434.093 95.7931 434.094 95.7908 434.095ZM51.8283 306.672C51.7958 306.694 50.9542 306.401 50.9461 306.364C50.7703 305.482 52.4649 306.071 51.8283 306.672ZM13.2713 244.94C13.2521 244.851 14.4841 243.194 14.5772 243.181C16.2145 243.115 13.7324 246.457 13.2713 244.94ZM106.869 329.919C107.473 331.011 108.455 331.541 109.555 330.981C108.65 330.633 107.793 330.266 106.869 329.919Z" fill="#FF7300"/>
</svg>
