<svg xmlns="http://www.w3.org/2000/svg" fill="none" viewBox="0 0 1116 943"><g stroke-miterlimit="10" stroke-opacity=".8" stroke-width="2.8" opacity=".9"><path stroke="url(#a)" d="M954.639 378.155c-4.055 34.596 22.54 68.579 59.401 75.905 36.86 7.325 70.03-14.782 74.08-49.377 4.06-34.596-22.54-68.58-59.4-75.905-36.858-7.326-70.027 14.781-74.081 49.377Z"/><path stroke="url(#b)" d="M939.991 375.428c-4.303 36.72 23.924 72.791 63.049 80.566 39.12 7.775 74.33-15.689 78.63-52.409 4.3-36.721-23.92-72.791-63.05-80.566-39.12-7.776-74.325 15.689-78.629 52.409Z"/><path stroke="url(#c)" d="M924.741 372.581c-4.589 39.156 25.512 77.621 67.233 85.912 41.726 8.291 79.266-16.73 83.856-55.887 4.58-39.157-25.52-77.621-67.24-85.912-41.718-8.291-79.26 16.73-83.849 55.887Z"/><path stroke="url(#d)" d="M908.992 369.635c-4.905 41.852 27.268 82.964 71.861 91.826 44.597 8.862 84.717-17.882 89.627-59.734 4.9-41.853-27.27-82.965-71.865-91.827-44.592-8.862-84.718 17.882-89.623 59.735Z"/><path stroke="url(#e)" d="M892.834 366.607c-5.246 44.759 29.162 88.727 76.852 98.204 47.694 9.478 90.604-19.124 95.844-63.883 5.25-44.76-29.16-88.728-76.848-98.205-47.69-9.478-90.602 19.124-95.848 63.884Z"/><path stroke="url(#f)" d="M876.344 363.514c-5.607 47.839 31.168 94.832 82.14 104.962 50.976 10.13 96.836-20.44 102.446-68.279 5.6-47.839-31.17-94.832-82.143-104.962-50.971-10.129-96.837 20.44-102.443 68.279Z"/><path stroke="url(#g)" d="M859.579 360.366c-5.984 51.061 33.268 101.219 87.671 112.031 54.4 10.812 103.36-21.817 109.34-72.878 5.99-51.061-33.27-101.219-87.669-112.031-54.404-10.811-103.358 21.817-109.342 72.878Z"/><path stroke="url(#h)" d="M842.588 357.173c-6.375 54.4 35.443 107.838 93.405 119.356 57.961 11.519 110.117-23.243 116.487-77.643 6.38-54.399-35.44-107.837-93.4-119.356-57.961-11.519-110.116 23.243-116.492 77.643Z"/><path stroke="url(#i)" d="M825.414 353.943c-6.778 57.835 37.681 114.646 99.301 126.892 61.621 12.246 117.065-24.711 123.845-82.545 6.78-57.835-37.68-114.646-99.299-126.892-61.621-12.246-117.069 24.711-123.847 82.545Z"/><path stroke="url(#j)" d="M808.083 350.683c-7.19 61.349 39.971 121.614 105.337 134.604 65.366 12.99 124.18-26.213 131.37-87.562 7.19-61.349-39.97-121.614-105.333-134.604-65.366-12.99-124.184 26.213-131.374 87.562Z"/><path stroke="url(#k)" d="M790.623 347.396c-7.61 64.932 42.305 128.716 111.488 142.465 69.183 13.749 131.439-27.743 139.049-92.675 7.61-64.932-42.309-128.716-111.492-142.465-69.183-13.749-131.435 27.743-139.045 92.675Z"/><path stroke="url(#l)" d="M773.054 344.089c-8.037 68.571 44.675 135.929 117.735 150.448 73.06 14.52 138.801-29.298 146.841-97.869 8.03-68.571-44.679-135.928-117.739-150.448-73.06-14.519-138.801 29.298-146.837 97.869Z"/><path stroke="url(#m)" d="M755.39 340.762c-8.468 72.258 47.079 143.237 124.067 158.538 76.989 15.3 146.263-30.874 154.733-103.131 8.47-72.258-47.077-143.238-124.066-158.538-76.989-15.3-146.265 30.873-154.734 103.131Z"/><path stroke="url(#n)" d="M737.651 337.42c-8.906 75.986 49.507 150.628 130.468 166.718 80.961 16.089 153.811-32.466 162.721-108.452 8.9-75.987-49.512-150.629-130.472-166.718-80.961-16.09-153.812 32.466-162.717 108.452Z"/><path stroke="url(#o)" d="M719.84 334.065c-9.347 79.749 51.959 158.088 136.929 174.975 84.971 16.886 161.431-34.075 170.781-113.824 9.34-79.75-51.964-158.089-136.934-174.976-84.971-16.886-161.43 34.075-170.776 113.825Z"/><path stroke="url(#p)" d="M701.971 330.697c-9.791 83.543 54.431 165.609 143.444 183.299 89.013 17.69 169.105-35.695 178.905-119.239 9.79-83.543-54.435-165.609-143.449-183.299-89.013-17.69-169.109 35.695-178.9 119.239Z"/><path stroke="url(#q)" d="M684.051 327.32c-10.239 87.364 56.921 173.183 150.005 191.682 93.085 18.499 176.844-37.328 187.084-124.692 10.24-87.364-56.922-173.183-150.006-191.682-93.084-18.499-176.844 37.327-187.083 124.692Z"/><path stroke="url(#r)" d="M666.086 323.932c-10.689 91.208 59.425 180.803 156.605 200.116C919.87 543.36 1007.31 485.078 1018 393.87c10.69-91.209-59.421-180.803-156.6-200.116-97.18-19.313-184.625 38.97-195.314 130.178Z"/><path stroke="url(#s)" d="M648.081 320.538c-11.142 95.073 61.943 188.464 163.24 208.595 101.298 20.131 192.449-40.621 203.589-135.694 11.14-95.072-61.942-188.463-163.239-208.594-101.298-20.131-192.448 40.621-203.59 135.693Z"/><path stroke="url(#t)" d="M630.043 317.136c-11.597 98.955 64.472 196.16 169.906 217.113 105.433 20.953 200.301-42.28 211.901-141.235 11.6-98.955-64.471-196.16-169.904-217.113-105.434-20.953-200.306 42.28-211.903 141.235Z"/><path stroke="url(#u)" d="M611.972 313.729c-12.054 102.853 67.013 203.887 176.6 225.666 109.587 21.778 208.197-43.946 220.248-146.799 12.06-102.853-67.009-203.887-176.597-225.666-109.587-21.778-208.197 43.946-220.251 146.799Z"/><path stroke="url(#v)" d="M593.876 310.317c-12.513 106.766 69.561 211.644 183.317 234.251 113.756 22.606 216.117-45.618 228.627-152.384 12.51-106.766-69.559-211.644-183.315-234.251s-216.117 45.618-228.629 152.384Z"/></g><g stroke-miterlimit="10" stroke-opacity=".8" stroke-width="1.844" opacity=".9"><path stroke="url(#w)" d="M97.808 663.708c1.061-22.916-17.985-44.009-42.54-47.114-24.556-3.104-45.322 12.956-46.382 35.872-1.06 22.915 17.986 44.009 42.541 47.113 24.555 3.104 45.321-12.956 46.381-35.871Z"/><path stroke="url(#x)" d="M107.557 664.82c1.126-24.323-19.09-46.712-45.152-50.007-26.063-3.295-48.103 13.752-49.229 38.074-1.125 24.323 19.09 46.712 45.153 50.007 26.062 3.295 48.103-13.752 49.228-38.074Z"/><path stroke="url(#y)" d="M117.708 665.984c1.201-25.936-20.357-49.811-48.15-53.324-27.792-3.514-51.296 14.663-52.496 40.6-1.2 25.937 20.357 49.811 48.15 53.325 27.792 3.513 51.296-14.664 52.496-40.601Z"/><path stroke="url(#z)" d="M128.191 667.19c1.283-27.723-21.758-53.241-51.464-56.996-29.705-3.756-54.827 15.673-56.11 43.396-1.283 27.722 21.759 53.24 51.464 56.995 29.706 3.756 54.827-15.673 56.11-43.395Z"/><path stroke="url(#A)" d="M138.946 668.43c1.372-29.648-23.269-56.938-55.038-60.955-31.77-4.016-58.635 16.762-60.007 46.41-1.372 29.648 23.27 56.938 55.038 60.955 31.769 4.016 58.635-16.762 60.007-46.41Z"/><path stroke="url(#B)" d="M149.923 669.698c1.466-31.688-24.871-60.856-58.826-65.148-33.955-4.293-62.67 17.915-64.136 49.603-1.467 31.687 24.87 60.855 58.825 65.148 33.955 4.293 62.67-17.915 64.137-49.603Z"/><path stroke="url(#C)" d="M161.083 670.989c1.565-33.822-26.546-64.954-62.787-69.536-36.242-4.582-66.89 19.122-68.456 52.944-1.565 33.822 26.546 64.954 62.787 69.536 36.242 4.582 66.89-19.122 68.456-52.944Z"/><path stroke="url(#D)" d="M172.393 672.299c1.667-36.033-28.282-69.201-66.893-74.083-38.612-4.881-71.264 20.372-72.932 56.406-1.668 36.033 28.281 69.201 66.893 74.083 38.611 4.881 71.264-20.372 72.932-56.406Z"/><path stroke="url(#E)" d="M183.825 673.625c1.773-38.308-30.067-73.571-71.116-78.76-41.05-5.19-75.764 21.658-77.537 59.967-1.772 38.308 30.067 73.57 71.117 78.76 41.049 5.19 75.763-21.658 77.536-59.967Z"/><path stroke="url(#F)" d="M195.362 674.965c1.88-40.637-31.895-78.042-75.439-83.547-43.544-5.506-80.368 22.974-82.249 63.611-1.88 40.637 31.895 78.042 75.439 83.547 43.544 5.505 80.368-22.975 82.249-63.611Z"/><path stroke="url(#G)" d="M206.985 676.314c1.99-43.009-33.757-82.599-79.844-88.425-46.087-5.827-85.061 24.316-87.052 67.326-1.99 43.01 33.757 82.599 79.844 88.426 46.087 5.826 85.061-24.317 87.052-67.327Z"/><path stroke="url(#H)" d="M218.68 677.673c2.102-45.421-35.649-87.229-84.318-93.382-48.67-6.153-89.828 25.679-91.93 71.099-2.102 45.421 35.648 87.229 84.318 93.382 48.669 6.153 89.828-25.679 91.93-71.099Z"/><path stroke="url(#I)" d="M230.438 679.04c2.215-47.862-37.566-91.919-88.853-98.403-51.286-6.483-94.658 27.06-96.873 74.922-2.215 47.863 37.566 91.919 88.852 98.403 51.287 6.484 94.659-27.06 96.874-74.922Z"/><path stroke="url(#J)" d="M242.247 680.413c2.329-50.331-39.504-96.661-93.437-103.479-53.933-6.819-99.542 28.456-101.871 78.788-2.33 50.331 39.503 96.661 93.436 103.479 53.933 6.819 99.542-28.456 101.872-78.788Z"/><path stroke="url(#K)" d="M254.103 681.792c2.445-52.824-41.46-101.448-98.064-108.605-56.604-7.156-104.472 29.866-106.917 82.691-2.444 52.824 41.46 101.449 98.064 108.605 56.604 7.156 104.473-29.866 106.917-82.691Z"/><path stroke="url(#L)" d="M265.999 683.176c2.561-55.337-43.433-106.275-102.73-113.771-59.297-7.497-109.443 31.286-112.004 86.624-2.56 55.337 43.433 106.275 102.73 113.771 59.297 7.497 109.443-31.286 112.004-86.624Z"/><path stroke="url(#M)" d="M277.927 684.565c2.678-57.868-45.419-111.135-107.428-118.975-62.009-7.839-114.448 32.717-117.126 90.586-2.678 57.868 45.419 111.135 107.428 118.975 62.009 7.839 114.448-32.717 117.126-90.586Z"/><path stroke="url(#N)" d="M289.886 685.959c2.796-60.415-47.417-116.025-112.154-124.209-64.737-8.185-119.484 34.156-122.28 94.571-2.795 60.414 47.418 116.025 112.155 124.209 64.737 8.184 119.483-34.157 122.279-94.571Z"/><path stroke="url(#O)" d="M301.872 687.353c2.914-62.974-49.427-120.94-116.907-129.471-67.48-8.532-124.546 35.603-127.46 98.577C54.59 719.434 106.93 777.4 174.41 785.931c67.48 8.532 124.546-35.603 127.461-98.578Z"/><path stroke="url(#P)" d="M313.88 688.753c3.033-65.546-51.445-125.88-121.681-134.759-70.235-8.88-129.632 37.058-132.665 102.604-3.033 65.546 51.445 125.88 121.681 134.759 70.235 8.88 129.632-37.058 132.665-102.604Z"/><path stroke="url(#Q)" d="M325.909 690.154c3.153-68.129-53.471-130.839-126.474-140.068-73.003-9.23-134.739 38.517-137.892 106.645-3.152 68.128 53.472 130.839 126.475 140.068 73.002 9.229 134.738-38.517 137.891-106.645Z"/><path stroke="url(#R)" d="M337.956 691.556c3.273-70.72-55.506-135.816-131.285-145.397-75.78-9.58-139.865 39.983-143.137 110.703-3.273 70.72 55.505 135.817 131.285 145.397 75.779 9.58 139.864-39.983 143.137-110.703Z"/></g><g filter="url(#S)"><ellipse cx="605" cy="471.5" fill="#fff" rx="314" ry="285.5"/></g><path fill="#FF7300" d="M42.833 500.853c5 .094 11.2.732 15.961 1.222 1.5.156.715.549 1.746.672 2.015.24 3.902.087 5.896.328.664.081-.182.735.519.805a55.34 55.34 0 0 0 3.648.228c2.441.081 4.913.001 7.51.024 18.027.023 36.143-1.423 54.005-4.513a121.95 121.95 0 0 0 2.625-.508c6.043-1.203 13.325-2.907 18.016-6.576.547-.421-.131-.667-.052-.782 1.172-1.784 1.346-.437 2.491-1.17 3.805-2.488 7.131-6.611 9.659-10.812a59.54 59.54 0 0 0 1.327-2.306c1.124-2.093-1.088-.633.676-2.366.121-.123.364.713.747.178.873-1.214 2.112-3.761 2.685-4.778 1.102-1.938 1.266-2.287 2.191-4.186 1.272-2.614 2.969-5.634 4.058-8.58.23-.629-.702-.067-.394-1.083.314-1.021 1.422-3.607 1.908-4.435.491-.831.812-.271.981-.385 1.419-.928 1.321-4.489 1.428-4.884 2.129-7.388 4.91-13.38 7.013-20.304.491-1.628.961-3.301 1.416-4.994 1.005-3.741 1.928-7.541 2.871-11.02 1.629-6.012 3.237-11.063 4.584-16.98.143-.624-.764-.068-.592-.831 1.828-8.096 3.701-16.133 5.954-24.129.226-.796.648.386.912-.404 1.61-4.856 4.567-12.464 2.386-16.034.306-1.224.637-2.559.989-3.868.622-2.327 1.341-4.656 2.159-6.492.835-1.865 1.07.215 1.363-2.266.067-.551-.721-.005-.573-.826.641-3.49 1.858-7.151 2.676-10.633.166-.709-.433-.701-.463-.928-.227-1.944 2.15-4.219 2.513-4.759 2.203-3.488 3.879-6.44 6.504-9.172a18.282 18.282 0 0 1 1.786-1.615c.886-.689-.636-.473.22-1.157 3.4-2.609 7.068-4.423 10.856-5.816 1.241-.463 2.937-.936 4.584-.924 1.488.04.139.712.823.779 2.773.459 3.578-.463 5.861.538.452.216.001.646.065.733.984 1.37 2.584.594 2.923.708 4.293 1.465 6.063 4.054 9.819 5.886.453.222-.183-.935 1.041-.286.888.473 1.739.935 2.64 1.437 7.379 4.113 14.716 8.83 21.469 13.556 1.174.822.028.737.071.84.71 1.628 2.24.971 2.66 1.17 3.324 1.613 5.642 4.389 8.617 4.326 11.44 7.663 23.401 14.403 34.591 22.167a331.79 331.79 0 0 1 4.373 3.074c.161.113-.479.517-.156.739 3.87 2.656 3.624 1.307 6.924 1.661.837.094 2.18 2.534 2.332 2.735.495.72-.669 1.244-.476 1.433 1.611 1.521 2.788-1.559 5.301-.377.076.041-.51.439-.324.592.585.479 1.339.554 1.921 1.033 1.302 1.075 1.279 2.831 3.988 2.784.331-.03.494-1.886 2.727-1.162.664.224 2.807.672 4.605.857.604.079 1.121.112 1.422.146 1.065.101.36.718.431.744 3.113.546 2.017.94 3.947 1.734 2.048.633.703-1.92 1.194-2.422.487-.477 2.858-.913 3.491-1.058.63-.11.183.606.713.436 3.499-1.28.522-2.017 1.186-3.026a4.635 4.635 0 0 1 1.376-1.449c1.262-.835 3.199-1.384 4.392-2.842.433-.537-.274-.337.027-.866 1.166-2.09 2.462-3.043 3.294-5.764.137-.443.11-3.015 1.595-3.869.214-.122.396.644.989-.232.882-1.301 2.283-3.764 2.896-5.338.393-1.009-.614-.482-.269-1.156.052-.102.135-.231.262-.4.421-.565.279.813 1.036-.274.755-1.075 2.21-4.052 2.743-5.201.533-1.142-.35-.803-.345-.914.046-.664.794-2.969.887-3.169 4.481-9.746 9.24-18.537 12.561-28.529.257-.774-.572-.501-.54-.622.701-2.736 1.645-.036 2.89-1.676-1.401-.203-.762-1.219-.24-3.135.251-.927-.43-.615-.452-.716-.288-1.626 1.021-2.183 1.312-2.361 1.063-.639.507-1.897 1.217-2.334.706-.439.962 1.219 1.576-.604-.299-.662-1.979.246-1.715-1.179.382-2.051 1.202-4.632 2.151-7.322 1.56-4.413 3.443-9.057 4.311-11.66 1.387-4.167 1.7-5.545 2.606-7.947 1.627-4.333.223-2.988.61-5.86.386-2.885 2.264-.878 2.869-1.132.602-.247.224-.82.634-1.227.409-.407.436.739.868-.371.433-1.11.463-4.478.067-5.028-.838-1.165-2.377-.089-1.114-2.987.073-.166.511.568.761-.079 1.969-5.143 3.54-10.616 5.422-15.785.259-.709.745.125.903-.285 1.653-4.287.087-3.013-.491-5.782 1.514 1 2.899-.039 3.835-3.387.561-2.004-.259-1.869-.414-3.302-.05-.422.846-1.724.574-2.071-.881-1.161-2.507-.148-1.054-3.472.065-.144.544.504.725-.006 1.175-3.314.116-4.035.984-7.729.682-2.9 2.8-7.766 3.844-11.01.808.262 1.35-.211 1.618-.93.361-.984.265-2.355-.251-3.282.662-2.096 1.26-4.397 2.058-6.38.272-.676.67-.055.755-.125 1.324-1.074.371-2.373.464-2.836.524-2.409 1.325-4.501 2.216-6.557.956-1.969 1.666-4.386 4.093-6.159.215-.171.442-.348.683-.525.135-.09-.055-1.583 1.793-1.139.084.055-1.444 1.124 1.034.479 2.526-.588 6.924.147 10.171-.275.777-.11 2.861-1.06 4.369-.058.195.135-.066.499.211.741.312.267.599.287.887.252.513-.07 1.069-.336 1.716.497 1.028 1.278 3.252 2.401 6.545 2.074.097-.009 1.023-.966 2.016-.794 1.601.276 3.834.882 5.491 1.181.802.144.411-.61.553-.596 5.441.643 9.121 2.062 14.704 3.762 1.017.31 4.245.232 6.031 1.51 1.96 1.409-1.199 3.869 3.951 4.647 2.046.321 5.935-2.805 8.778.523 3.502.986 6.712 2.394 9.884 3.856 3.231 1.49 6.425 3.039 9.932 4.298.31.111 1.764-.481 2.459-.121 1.025.534 1.353 1.307 2.074 1.71 3.013 1.702 6.029 2.764 8.927 4.421 1.103.632.439.91 1.746 1.666 1.307.758 2.545.598 4.149 1.918 1.21 1 1.79 3.079 3.465 4.259.817-1.254 2.023-.52 4.371.412.453.18.275-.531.503-.469.937.244 1.449 1.052 2.354 1.254.22.05.491-.382.686-.366 1.667.123 3.172 2.382 3.423 2.771.98 1.488 1.971 1.318 2.865 2.222.894.903-.873.25.258 1.163 2.342 1.89 5.635 3.858 8.184 5.504 1.018.652.687-.365.841-.285 2.21 1.197 3.949 3.172 5.851 2.778-.434 3.894 1.455.528 4.085 3.06.206.201-.394 1.79-1.434 1.409-1.041-.383-2.138-1.706-3.607-2.198-.349-.118-2.898.097-3.183.027-2.227-.549-1.152-2.804-1.177-2.982-.314-1.944-3.313-1.858-3.927-2.108-2.815-1.148-4.785-2.789-7.113-3.782-1.521-.651-2.507.651-3.573-.061-3.543-2.355-3.657-5.069-8.113-5.42-.953-.073-1.118 1.884-3.062-.866-.124-.175-1.456-2.423-3.009-2.375-.194.007-.446.459-.657.389-1.404-.474-2.057-1.315-3.537-1.911-1.488-.601-3.301-1.258-4.809-2.264-.914-.61-1.696-2.113-2.053-2.566-.999-1.292-2.917-1.022-3.36-2.169-.453-1.156 1.74-1.461-.203-3.036-.683 1.163-1.484 2.305-2.216 3.452-4.207-2.141-8.28-4.428-12.597-6.284a66.756 66.756 0 0 0-1.521-.631c-.606-.239-.265.682-.919.444-2.769-1.004-4.991-2.41-7.942-3.255-2.287-.651-4.978-.756-7.387-1.321-.97-1.931-4.65-2.508-7.183-3.35-.889-.297-.713-.674-1.328-.98-2.306-1.129-1.51.493-2.232.524-3.069.158-2.58-2.899-6.024-3.614-.18-.04-2.752 1.074-3.066 1.115-2.074.245-.206-.629-1.39-.997-2.171-.668-3.652-1.353-6.349-1.334-.777.009-2.78.713-4.13-.29-.181-.132.009-.652-.145-.707-2.78-.944-3.086.746-4.776 1.109-1.544.336-3.666-.847-4.367-1.338a2.514 2.514 0 0 1-.158-.115c-.699-.556-.302-.581.22-.503.4.061.886.191.923.157.649-.613.024-.834-.842-.972-.469-.072-.972-.12-1.458-.193-.055-1.686-2.051-1.748-1.452-.207.068.167 1.173.104 1.452.207-1.392 1.522-3.487 1.551-5.752-.059-1.048-.733-.05-1.617-3.345-1.261-1.469.206-.845 1.319-1.988 1.744-1.323.523-2.257.632-3.359 1.11-.331.148-.382.143-.467.162-.082.017-.22.111-.386.3-.332.375-.703 1.033-.95 1.696-.36.99.621.297.404.977-.566 1.834-1.618 3.466-2.036 5.53-.037.189.734-.054.539.576-1.317 4.346-2.777 8.164-4.143 12.69-.132.439-.265.892-.399 1.361-.706 2.473-1.599 7.036-2.381 9.586-1.355 4.433-3.798 9.697-4.63 13.586-.542 2.521.24 2.166.379 3.351.271 2.289-2.249 5.54-2.617 5.961-.013.017.436-2.18-.21-1.12-.866.483.214 1.094.21 1.12-.239.279-1.577 4.53-1.696 5.421-.062.48.612.39.567.637a120.106 120.106 0 0 1-4.491 17.421c-.042.099-.669-.249-.759-.014-1.268 3.281-1.074 5.67-1.403 8.592-.328 2.917-1.149 5.074-2.79 6.371-.48 2.132-1.902 4.985-2.738 6.606-.839 1.633.385 2.274.364 2.434-.516 3.965-1.645 6.361-2.946 9.608-.341.852-.691 1.75-1.045 2.74-.826 2.317-2.203 6.977-2.95 9.539-.584 2.021-1.311 3.107-1.779 4.996-.063.254.596.214.591.296-.062 2.286-1.097.8-1.498 1.128-1.459 1.178-2.28 1.93-2.84 4.682-.125.622 1.198 3.127.884 4.271-.407 1.474-.905.653-1.321 2.208-.036.131.413.281.031 1.179-1.783 4.214-3.964 8.694-5.861 13.053-.261.594.762.142.396 1.003-1.725 4.062-3.834 8.437-6.077 12.123-.55.897-.723.075-.965.209-.822.469-1.088 1.415-1.184 2.209-.079.637-.045 1.171-.099 1.303-3.18 7.257-6.099 11.736-11.761 19.802-.177.218-.698 1.404-1.827 2.647-.819.983-1.966 1.929-3.071 1.932-.167.016-2.273-.067-3.227 1.466-.07.096 1.286.119-.535 1.028-1.788.891-4.959 2.643-8.133 2.36-1.001-.077-3.114-1.016-5.824-.416l-.163.056c.04.11-4.346 1.858-5.371-.11-.142-.323.44-1.838-2.472-1.836-.568-.01.242.659-1.17.431-2.17-.359-4.538-1.83-7.096-2.192-.443-.055-2.631.177-3.547-1.259-.142-.224.484-.539-.157-.933-3.114-1.916-6.574-3.4-9.498-5.538-1.027-.753-.021-1.221-1.038-2.099-.778-.673-2.235-1.75-3.524-2.392a5.523 5.523 0 0 0-1.038-.404c-1.39-.356-.882 1.651-2.677.696-7.891-4.214-14.904-9.584-22.365-14.361-1.104-.708-.453.308-2.104-.706-6.08-3.733-16.785-9.791-21.474-13.942-3.754-3.326 1.908-.661-1.135-2.938-1.461-1.091-4.032-.674-4.428-.851-3.956-1.759-6.13-3.93-9.546-5.665-.712-.36-.381.625-.986.31-.982-.506-1.96-1.119-2.882-1.706-1.033-.654-2.029-1.294-3.004-1.802-.879-.457-.969.09-1.718-.366-1.819-1.094-3.36-2.154-4.938-3.473-.144-.12 1.246-.165-.103-.849-2.148-1.086-4.909-2.803-6.858-2.65-.527.066-.704 1.226-1.143.426-.119-.141-.112-1.671-.751-.196-.038.077-.167.316-.493.672-.917.9-2.441 2.276-3.793 2.126-.502-.062-2.043-.572-2.766.073-.092.089.663.385.042.83-1.347.965-2.718 1.989-3.445 2.806a12.123 12.123 0 0 0-1.57 2.086c-.307.536.751.167.296.946-1.235 2.107-2.854 5.608-4.05 8.589-.446 1.104-.712.154-.797.219-1.358 1.023-.348 2.239-.406 2.698-.389 2.924-1.56 4.961-2.069 7.685-.142.754.597.376.614.537.154 1.671-.658.254-1.013 1.195-.787 2.089-1.353 4.455-1.814 6.757-.121.604-.24 1.225-.354 1.829-.193 1.036.768.029.585.963-1.071 5.558-2.367 11.335-3.934 16.68-.297 1.012-.704.246-.875.433-1.189 1.273-.468 3.688-.465 4.213.026 2.364-.651 3.134-1.003 5.151-1.703 9.828-4.843 21.779-7.429 30.891a387.608 387.608 0 0 1-4.146 13.669c-1.968 6.109-3.941 11.953-6.12 18.545-.24.719.713.24.515.862-2.587 8-5.843 15.642-9.178 23.505-.277.647.786.017.361 1.065-.868 2.152-2.186 4.796-3.467 6.798-.62.97-.454-.675-1.07.309-1.44 2.291-2.878 4.802-4.224 7.268-.58 1.059.98-.127.174 1.219a107.33 107.33 0 0 1-1.12 1.823c-4.966 8.37-13.615 17.437-24.153 20.475-.753.239-1.913-.865-3.33-.06.023.424.188.873.282 1.301-4.284 1.572-8.536 2.598-12.736 3.412-10.599 2.008-21.058 3.015-31.639 3.981-.621.055.525.728-.677.838-6.959.632-13.727 1.333-20.951.844-.71-.05-.41-1.423-2.491-1.152-.378.054-3.522.307-4.363.605-.11.046.473.679-.547.706a95.49 95.49 0 0 1-3.255.022 144.04 144.04 0 0 1-14.752-.906c-.94-.109.095-.739-.57-.823-4.755-.587-9.97-.446-14.338-1.304-2.918-.562-1.77-1.68-3.302-2.893-.218-.174-2.042-.238-2.132-.907-.237-1.693.705-3.534.35-5.341-.075-.397-2.711.026-1.15-.915.111-.068 2.03-.358 2.506-.659.335-.211-.242-.911.44-1.174.68-.261 1.398.338 2.502.058 1.1-.281.672-1.087 2.834-1.056Zm372.553-217.624c-1.128 1.382 1.076 2.346 1.078.459-.003-.093-1.022-.531-1.078-.459Zm112.42-93.662c-1.538-1.836-3.51-.98-2.444.362 1.057 1.343 2.907.195 2.444-.362Zm20.338 9.28c-1.829-1.942-3.782.861-1.089 1.541.156.041 1.195-1.428 1.089-1.541ZM44.858 510.902c-.023-.033-1.358-.147-1.39-.118-.758.715 1.908.942 1.39.118Zm522.981-301.595c-.439-.807-2.662-1.531-2.117-.534.438.8 2.661 1.533 2.117.534ZM378.571 361.885c-.043.004-.629.778-.456.878.567.334 1.206-.908.456-.878Zm221.326-132.25c-4.636-3.165-5.968-7.367-1.011-3.774.898.65-2.489-.55-1.444.429 1.912 1.79 4.305 1.247 5.998 3.472.305.404-3.282.058-3.553-.13l.01.003Zm-187.54 53.628c-.037.015-.478 1.29-.458 1.328.501.924 1.386-1.63.458-1.328Zm-83.176 74.22c-.014-.051-.754-.533-1.487-.993-.61-.384-1.215-.748-1.271-.748-1.008.103-.208.989.752 1.609 1.043.672 2.253 1.05 2.006.132Zm106.268-161.021a5.43 5.43 0 0 1-.113-1.367c.073-1.168.518-2.175 1.413-2.802-.324.992-.607 1.929-.918 2.943-.124.402-.251.811-.382 1.226Z"/><defs><linearGradient id="a" x1="1028.72" x2="1004.21" y1="328.778" y2="452.107" gradientUnits="userSpaceOnUse"><stop stop-color="#FFC697"/><stop offset=".317" stop-color="#FF7300"/><stop offset=".764" stop-color="#FF7300"/></linearGradient><linearGradient id="b" x1="1018.62" x2="992.609" y1="323.019" y2="453.921" gradientUnits="userSpaceOnUse"><stop stop-color="#FFC697"/><stop offset=".317" stop-color="#FF7300"/><stop offset=".764" stop-color="#FF7300"/></linearGradient><linearGradient id="c" x1="1008.59" x2="980.852" y1="316.694" y2="456.282" gradientUnits="userSpaceOnUse"><stop stop-color="#FFC697"/><stop offset=".317" stop-color="#FF7300"/><stop offset=".764" stop-color="#FF7300"/></linearGradient><linearGradient id="d" x1="998.615" x2="968.965" y1="309.9" y2="459.099" gradientUnits="userSpaceOnUse"><stop stop-color="#FFC697"/><stop offset=".317" stop-color="#FF7300"/><stop offset=".764" stop-color="#FF7300"/></linearGradient><linearGradient id="e" x1="988.682" x2="956.972" y1="302.723" y2="462.285" gradientUnits="userSpaceOnUse"><stop stop-color="#FFC697"/><stop offset=".317" stop-color="#FF7300"/><stop offset=".764" stop-color="#FF7300"/></linearGradient><linearGradient id="f" x1="978.787" x2="944.895" y1="295.235" y2="465.776" gradientUnits="userSpaceOnUse"><stop stop-color="#FFC697"/><stop offset=".317" stop-color="#FF7300"/><stop offset=".764" stop-color="#FF7300"/></linearGradient><linearGradient id="g" x1="968.921" x2="932.747" y1="287.488" y2="469.514" gradientUnits="userSpaceOnUse"><stop stop-color="#FFC697"/><stop offset=".317" stop-color="#FF7300"/><stop offset=".764" stop-color="#FF7300"/></linearGradient><linearGradient id="h" x1="959.08" x2="920.54" y1="279.53" y2="473.459" gradientUnits="userSpaceOnUse"><stop stop-color="#FFC697"/><stop offset=".317" stop-color="#FF7300"/><stop offset=".764" stop-color="#FF7300"/></linearGradient><linearGradient id="i" x1="949.261" x2="908.288" y1="271.398" y2="477.57" gradientUnits="userSpaceOnUse"><stop stop-color="#FFC697"/><stop offset=".317" stop-color="#FF7300"/><stop offset=".764" stop-color="#FF7300"/></linearGradient><linearGradient id="j" x1="939.457" x2="895.993" y1="263.121" y2="481.824" gradientUnits="userSpaceOnUse"><stop stop-color="#FFC697"/><stop offset=".317" stop-color="#FF7300"/><stop offset=".764" stop-color="#FF7300"/></linearGradient><linearGradient id="k" x1="929.668" x2="883.667" y1="254.721" y2="486.195" gradientUnits="userSpaceOnUse"><stop stop-color="#FFC697"/><stop offset=".317" stop-color="#FF7300"/><stop offset=".764" stop-color="#FF7300"/></linearGradient><linearGradient id="l" x1="919.891" x2="871.312" y1="246.22" y2="490.667" gradientUnits="userSpaceOnUse"><stop stop-color="#FFC697"/><stop offset=".317" stop-color="#FF7300"/><stop offset=".764" stop-color="#FF7300"/></linearGradient><linearGradient id="m" x1="910.124" x2="858.933" y1="237.631" y2="495.221" gradientUnits="userSpaceOnUse"><stop stop-color="#FFC697"/><stop offset=".317" stop-color="#FF7300"/><stop offset=".764" stop-color="#FF7300"/></linearGradient><linearGradient id="n" x1="900.368" x2="846.535" y1="228.968" y2="499.849" gradientUnits="userSpaceOnUse"><stop stop-color="#FFC697"/><stop offset=".317" stop-color="#FF7300"/><stop offset=".764" stop-color="#FF7300"/></linearGradient><linearGradient id="o" x1="890.616" x2="834.117" y1="220.24" y2="504.538" gradientUnits="userSpaceOnUse"><stop stop-color="#FFC697"/><stop offset=".317" stop-color="#FF7300"/><stop offset=".764" stop-color="#FF7300"/></linearGradient><linearGradient id="p" x1="880.871" x2="821.685" y1="211.458" y2="509.28" gradientUnits="userSpaceOnUse"><stop stop-color="#FFC697"/><stop offset=".317" stop-color="#FF7300"/><stop offset=".764" stop-color="#FF7300"/></linearGradient><linearGradient id="q" x1="871.134" x2="809.24" y1="202.628" y2="514.07" gradientUnits="userSpaceOnUse"><stop stop-color="#FFC697"/><stop offset=".317" stop-color="#FF7300"/><stop offset=".764" stop-color="#FF7300"/></linearGradient><linearGradient id="r" x1="861.4" x2="796.783" y1="193.754" y2="518.899" gradientUnits="userSpaceOnUse"><stop stop-color="#FFC697"/><stop offset=".317" stop-color="#FF7300"/><stop offset=".764" stop-color="#FF7300"/></linearGradient><linearGradient id="s" x1="851.671" x2="784.316" y1="184.845" y2="523.766" gradientUnits="userSpaceOnUse"><stop stop-color="#FFC697"/><stop offset=".317" stop-color="#FF7300"/><stop offset=".764" stop-color="#FF7300"/></linearGradient><linearGradient id="t" x1="841.946" x2="771.84" y1="175.901" y2="528.663" gradientUnits="userSpaceOnUse"><stop stop-color="#FFC697"/><stop offset=".317" stop-color="#FF7300"/><stop offset=".764" stop-color="#FF7300"/></linearGradient><linearGradient id="u" x1="832.223" x2="759.357" y1="166.93" y2="533.589" gradientUnits="userSpaceOnUse"><stop stop-color="#FFC697"/><stop offset=".317" stop-color="#FF7300"/><stop offset=".764" stop-color="#FF7300"/></linearGradient><linearGradient id="v" x1="822.505" x2="746.866" y1="157.933" y2="538.541" gradientUnits="userSpaceOnUse"><stop stop-color="#FFC697"/><stop offset=".317" stop-color="#FF7300"/><stop offset=".764" stop-color="#FF7300"/></linearGradient><linearGradient id="w" x1="51.427" x2="61.814" y1="699.579" y2="617.422" gradientUnits="userSpaceOnUse"><stop stop-color="#FFC697"/><stop offset=".317" stop-color="#FF7300"/><stop offset=".764" stop-color="#FF7300"/></linearGradient><linearGradient id="x" x1="58.329" x2="69.353" y1="702.894" y2="615.692" gradientUnits="userSpaceOnUse"><stop stop-color="#FFC697"/><stop offset=".317" stop-color="#FF7300"/><stop offset=".764" stop-color="#FF7300"/></linearGradient><linearGradient id="y" x1="65.212" x2="76.968" y1="706.585" y2="613.596" gradientUnits="userSpaceOnUse"><stop stop-color="#FFC697"/><stop offset=".317" stop-color="#FF7300"/><stop offset=".764" stop-color="#FF7300"/></linearGradient><linearGradient id="z" x1="72.081" x2="84.647" y1="710.585" y2="611.195" gradientUnits="userSpaceOnUse"><stop stop-color="#FFC697"/><stop offset=".317" stop-color="#FF7300"/><stop offset=".764" stop-color="#FF7300"/></linearGradient><linearGradient id="A" x1="78.939" x2="92.377" y1="714.84" y2="608.546" gradientUnits="userSpaceOnUse"><stop stop-color="#FFC697"/><stop offset=".317" stop-color="#FF7300"/><stop offset=".764" stop-color="#FF7300"/></linearGradient><linearGradient id="B" x1="85.786" x2="100.149" y1="719.301" y2="605.694" gradientUnits="userSpaceOnUse"><stop stop-color="#FFC697"/><stop offset=".317" stop-color="#FF7300"/><stop offset=".764" stop-color="#FF7300"/></linearGradient><linearGradient id="C" x1="92.627" x2="107.957" y1="723.933" y2="602.674" gradientUnits="userSpaceOnUse"><stop stop-color="#FFC697"/><stop offset=".317" stop-color="#FF7300"/><stop offset=".764" stop-color="#FF7300"/></linearGradient><linearGradient id="D" x1="99.461" x2="115.793" y1="728.705" y2="599.517" gradientUnits="userSpaceOnUse"><stop stop-color="#FFC697"/><stop offset=".317" stop-color="#FF7300"/><stop offset=".764" stop-color="#FF7300"/></linearGradient><linearGradient id="E" x1="106.289" x2="123.652" y1="733.592" y2="596.248" gradientUnits="userSpaceOnUse"><stop stop-color="#FFC697"/><stop offset=".317" stop-color="#FF7300"/><stop offset=".764" stop-color="#FF7300"/></linearGradient><linearGradient id="F" x1="113.113" x2="131.532" y1="738.576" y2="592.885" gradientUnits="userSpaceOnUse"><stop stop-color="#FFC697"/><stop offset=".317" stop-color="#FF7300"/><stop offset=".764" stop-color="#FF7300"/></linearGradient><linearGradient id="G" x1="119.933" x2="139.427" y1="743.641" y2="589.442" gradientUnits="userSpaceOnUse"><stop stop-color="#FFC697"/><stop offset=".317" stop-color="#FF7300"/><stop offset=".764" stop-color="#FF7300"/></linearGradient><linearGradient id="H" x1="126.75" x2="147.337" y1="748.772" y2="585.932" gradientUnits="userSpaceOnUse"><stop stop-color="#FFC697"/><stop offset=".317" stop-color="#FF7300"/><stop offset=".764" stop-color="#FF7300"/></linearGradient><linearGradient id="I" x1="133.564" x2="155.258" y1="753.962" y2="582.366" gradientUnits="userSpaceOnUse"><stop stop-color="#FFC697"/><stop offset=".317" stop-color="#FF7300"/><stop offset=".764" stop-color="#FF7300"/></linearGradient><linearGradient id="J" x1="140.375" x2="163.188" y1="759.201" y2="578.752" gradientUnits="userSpaceOnUse"><stop stop-color="#FFC697"/><stop offset=".317" stop-color="#FF7300"/><stop offset=".764" stop-color="#FF7300"/></linearGradient><linearGradient id="K" x1="147.186" x2="171.129" y1="764.483" y2="575.095" gradientUnits="userSpaceOnUse"><stop stop-color="#FFC697"/><stop offset=".317" stop-color="#FF7300"/><stop offset=".764" stop-color="#FF7300"/></linearGradient><linearGradient id="L" x1="153.995" x2="179.077" y1="769.8" y2="571.403" gradientUnits="userSpaceOnUse"><stop stop-color="#FFC697"/><stop offset=".317" stop-color="#FF7300"/><stop offset=".764" stop-color="#FF7300"/></linearGradient><linearGradient id="M" x1="160.801" x2="187.03" y1="775.151" y2="567.68" gradientUnits="userSpaceOnUse"><stop stop-color="#FFC697"/><stop offset=".317" stop-color="#FF7300"/><stop offset=".764" stop-color="#FF7300"/></linearGradient><linearGradient id="N" x1="167.607" x2="194.99" y1="780.53" y2="563.931" gradientUnits="userSpaceOnUse"><stop stop-color="#FFC697"/><stop offset=".317" stop-color="#FF7300"/><stop offset=".764" stop-color="#FF7300"/></linearGradient><linearGradient id="O" x1="174.411" x2="202.955" y1="785.931" y2="560.156" gradientUnits="userSpaceOnUse"><stop stop-color="#FFC697"/><stop offset=".317" stop-color="#FF7300"/><stop offset=".764" stop-color="#FF7300"/></linearGradient><linearGradient id="P" x1="181.215" x2="210.924" y1="791.357" y2="556.361" gradientUnits="userSpaceOnUse"><stop stop-color="#FFC697"/><stop offset=".317" stop-color="#FF7300"/><stop offset=".764" stop-color="#FF7300"/></linearGradient><linearGradient id="Q" x1="188.018" x2="218.897" y1="796.799" y2="552.546" gradientUnits="userSpaceOnUse"><stop stop-color="#FFC697"/><stop offset=".317" stop-color="#FF7300"/><stop offset=".764" stop-color="#FF7300"/></linearGradient><linearGradient id="R" x1="194.819" x2="226.873" y1="802.259" y2="548.714" gradientUnits="userSpaceOnUse"><stop stop-color="#FFC697"/><stop offset=".317" stop-color="#FF7300"/><stop offset=".764" stop-color="#FF7300"/></linearGradient><filter id="S" width="999.2" height="942.2" x="105.4" y=".4" color-interpolation-filters="sRGB" filterUnits="userSpaceOnUse"><feFlood flood-opacity="0" result="BackgroundImageFix"/><feBlend in="SourceGraphic" in2="BackgroundImageFix" result="shape"/><feGaussianBlur result="effect1_foregroundBlur_6018_453" stdDeviation="92.8"/></filter></defs></svg>