<svg width="209" height="605" viewBox="0 0 209 605" fill="none" xmlns="http://www.w3.org/2000/svg">
<g opacity="0.9">
<path d="M-79.9158 280.244C-126.895 246.308 -207.882 247.014 -260.806 281.82C-313.729 316.626 -318.548 372.352 -271.569 406.288C-224.59 440.223 -143.602 439.518 -90.6788 404.712C-37.7553 369.906 -32.9365 314.18 -79.9158 280.244Z" stroke="url(#paint0_linear_2007_2566)" stroke-opacity="0.8" stroke-width="2.80022" stroke-miterlimit="10"/>
<path d="M-66.6222 271.321C-116.234 235.484 -201.76 236.229 -257.649 272.985C-313.539 309.742 -318.627 368.591 -269.015 404.428C-219.403 440.265 -133.877 439.52 -77.988 402.764C-22.0987 366.007 -17.0101 307.158 -66.6222 271.321Z" stroke="url(#paint1_linear_2007_2566)" stroke-opacity="0.8" stroke-width="2.80022" stroke-miterlimit="10"/>
<path d="M-53.2557 262.352C-105.535 224.588 -195.66 225.373 -254.555 264.106C-313.449 302.839 -318.812 364.853 -266.532 402.617C-214.253 440.381 -124.128 439.596 -65.2334 400.863C-6.3387 362.13 -0.976105 300.116 -53.2557 262.352Z" stroke="url(#paint2_linear_2007_2566)" stroke-opacity="0.8" stroke-width="2.80022" stroke-miterlimit="10"/>
<path d="M-39.8311 253.342C-94.8083 213.629 -189.583 214.455 -251.516 255.186C-313.45 295.918 -319.089 361.131 -264.112 400.844C-209.135 440.556 -114.36 439.731 -52.4265 398.999C9.50683 358.268 15.146 293.055 -39.8311 253.342Z" stroke="url(#paint3_linear_2007_2566)" stroke-opacity="0.8" stroke-width="2.80022" stroke-miterlimit="10"/>
<path d="M-26.3525 244.298C-84.0526 202.619 -183.521 203.485 -248.522 246.234C-313.523 288.983 -319.441 357.426 -261.741 399.105C-204.041 440.785 -104.572 439.919 -39.5712 397.17C25.4295 354.421 31.3477 285.978 -26.3525 244.298Z" stroke="url(#paint4_linear_2007_2566)" stroke-opacity="0.8" stroke-width="2.80022" stroke-miterlimit="10"/>
<path d="M-12.8285 235.226C-73.2735 191.563 -177.474 192.471 -245.568 237.254C-313.661 282.036 -319.861 353.735 -259.416 397.398C-198.971 441.061 -94.77 440.153 -26.6767 395.37C41.4165 350.587 47.6166 278.888 -12.8285 235.226Z" stroke="url(#paint5_linear_2007_2566)" stroke-opacity="0.8" stroke-width="2.80022" stroke-miterlimit="10"/>
<path d="M0.733599 226.128C-62.4758 180.468 -171.442 181.418 -242.65 228.249C-313.857 275.08 -320.341 350.058 -257.132 395.717C-193.923 441.376 -84.9561 440.427 -13.7485 393.596C57.4591 346.765 63.943 271.787 0.733599 226.128Z" stroke="url(#paint6_linear_2007_2566)" stroke-opacity="0.8" stroke-width="2.80022" stroke-miterlimit="10"/>
<path d="M14.3309 217.005C-51.6596 169.336 -165.42 170.328 -239.76 219.219C-314.101 268.11 -320.87 346.387 -254.879 394.055C-188.889 441.723 -75.1281 440.732 -0.787781 391.841C73.5525 342.95 80.3214 264.673 14.3309 217.005Z" stroke="url(#paint7_linear_2007_2566)" stroke-opacity="0.8" stroke-width="2.80022" stroke-miterlimit="10"/>
<path d="M27.9579 207.865C-40.8284 158.177 -159.409 159.21 -236.899 210.173C-314.39 261.135 -321.445 342.729 -252.659 392.417C-183.873 442.105 -65.2921 441.071 12.1982 390.109C89.6884 339.146 96.7443 257.552 27.9579 207.865Z" stroke="url(#paint8_linear_2007_2566)" stroke-opacity="0.8" stroke-width="2.80022" stroke-miterlimit="10"/>
<path d="M41.6116 198.707C-29.9839 146.99 -153.407 148.065 -234.061 201.109C-314.716 254.153 -322.06 339.078 -250.464 390.795C-178.869 442.512 -55.4456 441.437 25.2089 388.393C105.863 335.35 113.207 250.424 41.6116 198.707Z" stroke="url(#paint9_linear_2007_2566)" stroke-opacity="0.8" stroke-width="2.80022" stroke-miterlimit="10"/>
<path d="M55.2893 189.533C-19.1266 135.778 -147.412 136.896 -231.244 192.03C-315.076 247.163 -322.709 335.434 -248.293 389.189C-173.877 442.943 -45.592 441.825 38.2399 386.692C122.072 331.558 129.705 243.287 55.2893 189.533Z" stroke="url(#paint10_linear_2007_2566)" stroke-opacity="0.8" stroke-width="2.80022" stroke-miterlimit="10"/>
<path d="M68.986 180.344C-8.2609 124.545 -141.426 125.705 -228.447 182.936C-315.468 240.167 -323.391 331.796 -246.144 387.595C-168.898 443.395 -35.7321 442.234 51.2888 385.004C138.31 327.773 146.233 236.144 68.986 180.344Z" stroke="url(#paint11_linear_2007_2566)" stroke-opacity="0.8" stroke-width="2.80022" stroke-miterlimit="10"/>
</g>
<defs>
<linearGradient id="paint0_linear_2007_2566" x1="-90.6788" y1="404.712" x2="-198.465" y2="240.82" gradientUnits="userSpaceOnUse">
<stop stop-color="#FFC697"/>
<stop offset="0.317308" stop-color="#FF7300"/>
<stop offset="0.764423" stop-color="#FF7300"/>
</linearGradient>
<linearGradient id="paint1_linear_2007_2566" x1="-77.988" y1="402.764" x2="-191.814" y2="229.688" gradientUnits="userSpaceOnUse">
<stop stop-color="#FFC697"/>
<stop offset="0.317308" stop-color="#FF7300"/>
<stop offset="0.764423" stop-color="#FF7300"/>
</linearGradient>
<linearGradient id="paint2_linear_2007_2566" x1="-65.2334" y1="400.863" x2="-185.18" y2="218.481" gradientUnits="userSpaceOnUse">
<stop stop-color="#FFC697"/>
<stop offset="0.317308" stop-color="#FF7300"/>
<stop offset="0.764423" stop-color="#FF7300"/>
</linearGradient>
<linearGradient id="paint3_linear_2007_2566" x1="-52.4265" y1="398.999" x2="-178.562" y2="207.207" gradientUnits="userSpaceOnUse">
<stop stop-color="#FFC697"/>
<stop offset="0.317308" stop-color="#FF7300"/>
<stop offset="0.764423" stop-color="#FF7300"/>
</linearGradient>
<linearGradient id="paint4_linear_2007_2566" x1="-39.5712" y1="397.17" x2="-171.954" y2="195.878" gradientUnits="userSpaceOnUse">
<stop stop-color="#FFC697"/>
<stop offset="0.317308" stop-color="#FF7300"/>
<stop offset="0.764423" stop-color="#FF7300"/>
</linearGradient>
<linearGradient id="paint5_linear_2007_2566" x1="-26.6767" y1="395.37" x2="-165.357" y2="184.502" gradientUnits="userSpaceOnUse">
<stop stop-color="#FFC697"/>
<stop offset="0.317308" stop-color="#FF7300"/>
<stop offset="0.764423" stop-color="#FF7300"/>
</linearGradient>
<linearGradient id="paint6_linear_2007_2566" x1="-13.7485" y1="393.596" x2="-158.771" y2="173.085" gradientUnits="userSpaceOnUse">
<stop stop-color="#FFC697"/>
<stop offset="0.317308" stop-color="#FF7300"/>
<stop offset="0.764423" stop-color="#FF7300"/>
</linearGradient>
<linearGradient id="paint7_linear_2007_2566" x1="-0.787794" y1="391.841" x2="-152.191" y2="161.628" gradientUnits="userSpaceOnUse">
<stop stop-color="#FFC697"/>
<stop offset="0.317308" stop-color="#FF7300"/>
<stop offset="0.764423" stop-color="#FF7300"/>
</linearGradient>
<linearGradient id="paint8_linear_2007_2566" x1="12.1982" y1="390.109" x2="-145.62" y2="150.141" gradientUnits="userSpaceOnUse">
<stop stop-color="#FFC697"/>
<stop offset="0.317308" stop-color="#FF7300"/>
<stop offset="0.764423" stop-color="#FF7300"/>
</linearGradient>
<linearGradient id="paint9_linear_2007_2566" x1="25.2089" y1="388.393" x2="-139.054" y2="138.626" gradientUnits="userSpaceOnUse">
<stop stop-color="#FFC697"/>
<stop offset="0.317308" stop-color="#FF7300"/>
<stop offset="0.764423" stop-color="#FF7300"/>
</linearGradient>
<linearGradient id="paint10_linear_2007_2566" x1="38.2399" y1="386.692" x2="-132.494" y2="127.085" gradientUnits="userSpaceOnUse">
<stop stop-color="#FFC697"/>
<stop offset="0.317308" stop-color="#FF7300"/>
<stop offset="0.764423" stop-color="#FF7300"/>
</linearGradient>
<linearGradient id="paint11_linear_2007_2566" x1="51.2888" y1="385.004" x2="-125.941" y2="115.521" gradientUnits="userSpaceOnUse">
<stop stop-color="#FFC697"/>
<stop offset="0.317308" stop-color="#FF7300"/>
<stop offset="0.764423" stop-color="#FF7300"/>
</linearGradient>
</defs>
</svg>
