<svg width="402" height="293" viewBox="0 0 402 293" fill="none" xmlns="http://www.w3.org/2000/svg">
<g opacity="0.9">
<path d="M187.835 207.984C218.335 205.907 239.324 220.683 234.714 240.987C230.104 261.292 201.641 279.436 171.141 281.513C140.641 283.591 119.652 268.815 124.262 248.51C128.872 228.206 157.335 210.062 187.835 207.984Z" stroke="url(#paint0_linear_221_4173)" stroke-opacity="0.8" stroke-width="2.27114" stroke-miterlimit="10"/>
<path d="M189.579 200.027C221.953 197.821 244.231 213.504 239.338 235.055C234.446 256.606 204.236 275.864 171.863 278.069C139.489 280.275 117.211 264.592 122.104 243.041C126.996 221.49 157.206 202.232 189.579 200.027Z" stroke="url(#paint1_linear_221_4173)" stroke-opacity="0.8" stroke-width="2.27114" stroke-miterlimit="10"/>
<path d="M191.401 191.736C225.923 189.384 249.679 206.108 244.462 229.09C239.245 252.071 207.03 272.608 172.509 274.959C137.987 277.311 114.231 260.587 119.448 237.606C124.665 214.624 156.88 194.088 191.401 191.736Z" stroke="url(#paint2_linear_221_4173)" stroke-opacity="0.8" stroke-width="2.27114" stroke-miterlimit="10"/>
<path d="M193.286 183.171C230.184 180.658 255.575 198.533 249.999 223.096C244.423 247.659 209.991 269.609 173.093 272.123C136.195 274.636 110.803 256.762 116.379 232.198C121.956 207.635 156.388 185.685 193.286 183.171Z" stroke="url(#paint3_linear_221_4173)" stroke-opacity="0.8" stroke-width="2.27114" stroke-miterlimit="10"/>
<path d="M195.221 174.382C234.682 171.694 261.837 190.81 255.874 217.079C249.91 243.348 213.086 266.823 173.625 269.511C134.164 272.199 107.009 253.083 112.973 226.814C118.936 200.545 155.76 177.07 195.221 174.382Z" stroke="url(#paint4_linear_221_4173)" stroke-opacity="0.8" stroke-width="2.27114" stroke-miterlimit="10"/>
<path d="M197.197 165.409C239.373 162.535 268.397 182.967 262.023 211.044C255.649 239.121 216.292 264.211 174.116 267.084C131.94 269.957 102.916 249.526 109.29 221.449C115.664 193.372 155.021 168.282 197.197 165.409Z" stroke="url(#paint5_linear_221_4173)" stroke-opacity="0.8" stroke-width="2.27114" stroke-miterlimit="10"/>
<path d="M199.208 156.284C244.225 153.218 275.203 175.025 268.4 204.993C261.597 234.961 219.589 261.74 174.572 264.807C129.556 267.873 98.5775 246.066 105.381 216.098C112.184 186.13 154.192 159.351 199.208 156.284Z" stroke="url(#paint6_linear_221_4173)" stroke-opacity="0.8" stroke-width="2.27114" stroke-miterlimit="10"/>
<path d="M201.248 147.036C249.208 143.768 282.212 167.002 274.964 198.929C267.716 230.857 222.961 259.387 175.001 262.655C127.041 265.922 94.0371 242.688 101.285 210.761C108.533 178.833 153.288 150.303 201.248 147.036Z" stroke="url(#paint7_linear_221_4173)" stroke-opacity="0.8" stroke-width="2.27114" stroke-miterlimit="10"/>
<path d="M203.31 137.686C254.298 134.212 289.385 158.913 281.68 192.856C273.974 226.799 226.394 257.131 175.405 260.605C124.417 264.078 89.3296 239.377 97.0351 205.434C104.741 171.491 152.321 141.159 203.31 137.686Z" stroke="url(#paint8_linear_221_4173)" stroke-opacity="0.8" stroke-width="2.27114" stroke-miterlimit="10"/>
<path d="M205.392 128.25C259.479 124.565 296.699 150.767 288.525 186.773C280.351 222.779 229.879 254.955 175.792 258.639C121.705 262.324 84.4847 236.122 92.6585 200.116C100.832 164.11 151.305 131.934 205.392 128.25Z" stroke="url(#paint9_linear_221_4173)" stroke-opacity="0.8" stroke-width="2.27114" stroke-miterlimit="10"/>
<path d="M207.49 118.743C264.736 114.843 304.129 142.575 295.478 180.684C286.827 218.792 233.407 252.847 176.162 256.746C118.916 260.646 79.5226 232.914 88.1738 194.806C96.8249 156.697 150.245 122.642 207.49 118.743Z" stroke="url(#paint10_linear_221_4173)" stroke-opacity="0.8" stroke-width="2.27114" stroke-miterlimit="10"/>
<path d="M209.602 109.175C270.055 105.057 311.657 134.343 302.521 174.587C293.385 214.831 236.971 250.794 176.518 254.912C116.064 259.03 74.4625 229.745 83.5985 189.5C92.7344 149.256 149.148 113.293 209.602 109.175Z" stroke="url(#paint11_linear_221_4173)" stroke-opacity="0.8" stroke-width="2.27114" stroke-miterlimit="10"/>
<path d="M211.724 99.5551C275.429 95.2155 319.267 126.076 309.639 168.485C300.012 210.893 240.565 248.79 176.861 253.129C113.157 257.469 69.3192 226.608 78.9464 184.2C88.5736 141.792 148.02 103.895 211.724 99.5551Z" stroke="url(#paint12_linear_221_4173)" stroke-opacity="0.8" stroke-width="2.27114" stroke-miterlimit="10"/>
<path d="M213.858 89.894C280.849 85.3305 326.949 117.783 316.825 162.38C306.701 206.976 244.187 246.828 177.196 251.392C110.204 255.955 64.1045 223.502 74.2284 178.906C84.3523 134.31 146.866 94.4576 213.858 89.894Z" stroke="url(#paint13_linear_221_4173)" stroke-opacity="0.8" stroke-width="2.27114" stroke-miterlimit="10"/>
<path d="M216 80.1944C286.31 75.4048 334.693 109.465 324.068 156.27C313.442 203.075 247.832 244.901 177.523 249.69C107.214 254.48 58.8303 220.42 69.4556 173.615C80.0809 126.81 145.691 84.984 216 80.1944Z" stroke="url(#paint14_linear_221_4173)" stroke-opacity="0.8" stroke-width="2.27114" stroke-miterlimit="10"/>
<path d="M218.149 70.4611C291.803 65.4436 342.488 101.124 331.357 150.156C320.226 199.188 251.494 243.004 177.841 248.021C104.187 253.039 53.5016 217.358 64.6324 168.326C75.7633 119.294 144.495 75.4785 218.149 70.4611Z" stroke="url(#paint15_linear_221_4173)" stroke-opacity="0.8" stroke-width="2.27114" stroke-miterlimit="10"/>
<path d="M220.305 60.7014C297.327 55.4545 350.33 92.7672 338.69 144.042C327.05 195.316 255.175 241.136 178.153 246.383C101.13 251.63 48.1275 214.317 59.7675 163.042C71.4074 111.768 143.282 65.9484 220.305 60.7014Z" stroke="url(#paint16_linear_221_4173)" stroke-opacity="0.8" stroke-width="2.27114" stroke-miterlimit="10"/>
<path d="M222.465 50.9156C302.877 45.4378 358.212 84.392 346.06 137.922C333.907 191.452 258.87 239.288 178.459 244.766C98.0478 250.243 42.7129 211.289 54.8649 157.759C67.0169 104.229 142.054 56.3934 222.465 50.9156Z" stroke="url(#paint17_linear_221_4173)" stroke-opacity="0.8" stroke-width="2.27114" stroke-miterlimit="10"/>
<path d="M224.631 41.1081C308.45 35.3982 366.129 76.003 353.462 131.801C340.795 187.6 262.579 237.462 178.761 243.172C94.9425 248.882 37.263 208.277 49.93 152.479C62.5969 96.6802 140.813 46.8179 224.631 41.1081Z" stroke="url(#paint18_linear_221_4173)" stroke-opacity="0.8" stroke-width="2.27114" stroke-miterlimit="10"/>
<path d="M226.802 31.2823C314.043 25.3393 374.078 67.6021 360.894 125.679C347.709 183.756 266.299 235.654 179.058 241.597C91.8165 247.54 31.7815 205.278 44.9657 147.201C58.1499 89.1237 139.561 37.2253 226.802 31.2823Z" stroke="url(#paint19_linear_221_4173)" stroke-opacity="0.8" stroke-width="2.27114" stroke-miterlimit="10"/>
<path d="M228.976 21.4394C319.654 15.2622 382.054 59.19 368.35 119.555C354.647 179.92 270.029 233.863 179.351 240.04C88.6732 246.217 26.2733 202.289 39.9769 141.924C53.6804 81.5595 138.298 27.6165 228.976 21.4394Z" stroke="url(#paint20_linear_221_4173)" stroke-opacity="0.8" stroke-width="2.27114" stroke-miterlimit="10"/>
<path d="M231.201 11.5944C325.327 5.19107 390.088 50.7976 375.849 113.46C361.61 176.121 273.763 232.11 179.638 238.513C85.5119 244.916 20.7509 199.31 34.9898 136.648C49.2287 73.9861 137.076 17.9977 231.201 11.5944Z" stroke="url(#paint21_linear_221_4173)" stroke-opacity="0.8" stroke-width="2.27114" stroke-miterlimit="10"/>
</g>
<defs>
<linearGradient id="paint0_linear_221_4173" x1="124.262" y1="248.51" x2="227.675" y2="271.989" gradientUnits="userSpaceOnUse">
<stop stop-color="#FF7300"/>
<stop offset="0.783654" stop-color="#991F17"/>
<stop offset="1" stop-color="#FF7300"/>
</linearGradient>
<linearGradient id="paint1_linear_221_4173" x1="122.104" y1="243.041" x2="231.869" y2="267.959" gradientUnits="userSpaceOnUse">
<stop stop-color="#FF7300"/>
<stop offset="0.783654" stop-color="#991F17"/>
<stop offset="1" stop-color="#FF7300"/>
</linearGradient>
<linearGradient id="paint2_linear_221_4173" x1="119.448" y1="237.606" x2="236.496" y2="264.177" gradientUnits="userSpaceOnUse">
<stop stop-color="#FF7300"/>
<stop offset="0.783654" stop-color="#991F17"/>
<stop offset="1" stop-color="#FF7300"/>
</linearGradient>
<linearGradient id="paint3_linear_221_4173" x1="116.379" y1="232.198" x2="241.485" y2="260.599" gradientUnits="userSpaceOnUse">
<stop stop-color="#FF7300"/>
<stop offset="0.783654" stop-color="#991F17"/>
<stop offset="1" stop-color="#FF7300"/>
</linearGradient>
<linearGradient id="paint4_linear_221_4173" x1="112.973" y1="226.814" x2="246.769" y2="257.187" gradientUnits="userSpaceOnUse">
<stop stop-color="#FF7300"/>
<stop offset="0.783654" stop-color="#991F17"/>
<stop offset="1" stop-color="#FF7300"/>
</linearGradient>
<linearGradient id="paint5_linear_221_4173" x1="109.29" y1="221.449" x2="252.291" y2="253.912" gradientUnits="userSpaceOnUse">
<stop stop-color="#FF7300"/>
<stop offset="0.783654" stop-color="#991F17"/>
<stop offset="1" stop-color="#FF7300"/>
</linearGradient>
<linearGradient id="paint6_linear_221_4173" x1="105.381" y1="216.098" x2="258.013" y2="250.748" gradientUnits="userSpaceOnUse">
<stop stop-color="#FF7300"/>
<stop offset="0.783654" stop-color="#991F17"/>
<stop offset="1" stop-color="#FF7300"/>
</linearGradient>
<linearGradient id="paint7_linear_221_4173" x1="101.285" y1="210.761" x2="263.898" y2="247.676" gradientUnits="userSpaceOnUse">
<stop stop-color="#FF7300"/>
<stop offset="0.783654" stop-color="#991F17"/>
<stop offset="1" stop-color="#FF7300"/>
</linearGradient>
<linearGradient id="paint8_linear_221_4173" x1="97.0351" y1="205.434" x2="269.915" y2="244.68" gradientUnits="userSpaceOnUse">
<stop stop-color="#FF7300"/>
<stop offset="0.783654" stop-color="#991F17"/>
<stop offset="1" stop-color="#FF7300"/>
</linearGradient>
<linearGradient id="paint9_linear_221_4173" x1="92.6585" y1="200.116" x2="276.045" y2="241.747" gradientUnits="userSpaceOnUse">
<stop stop-color="#FF7300"/>
<stop offset="0.783654" stop-color="#991F17"/>
<stop offset="1" stop-color="#FF7300"/>
</linearGradient>
<linearGradient id="paint10_linear_221_4173" x1="88.1738" y1="194.806" x2="282.27" y2="238.868" gradientUnits="userSpaceOnUse">
<stop stop-color="#FF7300"/>
<stop offset="0.783654" stop-color="#991F17"/>
<stop offset="1" stop-color="#FF7300"/>
</linearGradient>
<linearGradient id="paint11_linear_221_4173" x1="83.5985" y1="189.5" x2="288.572" y2="236.032" gradientUnits="userSpaceOnUse">
<stop stop-color="#FF7300"/>
<stop offset="0.783654" stop-color="#991F17"/>
<stop offset="1" stop-color="#FF7300"/>
</linearGradient>
<linearGradient id="paint12_linear_221_4173" x1="78.9464" y1="184.2" x2="294.941" y2="233.233" gradientUnits="userSpaceOnUse">
<stop stop-color="#FF7300"/>
<stop offset="0.783654" stop-color="#991F17"/>
<stop offset="1" stop-color="#FF7300"/>
</linearGradient>
<linearGradient id="paint13_linear_221_4173" x1="74.2284" y1="178.906" x2="301.368" y2="230.469" gradientUnits="userSpaceOnUse">
<stop stop-color="#FF7300"/>
<stop offset="0.783654" stop-color="#991F17"/>
<stop offset="1" stop-color="#FF7300"/>
</linearGradient>
<linearGradient id="paint14_linear_221_4173" x1="69.4556" y1="173.615" x2="307.845" y2="227.732" gradientUnits="userSpaceOnUse">
<stop stop-color="#FF7300"/>
<stop offset="0.783654" stop-color="#991F17"/>
<stop offset="1" stop-color="#FF7300"/>
</linearGradient>
<linearGradient id="paint15_linear_221_4173" x1="64.6324" y1="168.326" x2="314.362" y2="225.018" gradientUnits="userSpaceOnUse">
<stop stop-color="#FF7300"/>
<stop offset="0.783654" stop-color="#991F17"/>
<stop offset="1" stop-color="#FF7300"/>
</linearGradient>
<linearGradient id="paint16_linear_221_4173" x1="59.7675" y1="163.042" x2="320.918" y2="222.327" gradientUnits="userSpaceOnUse">
<stop stop-color="#FF7300"/>
<stop offset="0.783654" stop-color="#991F17"/>
<stop offset="1" stop-color="#FF7300"/>
</linearGradient>
<linearGradient id="paint17_linear_221_4173" x1="54.8649" y1="157.759" x2="327.506" y2="219.652" gradientUnits="userSpaceOnUse">
<stop stop-color="#FF7300"/>
<stop offset="0.783654" stop-color="#991F17"/>
<stop offset="1" stop-color="#FF7300"/>
</linearGradient>
<linearGradient id="paint18_linear_221_4173" x1="49.93" y1="152.479" x2="334.122" y2="216.994" gradientUnits="userSpaceOnUse">
<stop stop-color="#FF7300"/>
<stop offset="0.783654" stop-color="#991F17"/>
<stop offset="1" stop-color="#FF7300"/>
</linearGradient>
<linearGradient id="paint19_linear_221_4173" x1="44.9657" y1="147.201" x2="340.764" y2="214.35" gradientUnits="userSpaceOnUse">
<stop stop-color="#FF7300"/>
<stop offset="0.783654" stop-color="#991F17"/>
<stop offset="1" stop-color="#FF7300"/>
</linearGradient>
<linearGradient id="paint20_linear_221_4173" x1="39.9769" y1="141.924" x2="347.428" y2="211.719" gradientUnits="userSpaceOnUse">
<stop stop-color="#FF7300"/>
<stop offset="0.783654" stop-color="#991F17"/>
<stop offset="1" stop-color="#FF7300"/>
</linearGradient>
<linearGradient id="paint21_linear_221_4173" x1="34.9898" y1="136.648" x2="354.102" y2="209.161" gradientUnits="userSpaceOnUse">
<stop stop-color="#FF7300"/>
<stop offset="0.783654" stop-color="#991F17"/>
<stop offset="1" stop-color="#FF7300"/>
</linearGradient>
</defs>
</svg>
