<svg width="347" height="441" viewBox="0 0 347 441" fill="none" xmlns="http://www.w3.org/2000/svg">
<g opacity="0.9">
<path d="M7.91805 234.904C24.2263 269.386 16.6247 300.497 -9.06058 304.392C-34.7458 308.288 -68.7882 283.493 -85.0964 249.011C-101.405 214.529 -93.803 183.418 -68.1178 179.523C-42.4326 175.627 -8.39016 200.422 7.91805 234.904Z" stroke="url(#paint0_linear_221_4196)" stroke-opacity="0.8" stroke-width="2.83373" stroke-miterlimit="10"/>
<path d="M17.9558 233.305C35.2659 269.904 27.1986 302.926 -0.0630309 307.061C-27.3247 311.197 -63.4573 284.879 -80.7674 248.28C-98.0776 211.681 -90.0103 178.659 -62.7486 174.524C-35.487 170.388 0.645638 196.706 17.9558 233.305Z" stroke="url(#paint1_linear_221_4196)" stroke-opacity="0.8" stroke-width="2.83373" stroke-miterlimit="10"/>
<path d="M28.4161 231.644C46.8748 270.672 38.2716 305.885 9.20024 310.295C-19.8711 314.704 -58.4018 286.641 -76.8606 247.613C-95.3193 208.586 -86.7161 173.372 -57.6447 168.963C-28.5734 164.553 9.9574 192.616 28.4161 231.644Z" stroke="url(#paint2_linear_221_4196)" stroke-opacity="0.8" stroke-width="2.83373" stroke-miterlimit="10"/>
<path d="M39.2228 229.931C58.9523 271.646 49.7572 309.283 18.6849 313.996C-12.3874 318.71 -53.5703 288.714 -73.2999 246.999C-93.0294 205.285 -83.8342 167.648 -52.762 162.934C-21.6897 158.221 19.4933 188.217 39.2228 229.931Z" stroke="url(#paint3_linear_221_4196)" stroke-opacity="0.8" stroke-width="2.83373" stroke-miterlimit="10"/>
<path d="M50.3144 228.175C71.4143 272.787 61.5806 313.038 28.3501 318.079C-4.88033 323.119 -48.9238 291.041 -70.0237 246.428C-91.1236 201.816 -81.2899 161.565 -48.0594 156.524C-14.829 151.484 29.2145 183.563 50.3144 228.175Z" stroke="url(#paint4_linear_221_4196)" stroke-opacity="0.8" stroke-width="2.83373" stroke-miterlimit="10"/>
<path d="M61.6377 226.382C84.1893 274.064 73.6787 317.085 38.1616 322.472C2.64441 327.86 -44.4296 293.574 -66.9813 245.892C-89.533 198.211 -79.0224 155.19 -43.5052 149.802C-7.98807 144.415 39.086 178.701 61.6377 226.382Z" stroke="url(#paint5_linear_221_4196)" stroke-opacity="0.8" stroke-width="2.83373" stroke-miterlimit="10"/>
<path d="M73.1525 224.562C97.223 275.454 86.0047 321.373 48.0959 327.123C10.187 332.873 -40.0571 296.278 -64.1276 245.385C-88.1981 194.492 -76.9799 148.574 -39.0711 142.824C-1.16222 137.073 49.082 173.669 73.1525 224.562Z" stroke="url(#paint6_linear_221_4196)" stroke-opacity="0.8" stroke-width="2.83373" stroke-miterlimit="10"/>
<path d="M84.8248 222.718C110.469 276.938 98.5174 325.859 58.1296 331.986C17.7418 338.112 -35.7879 299.124 -61.4324 244.903C-87.0768 190.682 -75.1249 141.761 -34.7371 135.635C5.65066 129.509 59.1804 168.497 84.8248 222.718Z" stroke="url(#paint7_linear_221_4196)" stroke-opacity="0.8" stroke-width="2.83373" stroke-miterlimit="10"/>
<path d="M96.6246 220.852C123.888 278.496 111.182 330.506 68.2438 337.019C25.306 343.532 -31.6034 302.082 -58.867 244.438C-86.1305 186.794 -73.4241 134.785 -30.4863 128.272C12.4515 121.758 69.361 163.208 96.6246 220.852Z" stroke="url(#paint8_linear_221_4196)" stroke-opacity="0.8" stroke-width="2.83373" stroke-miterlimit="10"/>
<path d="M108.533 218.972C137.454 280.12 123.975 335.29 78.4278 342.199C32.8805 349.108 -27.4877 305.139 -56.4082 243.992C-85.3287 182.845 -71.85 127.674 -26.3026 120.765C19.2447 113.856 79.6129 157.825 108.533 218.972Z" stroke="url(#paint9_linear_221_4196)" stroke-opacity="0.8" stroke-width="2.83373" stroke-miterlimit="10"/>
<path d="M120.533 217.079C151.142 281.797 136.876 340.19 88.6691 347.502C40.462 354.814 -23.4313 308.278 -54.0407 243.56C-84.65 178.842 -70.3843 120.449 -22.1772 113.137C26.0299 105.824 89.9233 152.361 120.533 217.079Z" stroke="url(#paint10_linear_221_4196)" stroke-opacity="0.8" stroke-width="2.83373" stroke-miterlimit="10"/>
<path d="M132.608 215.172C164.933 283.517 149.868 345.182 98.9591 352.904C48.0505 360.626 -19.4235 311.482 -51.7483 243.137C-84.073 174.792 -69.0079 113.127 -18.0993 105.405C32.8093 97.6825 100.283 146.827 132.608 215.172Z" stroke="url(#paint11_linear_221_4196)" stroke-opacity="0.8" stroke-width="2.83373" stroke-miterlimit="10"/>
<path d="M144.749 213.256C178.812 285.275 162.937 350.255 109.29 358.393C55.6443 366.53 -15.4578 314.744 -49.5206 242.724C-83.5833 170.704 -67.7079 105.724 -14.0617 97.5864C39.5844 89.4489 110.686 141.236 144.749 213.256Z" stroke="url(#paint12_linear_221_4196)" stroke-opacity="0.8" stroke-width="2.83373" stroke-miterlimit="10"/>
<path d="M156.943 211.332C192.763 287.068 176.069 355.401 119.655 363.958C63.2411 372.516 -11.5296 318.057 -47.35 242.321C-83.1703 166.585 -66.4759 98.2519 -10.0619 89.6946C46.3521 81.1373 121.123 135.596 156.943 211.332Z" stroke="url(#paint13_linear_221_4196)" stroke-opacity="0.8" stroke-width="2.83373" stroke-miterlimit="10"/>
<path d="M169.186 209.402C206.781 288.889 189.26 360.607 130.052 369.588C70.8437 378.569 -7.63024 321.413 -45.2248 241.926C-82.8193 162.439 -65.2981 90.7213 -6.09016 81.7402C53.1178 72.7591 131.592 129.915 169.186 209.402Z" stroke="url(#paint14_linear_221_4196)" stroke-opacity="0.8" stroke-width="2.83373" stroke-miterlimit="10"/>
<path d="M181.471 207.463C220.854 290.732 202.499 365.861 140.474 375.27C78.449 384.678 -3.75831 324.803 -43.1413 241.534C-82.5243 158.266 -64.1693 83.1364 -2.14442 73.728C59.8805 64.3196 142.088 124.195 181.471 207.463Z" stroke="url(#paint15_linear_221_4196)" stroke-opacity="0.8" stroke-width="2.83373" stroke-miterlimit="10"/>
<path d="M193.79 205.521C234.974 292.598 215.779 371.163 150.917 381.002C86.0556 390.841 0.0884702 328.227 -41.0956 241.151C-82.2797 154.074 -63.0851 75.5088 1.7766 65.67C66.6383 55.8313 152.605 118.445 193.79 205.521Z" stroke="url(#paint16_linear_221_4196)" stroke-opacity="0.8" stroke-width="2.83373" stroke-miterlimit="10"/>
<path d="M206.141 203.573C249.137 294.481 229.098 376.503 161.383 386.775C93.6676 397.046 3.91834 331.678 -39.0777 240.77C-82.0738 149.862 -62.035 67.8402 5.68029 57.5687C73.3956 47.2971 163.145 112.666 206.141 203.573Z" stroke="url(#paint17_linear_221_4196)" stroke-opacity="0.8" stroke-width="2.83373" stroke-miterlimit="10"/>
<path d="M218.52 201.621C263.338 296.381 242.45 381.878 171.865 392.585C101.281 403.291 7.72871 335.153 -37.0891 240.394C-81.9068 145.635 -61.0188 60.1376 9.56567 49.4308C80.1501 38.724 173.702 106.862 218.52 201.621Z" stroke="url(#paint18_linear_221_4196)" stroke-opacity="0.8" stroke-width="2.83373" stroke-miterlimit="10"/>
<path d="M230.922 199.666C277.57 298.295 255.829 387.283 182.362 398.427C108.896 409.571 11.5233 338.651 -35.1248 240.022C-81.7728 141.392 -60.032 52.4037 13.4348 41.2597C86.9015 30.1157 184.274 101.036 230.922 199.666Z" stroke="url(#paint19_linear_221_4196)" stroke-opacity="0.8" stroke-width="2.83373" stroke-miterlimit="10"/>
<path d="M243.346 197.707C291.831 300.222 269.234 392.716 192.873 404.299C116.512 415.882 15.3037 342.168 -33.182 239.653C-81.6677 137.139 -59.0702 44.6443 17.2908 33.0613C93.6518 21.4782 194.86 95.1927 243.346 197.707Z" stroke="url(#paint20_linear_221_4196)" stroke-opacity="0.8" stroke-width="2.83373" stroke-miterlimit="10"/>
<path d="M255.795 195.807C306.114 302.223 282.642 398.225 203.369 410.232C124.096 422.24 19.041 345.707 -31.2781 239.29C-81.5973 132.874 -58.1255 36.8723 21.1476 24.8647C100.421 12.857 205.476 89.3905 255.795 195.807Z" stroke="url(#paint21_linear_221_4196)" stroke-opacity="0.8" stroke-width="2.83373" stroke-miterlimit="10"/>
</g>
<defs>
<linearGradient id="paint0_linear_221_4196" x1="-68.1178" y1="179.523" x2="-48.2779" y2="310.34" gradientUnits="userSpaceOnUse">
<stop stop-color="#FF7300"/>
<stop offset="0.783654" stop-color="#991F17"/>
<stop offset="1" stop-color="#FF7300"/>
</linearGradient>
<linearGradient id="paint1_linear_221_4196" x1="-62.7486" y1="174.524" x2="-41.6866" y2="313.375" gradientUnits="userSpaceOnUse">
<stop stop-color="#FF7300"/>
<stop offset="0.783654" stop-color="#991F17"/>
<stop offset="1" stop-color="#FF7300"/>
</linearGradient>
<linearGradient id="paint2_linear_221_4196" x1="-57.6447" y1="168.963" x2="-35.1851" y2="317.027" gradientUnits="userSpaceOnUse">
<stop stop-color="#FF7300"/>
<stop offset="0.783654" stop-color="#991F17"/>
<stop offset="1" stop-color="#FF7300"/>
</linearGradient>
<linearGradient id="paint3_linear_221_4196" x1="-52.762" y1="162.934" x2="-28.7562" y2="321.192" gradientUnits="userSpaceOnUse">
<stop stop-color="#FF7300"/>
<stop offset="0.783654" stop-color="#991F17"/>
<stop offset="1" stop-color="#FF7300"/>
</linearGradient>
<linearGradient id="paint4_linear_221_4196" x1="-48.0594" y1="156.524" x2="-22.3862" y2="325.775" gradientUnits="userSpaceOnUse">
<stop stop-color="#FF7300"/>
<stop offset="0.783654" stop-color="#991F17"/>
<stop offset="1" stop-color="#FF7300"/>
</linearGradient>
<linearGradient id="paint5_linear_221_4196" x1="-43.5052" y1="149.802" x2="-16.0656" y2="330.698" gradientUnits="userSpaceOnUse">
<stop stop-color="#FF7300"/>
<stop offset="0.783654" stop-color="#991F17"/>
<stop offset="1" stop-color="#FF7300"/>
</linearGradient>
<linearGradient id="paint6_linear_221_4196" x1="-39.0711" y1="142.824" x2="-9.78338" y2="335.903" gradientUnits="userSpaceOnUse">
<stop stop-color="#FF7300"/>
<stop offset="0.783654" stop-color="#991F17"/>
<stop offset="1" stop-color="#FF7300"/>
</linearGradient>
<linearGradient id="paint7_linear_221_4196" x1="-34.7371" y1="135.635" x2="-3.53436" y2="341.339" gradientUnits="userSpaceOnUse">
<stop stop-color="#FF7300"/>
<stop offset="0.783654" stop-color="#991F17"/>
<stop offset="1" stop-color="#FF7300"/>
</linearGradient>
<linearGradient id="paint8_linear_221_4196" x1="-30.4862" y1="128.272" x2="2.68658" y2="346.963" gradientUnits="userSpaceOnUse">
<stop stop-color="#FF7300"/>
<stop offset="0.783654" stop-color="#991F17"/>
<stop offset="1" stop-color="#FF7300"/>
</linearGradient>
<linearGradient id="paint9_linear_221_4196" x1="-26.3026" y1="120.765" x2="8.8863" y2="352.748" gradientUnits="userSpaceOnUse">
<stop stop-color="#FF7300"/>
<stop offset="0.783654" stop-color="#991F17"/>
<stop offset="1" stop-color="#FF7300"/>
</linearGradient>
<linearGradient id="paint10_linear_221_4196" x1="-22.1772" y1="113.137" x2="15.0667" y2="358.667" gradientUnits="userSpaceOnUse">
<stop stop-color="#FF7300"/>
<stop offset="0.783654" stop-color="#991F17"/>
<stop offset="1" stop-color="#FF7300"/>
</linearGradient>
<linearGradient id="paint11_linear_221_4196" x1="-18.0993" y1="105.405" x2="21.2317" y2="364.694" gradientUnits="userSpaceOnUse">
<stop stop-color="#FF7300"/>
<stop offset="0.783654" stop-color="#991F17"/>
<stop offset="1" stop-color="#FF7300"/>
</linearGradient>
<linearGradient id="paint12_linear_221_4196" x1="-14.0617" y1="97.5864" x2="27.384" y2="370.817" gradientUnits="userSpaceOnUse">
<stop stop-color="#FF7300"/>
<stop offset="0.783654" stop-color="#991F17"/>
<stop offset="1" stop-color="#FF7300"/>
</linearGradient>
<linearGradient id="paint13_linear_221_4196" x1="-10.0619" y1="89.6946" x2="33.5224" y2="377.024" gradientUnits="userSpaceOnUse">
<stop stop-color="#FF7300"/>
<stop offset="0.783654" stop-color="#991F17"/>
<stop offset="1" stop-color="#FF7300"/>
</linearGradient>
<linearGradient id="paint14_linear_221_4196" x1="-6.09016" y1="81.7402" x2="39.6528" y2="383.301" gradientUnits="userSpaceOnUse">
<stop stop-color="#FF7300"/>
<stop offset="0.783654" stop-color="#991F17"/>
<stop offset="1" stop-color="#FF7300"/>
</linearGradient>
<linearGradient id="paint15_linear_221_4196" x1="-2.14442" y1="73.728" x2="45.7747" y2="389.634" gradientUnits="userSpaceOnUse">
<stop stop-color="#FF7300"/>
<stop offset="0.783654" stop-color="#991F17"/>
<stop offset="1" stop-color="#FF7300"/>
</linearGradient>
<linearGradient id="paint16_linear_221_4196" x1="1.77661" y1="65.67" x2="51.8872" y2="396.024" gradientUnits="userSpaceOnUse">
<stop stop-color="#FF7300"/>
<stop offset="0.783654" stop-color="#991F17"/>
<stop offset="1" stop-color="#FF7300"/>
</linearGradient>
<linearGradient id="paint17_linear_221_4196" x1="5.68028" y1="57.5687" x2="57.9956" y2="402.457" gradientUnits="userSpaceOnUse">
<stop stop-color="#FF7300"/>
<stop offset="0.783654" stop-color="#991F17"/>
<stop offset="1" stop-color="#FF7300"/>
</linearGradient>
<linearGradient id="paint18_linear_221_4196" x1="9.56567" y1="49.4308" x2="64.0975" y2="408.932" gradientUnits="userSpaceOnUse">
<stop stop-color="#FF7300"/>
<stop offset="0.783654" stop-color="#991F17"/>
<stop offset="1" stop-color="#FF7300"/>
</linearGradient>
<linearGradient id="paint19_linear_221_4196" x1="13.4348" y1="41.2597" x2="70.1936" y2="415.442" gradientUnits="userSpaceOnUse">
<stop stop-color="#FF7300"/>
<stop offset="0.783654" stop-color="#991F17"/>
<stop offset="1" stop-color="#FF7300"/>
</linearGradient>
<linearGradient id="paint20_linear_221_4196" x1="17.2908" y1="33.0613" x2="76.2856" y2="421.984" gradientUnits="userSpaceOnUse">
<stop stop-color="#FF7300"/>
<stop offset="0.783654" stop-color="#991F17"/>
<stop offset="1" stop-color="#FF7300"/>
</linearGradient>
<linearGradient id="paint21_linear_221_4196" x1="21.1476" y1="24.8647" x2="82.2978" y2="428.571" gradientUnits="userSpaceOnUse">
<stop stop-color="#FF7300"/>
<stop offset="0.783654" stop-color="#991F17"/>
<stop offset="1" stop-color="#FF7300"/>
</linearGradient>
</defs>
</svg>
