<svg width="222" height="345" viewBox="0 0 222 345" fill="none" xmlns="http://www.w3.org/2000/svg">
<g opacity="0.9">
<path d="M-15.585 176.018C-3.44694 210.623 -20.9237 244.352 -54.6205 251.353C-88.3173 258.355 -125.474 235.978 -137.612 201.374C-149.75 166.769 -132.273 133.04 -98.5764 126.039C-64.8796 119.037 -27.7231 141.414 -15.585 176.018Z" stroke="url(#paint0_linear_2001_1104)" stroke-opacity="0.8" stroke-width="2.83373" stroke-miterlimit="10"/>
<path d="M-4.98766 173.876C7.96793 210.811 -10.6857 246.811 -46.6516 254.284C-82.6175 261.758 -122.276 237.874 -135.232 200.938C-148.187 164.003 -129.534 128.003 -93.5679 120.53C-57.602 113.057 -17.9432 136.94 -4.98766 173.876Z" stroke="url(#paint1_linear_2001_1104)" stroke-opacity="0.8" stroke-width="2.83373" stroke-miterlimit="10"/>
<path d="M5.75897 171.702C19.5617 211.053 -0.311685 249.407 -38.6295 257.369C-76.9473 265.331 -119.199 239.885 -133.002 200.535C-146.805 161.184 -126.931 122.83 -88.6136 114.868C-50.2958 106.906 -8.04376 132.352 5.75897 171.702Z" stroke="url(#paint2_linear_2001_1104)" stroke-opacity="0.8" stroke-width="2.83373" stroke-miterlimit="10"/>
<path d="M16.6269 169.502C31.3011 211.337 10.1729 252.112 -30.5642 260.577C-71.3013 269.041 -116.221 241.989 -130.895 200.154C-145.569 158.319 -124.441 117.544 -83.7041 109.079C-42.967 100.615 1.95273 127.667 16.6269 169.502Z" stroke="url(#paint3_linear_2001_1104)" stroke-opacity="0.8" stroke-width="2.83373" stroke-miterlimit="10"/>
<path d="M27.5981 167.281C43.1641 211.659 20.7519 254.913 -22.4611 263.892C-65.674 272.871 -113.324 244.175 -128.89 199.797C-144.456 155.42 -122.044 112.166 -78.8307 103.187C-35.6177 94.2077 12.032 122.904 27.5981 167.281Z" stroke="url(#paint4_linear_2001_1104)" stroke-opacity="0.8" stroke-width="2.83373" stroke-miterlimit="10"/>
<path d="M38.6547 165.044C55.1297 212.013 31.4087 257.793 -14.3276 267.296C-60.0639 276.799 -110.496 246.427 -126.971 199.458C-143.446 152.489 -119.725 106.709 -73.9889 97.2061C-28.2526 87.7028 22.1797 118.075 38.6547 165.044Z" stroke="url(#paint5_linear_2001_1104)" stroke-opacity="0.8" stroke-width="2.83373" stroke-miterlimit="10"/>
<path d="M49.7841 162.789C67.1824 212.39 42.1322 260.736 -6.16719 270.772C-54.4666 280.808 -107.725 248.734 -125.123 199.132C-142.522 149.531 -117.471 101.186 -69.1721 91.1497C-20.8727 81.1139 32.3858 113.188 49.7841 162.789Z" stroke="url(#paint6_linear_2001_1104)" stroke-opacity="0.8" stroke-width="2.83373" stroke-miterlimit="10"/>
<path d="M60.9759 160.522C79.3097 212.79 52.9123 263.735 2.01568 274.31C-48.8809 284.886 -105.003 251.087 -123.337 198.819C-141.671 146.551 -115.273 95.6063 -64.3768 85.0308C-13.4802 74.4552 42.6421 108.254 60.9759 160.522Z" stroke="url(#paint7_linear_2001_1104)" stroke-opacity="0.8" stroke-width="2.83373" stroke-miterlimit="10"/>
<path d="M72.2174 158.245C91.4972 213.21 63.7379 266.784 10.2153 277.905C-43.3073 289.026 -102.325 253.484 -121.605 198.519C-140.885 143.554 -113.126 89.9801 -59.6029 78.8589C-6.08029 67.7378 52.9377 103.28 72.2174 158.245Z" stroke="url(#paint8_linear_2001_1104)" stroke-opacity="0.8" stroke-width="2.83373" stroke-miterlimit="10"/>
<path d="M83.5055 155.96C103.74 213.647 74.6061 269.874 18.4327 281.546C-37.7406 293.218 -99.6816 255.915 -119.916 198.228C-140.151 140.54 -111.017 84.3134 -54.8435 72.6414C1.32988 60.9695 63.2709 98.2724 83.5055 155.96Z" stroke="url(#paint9_linear_2001_1104)" stroke-opacity="0.8" stroke-width="2.83373" stroke-miterlimit="10"/>
<path d="M94.8335 153.664C116.031 214.096 85.5105 272.998 26.6645 285.225C-32.1814 297.452 -97.0693 258.375 -118.267 197.943C-139.464 137.511 -108.944 78.6093 -50.0977 66.382C8.74831 54.1547 73.6362 93.2322 94.8335 153.664Z" stroke="url(#paint10_linear_2001_1104)" stroke-opacity="0.8" stroke-width="2.83373" stroke-miterlimit="10"/>
<path d="M106.193 151.363C128.36 214.558 96.4439 276.154 34.9065 288.941C-26.6308 301.727 -94.4864 260.863 -116.653 197.667C-138.82 134.472 -106.904 72.8759 -45.3662 60.0894C16.1712 47.3029 84.0267 88.1675 106.193 151.363Z" stroke="url(#paint11_linear_2001_1104)" stroke-opacity="0.8" stroke-width="2.83373" stroke-miterlimit="10"/>
<path d="M117.585 149.055C140.727 215.031 107.406 279.337 43.1616 292.686C-21.0831 306.035 -91.924 263.372 -115.066 197.396C-138.208 131.42 -104.888 67.1145 -40.643 53.7654C23.6017 40.4164 94.4425 83.079 117.585 149.055Z" stroke="url(#paint12_linear_2001_1104)" stroke-opacity="0.8" stroke-width="2.83373" stroke-miterlimit="10"/>
<path d="M129.002 146.741C153.124 215.513 118.392 282.543 51.4252 296.457C-15.5416 310.372 -89.384 265.902 -113.506 197.131C-137.629 128.36 -102.897 61.3293 -35.93 47.4146C31.0368 33.5 104.879 77.9701 129.002 146.741Z" stroke="url(#paint13_linear_2001_1104)" stroke-opacity="0.8" stroke-width="2.83373" stroke-miterlimit="10"/>
<path d="M140.441 144.423C165.548 216.003 129.398 285.77 59.6967 300.253C-10.0047 314.736 -86.8626 268.45 -111.97 196.87C-137.078 125.29 -100.927 55.5227 -31.226 41.0399C38.4754 26.557 115.333 72.8432 140.441 144.423Z" stroke="url(#paint14_linear_2001_1104)" stroke-opacity="0.8" stroke-width="2.83373" stroke-miterlimit="10"/>
<path d="M151.9 142.101C177.997 216.5 140.423 289.016 67.9753 304.07C-4.47201 319.123 -84.3577 271.014 -110.454 196.614C-136.551 122.214 -98.9764 49.6984 -26.5291 34.645C45.9182 19.5915 125.804 67.7011 151.9 142.101Z" stroke="url(#paint15_linear_2001_1104)" stroke-opacity="0.8" stroke-width="2.83373" stroke-miterlimit="10"/>
<path d="M163.388 139.84C190.47 217.071 151.455 292.333 76.2454 307.942C1.03577 323.551 -81.888 273.597 -108.97 196.365C-136.052 119.134 -97.0368 43.8722 -21.8271 28.263C53.3825 12.6539 136.306 62.6085 163.388 139.84Z" stroke="url(#paint16_linear_2001_1104)" stroke-opacity="0.8" stroke-width="2.83373" stroke-miterlimit="10"/>
</g>
<defs>
<linearGradient id="paint0_linear_2001_1104" x1="-98.5764" y1="126.039" x2="-71.7964" y2="254.922" gradientUnits="userSpaceOnUse">
<stop stop-color="#FF7300"/>
<stop offset="0.783654" stop-color="#991F17"/>
<stop offset="1" stop-color="#FF7300"/>
</linearGradient>
<linearGradient id="paint1_linear_2001_1104" x1="-93.5679" y1="120.53" x2="-64.9842" y2="258.094" gradientUnits="userSpaceOnUse">
<stop stop-color="#FF7300"/>
<stop offset="0.783654" stop-color="#991F17"/>
<stop offset="1" stop-color="#FF7300"/>
</linearGradient>
<linearGradient id="paint2_linear_2001_1104" x1="-88.6136" y1="114.868" x2="-58.1609" y2="261.427" gradientUnits="userSpaceOnUse">
<stop stop-color="#FF7300"/>
<stop offset="0.783654" stop-color="#991F17"/>
<stop offset="1" stop-color="#FF7300"/>
</linearGradient>
<linearGradient id="paint3_linear_2001_1104" x1="-83.7041" y1="109.079" x2="-51.3287" y2="264.891" gradientUnits="userSpaceOnUse">
<stop stop-color="#FF7300"/>
<stop offset="0.783654" stop-color="#991F17"/>
<stop offset="1" stop-color="#FF7300"/>
</linearGradient>
<linearGradient id="paint4_linear_2001_1104" x1="-78.8307" y1="103.187" x2="-44.4876" y2="268.469" gradientUnits="userSpaceOnUse">
<stop stop-color="#FF7300"/>
<stop offset="0.783654" stop-color="#991F17"/>
<stop offset="1" stop-color="#FF7300"/>
</linearGradient>
<linearGradient id="paint5_linear_2001_1104" x1="-73.9889" y1="97.2061" x2="-37.6404" y2="272.14" gradientUnits="userSpaceOnUse">
<stop stop-color="#FF7300"/>
<stop offset="0.783654" stop-color="#991F17"/>
<stop offset="1" stop-color="#FF7300"/>
</linearGradient>
<linearGradient id="paint6_linear_2001_1104" x1="-69.1721" y1="91.1497" x2="-30.7865" y2="275.887" gradientUnits="userSpaceOnUse">
<stop stop-color="#FF7300"/>
<stop offset="0.783654" stop-color="#991F17"/>
<stop offset="1" stop-color="#FF7300"/>
</linearGradient>
<linearGradient id="paint7_linear_2001_1104" x1="-64.3768" y1="85.0308" x2="-23.9273" y2="279.701" gradientUnits="userSpaceOnUse">
<stop stop-color="#FF7300"/>
<stop offset="0.783654" stop-color="#991F17"/>
<stop offset="1" stop-color="#FF7300"/>
</linearGradient>
<linearGradient id="paint8_linear_2001_1104" x1="-59.6029" y1="78.8589" x2="-17.0663" y2="283.574" gradientUnits="userSpaceOnUse">
<stop stop-color="#FF7300"/>
<stop offset="0.783654" stop-color="#991F17"/>
<stop offset="1" stop-color="#FF7300"/>
</linearGradient>
<linearGradient id="paint9_linear_2001_1104" x1="-54.8435" y1="72.6414" x2="-10.2001" y2="287.496" gradientUnits="userSpaceOnUse">
<stop stop-color="#FF7300"/>
<stop offset="0.783654" stop-color="#991F17"/>
<stop offset="1" stop-color="#FF7300"/>
</linearGradient>
<linearGradient id="paint10_linear_2001_1104" x1="-50.0977" y1="66.382" x2="-3.33044" y2="291.457" gradientUnits="userSpaceOnUse">
<stop stop-color="#FF7300"/>
<stop offset="0.783654" stop-color="#991F17"/>
<stop offset="1" stop-color="#FF7300"/>
</linearGradient>
<linearGradient id="paint11_linear_2001_1104" x1="-45.3662" y1="60.0894" x2="3.53983" y2="295.458" gradientUnits="userSpaceOnUse">
<stop stop-color="#FF7300"/>
<stop offset="0.783654" stop-color="#991F17"/>
<stop offset="1" stop-color="#FF7300"/>
</linearGradient>
<linearGradient id="paint12_linear_2001_1104" x1="-40.643" y1="53.7654" x2="10.4148" y2="299.49" gradientUnits="userSpaceOnUse">
<stop stop-color="#FF7300"/>
<stop offset="0.783654" stop-color="#991F17"/>
<stop offset="1" stop-color="#FF7300"/>
</linearGradient>
<linearGradient id="paint13_linear_2001_1104" x1="-35.93" y1="47.4146" x2="17.291" y2="303.55" gradientUnits="userSpaceOnUse">
<stop stop-color="#FF7300"/>
<stop offset="0.783654" stop-color="#991F17"/>
<stop offset="1" stop-color="#FF7300"/>
</linearGradient>
<linearGradient id="paint14_linear_2001_1104" x1="-31.226" y1="41.0399" x2="24.1685" y2="307.636" gradientUnits="userSpaceOnUse">
<stop stop-color="#FF7300"/>
<stop offset="0.783654" stop-color="#991F17"/>
<stop offset="1" stop-color="#FF7300"/>
</linearGradient>
<linearGradient id="paint15_linear_2001_1104" x1="-26.5291" y1="34.645" x2="31.0475" y2="311.743" gradientUnits="userSpaceOnUse">
<stop stop-color="#FF7300"/>
<stop offset="0.783654" stop-color="#991F17"/>
<stop offset="1" stop-color="#FF7300"/>
</linearGradient>
<linearGradient id="paint16_linear_2001_1104" x1="-21.8271" y1="28.263" x2="37.8709" y2="315.906" gradientUnits="userSpaceOnUse">
<stop stop-color="#FF7300"/>
<stop offset="0.783654" stop-color="#991F17"/>
<stop offset="1" stop-color="#FF7300"/>
</linearGradient>
</defs>
</svg>
