<svg width="183" height="381" viewBox="0 0 183 381" fill="none" xmlns="http://www.w3.org/2000/svg">
<g opacity="0.9">
<path d="M17.9227 262.888C-5.7999 269.213 -18.6106 292.628 -10.6908 315.186C-2.77095 337.745 22.8803 350.905 46.603 344.58C70.3256 338.255 83.1364 314.841 75.2165 292.282C67.2967 269.724 41.6454 256.564 17.9227 262.888Z" stroke="url(#paint0_linear_2001_883)" stroke-opacity="0.8" stroke-width="2.27114" stroke-miterlimit="10"/>
<path d="M14.9721 253.751C-10.2074 260.464 -23.8049 285.317 -15.3989 309.26C-6.99289 333.203 20.2335 347.171 45.4129 340.458C70.5923 333.745 84.1899 308.893 75.7839 284.949C67.3779 261.006 40.1515 247.038 14.9721 253.751Z" stroke="url(#paint1_linear_2001_883)" stroke-opacity="0.8" stroke-width="2.27114" stroke-miterlimit="10"/>
<path d="M11.8909 244.245C-14.9592 251.403 -29.4588 277.905 -20.4948 303.438C-11.5307 328.971 17.5024 343.866 44.3525 336.707C71.2026 329.549 85.7022 303.047 76.7382 277.514C67.7742 251.981 38.7411 237.086 11.8909 244.245Z" stroke="url(#paint2_linear_2001_883)" stroke-opacity="0.8" stroke-width="2.27114" stroke-miterlimit="10"/>
<path d="M8.70333 234.433C-19.9953 242.084 -35.4932 270.41 -25.9122 297.7C-16.3312 324.99 14.7005 340.911 43.3992 333.259C72.0978 325.608 87.5957 297.282 78.0148 269.992C68.4338 242.702 37.402 226.781 8.70333 234.433Z" stroke="url(#paint3_linear_2001_883)" stroke-opacity="0.8" stroke-width="2.27114" stroke-miterlimit="10"/>
<path d="M5.42801 224.371C-25.264 232.554 -41.8385 262.847 -31.592 292.033C-21.3455 321.219 11.8417 338.245 42.5337 330.062C73.2257 321.879 89.8002 291.586 79.5537 262.4C69.3073 233.214 36.1201 216.188 5.42801 224.371Z" stroke="url(#paint4_linear_2001_883)" stroke-opacity="0.8" stroke-width="2.27114" stroke-miterlimit="10"/>
<path d="M2.08097 214.106C-30.7228 222.852 -48.4375 255.23 -37.4859 286.424C-26.5344 317.618 8.93626 335.816 41.74 327.07C74.5438 318.324 92.2585 285.946 81.307 254.752C70.3554 223.558 34.8847 205.36 2.08097 214.106Z" stroke="url(#paint5_linear_2001_883)" stroke-opacity="0.8" stroke-width="2.27114" stroke-miterlimit="10"/>
<path d="M-1.32508 203.673C-36.3381 213.008 -55.246 247.566 -43.557 280.86C-31.868 314.155 5.99154 333.578 41.0046 324.243C76.0177 314.908 94.9255 280.35 83.2365 247.055C71.5475 213.761 33.688 194.338 -1.32508 203.673Z" stroke="url(#paint6_linear_2001_883)" stroke-opacity="0.8" stroke-width="2.27114" stroke-miterlimit="10"/>
<path d="M-4.77969 193.101C-42.0822 203.046 -62.2264 239.864 -49.7731 275.336C-37.3197 310.808 3.01549 331.501 40.318 321.556C77.6205 311.61 97.7648 274.792 85.3114 239.321C72.858 203.849 32.5228 183.156 -4.77969 193.101Z" stroke="url(#paint7_linear_2001_883)" stroke-opacity="0.8" stroke-width="2.27114" stroke-miterlimit="10"/>
<path d="M-8.27332 182.417C-47.931 192.99 -69.347 232.133 -56.1074 269.844C-42.8677 307.555 0.0140572 329.555 39.6718 318.982C79.3295 308.409 100.746 269.266 87.5059 231.555C74.2662 193.843 31.3844 171.843 -8.27332 182.417Z" stroke="url(#paint8_linear_2001_883)" stroke-opacity="0.8" stroke-width="2.27114" stroke-miterlimit="10"/>
<path d="M-11.8008 171.637C-53.8687 182.853 -76.5864 224.374 -62.5421 264.378C-48.4978 304.381 -3.00979 327.718 39.0581 316.502C81.1261 305.286 103.844 263.765 89.7994 223.761C75.7551 183.758 30.2671 160.421 -11.8008 171.637Z" stroke="url(#paint9_linear_2001_883)" stroke-opacity="0.8" stroke-width="2.27114" stroke-miterlimit="10"/>
<path d="M-15.3563 160.779C-59.8809 172.649 -83.9251 216.596 -69.0607 258.935C-54.1963 301.274 -6.05203 325.974 38.4725 314.103C82.997 302.232 107.041 258.286 92.1769 215.947C77.3125 173.607 29.1682 148.908 -15.3563 160.779Z" stroke="url(#paint10_linear_2001_883)" stroke-opacity="0.8" stroke-width="2.27114" stroke-miterlimit="10"/>
<path d="M-18.9353 149.853C-65.9551 162.389 -91.3469 208.798 -75.6495 253.51C-59.9521 298.222 -9.10973 324.306 37.91 311.769C84.9298 299.233 110.322 252.824 94.6242 208.112C78.9268 163.4 28.0844 137.317 -18.9353 149.853Z" stroke="url(#paint11_linear_2001_883)" stroke-opacity="0.8" stroke-width="2.27114" stroke-miterlimit="10"/>
<path d="M-22.5342 138.87C-72.0821 152.08 -98.839 200.984 -82.2975 248.101C-65.7559 295.217 -12.1799 322.703 37.3679 309.493C86.9158 296.283 113.673 247.379 97.1312 200.262C80.5897 153.146 27.0136 125.659 -22.5342 138.87Z" stroke="url(#paint12_linear_2001_883)" stroke-opacity="0.8" stroke-width="2.27114" stroke-miterlimit="10"/>
<path d="M-26.1496 127.84C-78.254 141.731 -106.392 193.159 -88.9966 242.706C-71.6016 292.254 -15.2612 321.158 36.8432 307.266C88.9476 293.374 117.085 241.947 99.6902 192.399C82.2953 142.852 25.9548 113.948 -26.1496 127.84Z" stroke="url(#paint13_linear_2001_883)" stroke-opacity="0.8" stroke-width="2.27114" stroke-miterlimit="10"/>
<path d="M-29.7804 116.766C-84.4656 131.346 -113.997 185.321 -95.7403 237.322C-77.4838 289.323 -18.3529 319.659 36.3322 305.079C91.0174 290.5 120.549 236.525 102.292 184.524C84.0357 132.522 24.9048 102.187 -29.7804 116.766Z" stroke="url(#paint14_linear_2001_883)" stroke-opacity="0.8" stroke-width="2.27114" stroke-miterlimit="10"/>
<path d="M-33.4235 105.657C-90.7102 120.931 -121.646 177.473 -102.521 231.949C-83.3961 286.424 -21.4521 318.203 35.8346 302.93C93.1212 287.656 124.057 231.114 104.932 176.638C85.8071 122.163 23.8632 90.3837 -33.4235 105.657Z" stroke="url(#paint15_linear_2001_883)" stroke-opacity="0.8" stroke-width="2.27114" stroke-miterlimit="10"/>
<path d="M-37.0776 94.517C-96.9841 110.489 -129.335 169.618 -109.335 226.584C-89.3352 283.551 -24.5584 316.784 35.3481 300.812C95.2546 284.84 127.605 225.711 107.606 168.745C87.6058 111.778 22.8289 78.545 -37.0776 94.517Z" stroke="url(#paint16_linear_2001_883)" stroke-opacity="0.8" stroke-width="2.27114" stroke-miterlimit="10"/>
<path d="M-40.7415 83.3492C-103.284 100.024 -137.058 161.754 -116.178 221.227C-95.2987 280.7 -27.6718 315.395 34.8705 298.72C97.4128 282.045 131.187 220.315 110.307 160.842C89.4277 101.369 21.8008 66.6744 -40.7415 83.3492Z" stroke="url(#paint17_linear_2001_883)" stroke-opacity="0.8" stroke-width="2.27114" stroke-miterlimit="10"/>
<path d="M-44.4139 72.1568C-109.606 89.538 -144.811 153.884 -123.047 215.877C-101.282 277.869 -30.7902 314.034 34.402 296.653C99.5941 279.272 134.799 214.927 113.035 152.934C91.2704 90.9406 20.7783 54.7756 -44.4139 72.1568Z" stroke="url(#paint18_linear_2001_883)" stroke-opacity="0.8" stroke-width="2.27114" stroke-miterlimit="10"/>
<path d="M-48.0933 60.9444C-115.948 79.0354 -152.591 146.008 -129.938 210.533C-107.284 275.057 -33.9135 312.699 33.9409 294.608C101.795 276.517 138.438 209.544 115.785 145.019C93.1321 80.495 19.7612 42.8533 -48.0933 60.9444Z" stroke="url(#paint19_linear_2001_883)" stroke-opacity="0.8" stroke-width="2.27114" stroke-miterlimit="10"/>
<path d="M-51.7796 49.7122C-122.307 68.5159 -160.393 138.127 -136.848 205.194C-113.302 272.26 -37.041 311.385 33.4865 292.581C104.014 273.777 142.1 204.166 118.555 137.1C95.0092 70.0331 18.7479 30.9085 -51.7796 49.7122Z" stroke="url(#paint20_linear_2001_883)" stroke-opacity="0.8" stroke-width="2.27114" stroke-miterlimit="10"/>
<path d="M-55.4718 38.4637C-128.682 57.9828 -168.218 130.242 -143.777 199.86C-119.335 269.477 -40.1729 310.09 33.0377 290.571C106.248 271.052 145.784 198.793 121.343 129.175C96.9013 59.5575 17.7388 18.9447 -55.4718 38.4637Z" stroke="url(#paint21_linear_2001_883)" stroke-opacity="0.8" stroke-width="2.27114" stroke-miterlimit="10"/>
</g>
<defs>
<linearGradient id="paint0_linear_2001_883" x1="75.2165" y1="292.282" x2="-8.42289" y2="321.646" gradientUnits="userSpaceOnUse">
<stop stop-color="#FF7300"/>
<stop offset="0.548077" stop-color="#991F17"/>
<stop offset="0.783654" stop-color="white"/>
</linearGradient>
<linearGradient id="paint1_linear_2001_883" x1="75.7839" y1="284.949" x2="-12.9917" y2="316.116" gradientUnits="userSpaceOnUse">
<stop stop-color="#FF7300"/>
<stop offset="0.548077" stop-color="#991F17"/>
<stop offset="0.783654" stop-color="white"/>
</linearGradient>
<linearGradient id="paint2_linear_2001_883" x1="76.7382" y1="277.514" x2="-17.9279" y2="310.749" gradientUnits="userSpaceOnUse">
<stop stop-color="#FF7300"/>
<stop offset="0.548077" stop-color="#991F17"/>
<stop offset="0.783654" stop-color="white"/>
</linearGradient>
<linearGradient id="paint3_linear_2001_883" x1="78.0148" y1="269.992" x2="-23.1686" y2="305.515" gradientUnits="userSpaceOnUse">
<stop stop-color="#FF7300"/>
<stop offset="0.548077" stop-color="#991F17"/>
<stop offset="0.783654" stop-color="white"/>
</linearGradient>
<linearGradient id="paint4_linear_2001_883" x1="79.5537" y1="262.4" x2="-28.6578" y2="300.391" gradientUnits="userSpaceOnUse">
<stop stop-color="#FF7300"/>
<stop offset="0.548077" stop-color="#991F17"/>
<stop offset="0.783654" stop-color="white"/>
</linearGradient>
<linearGradient id="paint5_linear_2001_883" x1="81.307" y1="254.752" x2="-34.3499" y2="295.356" gradientUnits="userSpaceOnUse">
<stop stop-color="#FF7300"/>
<stop offset="0.548077" stop-color="#991F17"/>
<stop offset="0.783654" stop-color="white"/>
</linearGradient>
<linearGradient id="paint6_linear_2001_883" x1="83.2365" y1="247.055" x2="-40.2097" y2="290.395" gradientUnits="userSpaceOnUse">
<stop stop-color="#FF7300"/>
<stop offset="0.548077" stop-color="#991F17"/>
<stop offset="0.783654" stop-color="white"/>
</linearGradient>
<linearGradient id="paint7_linear_2001_883" x1="85.3114" y1="239.321" x2="-46.2069" y2="285.494" gradientUnits="userSpaceOnUse">
<stop stop-color="#FF7300"/>
<stop offset="0.548077" stop-color="#991F17"/>
<stop offset="0.783654" stop-color="white"/>
</linearGradient>
<linearGradient id="paint8_linear_2001_883" x1="87.5059" y1="231.555" x2="-52.3161" y2="280.643" gradientUnits="userSpaceOnUse">
<stop stop-color="#FF7300"/>
<stop offset="0.548077" stop-color="#991F17"/>
<stop offset="0.783654" stop-color="white"/>
</linearGradient>
<linearGradient id="paint9_linear_2001_883" x1="89.7994" y1="223.761" x2="-58.5204" y2="275.833" gradientUnits="userSpaceOnUse">
<stop stop-color="#FF7300"/>
<stop offset="0.548077" stop-color="#991F17"/>
<stop offset="0.783654" stop-color="white"/>
</linearGradient>
<linearGradient id="paint10_linear_2001_883" x1="92.1769" y1="215.946" x2="-64.8042" y2="271.059" gradientUnits="userSpaceOnUse">
<stop stop-color="#FF7300"/>
<stop offset="0.548077" stop-color="#991F17"/>
<stop offset="0.783654" stop-color="white"/>
</linearGradient>
<linearGradient id="paint11_linear_2001_883" x1="94.6242" y1="208.112" x2="-71.1544" y2="266.314" gradientUnits="userSpaceOnUse">
<stop stop-color="#FF7300"/>
<stop offset="0.548077" stop-color="#991F17"/>
<stop offset="0.783654" stop-color="white"/>
</linearGradient>
<linearGradient id="paint12_linear_2001_883" x1="97.1312" y1="200.262" x2="-77.5607" y2="261.593" gradientUnits="userSpaceOnUse">
<stop stop-color="#FF7300"/>
<stop offset="0.548077" stop-color="#991F17"/>
<stop offset="0.783654" stop-color="white"/>
</linearGradient>
<linearGradient id="paint13_linear_2001_883" x1="99.6902" y1="192.399" x2="-84.0154" y2="256.895" gradientUnits="userSpaceOnUse">
<stop stop-color="#FF7300"/>
<stop offset="0.548077" stop-color="#991F17"/>
<stop offset="0.783654" stop-color="white"/>
</linearGradient>
<linearGradient id="paint14_linear_2001_883" x1="102.292" y1="184.524" x2="-90.5124" y2="252.213" gradientUnits="userSpaceOnUse">
<stop stop-color="#FF7300"/>
<stop offset="0.548077" stop-color="#991F17"/>
<stop offset="0.783654" stop-color="white"/>
</linearGradient>
<linearGradient id="paint15_linear_2001_883" x1="104.932" y1="176.638" x2="-97.0446" y2="247.548" gradientUnits="userSpaceOnUse">
<stop stop-color="#FF7300"/>
<stop offset="0.548077" stop-color="#991F17"/>
<stop offset="0.783654" stop-color="white"/>
</linearGradient>
<linearGradient id="paint16_linear_2001_883" x1="107.606" y1="168.745" x2="-103.608" y2="242.897" gradientUnits="userSpaceOnUse">
<stop stop-color="#FF7300"/>
<stop offset="0.548077" stop-color="#991F17"/>
<stop offset="0.783654" stop-color="white"/>
</linearGradient>
<linearGradient id="paint17_linear_2001_883" x1="110.307" y1="160.842" x2="-110.199" y2="238.257" gradientUnits="userSpaceOnUse">
<stop stop-color="#FF7300"/>
<stop offset="0.548077" stop-color="#991F17"/>
<stop offset="0.783654" stop-color="white"/>
</linearGradient>
<linearGradient id="paint18_linear_2001_883" x1="113.035" y1="152.934" x2="-116.814" y2="233.629" gradientUnits="userSpaceOnUse">
<stop stop-color="#FF7300"/>
<stop offset="0.548077" stop-color="#991F17"/>
<stop offset="0.783654" stop-color="white"/>
</linearGradient>
<linearGradient id="paint19_linear_2001_883" x1="115.785" y1="145.019" x2="-123.451" y2="229.01" gradientUnits="userSpaceOnUse">
<stop stop-color="#FF7300"/>
<stop offset="0.548077" stop-color="#991F17"/>
<stop offset="0.783654" stop-color="white"/>
</linearGradient>
<linearGradient id="paint20_linear_2001_883" x1="118.555" y1="137.1" x2="-130.105" y2="224.399" gradientUnits="userSpaceOnUse">
<stop stop-color="#FF7300"/>
<stop offset="0.548077" stop-color="#991F17"/>
<stop offset="0.783654" stop-color="white"/>
</linearGradient>
<linearGradient id="paint21_linear_2001_883" x1="121.343" y1="129.175" x2="-136.778" y2="219.795" gradientUnits="userSpaceOnUse">
<stop stop-color="#FF7300"/>
<stop offset="0.548077" stop-color="#991F17"/>
<stop offset="0.783654" stop-color="white"/>
</linearGradient>
</defs>
</svg>
