<svg width="378" height="356" viewBox="0 0 378 356" fill="none" xmlns="http://www.w3.org/2000/svg">
<g opacity="0.9">
<path d="M407.917 31.0811C423.753 78.0822 473.912 102.283 519.95 85.1357C565.987 67.9881 590.471 15.9854 574.635 -31.0156C558.799 -78.0167 508.64 -102.218 462.602 -85.0702C416.564 -67.9226 392.08 -15.9199 407.917 31.0811Z" stroke="url(#paint0_linear_4271_507)" stroke-opacity="0.8" stroke-width="2.27114" stroke-miterlimit="10"/>
<path d="M394.125 36.1747C410.961 86.1432 464.287 111.872 513.232 93.642C562.177 75.4118 588.206 20.1258 571.37 -29.8427C554.534 -79.8113 501.208 -105.54 452.263 -87.3101C403.319 -69.0799 377.289 -13.7939 394.125 36.1747Z" stroke="url(#paint1_linear_4271_507)" stroke-opacity="0.8" stroke-width="2.27114" stroke-miterlimit="10"/>
<path d="M380.21 41.3148C398.07 94.3203 454.636 121.613 506.556 102.275C558.475 82.9367 586.086 24.2906 568.227 -28.7148C550.368 -81.7202 493.801 -109.013 441.882 -89.6748C389.962 -70.3367 362.351 -11.6906 380.21 41.3148Z" stroke="url(#paint2_linear_4271_507)" stroke-opacity="0.8" stroke-width="2.27114" stroke-miterlimit="10"/>
<path d="M366.193 46.4933C385.095 102.594 444.965 131.481 499.916 111.013C554.867 90.5458 584.091 28.4751 565.189 -27.6257C546.287 -83.7264 486.417 -112.613 431.466 -92.1456C376.514 -71.6782 347.291 -9.60745 366.193 46.4933Z" stroke="url(#paint3_linear_4271_507)" stroke-opacity="0.8" stroke-width="2.27114" stroke-miterlimit="10"/>
<path d="M352.088 51.7041C372.05 110.949 435.275 141.454 493.305 119.84C551.336 98.2256 582.197 32.6763 562.236 -26.5684C542.274 -85.8132 479.049 -116.319 421.019 -94.7042C362.988 -73.0899 332.127 -7.5406 352.088 51.7041Z" stroke="url(#paint4_linear_4271_507)" stroke-opacity="0.8" stroke-width="2.27114" stroke-miterlimit="10"/>
<path d="M337.909 56.9425C358.944 119.373 425.569 151.518 486.72 128.741C547.871 105.965 580.392 36.8911 559.357 -25.539C538.322 -87.9691 471.698 -120.115 410.547 -97.338C349.395 -74.5613 316.875 -5.48756 337.909 56.9425Z" stroke="url(#paint5_linear_4271_507)" stroke-opacity="0.8" stroke-width="2.27114" stroke-miterlimit="10"/>
<path d="M323.669 62.2035C345.789 127.855 415.851 161.659 480.158 137.707C544.464 113.755 578.662 41.1177 556.542 -24.5337C534.422 -90.1851 464.36 -123.989 400.054 -100.038C335.748 -76.0857 301.549 -3.44793 323.669 62.2035Z" stroke="url(#paint6_linear_4271_507)" stroke-opacity="0.8" stroke-width="2.27114" stroke-miterlimit="10"/>
<path d="M309.373 67.4858C332.589 136.389 406.121 171.867 473.612 146.729C541.103 121.591 576.995 45.3559 553.78 -23.5472C530.564 -92.4503 457.032 -127.929 389.541 -102.791C322.05 -77.6527 286.158 -1.41731 309.373 67.4858Z" stroke="url(#paint7_linear_4271_507)" stroke-opacity="0.8" stroke-width="2.27114" stroke-miterlimit="10"/>
<path d="M295.031 72.785C319.351 144.966 396.381 182.132 467.083 155.798C537.785 129.464 575.385 49.6019 551.065 -22.5791C526.745 -94.7601 449.715 -131.926 379.013 -105.592C308.311 -79.2583 270.711 0.603973 295.031 72.785Z" stroke="url(#paint8_linear_4271_507)" stroke-opacity="0.8" stroke-width="2.27114" stroke-miterlimit="10"/>
<path d="M280.648 78.0994C306.08 153.581 386.634 192.447 460.569 164.909C534.505 137.37 573.825 53.8557 548.393 -21.6263C522.96 -97.1083 442.407 -135.974 368.471 -108.436C294.535 -80.8972 255.215 2.61739 280.648 78.0994Z" stroke="url(#paint9_linear_4271_507)" stroke-opacity="0.8" stroke-width="2.27114" stroke-miterlimit="10"/>
<path d="M266.229 83.4272C292.78 162.23 376.878 202.806 454.066 174.056C531.255 145.306 572.304 58.1173 545.753 -20.6858C519.202 -99.4889 435.104 -140.065 357.916 -111.315C280.727 -82.5649 239.678 4.62413 266.229 83.4272Z" stroke="url(#paint10_linear_4271_507)" stroke-opacity="0.8" stroke-width="2.27114" stroke-miterlimit="10"/>
<path d="M251.778 88.7667C279.455 170.909 367.115 213.204 447.574 183.235C528.034 153.267 570.823 62.3841 543.146 -19.7578C515.47 -101.9 427.809 -144.195 347.35 -114.226C266.891 -84.2583 224.102 6.62489 251.778 88.7667Z" stroke="url(#paint11_linear_4271_507)" stroke-opacity="0.8" stroke-width="2.27114" stroke-miterlimit="10"/>
<path d="M237.301 94.1159C266.108 179.612 357.348 223.635 441.093 192.443C524.838 161.251 569.374 66.6562 540.567 -18.8402C511.761 -104.337 420.52 -148.359 336.776 -117.167C253.031 -85.9751 208.495 8.61946 237.301 94.1159Z" stroke="url(#paint12_linear_4271_507)" stroke-opacity="0.8" stroke-width="2.27114" stroke-miterlimit="10"/>
<path d="M222.799 99.4748C252.74 188.339 347.575 234.096 434.619 201.675C521.663 169.254 567.954 70.9331 538.012 -17.9313C508.071 -106.796 413.236 -152.552 326.192 -120.131C239.149 -87.7106 192.858 10.6104 222.799 99.4748Z" stroke="url(#paint13_linear_4271_507)" stroke-opacity="0.8" stroke-width="2.27114" stroke-miterlimit="10"/>
<path d="M208.276 104.841C239.356 197.087 337.798 244.584 428.153 210.93C518.508 177.276 566.56 75.2144 535.48 -17.0307C504.399 -109.276 405.957 -156.773 315.602 -123.119C225.247 -89.4651 177.195 12.5963 208.276 104.841Z" stroke="url(#paint14_linear_4271_507)" stroke-opacity="0.8" stroke-width="2.27114" stroke-miterlimit="10"/>
</g>
<g filter="url(#filter0_f_4271_507)">
<ellipse cx="399.5" cy="-28.5" rx="161.5" ry="146.5" fill="#FF7300"/>
</g>
<defs>
<filter id="filter0_f_4271_507" x="0.300003" y="-412.7" width="798.4" height="768.4" filterUnits="userSpaceOnUse" color-interpolation-filters="sRGB">
<feFlood flood-opacity="0" result="BackgroundImageFix"/>
<feBlend mode="normal" in="SourceGraphic" in2="BackgroundImageFix" result="shape"/>
<feGaussianBlur stdDeviation="118.85" result="effect1_foregroundBlur_4271_507"/>
</filter>
<linearGradient id="paint0_linear_4271_507" x1="462.602" y1="-85.0702" x2="525.261" y2="83.1574" gradientUnits="userSpaceOnUse">
<stop stop-color="#FF7300"/>
<stop offset="1" stop-color="#991F17"/>
</linearGradient>
<linearGradient id="paint1_linear_4271_507" x1="452.263" y1="-87.3101" x2="518.878" y2="91.5388" gradientUnits="userSpaceOnUse">
<stop stop-color="#FF7300"/>
<stop offset="1" stop-color="#991F17"/>
</linearGradient>
<linearGradient id="paint2_linear_4271_507" x1="441.882" y1="-89.6748" x2="512.545" y2="100.044" gradientUnits="userSpaceOnUse">
<stop stop-color="#FF7300"/>
<stop offset="1" stop-color="#991F17"/>
</linearGradient>
<linearGradient id="paint3_linear_4271_507" x1="431.466" y1="-92.1456" x2="506.256" y2="108.652" gradientUnits="userSpaceOnUse">
<stop stop-color="#FF7300"/>
<stop offset="1" stop-color="#991F17"/>
</linearGradient>
<linearGradient id="paint4_linear_4271_507" x1="421.019" y1="-94.7042" x2="500" y2="117.346" gradientUnits="userSpaceOnUse">
<stop stop-color="#FF7300"/>
<stop offset="1" stop-color="#991F17"/>
</linearGradient>
<linearGradient id="paint5_linear_4271_507" x1="410.547" y1="-97.338" x2="493.775" y2="126.114" gradientUnits="userSpaceOnUse">
<stop stop-color="#FF7300"/>
<stop offset="1" stop-color="#991F17"/>
</linearGradient>
<linearGradient id="paint6_linear_4271_507" x1="400.054" y1="-100.038" x2="487.576" y2="134.944" gradientUnits="userSpaceOnUse">
<stop stop-color="#FF7300"/>
<stop offset="1" stop-color="#991F17"/>
</linearGradient>
<linearGradient id="paint7_linear_4271_507" x1="389.541" y1="-102.791" x2="481.398" y2="143.829" gradientUnits="userSpaceOnUse">
<stop stop-color="#FF7300"/>
<stop offset="1" stop-color="#991F17"/>
</linearGradient>
<linearGradient id="paint8_linear_4271_507" x1="379.013" y1="-105.592" x2="475.24" y2="152.76" gradientUnits="userSpaceOnUse">
<stop stop-color="#FF7300"/>
<stop offset="1" stop-color="#991F17"/>
</linearGradient>
<linearGradient id="paint9_linear_4271_507" x1="368.471" y1="-108.436" x2="469.099" y2="161.732" gradientUnits="userSpaceOnUse">
<stop stop-color="#FF7300"/>
<stop offset="1" stop-color="#991F17"/>
</linearGradient>
<linearGradient id="paint10_linear_4271_507" x1="357.916" y1="-111.315" x2="462.971" y2="170.739" gradientUnits="userSpaceOnUse">
<stop stop-color="#FF7300"/>
<stop offset="1" stop-color="#991F17"/>
</linearGradient>
<linearGradient id="paint11_linear_4271_507" x1="347.35" y1="-114.226" x2="456.857" y2="179.778" gradientUnits="userSpaceOnUse">
<stop stop-color="#FF7300"/>
<stop offset="1" stop-color="#991F17"/>
</linearGradient>
<linearGradient id="paint12_linear_4271_507" x1="336.776" y1="-117.167" x2="450.754" y2="188.844" gradientUnits="userSpaceOnUse">
<stop stop-color="#FF7300"/>
<stop offset="1" stop-color="#991F17"/>
</linearGradient>
<linearGradient id="paint13_linear_4271_507" x1="326.192" y1="-120.131" x2="444.661" y2="197.935" gradientUnits="userSpaceOnUse">
<stop stop-color="#FF7300"/>
<stop offset="1" stop-color="#991F17"/>
</linearGradient>
<linearGradient id="paint14_linear_4271_507" x1="315.602" y1="-123.119" x2="438.577" y2="207.047" gradientUnits="userSpaceOnUse">
<stop stop-color="#FF7300"/>
<stop offset="1" stop-color="#991F17"/>
</linearGradient>
</defs>
</svg>
