<svg width="856" height="761" viewBox="0 0 856 761" fill="none" xmlns="http://www.w3.org/2000/svg">
<g filter="url(#filter0_f_4271_510)">
<ellipse cx="428.129" cy="405" rx="200.129" ry="184" fill="#FF7300"/>
</g>
<g opacity="0.9">
<path d="M506.367 329.082C522.628 355.31 557.149 363.455 583.471 347.276C609.793 331.097 617.949 296.719 601.688 270.492C585.426 244.264 550.905 236.118 524.583 252.297C498.261 268.476 490.105 302.854 506.367 329.082Z" stroke="url(#paint0_linear_4271_510)" stroke-opacity="0.8" stroke-width="2.27114" stroke-miterlimit="10"/>
<path d="M495.711 335.633C512.971 363.471 549.612 372.118 577.55 354.945C605.487 337.773 614.144 301.284 596.884 273.446C579.624 245.608 542.984 236.961 515.046 254.134C487.108 271.306 478.452 307.795 495.711 335.633Z" stroke="url(#paint1_linear_4271_510)" stroke-opacity="0.8" stroke-width="2.27114" stroke-miterlimit="10"/>
<path d="M484.625 342.45C503.031 372.135 542.103 381.355 571.895 363.043C601.688 344.73 610.919 305.82 592.514 276.135C574.108 246.449 535.036 237.23 505.244 255.542C475.451 273.854 466.22 312.764 484.625 342.45Z" stroke="url(#paint2_linear_4271_510)" stroke-opacity="0.8" stroke-width="2.27114" stroke-miterlimit="10"/>
<path d="M473.183 349.485C492.855 381.214 534.617 391.069 566.46 371.496C598.303 351.923 608.169 310.335 588.497 278.606C568.824 246.876 527.063 237.022 495.22 256.594C463.377 276.167 453.51 317.756 473.183 349.485Z" stroke="url(#paint3_linear_4271_510)" stroke-opacity="0.8" stroke-width="2.27114" stroke-miterlimit="10"/>
<path d="M461.449 356.699C482.487 390.632 527.15 401.171 561.204 380.239C595.259 359.307 605.811 314.83 584.772 280.897C563.733 246.964 519.071 236.425 485.016 257.357C450.961 278.289 440.41 322.766 461.449 356.699Z" stroke="url(#paint4_linear_4271_510)" stroke-opacity="0.8" stroke-width="2.27114" stroke-miterlimit="10"/>
<path d="M449.477 364.06C471.964 400.327 519.699 411.592 556.097 389.219C592.495 366.846 603.773 319.309 581.287 283.041C558.8 246.773 511.065 235.509 474.667 257.882C438.269 280.254 426.991 327.792 449.477 364.06Z" stroke="url(#paint5_linear_4271_510)" stroke-opacity="0.8" stroke-width="2.27114" stroke-miterlimit="10"/>
<path d="M437.309 371.541C461.31 410.251 512.26 422.274 551.109 398.395C589.959 374.516 601.996 323.777 577.995 285.066C553.994 246.356 503.044 234.333 464.195 258.212C425.346 282.092 413.309 332.83 437.309 371.541Z" stroke="url(#paint6_linear_4271_510)" stroke-opacity="0.8" stroke-width="2.27114" stroke-miterlimit="10"/>
<path d="M424.98 379.121C450.551 420.363 504.832 433.172 546.222 407.731C587.612 382.29 600.436 328.234 574.866 286.992C549.296 245.75 495.014 232.941 453.624 258.382C412.234 283.823 399.41 337.879 424.98 379.121Z" stroke="url(#paint7_linear_4271_510)" stroke-opacity="0.8" stroke-width="2.27114" stroke-miterlimit="10"/>
<path d="M412.52 386.782C439.704 430.627 497.413 444.245 541.416 417.198C585.419 390.151 599.053 332.681 571.869 288.836C544.684 244.99 486.975 231.372 442.972 258.419C398.969 285.466 385.335 342.936 412.52 386.782Z" stroke="url(#paint8_linear_4271_510)" stroke-opacity="0.8" stroke-width="2.27114" stroke-miterlimit="10"/>
<path d="M399.948 394.511C428.785 441.021 490.001 455.467 536.678 426.776C583.355 398.085 597.818 337.123 568.981 290.612C540.144 244.102 478.928 229.657 432.251 258.348C385.574 287.038 371.111 348.001 399.948 394.511Z" stroke="url(#paint9_linear_4271_510)" stroke-opacity="0.8" stroke-width="2.27114" stroke-miterlimit="10"/>
<path d="M387.284 402.297C417.805 451.524 482.596 466.813 531.999 436.446C581.402 406.08 596.709 341.558 566.188 292.332C535.667 243.105 470.876 227.816 421.473 258.182C372.071 288.549 356.763 353.071 387.284 402.297Z" stroke="url(#paint10_linear_4271_510)" stroke-opacity="0.8" stroke-width="2.27114" stroke-miterlimit="10"/>
<path d="M374.542 410.132C406.773 462.117 475.195 478.263 527.366 446.195C579.538 414.127 595.703 345.988 563.471 294.003C531.24 242.018 462.818 225.873 410.647 257.94C358.476 290.008 342.311 358.147 374.542 410.132Z" stroke="url(#paint11_linear_4271_510)" stroke-opacity="0.8" stroke-width="2.27114" stroke-miterlimit="10"/>
<path d="M361.733 418.007C395.697 472.787 467.798 489.801 522.775 456.008C577.752 422.216 594.786 350.414 560.822 295.634C526.858 240.854 454.757 223.84 399.78 257.632C344.803 291.425 327.769 363.227 361.733 418.007Z" stroke="url(#paint12_linear_4271_510)" stroke-opacity="0.8" stroke-width="2.27114" stroke-miterlimit="10"/>
<path d="M348.868 425.916C384.585 483.522 460.406 501.414 518.219 465.878C576.033 430.342 593.946 354.836 558.229 297.229C522.513 239.622 446.692 221.731 388.878 257.266C331.065 292.802 313.152 368.309 348.868 425.916Z" stroke="url(#paint13_linear_4271_510)" stroke-opacity="0.8" stroke-width="2.27114" stroke-miterlimit="10"/>
<path d="M335.954 433.856C373.44 494.316 453.016 513.094 513.693 475.798C574.37 438.502 593.17 359.256 555.684 298.796C518.199 238.336 438.622 219.558 377.946 256.854C317.269 294.15 298.469 373.396 335.954 433.856Z" stroke="url(#paint14_linear_4271_510)" stroke-opacity="0.8" stroke-width="2.27114" stroke-miterlimit="10"/>
<path d="M322.998 441.821C362.267 505.157 445.629 524.829 509.193 485.759C572.756 446.688 592.451 363.672 553.182 300.336C513.913 237 430.551 217.328 366.987 256.398C303.424 295.469 283.729 378.485 322.998 441.821Z" stroke="url(#paint15_linear_4271_510)" stroke-opacity="0.8" stroke-width="2.27114" stroke-miterlimit="10"/>
<path d="M310.005 449.809C351.07 516.042 438.245 536.613 504.716 495.756C571.187 454.898 591.782 368.085 550.717 301.852C509.653 235.62 422.478 215.049 356.007 255.906C289.536 296.763 268.941 383.577 310.005 449.809Z" stroke="url(#paint16_linear_4271_510)" stroke-opacity="0.8" stroke-width="2.27114" stroke-miterlimit="10"/>
<path d="M296.981 457.817C339.852 526.964 430.862 548.44 500.257 505.785C569.652 463.131 591.154 372.498 548.282 303.351C505.411 234.204 414.401 212.728 345.006 255.383C275.611 298.038 254.109 388.671 296.981 457.817Z" stroke="url(#paint17_linear_4271_510)" stroke-opacity="0.8" stroke-width="2.27114" stroke-miterlimit="10"/>
<path d="M283.927 465.843C328.615 537.919 423.481 560.305 495.817 515.843C568.152 471.381 590.565 376.908 545.877 304.831C501.189 232.755 406.323 210.369 333.988 254.831C261.652 299.293 239.239 393.766 283.927 465.843Z" stroke="url(#paint18_linear_4271_510)" stroke-opacity="0.8" stroke-width="2.27114" stroke-miterlimit="10"/>
<path d="M270.85 473.882C317.363 548.902 416.103 572.202 491.393 525.925C566.682 479.647 590.01 381.316 543.497 306.296C496.984 231.277 398.244 207.976 322.954 254.254C247.665 300.532 224.337 398.863 270.85 473.882Z" stroke="url(#paint19_linear_4271_510)" stroke-opacity="0.8" stroke-width="2.27114" stroke-miterlimit="10"/>
<path d="M257.751 481.936C306.096 559.911 408.726 584.129 486.981 536.029C565.236 487.928 589.483 385.723 541.138 307.748C492.793 229.773 390.163 205.555 311.908 253.656C233.652 301.757 209.405 403.961 257.751 481.936Z" stroke="url(#paint20_linear_4271_510)" stroke-opacity="0.8" stroke-width="2.27114" stroke-miterlimit="10"/>
<path d="M244.632 490.002C294.816 570.943 401.35 596.083 482.582 546.152C563.815 496.222 588.984 390.129 538.799 309.188C488.615 228.246 382.081 203.107 300.849 253.037C219.616 302.968 194.447 409.06 244.632 490.002Z" stroke="url(#paint21_linear_4271_510)" stroke-opacity="0.8" stroke-width="2.27114" stroke-miterlimit="10"/>
</g>
<defs>
<filter id="filter0_f_4271_510" x="0.814316" y="-6.18568" width="854.629" height="822.371" filterUnits="userSpaceOnUse" color-interpolation-filters="sRGB">
<feFlood flood-opacity="0" result="BackgroundImageFix"/>
<feBlend mode="normal" in="SourceGraphic" in2="BackgroundImageFix" result="shape"/>
<feGaussianBlur stdDeviation="113.593" result="effect1_foregroundBlur_4271_510"/>
</filter>
<linearGradient id="paint0_linear_4271_510" x1="524.583" y1="252.297" x2="583.103" y2="347.503" gradientUnits="userSpaceOnUse">
<stop stop-color="#FF7300"/>
<stop offset="0.548077" stop-color="#CD241A"/>
<stop offset="0.783654" stop-color="#FFECE3"/>
</linearGradient>
<linearGradient id="paint1_linear_4271_510" x1="515.046" y1="254.134" x2="577.158" y2="355.186" gradientUnits="userSpaceOnUse">
<stop stop-color="#FF7300"/>
<stop offset="0.548077" stop-color="#CD241A"/>
<stop offset="0.783654" stop-color="#FFECE3"/>
</linearGradient>
<linearGradient id="paint2_linear_4271_510" x1="505.244" y1="255.542" x2="571.478" y2="363.299" gradientUnits="userSpaceOnUse">
<stop stop-color="#FF7300"/>
<stop offset="0.548077" stop-color="#CD241A"/>
<stop offset="0.783654" stop-color="#FFECE3"/>
</linearGradient>
<linearGradient id="paint3_linear_4271_510" x1="495.22" y1="256.594" x2="566.014" y2="371.77" gradientUnits="userSpaceOnUse">
<stop stop-color="#FF7300"/>
<stop offset="0.548077" stop-color="#CD241A"/>
<stop offset="0.783654" stop-color="#FFECE3"/>
</linearGradient>
<linearGradient id="paint4_linear_4271_510" x1="485.016" y1="257.357" x2="560.728" y2="380.532" gradientUnits="userSpaceOnUse">
<stop stop-color="#FF7300"/>
<stop offset="0.548077" stop-color="#CD241A"/>
<stop offset="0.783654" stop-color="#FFECE3"/>
</linearGradient>
<linearGradient id="paint5_linear_4271_510" x1="474.667" y1="257.882" x2="555.588" y2="389.532" gradientUnits="userSpaceOnUse">
<stop stop-color="#FF7300"/>
<stop offset="0.548077" stop-color="#CD241A"/>
<stop offset="0.783654" stop-color="#FFECE3"/>
</linearGradient>
<linearGradient id="paint6_linear_4271_510" x1="464.195" y1="258.212" x2="550.566" y2="398.729" gradientUnits="userSpaceOnUse">
<stop stop-color="#FF7300"/>
<stop offset="0.548077" stop-color="#CD241A"/>
<stop offset="0.783654" stop-color="#FFECE3"/>
</linearGradient>
<linearGradient id="paint7_linear_4271_510" x1="453.624" y1="258.382" x2="545.643" y2="408.087" gradientUnits="userSpaceOnUse">
<stop stop-color="#FF7300"/>
<stop offset="0.548077" stop-color="#CD241A"/>
<stop offset="0.783654" stop-color="#FFECE3"/>
</linearGradient>
<linearGradient id="paint8_linear_4271_510" x1="442.972" y1="258.419" x2="540.8" y2="417.576" gradientUnits="userSpaceOnUse">
<stop stop-color="#FF7300"/>
<stop offset="0.548077" stop-color="#CD241A"/>
<stop offset="0.783654" stop-color="#FFECE3"/>
</linearGradient>
<linearGradient id="paint9_linear_4271_510" x1="432.251" y1="258.348" x2="536.025" y2="427.178" gradientUnits="userSpaceOnUse">
<stop stop-color="#FF7300"/>
<stop offset="0.548077" stop-color="#CD241A"/>
<stop offset="0.783654" stop-color="#FFECE3"/>
</linearGradient>
<linearGradient id="paint10_linear_4271_510" x1="421.473" y1="258.182" x2="531.307" y2="436.871" gradientUnits="userSpaceOnUse">
<stop stop-color="#FF7300"/>
<stop offset="0.548077" stop-color="#CD241A"/>
<stop offset="0.783654" stop-color="#FFECE3"/>
</linearGradient>
<linearGradient id="paint11_linear_4271_510" x1="410.647" y1="257.94" x2="526.636" y2="446.644" gradientUnits="userSpaceOnUse">
<stop stop-color="#FF7300"/>
<stop offset="0.548077" stop-color="#CD241A"/>
<stop offset="0.783654" stop-color="#FFECE3"/>
</linearGradient>
<linearGradient id="paint12_linear_4271_510" x1="399.78" y1="257.632" x2="522.005" y2="456.481" gradientUnits="userSpaceOnUse">
<stop stop-color="#FF7300"/>
<stop offset="0.548077" stop-color="#CD241A"/>
<stop offset="0.783654" stop-color="#FFECE3"/>
</linearGradient>
<linearGradient id="paint13_linear_4271_510" x1="388.878" y1="257.266" x2="517.41" y2="466.376" gradientUnits="userSpaceOnUse">
<stop stop-color="#FF7300"/>
<stop offset="0.548077" stop-color="#CD241A"/>
<stop offset="0.783654" stop-color="#FFECE3"/>
</linearGradient>
<linearGradient id="paint14_linear_4271_510" x1="377.946" y1="256.854" x2="512.844" y2="476.32" gradientUnits="userSpaceOnUse">
<stop stop-color="#FF7300"/>
<stop offset="0.548077" stop-color="#CD241A"/>
<stop offset="0.783654" stop-color="#FFECE3"/>
</linearGradient>
<linearGradient id="paint15_linear_4271_510" x1="366.987" y1="256.398" x2="508.303" y2="486.305" gradientUnits="userSpaceOnUse">
<stop stop-color="#FF7300"/>
<stop offset="0.548077" stop-color="#CD241A"/>
<stop offset="0.783654" stop-color="#FFECE3"/>
</linearGradient>
<linearGradient id="paint16_linear_4271_510" x1="356.007" y1="255.906" x2="503.785" y2="496.327" gradientUnits="userSpaceOnUse">
<stop stop-color="#FF7300"/>
<stop offset="0.548077" stop-color="#CD241A"/>
<stop offset="0.783654" stop-color="#FFECE3"/>
</linearGradient>
<linearGradient id="paint17_linear_4271_510" x1="345.006" y1="255.383" x2="499.286" y2="506.382" gradientUnits="userSpaceOnUse">
<stop stop-color="#FF7300"/>
<stop offset="0.548077" stop-color="#CD241A"/>
<stop offset="0.783654" stop-color="#FFECE3"/>
</linearGradient>
<linearGradient id="paint18_linear_4271_510" x1="333.988" y1="254.831" x2="494.804" y2="516.465" gradientUnits="userSpaceOnUse">
<stop stop-color="#FF7300"/>
<stop offset="0.548077" stop-color="#CD241A"/>
<stop offset="0.783654" stop-color="#FFECE3"/>
</linearGradient>
<linearGradient id="paint19_linear_4271_510" x1="322.955" y1="254.254" x2="490.339" y2="526.572" gradientUnits="userSpaceOnUse">
<stop stop-color="#FF7300"/>
<stop offset="0.548077" stop-color="#CD241A"/>
<stop offset="0.783654" stop-color="#FFECE3"/>
</linearGradient>
<linearGradient id="paint20_linear_4271_510" x1="311.908" y1="253.656" x2="485.886" y2="536.702" gradientUnits="userSpaceOnUse">
<stop stop-color="#FF7300"/>
<stop offset="0.548077" stop-color="#CD241A"/>
<stop offset="0.783654" stop-color="#FFECE3"/>
</linearGradient>
<linearGradient id="paint21_linear_4271_510" x1="300.849" y1="253.037" x2="481.445" y2="546.851" gradientUnits="userSpaceOnUse">
<stop stop-color="#FF7300"/>
<stop offset="0.548077" stop-color="#CD241A"/>
<stop offset="0.783654" stop-color="#FFECE3"/>
</linearGradient>
</defs>
</svg>
