<svg width="460" height="636" viewBox="0 0 460 636" fill="none" xmlns="http://www.w3.org/2000/svg">
<g opacity="0.9">
<path d="M480.919 255.373C492.452 302.458 540.116 331.346 587.379 319.895C634.643 308.444 663.608 260.99 652.075 213.905C640.542 166.819 592.878 137.931 545.614 149.383C498.351 160.834 469.386 208.287 480.919 255.373Z" stroke="url(#paint0_linear_4271_509)" stroke-opacity="0.8" stroke-width="2.27114" stroke-miterlimit="10"/>
<path d="M466.69 258.824C478.952 308.882 529.625 339.594 579.873 327.419C630.12 315.245 660.914 264.796 648.653 214.738C636.392 164.679 585.719 133.968 535.471 146.142C485.223 158.316 454.429 208.765 466.69 258.824Z" stroke="url(#paint1_linear_4271_509)" stroke-opacity="0.8" stroke-width="2.27114" stroke-miterlimit="10"/>
<path d="M452.335 262.306C465.341 315.407 519.094 347.985 572.396 335.071C625.697 322.157 658.363 268.641 645.357 215.541C632.35 162.44 578.597 129.862 525.296 142.776C471.994 155.69 439.329 209.205 452.335 262.306Z" stroke="url(#paint2_linear_4271_509)" stroke-opacity="0.8" stroke-width="2.27114" stroke-miterlimit="10"/>
<path d="M437.875 265.814C451.64 322.016 508.532 356.496 564.946 342.828C621.36 329.16 655.933 272.52 642.167 216.318C628.402 160.116 571.51 125.636 515.096 139.304C458.682 152.972 424.109 209.613 437.875 265.814Z" stroke="url(#paint3_linear_4271_509)" stroke-opacity="0.8" stroke-width="2.27114" stroke-miterlimit="10"/>
<path d="M423.325 269.344C437.862 328.695 497.942 365.108 557.517 350.674C617.093 336.24 653.603 276.425 639.066 217.074C624.529 157.723 564.449 121.31 504.873 135.744C445.298 150.178 408.787 209.993 423.325 269.344Z" stroke="url(#paint4_linear_4271_509)" stroke-opacity="0.8" stroke-width="2.27114" stroke-miterlimit="10"/>
<path d="M408.698 272.892C424.017 335.434 487.328 373.805 550.107 358.595C612.886 343.384 651.36 280.354 636.041 217.811C620.722 155.269 557.411 116.898 494.632 132.108C431.853 147.319 393.379 210.349 408.698 272.892Z" stroke="url(#paint5_linear_4271_509)" stroke-opacity="0.8" stroke-width="2.27114" stroke-miterlimit="10"/>
<path d="M394.009 276.455C410.118 342.224 476.696 382.575 542.714 366.58C608.732 350.585 649.191 284.302 633.081 218.532C616.972 152.763 550.395 112.412 484.377 128.407C418.359 144.402 377.9 210.685 394.009 276.455Z" stroke="url(#paint6_linear_4271_509)" stroke-opacity="0.8" stroke-width="2.27114" stroke-miterlimit="10"/>
<path d="M379.263 280.032C396.17 349.059 466.045 391.408 535.332 374.621C604.62 357.834 647.083 288.268 630.175 219.241C613.268 150.214 543.393 107.865 474.106 124.652C404.818 141.439 362.355 211.005 379.263 280.032Z" stroke="url(#paint7_linear_4271_509)" stroke-opacity="0.8" stroke-width="2.27114" stroke-miterlimit="10"/>
<path d="M364.468 283.621C382.18 355.932 455.379 400.295 527.963 382.709C600.547 365.124 645.03 292.248 627.319 219.937C609.607 147.626 536.408 103.263 463.824 120.849C391.239 138.434 346.756 211.31 364.468 283.621Z" stroke="url(#paint8_linear_4271_509)" stroke-opacity="0.8" stroke-width="2.27114" stroke-miterlimit="10"/>
<path d="M349.632 287.22C368.154 362.837 444.701 409.23 520.605 390.84C596.509 372.45 643.026 296.241 624.505 220.623C605.983 145.006 529.436 98.6133 453.532 117.003C377.628 135.393 331.111 211.602 349.632 287.22Z" stroke="url(#paint9_linear_4271_509)" stroke-opacity="0.8" stroke-width="2.27114" stroke-miterlimit="10"/>
<path d="M334.76 290.828C354.096 369.772 434.011 418.206 513.254 399.007C592.497 379.808 641.061 300.246 621.725 221.301C602.388 142.356 522.474 93.923 443.231 113.122C363.987 132.321 315.423 211.883 334.76 290.828Z" stroke="url(#paint10_linear_4271_509)" stroke-opacity="0.8" stroke-width="2.27114" stroke-miterlimit="10"/>
<path d="M319.855 294.443C340.01 376.733 423.311 427.218 505.912 407.206C588.513 387.193 639.135 304.261 618.979 221.971C598.823 139.681 515.522 89.1959 432.922 109.208C350.321 129.221 299.699 212.153 319.855 294.443Z" stroke="url(#paint11_linear_4271_509)" stroke-opacity="0.8" stroke-width="2.27114" stroke-miterlimit="10"/>
<path d="M304.922 298.065C325.901 383.715 412.604 436.263 498.577 415.433C584.551 394.603 637.24 308.284 616.261 222.633C595.282 136.983 508.58 84.436 422.606 105.266C336.632 126.096 283.944 212.415 304.922 298.065Z" stroke="url(#paint12_linear_4271_509)" stroke-opacity="0.8" stroke-width="2.27114" stroke-miterlimit="10"/>
<path d="M289.964 301.693C311.769 390.718 401.887 445.335 491.248 423.685C580.609 402.034 635.374 312.315 613.568 223.29C591.763 134.266 501.645 79.6488 412.284 101.299C322.923 122.95 268.159 212.669 289.964 301.693Z" stroke="url(#paint13_linear_4271_509)" stroke-opacity="0.8" stroke-width="2.27114" stroke-miterlimit="10"/>
<path d="M274.984 305.327C297.619 397.738 391.165 454.433 483.925 431.959C576.685 409.485 633.533 316.353 610.898 223.941C588.263 131.53 494.717 74.8352 401.957 97.3093C309.197 119.783 252.349 212.916 274.984 305.327Z" stroke="url(#paint14_linear_4271_509)" stroke-opacity="0.8" stroke-width="2.27114" stroke-miterlimit="10"/>
</g>
<g filter="url(#filter0_f_4271_509)">
<ellipse cx="428.129" cy="412" rx="200.129" ry="184" fill="#FF7300"/>
</g>
<defs>
<filter id="filter0_f_4271_509" x="0.814316" y="0.814316" width="854.629" height="822.371" filterUnits="userSpaceOnUse" color-interpolation-filters="sRGB">
<feFlood flood-opacity="0" result="BackgroundImageFix"/>
<feBlend mode="normal" in="SourceGraphic" in2="BackgroundImageFix" result="shape"/>
<feGaussianBlur stdDeviation="113.593" result="effect1_foregroundBlur_4271_509"/>
</filter>
<linearGradient id="paint0_linear_4271_509" x1="545.614" y1="149.383" x2="586.951" y2="319.998" gradientUnits="userSpaceOnUse">
<stop stop-color="#FFC697"/>
<stop offset="0.317308" stop-color="#FF7300"/>
<stop offset="0.764423" stop-color="#FF7300"/>
</linearGradient>
<linearGradient id="paint1_linear_4271_509" x1="535.471" y1="146.142" x2="579.418" y2="327.53" gradientUnits="userSpaceOnUse">
<stop stop-color="#FFC697"/>
<stop offset="0.317308" stop-color="#FF7300"/>
<stop offset="0.764423" stop-color="#FF7300"/>
</linearGradient>
<linearGradient id="paint2_linear_4271_509" x1="525.296" y1="142.776" x2="571.913" y2="335.188" gradientUnits="userSpaceOnUse">
<stop stop-color="#FFC697"/>
<stop offset="0.317308" stop-color="#FF7300"/>
<stop offset="0.764423" stop-color="#FF7300"/>
</linearGradient>
<linearGradient id="paint3_linear_4271_509" x1="515.096" y1="139.304" x2="564.436" y2="342.952" gradientUnits="userSpaceOnUse">
<stop stop-color="#FFC697"/>
<stop offset="0.317308" stop-color="#FF7300"/>
<stop offset="0.764423" stop-color="#FF7300"/>
</linearGradient>
<linearGradient id="paint4_linear_4271_509" x1="504.873" y1="135.744" x2="556.978" y2="350.805" gradientUnits="userSpaceOnUse">
<stop stop-color="#FFC697"/>
<stop offset="0.317308" stop-color="#FF7300"/>
<stop offset="0.764423" stop-color="#FF7300"/>
</linearGradient>
<linearGradient id="paint5_linear_4271_509" x1="494.632" y1="132.108" x2="549.539" y2="358.732" gradientUnits="userSpaceOnUse">
<stop stop-color="#FFC697"/>
<stop offset="0.317308" stop-color="#FF7300"/>
<stop offset="0.764423" stop-color="#FF7300"/>
</linearGradient>
<linearGradient id="paint6_linear_4271_509" x1="484.377" y1="128.407" x2="542.116" y2="366.725" gradientUnits="userSpaceOnUse">
<stop stop-color="#FFC697"/>
<stop offset="0.317308" stop-color="#FF7300"/>
<stop offset="0.764423" stop-color="#FF7300"/>
</linearGradient>
<linearGradient id="paint7_linear_4271_509" x1="474.106" y1="124.652" x2="534.705" y2="374.773" gradientUnits="userSpaceOnUse">
<stop stop-color="#FFC697"/>
<stop offset="0.317308" stop-color="#FF7300"/>
<stop offset="0.764423" stop-color="#FF7300"/>
</linearGradient>
<linearGradient id="paint8_linear_4271_509" x1="463.824" y1="120.849" x2="527.306" y2="382.869" gradientUnits="userSpaceOnUse">
<stop stop-color="#FFC697"/>
<stop offset="0.317308" stop-color="#FF7300"/>
<stop offset="0.764423" stop-color="#FF7300"/>
</linearGradient>
<linearGradient id="paint9_linear_4271_509" x1="453.532" y1="117.003" x2="519.918" y2="391.006" gradientUnits="userSpaceOnUse">
<stop stop-color="#FFC697"/>
<stop offset="0.317308" stop-color="#FF7300"/>
<stop offset="0.764423" stop-color="#FF7300"/>
</linearGradient>
<linearGradient id="paint10_linear_4271_509" x1="443.231" y1="113.122" x2="512.537" y2="399.18" gradientUnits="userSpaceOnUse">
<stop stop-color="#FFC697"/>
<stop offset="0.317308" stop-color="#FF7300"/>
<stop offset="0.764423" stop-color="#FF7300"/>
</linearGradient>
<linearGradient id="paint11_linear_4271_509" x1="432.922" y1="109.208" x2="505.164" y2="407.387" gradientUnits="userSpaceOnUse">
<stop stop-color="#FFC697"/>
<stop offset="0.317308" stop-color="#FF7300"/>
<stop offset="0.764423" stop-color="#FF7300"/>
</linearGradient>
<linearGradient id="paint12_linear_4271_509" x1="422.606" y1="105.266" x2="497.799" y2="415.621" gradientUnits="userSpaceOnUse">
<stop stop-color="#FFC697"/>
<stop offset="0.317308" stop-color="#FF7300"/>
<stop offset="0.764423" stop-color="#FF7300"/>
</linearGradient>
<linearGradient id="paint13_linear_4271_509" x1="412.284" y1="101.299" x2="490.44" y2="423.88" gradientUnits="userSpaceOnUse">
<stop stop-color="#FFC697"/>
<stop offset="0.317308" stop-color="#FF7300"/>
<stop offset="0.764423" stop-color="#FF7300"/>
</linearGradient>
<linearGradient id="paint14_linear_4271_509" x1="401.957" y1="97.3093" x2="483.086" y2="432.163" gradientUnits="userSpaceOnUse">
<stop stop-color="#FFC697"/>
<stop offset="0.317308" stop-color="#FF7300"/>
<stop offset="0.764423" stop-color="#FF7300"/>
</linearGradient>
</defs>
</svg>
