<svg width="360" height="676" viewBox="0 0 360 676" fill="none" xmlns="http://www.w3.org/2000/svg">
<g opacity="0.9">
<path d="M-30.2486 305.028C-12.6677 295.293 -6.20287 273.022 -15.809 255.284C-25.4152 237.547 -47.4547 231.06 -65.0357 240.795C-82.6166 250.53 -89.0814 272.801 -79.4753 290.538C-69.8691 308.276 -47.8296 314.763 -30.2486 305.028Z" stroke="url(#paint0_linear_4271_517)" stroke-opacity="0.8" stroke-width="2.27114" stroke-miterlimit="10"/>
<path d="M-26.4284 312.073C-7.68094 301.692 -0.787389 277.943 -11.0313 259.028C-21.2751 240.113 -44.7772 233.195 -63.5247 243.576C-82.2722 253.957 -89.1658 277.706 -78.9219 296.621C-68.6781 315.536 -45.1759 322.454 -26.4284 312.073Z" stroke="url(#paint1_linear_4271_517)" stroke-opacity="0.8" stroke-width="2.27114" stroke-miterlimit="10"/>
<path d="M-22.4863 319.345C-2.44817 308.249 4.9201 282.865 -6.02883 262.648C-16.9778 242.431 -42.0978 235.037 -62.1359 246.133C-82.1741 257.229 -89.5424 282.613 -78.5934 302.83C-67.6445 323.046 -42.5245 330.441 -22.4863 319.345Z" stroke="url(#paint2_linear_4271_517)" stroke-opacity="0.8" stroke-width="2.27114" stroke-miterlimit="10"/>
<path d="M-18.444 326.801C2.98604 314.935 10.8661 287.788 -0.843264 266.167C-12.5527 244.545 -39.4175 236.638 -60.8475 248.504C-82.2774 260.371 -90.1576 287.518 -78.4482 309.139C-66.7388 330.76 -39.874 338.668 -18.444 326.801Z" stroke="url(#paint3_linear_4271_517)" stroke-opacity="0.8" stroke-width="2.27114" stroke-miterlimit="10"/>
<path d="M-14.3198 334.408C8.58469 321.726 17.0069 292.71 4.4917 269.601C-8.02346 246.493 -36.7367 238.041 -59.6412 250.724C-82.5457 263.407 -90.9679 292.422 -78.4527 315.531C-65.9375 338.64 -37.2242 347.091 -14.3198 334.408Z" stroke="url(#paint4_linear_4271_517)" stroke-opacity="0.8" stroke-width="2.27114" stroke-miterlimit="10"/>
<path d="M-10.1282 342.14C14.3189 328.603 23.3084 297.634 9.95042 272.969C-3.40751 248.304 -34.0545 239.283 -58.5015 252.82C-82.9486 266.357 -91.9381 297.326 -78.5802 321.991C-65.2222 346.656 -34.5752 355.677 -10.1282 342.14Z" stroke="url(#paint5_linear_4271_517)" stroke-opacity="0.8" stroke-width="2.27114" stroke-miterlimit="10"/>
<path d="M-5.88115 349.975C20.1645 335.552 29.7418 302.558 15.5103 276.28C1.27891 250.002 -31.3721 240.391 -57.4177 254.814C-83.4634 269.236 -93.0407 302.23 -78.8092 328.508C-64.5778 354.786 -31.9268 364.397 -5.88115 349.975Z" stroke="url(#paint6_linear_4271_517)" stroke-opacity="0.8" stroke-width="2.27114" stroke-miterlimit="10"/>
<path d="M-1.58904 357.892C26.101 342.559 36.283 307.482 21.153 279.545C6.02302 251.608 -28.6895 241.39 -56.3795 256.723C-84.0696 272.056 -94.2516 307.133 -79.1216 335.07C-63.9916 363.008 -29.2791 373.225 -1.58904 357.892Z" stroke="url(#paint7_linear_4271_517)" stroke-opacity="0.8" stroke-width="2.27114" stroke-miterlimit="10"/>
<path d="M2.74149 365.881C32.1144 349.616 42.9152 312.407 26.8657 282.772C10.8162 253.137 -26.006 242.298 -55.3789 258.563C-84.7519 274.828 -95.5527 312.037 -79.5032 341.672C-63.4537 371.307 -26.6315 382.146 2.74149 365.881Z" stroke="url(#paint8_linear_4271_517)" stroke-opacity="0.8" stroke-width="2.27114" stroke-miterlimit="10"/>
<path d="M7.10384 373.928C38.1921 356.713 49.6236 317.331 32.6369 285.965C15.6502 254.6 -23.3223 243.128 -54.4105 260.343C-85.4987 277.557 -96.9302 316.939 -79.9435 348.305C-62.9568 379.67 -23.9844 391.142 7.10384 373.928Z" stroke="url(#paint9_linear_4271_517)" stroke-opacity="0.8" stroke-width="2.27114" stroke-miterlimit="10"/>
<path d="M11.4929 382.024C44.3234 363.845 56.3956 322.256 38.4569 289.133C20.5183 256.009 -20.6382 243.895 -53.4686 262.074C-86.2991 280.253 -98.3713 321.842 -80.4327 354.966C-62.494 388.089 -21.3376 400.203 11.4929 382.024Z" stroke="url(#paint10_linear_4271_517)" stroke-opacity="0.8" stroke-width="2.27114" stroke-miterlimit="10"/>
<path d="M15.905 390.163C50.5007 371.006 63.2219 327.181 44.3186 292.277C25.4153 257.372 -17.9541 244.606 -52.5497 263.763C-87.1454 282.92 -99.8666 326.745 -80.9633 361.65C-62.06 396.554 -18.6906 409.32 15.905 390.163Z" stroke="url(#paint11_linear_4271_517)" stroke-opacity="0.8" stroke-width="2.27114" stroke-miterlimit="10"/>
<path d="M20.336 398.337C56.7167 378.192 70.0943 332.105 50.2158 295.4C30.3372 258.695 -15.27 245.27 -51.6507 265.415C-88.0314 285.561 -101.409 331.647 -81.5305 368.352C-61.6519 405.058 -16.0447 418.482 20.336 398.337Z" stroke="url(#paint12_linear_4271_517)" stroke-opacity="0.8" stroke-width="2.27114" stroke-miterlimit="10"/>
<path d="M24.7845 406.543C62.9672 385.4 77.0074 337.031 56.1444 298.508C35.2813 259.985 -12.5847 245.895 -50.7674 267.038C-88.95 288.181 -102.99 336.55 -82.1272 375.073C-61.2641 413.597 -13.3981 427.686 24.7845 406.543Z" stroke="url(#paint13_linear_4271_517)" stroke-opacity="0.8" stroke-width="2.27114" stroke-miterlimit="10"/>
<path d="M29.247 414.776C69.2461 392.627 83.9542 341.957 62.0985 301.6C40.2428 261.244 -9.90038 246.485 -49.8995 268.633C-89.8985 290.782 -104.607 341.452 -82.751 381.808C-60.8953 422.165 -10.7521 436.924 29.247 414.776Z" stroke="url(#paint14_linear_4271_517)" stroke-opacity="0.8" stroke-width="2.27114" stroke-miterlimit="10"/>
<path d="M33.7222 423.031C75.5505 399.869 90.9312 346.882 68.0759 304.68C45.2206 262.478 -7.21587 247.043 -49.0442 270.205C-90.8726 293.367 -106.253 346.354 -83.3979 388.556C-60.5426 430.758 -8.10616 446.193 33.7222 423.031Z" stroke="url(#paint15_linear_4271_517)" stroke-opacity="0.8" stroke-width="2.27114" stroke-miterlimit="10"/>
<path d="M38.2085 431.307C81.8773 407.126 97.9348 351.807 74.074 307.749C50.2131 263.69 -4.53034 247.576 -48.1991 271.757C-91.8678 295.938 -107.925 351.257 -84.0645 395.315C-60.2037 439.374 -5.46019 455.488 38.2085 431.307Z" stroke="url(#paint16_linear_4271_517)" stroke-opacity="0.8" stroke-width="2.27114" stroke-miterlimit="10"/>
<path d="M42.7046 439.601C88.2235 414.396 104.961 356.733 80.0894 310.808C55.2176 264.882 -1.84533 248.086 -47.3642 273.291C-92.8831 298.496 -109.621 356.159 -84.749 402.084C-59.8772 448.009 -2.81424 464.806 42.7046 439.601Z" stroke="url(#paint17_linear_4271_517)" stroke-opacity="0.8" stroke-width="2.27114" stroke-miterlimit="10"/>
<path d="M47.2087 447.91C94.5865 421.675 112.008 361.658 86.1204 313.857C60.233 266.057 0.839735 248.574 -46.5381 274.809C-93.9159 301.044 -111.337 361.061 -85.4499 408.862C-59.5624 456.662 -0.169159 474.145 47.2087 447.91Z" stroke="url(#paint18_linear_4271_517)" stroke-opacity="0.8" stroke-width="2.27114" stroke-miterlimit="10"/>
<path d="M51.7208 456.234C100.965 428.966 119.073 366.584 92.1653 316.9C65.258 267.216 3.52499 249.045 -45.7192 276.313C-94.9634 303.581 -113.071 365.963 -86.1637 415.647C-59.2563 465.33 2.47664 483.502 51.7208 456.234Z" stroke="url(#paint19_linear_4271_517)" stroke-opacity="0.8" stroke-width="2.27114" stroke-miterlimit="10"/>
<path d="M56.2393 464.569C107.357 436.264 126.154 371.509 98.2227 319.935C70.2918 268.362 6.21038 249.499 -44.9072 277.805C-96.0248 306.11 -114.821 370.865 -86.8906 422.439C-58.9597 474.012 5.12171 492.875 56.2393 464.569Z" stroke="url(#paint20_linear_4271_517)" stroke-opacity="0.8" stroke-width="2.27114" stroke-miterlimit="10"/>
</g>
<g filter="url(#filter0_f_4271_517)">
<ellipse cx="95.3041" cy="349.711" rx="122.5" ry="112.5" transform="rotate(-105 95.3041 349.711)" fill="#FF7300"/>
</g>
<defs>
<filter id="filter0_f_4271_517" x="-245.109" y="0.641098" width="680.825" height="698.14" filterUnits="userSpaceOnUse" color-interpolation-filters="sRGB">
<feFlood flood-opacity="0" result="BackgroundImageFix"/>
<feBlend mode="normal" in="SourceGraphic" in2="BackgroundImageFix" result="shape"/>
<feGaussianBlur stdDeviation="113.593" result="effect1_foregroundBlur_4271_517"/>
</filter>
<linearGradient id="paint0_linear_4271_517" x1="-79.4753" y1="290.538" x2="-15.4848" y2="255.883" gradientUnits="userSpaceOnUse">
<stop stop-color="#FFC697"/>
<stop offset="0.317308" stop-color="#FF7300"/>
<stop offset="0.764423" stop-color="#FF7300"/>
</linearGradient>
<linearGradient id="paint1_linear_4271_517" x1="-78.9219" y1="296.621" x2="-10.6855" y2="259.666" gradientUnits="userSpaceOnUse">
<stop stop-color="#FFC697"/>
<stop offset="0.317308" stop-color="#FF7300"/>
<stop offset="0.764423" stop-color="#FF7300"/>
</linearGradient>
<linearGradient id="paint2_linear_4271_517" x1="-78.5934" y1="302.83" x2="-5.65929" y2="263.33" gradientUnits="userSpaceOnUse">
<stop stop-color="#FFC697"/>
<stop offset="0.317308" stop-color="#FF7300"/>
<stop offset="0.764423" stop-color="#FF7300"/>
</linearGradient>
<linearGradient id="paint3_linear_4271_517" x1="-78.4482" y1="309.139" x2="-0.448055" y2="266.896" gradientUnits="userSpaceOnUse">
<stop stop-color="#FFC697"/>
<stop offset="0.317308" stop-color="#FF7300"/>
<stop offset="0.764423" stop-color="#FF7300"/>
</linearGradient>
<linearGradient id="paint4_linear_4271_517" x1="-78.4527" y1="315.531" x2="4.9141" y2="270.381" gradientUnits="userSpaceOnUse">
<stop stop-color="#FFC697"/>
<stop offset="0.317308" stop-color="#FF7300"/>
<stop offset="0.764423" stop-color="#FF7300"/>
</linearGradient>
<linearGradient id="paint5_linear_4271_517" x1="-78.5802" y1="321.991" x2="10.4013" y2="273.801" gradientUnits="userSpaceOnUse">
<stop stop-color="#FFC697"/>
<stop offset="0.317308" stop-color="#FF7300"/>
<stop offset="0.764423" stop-color="#FF7300"/>
</linearGradient>
<linearGradient id="paint6_linear_4271_517" x1="-78.8092" y1="328.508" x2="15.9907" y2="277.167" gradientUnits="userSpaceOnUse">
<stop stop-color="#FFC697"/>
<stop offset="0.317308" stop-color="#FF7300"/>
<stop offset="0.764423" stop-color="#FF7300"/>
</linearGradient>
<linearGradient id="paint7_linear_4271_517" x1="-79.1216" y1="335.07" x2="21.6637" y2="280.488" gradientUnits="userSpaceOnUse">
<stop stop-color="#FFC697"/>
<stop offset="0.317308" stop-color="#FF7300"/>
<stop offset="0.764423" stop-color="#FF7300"/>
</linearGradient>
<linearGradient id="paint8_linear_4271_517" x1="-79.5032" y1="341.672" x2="27.4074" y2="283.772" gradientUnits="userSpaceOnUse">
<stop stop-color="#FFC697"/>
<stop offset="0.317308" stop-color="#FF7300"/>
<stop offset="0.764423" stop-color="#FF7300"/>
</linearGradient>
<linearGradient id="paint9_linear_4271_517" x1="-79.9435" y1="348.305" x2="33.2102" y2="287.024" gradientUnits="userSpaceOnUse">
<stop stop-color="#FFC697"/>
<stop offset="0.317308" stop-color="#FF7300"/>
<stop offset="0.764423" stop-color="#FF7300"/>
</linearGradient>
<linearGradient id="paint10_linear_4271_517" x1="-80.4327" y1="354.966" x2="39.0624" y2="290.25" gradientUnits="userSpaceOnUse">
<stop stop-color="#FFC697"/>
<stop offset="0.317308" stop-color="#FF7300"/>
<stop offset="0.764423" stop-color="#FF7300"/>
</linearGradient>
<linearGradient id="paint11_linear_4271_517" x1="-80.9633" y1="361.65" x2="44.9566" y2="293.455" gradientUnits="userSpaceOnUse">
<stop stop-color="#FFC697"/>
<stop offset="0.317308" stop-color="#FF7300"/>
<stop offset="0.764423" stop-color="#FF7300"/>
</linearGradient>
<linearGradient id="paint12_linear_4271_517" x1="-81.5305" y1="368.352" x2="50.8867" y2="296.639" gradientUnits="userSpaceOnUse">
<stop stop-color="#FFC697"/>
<stop offset="0.317308" stop-color="#FF7300"/>
<stop offset="0.764423" stop-color="#FF7300"/>
</linearGradient>
<linearGradient id="paint13_linear_4271_517" x1="-82.1272" y1="375.073" x2="56.8485" y2="299.808" gradientUnits="userSpaceOnUse">
<stop stop-color="#FFC697"/>
<stop offset="0.317308" stop-color="#FF7300"/>
<stop offset="0.764423" stop-color="#FF7300"/>
</linearGradient>
<linearGradient id="paint14_linear_4271_517" x1="-82.751" y1="381.808" x2="62.8362" y2="302.963" gradientUnits="userSpaceOnUse">
<stop stop-color="#FFC697"/>
<stop offset="0.317308" stop-color="#FF7300"/>
<stop offset="0.764423" stop-color="#FF7300"/>
</linearGradient>
<linearGradient id="paint15_linear_4271_517" x1="-83.3979" y1="388.556" x2="68.8473" y2="306.104" gradientUnits="userSpaceOnUse">
<stop stop-color="#FFC697"/>
<stop offset="0.317308" stop-color="#FF7300"/>
<stop offset="0.764423" stop-color="#FF7300"/>
</linearGradient>
<linearGradient id="paint16_linear_4271_517" x1="-84.0645" y1="395.315" x2="74.8793" y2="309.236" gradientUnits="userSpaceOnUse">
<stop stop-color="#FFC697"/>
<stop offset="0.317308" stop-color="#FF7300"/>
<stop offset="0.764423" stop-color="#FF7300"/>
</linearGradient>
<linearGradient id="paint17_linear_4271_517" x1="-84.749" y1="402.084" x2="80.9289" y2="312.358" gradientUnits="userSpaceOnUse">
<stop stop-color="#FFC697"/>
<stop offset="0.317308" stop-color="#FF7300"/>
<stop offset="0.764423" stop-color="#FF7300"/>
</linearGradient>
<linearGradient id="paint18_linear_4271_517" x1="-85.4499" y1="408.862" x2="86.9942" y2="315.471" gradientUnits="userSpaceOnUse">
<stop stop-color="#FFC697"/>
<stop offset="0.317308" stop-color="#FF7300"/>
<stop offset="0.764423" stop-color="#FF7300"/>
</linearGradient>
<linearGradient id="paint19_linear_4271_517" x1="-86.1637" y1="415.647" x2="93.0734" y2="318.577" gradientUnits="userSpaceOnUse">
<stop stop-color="#FFC697"/>
<stop offset="0.317308" stop-color="#FF7300"/>
<stop offset="0.764423" stop-color="#FF7300"/>
</linearGradient>
<linearGradient id="paint20_linear_4271_517" x1="-86.8906" y1="422.439" x2="99.1654" y2="321.676" gradientUnits="userSpaceOnUse">
<stop stop-color="#FFC697"/>
<stop offset="0.317308" stop-color="#FF7300"/>
<stop offset="0.764423" stop-color="#FF7300"/>
</linearGradient>
</defs>
</svg>
