<svg width="303" height="557" viewBox="0 0 303 557" fill="none" xmlns="http://www.w3.org/2000/svg">
<g filter="url(#filter0_f_4271_516)">
<ellipse cx="366.5" cy="201.5" rx="138.5" ry="127.5" fill="#FF7300"/>
</g>
<g opacity="0.9">
<path d="M341.768 166.873C362.91 200.974 407.794 211.566 442.017 190.53C476.24 169.494 486.844 124.797 465.701 90.6959C444.558 56.5951 399.675 46.0037 365.452 67.0395C331.229 88.0754 320.625 132.773 341.768 166.873Z" stroke="url(#paint0_linear_4271_516)" stroke-opacity="0.8" stroke-width="2.27114" stroke-miterlimit="10"/>
<path d="M332.941 172.301C355.268 208.313 402.667 219.497 438.808 197.283C474.949 175.068 486.147 127.866 463.819 91.8541C441.492 55.8422 394.093 44.6572 357.952 66.8719C321.811 89.0866 310.613 136.289 332.941 172.301Z" stroke="url(#paint1_linear_4271_516)" stroke-opacity="0.8" stroke-width="2.27114" stroke-miterlimit="10"/>
<path d="M324.067 177.756C347.595 215.704 397.542 227.49 435.627 204.081C473.712 180.672 485.512 130.932 461.984 92.9837C438.456 55.0354 388.509 43.2493 350.424 66.6585C312.339 90.0678 300.539 139.808 324.067 177.756Z" stroke="url(#paint2_linear_4271_516)" stroke-opacity="0.8" stroke-width="2.27114" stroke-miterlimit="10"/>
<path d="M315.156 183.235C339.898 223.141 392.422 235.535 432.472 210.918C472.521 186.301 484.93 133.995 460.188 94.0886C435.446 54.1823 382.922 41.788 342.872 66.405C302.823 91.022 290.413 143.328 315.156 183.235Z" stroke="url(#paint3_linear_4271_516)" stroke-opacity="0.8" stroke-width="2.27114" stroke-miterlimit="10"/>
<path d="M306.21 188.735C332.177 230.618 387.303 243.626 429.336 217.79C471.369 191.954 484.393 137.057 458.425 95.1741C432.457 53.2912 377.332 40.2829 335.298 66.1191C293.265 91.9553 280.242 146.852 306.21 188.735Z" stroke="url(#paint4_linear_4271_516)" stroke-opacity="0.8" stroke-width="2.27114" stroke-miterlimit="10"/>
<path d="M297.234 194.253C324.437 238.129 382.185 251.756 426.218 224.69C470.251 197.625 483.895 140.116 456.692 96.2406C429.488 52.3653 371.74 38.7382 327.707 65.8037C283.674 92.8691 270.031 150.378 297.234 194.253Z" stroke="url(#paint5_linear_4271_516)" stroke-opacity="0.8" stroke-width="2.27114" stroke-miterlimit="10"/>
<path d="M288.234 199.787C316.681 245.669 377.07 259.919 423.117 231.616C469.164 203.312 483.431 143.173 454.984 97.2915C426.537 51.4097 366.148 37.1595 320.101 65.4628C274.054 93.7661 259.787 153.905 288.234 199.787Z" stroke="url(#paint6_linear_4271_516)" stroke-opacity="0.8" stroke-width="2.27114" stroke-miterlimit="10"/>
<path d="M279.211 205.334C308.91 253.235 371.956 268.112 420.028 238.564C468.101 209.015 482.996 146.23 453.297 98.3296C423.599 50.4291 360.552 35.5518 312.48 65.1003C264.407 94.6488 249.512 157.434 279.211 205.334Z" stroke="url(#paint7_linear_4271_516)" stroke-opacity="0.8" stroke-width="2.27114" stroke-miterlimit="10"/>
<path d="M270.169 210.894C301.126 260.824 366.843 276.331 416.953 245.531C467.062 214.73 482.588 149.285 451.631 99.3551C420.674 49.4251 354.957 33.9176 304.847 64.7181C254.738 95.5187 239.212 160.964 270.169 210.894Z" stroke="url(#paint8_linear_4271_516)" stroke-opacity="0.8" stroke-width="2.27114" stroke-miterlimit="10"/>
<path d="M261.11 216.463C293.331 268.432 361.732 284.573 413.888 252.515C466.043 220.457 482.203 152.339 449.982 100.37C417.761 48.4009 349.36 32.26 297.204 64.3182C245.048 96.3764 228.888 164.494 261.11 216.463Z" stroke="url(#paint9_linear_4271_516)" stroke-opacity="0.8" stroke-width="2.27114" stroke-miterlimit="10"/>
<path d="M252.035 222.042C285.525 276.059 356.621 292.835 410.832 259.514C465.042 226.193 481.839 155.392 448.348 101.376C414.858 47.3593 343.762 30.5826 289.552 63.9038C235.341 97.225 218.544 168.026 252.035 222.042Z" stroke="url(#paint10_linear_4271_516)" stroke-opacity="0.8" stroke-width="2.27114" stroke-miterlimit="10"/>
<path d="M242.947 227.63C277.712 283.701 351.512 301.116 407.784 266.527C464.057 231.939 481.493 158.444 446.728 102.373C411.963 46.3016 338.163 28.8865 281.89 63.4752C225.618 98.064 208.182 171.558 242.947 227.63Z" stroke="url(#paint11_linear_4271_516)" stroke-opacity="0.8" stroke-width="2.27114" stroke-miterlimit="10"/>
</g>
<defs>
<filter id="filter0_f_4271_516" x="0.814316" y="-153.186" width="731.371" height="709.371" filterUnits="userSpaceOnUse" color-interpolation-filters="sRGB">
<feFlood flood-opacity="0" result="BackgroundImageFix"/>
<feBlend mode="normal" in="SourceGraphic" in2="BackgroundImageFix" result="shape"/>
<feGaussianBlur stdDeviation="113.593" result="effect1_foregroundBlur_4271_516"/>
</filter>
<linearGradient id="paint0_linear_4271_516" x1="365.452" y1="67.0395" x2="441.538" y2="190.824" gradientUnits="userSpaceOnUse">
<stop stop-color="#FF7300"/>
<stop offset="0.548077" stop-color="#CD241A"/>
<stop offset="0.783654" stop-color="#FFECE3"/>
</linearGradient>
<linearGradient id="paint1_linear_4271_516" x1="357.952" y1="66.8719" x2="438.302" y2="197.594" gradientUnits="userSpaceOnUse">
<stop stop-color="#FF7300"/>
<stop offset="0.548077" stop-color="#CD241A"/>
<stop offset="0.783654" stop-color="#FFECE3"/>
</linearGradient>
<linearGradient id="paint2_linear_4271_516" x1="350.424" y1="66.6585" x2="435.094" y2="204.409" gradientUnits="userSpaceOnUse">
<stop stop-color="#FF7300"/>
<stop offset="0.548077" stop-color="#CD241A"/>
<stop offset="0.783654" stop-color="#FFECE3"/>
</linearGradient>
<linearGradient id="paint3_linear_4271_516" x1="342.872" y1="66.405" x2="431.911" y2="211.263" gradientUnits="userSpaceOnUse">
<stop stop-color="#FF7300"/>
<stop offset="0.548077" stop-color="#CD241A"/>
<stop offset="0.783654" stop-color="#FFECE3"/>
</linearGradient>
<linearGradient id="paint4_linear_4271_516" x1="335.298" y1="66.1191" x2="428.748" y2="218.152" gradientUnits="userSpaceOnUse">
<stop stop-color="#FF7300"/>
<stop offset="0.548077" stop-color="#CD241A"/>
<stop offset="0.783654" stop-color="#FFECE3"/>
</linearGradient>
<linearGradient id="paint5_linear_4271_516" x1="327.707" y1="65.8037" x2="425.602" y2="225.069" gradientUnits="userSpaceOnUse">
<stop stop-color="#FF7300"/>
<stop offset="0.548077" stop-color="#CD241A"/>
<stop offset="0.783654" stop-color="#FFECE3"/>
</linearGradient>
<linearGradient id="paint6_linear_4271_516" x1="320.101" y1="65.4628" x2="422.473" y2="232.012" gradientUnits="userSpaceOnUse">
<stop stop-color="#FF7300"/>
<stop offset="0.548077" stop-color="#CD241A"/>
<stop offset="0.783654" stop-color="#FFECE3"/>
</linearGradient>
<linearGradient id="paint7_linear_4271_516" x1="312.48" y1="65.1003" x2="419.356" y2="238.977" gradientUnits="userSpaceOnUse">
<stop stop-color="#FF7300"/>
<stop offset="0.548077" stop-color="#CD241A"/>
<stop offset="0.783654" stop-color="#FFECE3"/>
</linearGradient>
<linearGradient id="paint8_linear_4271_516" x1="304.847" y1="64.7181" x2="416.251" y2="245.962" gradientUnits="userSpaceOnUse">
<stop stop-color="#FF7300"/>
<stop offset="0.548077" stop-color="#CD241A"/>
<stop offset="0.783654" stop-color="#FFECE3"/>
</linearGradient>
<linearGradient id="paint9_linear_4271_516" x1="297.204" y1="64.3182" x2="413.158" y2="252.964" gradientUnits="userSpaceOnUse">
<stop stop-color="#FF7300"/>
<stop offset="0.548077" stop-color="#CD241A"/>
<stop offset="0.783654" stop-color="#FFECE3"/>
</linearGradient>
<linearGradient id="paint10_linear_4271_516" x1="289.552" y1="63.9038" x2="410.073" y2="259.981" gradientUnits="userSpaceOnUse">
<stop stop-color="#FF7300"/>
<stop offset="0.548077" stop-color="#CD241A"/>
<stop offset="0.783654" stop-color="#FFECE3"/>
</linearGradient>
<linearGradient id="paint11_linear_4271_516" x1="281.89" y1="63.4752" x2="406.997" y2="267.011" gradientUnits="userSpaceOnUse">
<stop stop-color="#FF7300"/>
<stop offset="0.548077" stop-color="#CD241A"/>
<stop offset="0.783654" stop-color="#FFECE3"/>
</linearGradient>
</defs>
</svg>
