<svg width="233" height="490" viewBox="0 0 233 490" fill="none" xmlns="http://www.w3.org/2000/svg">
<g opacity="0.9">
<path d="M283.74 217.668C251.439 199.001 240.388 157.569 259.058 125.126C277.729 92.6826 319.05 81.5144 351.352 100.181C383.654 118.847 394.705 160.28 376.034 192.723C357.364 225.166 316.042 236.334 283.74 217.668Z" stroke="url(#paint0_linear_2007_3682)" stroke-opacity="0.8" stroke-width="2.27114" stroke-miterlimit="10"/>
<path d="M276.857 229.623C242.311 209.66 230.493 165.35 250.46 130.653C270.427 95.9566 314.619 84.0128 349.164 103.976C383.71 123.939 395.528 168.249 375.561 202.946C355.594 237.642 311.402 249.586 276.857 229.623Z" stroke="url(#paint1_linear_2007_3682)" stroke-opacity="0.8" stroke-width="2.27114" stroke-miterlimit="10"/>
<path d="M269.833 241.82C232.911 220.484 220.279 173.124 241.621 136.04C262.962 98.9562 310.194 86.1904 347.117 107.527C384.039 128.863 396.67 176.223 375.329 213.307C353.988 250.391 306.756 263.157 269.833 241.82Z" stroke="url(#paint2_linear_2007_3682)" stroke-opacity="0.8" stroke-width="2.27114" stroke-miterlimit="10"/>
<path d="M262.695 254.217C223.285 231.444 209.803 180.895 232.582 141.314C255.36 101.733 305.773 88.1075 345.182 110.881C384.592 133.655 398.074 184.203 375.295 223.784C352.517 263.366 302.104 276.991 262.695 254.217Z" stroke="url(#paint3_linear_2007_3682)" stroke-opacity="0.8" stroke-width="2.27114" stroke-miterlimit="10"/>
<path d="M255.462 266.779C213.475 242.516 199.112 188.662 223.38 146.493C247.648 104.323 301.357 89.8068 343.343 114.07C385.329 138.332 399.693 192.186 375.425 234.356C351.157 276.525 297.448 291.042 255.462 266.779Z" stroke="url(#paint4_linear_2007_3682)" stroke-opacity="0.8" stroke-width="2.27114" stroke-miterlimit="10"/>
<path d="M248.152 279.475C203.515 253.68 188.245 196.426 214.045 151.594C239.845 106.762 296.946 91.3289 341.583 117.123C386.22 142.918 401.49 200.172 375.69 245.004C349.89 289.836 292.789 305.269 248.152 279.475Z" stroke="url(#paint5_linear_2007_3682)" stroke-opacity="0.8" stroke-width="2.27114" stroke-miterlimit="10"/>
<path d="M240.777 292.283C193.427 264.921 177.228 204.187 204.596 156.631C231.964 109.074 292.535 92.7029 339.885 120.065C387.235 147.427 403.434 208.161 376.065 255.718C348.697 303.275 288.126 319.646 240.777 292.283Z" stroke="url(#paint6_linear_2007_3682)" stroke-opacity="0.8" stroke-width="2.27114" stroke-miterlimit="10"/>
<path d="M233.347 305.186C183.232 276.226 166.088 211.946 195.054 161.612C224.02 111.278 288.128 93.9512 338.243 122.911C388.358 151.871 405.502 216.152 376.536 266.486C347.57 316.819 283.462 334.146 233.347 305.186Z" stroke="url(#paint7_linear_2007_3682)" stroke-opacity="0.8" stroke-width="2.27114" stroke-miterlimit="10"/>
<path d="M225.872 318.168C172.948 287.585 154.843 219.703 185.433 166.548C216.022 113.394 283.723 95.0961 336.646 125.679C389.57 156.262 407.675 224.145 377.085 277.299C346.496 330.454 278.795 348.752 225.872 318.168Z" stroke="url(#paint8_linear_2007_3682)" stroke-opacity="0.8" stroke-width="2.27114" stroke-miterlimit="10"/>
<path d="M218.357 331.219C162.588 298.992 143.51 227.459 175.744 171.446C207.979 115.434 279.319 96.1516 335.088 128.379C390.857 160.606 409.936 232.139 377.701 288.152C345.467 344.165 274.126 363.447 218.357 331.219Z" stroke="url(#paint9_linear_2007_3682)" stroke-opacity="0.8" stroke-width="2.27114" stroke-miterlimit="10"/>
<path d="M210.811 344.326C152.164 310.435 132.101 235.212 165.999 176.309C199.896 117.406 274.918 97.1297 333.565 131.02C392.211 164.91 412.274 240.134 378.377 299.037C344.479 357.939 269.457 378.216 210.811 344.326Z" stroke="url(#paint10_linear_2007_3682)" stroke-opacity="0.8" stroke-width="2.27114" stroke-miterlimit="10"/>
<path d="M203.234 357.483C141.683 321.915 120.626 242.965 156.203 181.145C191.779 119.325 270.517 98.0446 332.068 133.613C393.619 169.182 414.676 248.132 379.1 309.952C343.523 371.772 264.786 393.052 203.234 357.483Z" stroke="url(#paint11_linear_2007_3682)" stroke-opacity="0.8" stroke-width="2.27114" stroke-miterlimit="10"/>
<path d="M195.634 370.684C131.154 333.423 109.096 250.718 146.365 185.957C183.634 121.195 266.117 98.902 330.597 136.163C395.076 173.424 417.135 256.129 379.866 320.89C342.597 385.652 260.113 407.945 195.634 370.684Z" stroke="url(#paint12_linear_2007_3682)" stroke-opacity="0.8" stroke-width="2.27114" stroke-miterlimit="10"/>
<path d="M188.012 383.922C120.584 344.957 97.5166 258.469 136.49 190.746C175.464 123.022 261.719 99.7092 329.148 138.674C396.576 177.639 419.643 264.127 380.669 331.85C341.696 399.573 255.44 422.887 188.012 383.922Z" stroke="url(#paint13_linear_2007_3682)" stroke-opacity="0.8" stroke-width="2.27114" stroke-miterlimit="10"/>
<path d="M180.371 397.192C109.976 356.513 85.8936 266.22 126.582 195.517C167.27 124.815 257.321 100.476 327.716 141.155C398.111 181.835 422.193 272.128 381.505 342.83C340.816 413.533 250.766 437.872 180.371 397.192Z" stroke="url(#paint14_linear_2007_3682)" stroke-opacity="0.8" stroke-width="2.27114" stroke-miterlimit="10"/>
<path d="M172.713 410.492C99.3357 368.089 74.2334 273.97 116.646 200.272C159.058 126.573 252.924 101.203 326.301 143.606C399.679 186.009 424.781 280.128 382.369 353.826C339.957 427.524 246.091 452.894 172.713 410.492Z" stroke="url(#paint15_linear_2007_3682)" stroke-opacity="0.8" stroke-width="2.27114" stroke-miterlimit="10"/>
<path d="M165.042 423.815C88.6679 379.681 62.5403 281.719 106.684 205.011C150.828 128.303 248.528 101.897 324.902 146.032C401.276 190.166 427.404 288.128 383.26 364.836C339.115 441.544 241.416 467.95 165.042 423.815Z" stroke="url(#paint16_linear_2007_3682)" stroke-opacity="0.8" stroke-width="2.27114" stroke-miterlimit="10"/>
<path d="M157.357 437.162C77.9742 391.289 50.8174 289.467 96.7006 209.738C142.584 130.008 244.132 102.562 323.515 148.435C402.897 194.308 430.054 296.129 384.171 375.859C338.288 455.589 236.74 483.035 157.357 437.162Z" stroke="url(#paint17_linear_2007_3682)" stroke-opacity="0.8" stroke-width="2.27114" stroke-miterlimit="10"/>
<path d="M149.661 450.528C67.2582 402.91 39.0681 297.215 86.6967 214.452C134.325 131.69 239.736 103.2 322.139 150.818C404.542 198.436 432.732 304.131 385.103 386.894C337.475 469.656 232.064 498.146 149.661 450.528Z" stroke="url(#paint18_linear_2007_3682)" stroke-opacity="0.8" stroke-width="2.27114" stroke-miterlimit="10"/>
</g>
<defs>
<linearGradient id="paint0_linear_2007_3682" x1="376.034" y1="192.723" x2="258.938" y2="125.336" gradientUnits="userSpaceOnUse">
<stop stop-color="#FF7300"/>
<stop offset="0.548077" stop-color="#991F17"/>
<stop offset="0.783654" stop-color="white"/>
</linearGradient>
<linearGradient id="paint1_linear_2007_3682" x1="375.561" y1="202.946" x2="250.331" y2="130.878" gradientUnits="userSpaceOnUse">
<stop stop-color="#FF7300"/>
<stop offset="0.548077" stop-color="#991F17"/>
<stop offset="0.783654" stop-color="white"/>
</linearGradient>
<linearGradient id="paint2_linear_2007_3682" x1="375.329" y1="213.307" x2="241.483" y2="136.28" gradientUnits="userSpaceOnUse">
<stop stop-color="#FF7300"/>
<stop offset="0.548077" stop-color="#991F17"/>
<stop offset="0.783654" stop-color="white"/>
</linearGradient>
<linearGradient id="paint3_linear_2007_3682" x1="375.295" y1="223.784" x2="232.434" y2="141.57" gradientUnits="userSpaceOnUse">
<stop stop-color="#FF7300"/>
<stop offset="0.548077" stop-color="#991F17"/>
<stop offset="0.783654" stop-color="white"/>
</linearGradient>
<linearGradient id="paint4_linear_2007_3682" x1="375.425" y1="234.356" x2="223.223" y2="146.766" gradientUnits="userSpaceOnUse">
<stop stop-color="#FF7300"/>
<stop offset="0.548077" stop-color="#991F17"/>
<stop offset="0.783654" stop-color="white"/>
</linearGradient>
<linearGradient id="paint5_linear_2007_3682" x1="375.69" y1="245.004" x2="213.878" y2="151.884" gradientUnits="userSpaceOnUse">
<stop stop-color="#FF7300"/>
<stop offset="0.548077" stop-color="#991F17"/>
<stop offset="0.783654" stop-color="white"/>
</linearGradient>
<linearGradient id="paint6_linear_2007_3682" x1="376.065" y1="255.718" x2="204.419" y2="156.938" gradientUnits="userSpaceOnUse">
<stop stop-color="#FF7300"/>
<stop offset="0.548077" stop-color="#991F17"/>
<stop offset="0.783654" stop-color="white"/>
</linearGradient>
<linearGradient id="paint7_linear_2007_3682" x1="376.536" y1="266.486" x2="194.867" y2="161.938" gradientUnits="userSpaceOnUse">
<stop stop-color="#FF7300"/>
<stop offset="0.548077" stop-color="#991F17"/>
<stop offset="0.783654" stop-color="white"/>
</linearGradient>
<linearGradient id="paint8_linear_2007_3682" x1="377.085" y1="277.299" x2="185.235" y2="166.892" gradientUnits="userSpaceOnUse">
<stop stop-color="#FF7300"/>
<stop offset="0.548077" stop-color="#991F17"/>
<stop offset="0.783654" stop-color="white"/>
</linearGradient>
<linearGradient id="paint9_linear_2007_3682" x1="377.701" y1="288.152" x2="175.535" y2="171.809" gradientUnits="userSpaceOnUse">
<stop stop-color="#FF7300"/>
<stop offset="0.548077" stop-color="#991F17"/>
<stop offset="0.783654" stop-color="white"/>
</linearGradient>
<linearGradient id="paint10_linear_2007_3682" x1="378.377" y1="299.037" x2="165.779" y2="176.69" gradientUnits="userSpaceOnUse">
<stop stop-color="#FF7300"/>
<stop offset="0.548077" stop-color="#991F17"/>
<stop offset="0.783654" stop-color="white"/>
</linearGradient>
<linearGradient id="paint11_linear_2007_3682" x1="379.1" y1="309.952" x2="155.972" y2="181.546" gradientUnits="userSpaceOnUse">
<stop stop-color="#FF7300"/>
<stop offset="0.548077" stop-color="#991F17"/>
<stop offset="0.783654" stop-color="white"/>
</linearGradient>
<linearGradient id="paint12_linear_2007_3682" x1="379.866" y1="320.89" x2="146.124" y2="186.376" gradientUnits="userSpaceOnUse">
<stop stop-color="#FF7300"/>
<stop offset="0.548077" stop-color="#991F17"/>
<stop offset="0.783654" stop-color="white"/>
</linearGradient>
<linearGradient id="paint13_linear_2007_3682" x1="380.669" y1="331.85" x2="136.238" y2="191.184" gradientUnits="userSpaceOnUse">
<stop stop-color="#FF7300"/>
<stop offset="0.548077" stop-color="#991F17"/>
<stop offset="0.783654" stop-color="white"/>
</linearGradient>
<linearGradient id="paint14_linear_2007_3682" x1="381.505" y1="342.83" x2="126.318" y2="195.975" gradientUnits="userSpaceOnUse">
<stop stop-color="#FF7300"/>
<stop offset="0.548077" stop-color="#991F17"/>
<stop offset="0.783654" stop-color="white"/>
</linearGradient>
<linearGradient id="paint15_linear_2007_3682" x1="382.369" y1="353.826" x2="116.371" y2="200.749" gradientUnits="userSpaceOnUse">
<stop stop-color="#FF7300"/>
<stop offset="0.548077" stop-color="#991F17"/>
<stop offset="0.783654" stop-color="white"/>
</linearGradient>
<linearGradient id="paint16_linear_2007_3682" x1="383.26" y1="364.836" x2="106.399" y2="205.507" gradientUnits="userSpaceOnUse">
<stop stop-color="#FF7300"/>
<stop offset="0.548077" stop-color="#991F17"/>
<stop offset="0.783654" stop-color="white"/>
</linearGradient>
<linearGradient id="paint17_linear_2007_3682" x1="384.171" y1="375.859" x2="96.4036" y2="210.254" gradientUnits="userSpaceOnUse">
<stop stop-color="#FF7300"/>
<stop offset="0.548077" stop-color="#991F17"/>
<stop offset="0.783654" stop-color="white"/>
</linearGradient>
<linearGradient id="paint18_linear_2007_3682" x1="385.103" y1="386.894" x2="86.3884" y2="214.988" gradientUnits="userSpaceOnUse">
<stop stop-color="#FF7300"/>
<stop offset="0.548077" stop-color="#991F17"/>
<stop offset="0.783654" stop-color="white"/>
</linearGradient>
</defs>
</svg>
