<svg width="254" height="496" viewBox="0 0 254 496" fill="none" xmlns="http://www.w3.org/2000/svg">
<g opacity="0.9">
<path d="M296.063 211.612C270.165 177.733 276.689 129.154 310.635 103.109C344.581 77.064 393.094 83.4149 418.992 117.294C444.889 151.174 438.365 199.752 404.419 225.798C370.474 251.843 321.961 245.492 296.063 211.612Z" stroke="url(#paint0_linear_221_3723)" stroke-opacity="0.8" stroke-width="2.27114" stroke-miterlimit="10"/>
<path d="M284.711 220.318C257.069 184.157 264.032 132.307 300.264 104.508C336.496 76.7086 388.276 83.4875 415.918 119.649C443.56 155.81 436.596 207.66 400.365 235.459C364.133 263.258 312.353 256.479 284.711 220.318Z" stroke="url(#paint1_linear_221_3723)" stroke-opacity="0.8" stroke-width="2.27114" stroke-miterlimit="10"/>
<path d="M273.208 229.139C243.759 190.613 251.178 135.372 289.779 105.755C328.38 76.1385 383.546 83.3606 412.995 121.886C442.445 160.412 435.026 215.653 396.425 245.27C357.824 274.887 302.658 267.665 273.208 229.139Z" stroke="url(#paint2_linear_221_3723)" stroke-opacity="0.8" stroke-width="2.27114" stroke-miterlimit="10"/>
<path d="M261.584 238.054C230.275 197.096 238.162 138.368 279.2 106.881C320.239 75.3938 378.888 83.0718 410.196 124.03C441.505 164.988 433.618 223.717 392.58 255.203C351.542 286.69 292.893 279.012 261.584 238.054Z" stroke="url(#paint3_linear_221_3723)" stroke-opacity="0.8" stroke-width="2.27114" stroke-miterlimit="10"/>
<path d="M249.855 247.048C216.643 203.601 225.01 141.303 268.542 107.903C312.075 74.5024 374.288 82.6471 407.5 126.095C440.711 169.542 432.345 231.84 388.813 265.24C345.28 298.641 283.067 290.496 249.855 247.048Z" stroke="url(#paint4_linear_221_3723)" stroke-opacity="0.8" stroke-width="2.27114" stroke-miterlimit="10"/>
<path d="M238.041 256.108C202.889 210.124 211.744 144.188 257.819 108.837C303.893 73.4865 369.739 82.1068 404.891 128.091C440.042 174.076 431.187 240.012 385.112 275.362C339.038 310.713 273.192 302.093 238.041 256.108Z" stroke="url(#paint5_linear_221_3723)" stroke-opacity="0.8" stroke-width="2.27114" stroke-miterlimit="10"/>
<path d="M226.153 265.225C189.032 216.663 198.383 147.033 247.039 109.701C295.696 72.369 365.232 81.4725 402.353 130.034C439.474 178.596 430.123 248.226 381.467 285.558C332.81 322.89 263.274 313.787 226.153 265.225Z" stroke="url(#paint6_linear_221_3723)" stroke-opacity="0.8" stroke-width="2.27114" stroke-miterlimit="10"/>
<path d="M214.203 274.389C175.086 223.217 184.94 149.842 236.213 110.503C287.486 71.1632 360.761 80.7559 399.878 131.929C438.995 183.101 429.141 256.476 377.868 295.815C326.595 335.155 253.32 325.562 214.203 274.389Z" stroke="url(#paint7_linear_221_3723)" stroke-opacity="0.8" stroke-width="2.27114" stroke-miterlimit="10"/>
<path d="M202.202 283.593C161.066 229.78 171.429 152.619 225.347 111.25C279.265 69.8811 356.321 79.9689 397.457 133.782C438.592 187.595 428.23 264.756 374.311 306.125C320.393 347.494 243.337 337.406 202.202 283.593Z" stroke="url(#paint8_linear_221_3723)" stroke-opacity="0.8" stroke-width="2.27114" stroke-miterlimit="10"/>
<path d="M190.153 292.832C146.981 236.354 157.856 155.372 214.445 111.954C271.033 68.5359 351.906 79.1234 395.079 135.602C438.252 192.08 427.376 273.062 370.787 316.48C314.199 359.898 233.326 349.311 190.153 292.832Z" stroke="url(#paint9_linear_221_3723)" stroke-opacity="0.8" stroke-width="2.27114" stroke-miterlimit="10"/>
<path d="M178.066 302.102C132.84 242.937 144.233 158.102 203.514 112.619C262.795 67.1349 347.515 78.226 392.742 137.391C437.968 196.557 426.575 281.391 367.294 326.875C308.013 372.359 223.293 361.268 178.066 302.102Z" stroke="url(#paint10_linear_221_3723)" stroke-opacity="0.8" stroke-width="2.27114" stroke-miterlimit="10"/>
<path d="M165.945 311.398C118.65 249.527 130.565 160.812 192.557 113.248C254.549 65.684 343.144 77.2821 390.439 139.153C437.734 201.024 425.82 289.739 363.827 337.303C301.835 384.867 213.24 373.269 165.945 311.398Z" stroke="url(#paint11_linear_221_3723)" stroke-opacity="0.8" stroke-width="2.27114" stroke-miterlimit="10"/>
<path d="M153.794 320.716C104.418 256.123 116.857 163.505 181.576 113.849C246.296 64.1922 338.788 76.3008 388.164 140.894C437.54 205.487 425.102 298.105 360.382 347.762C295.663 397.418 203.17 385.309 153.794 320.716Z" stroke="url(#paint12_linear_221_3723)" stroke-opacity="0.8" stroke-width="2.27114" stroke-miterlimit="10"/>
<path d="M141.616 330.055C90.1487 262.725 103.114 166.183 170.576 114.423C238.038 62.6622 334.45 75.2837 385.917 142.614C437.385 209.944 424.419 306.486 356.958 358.246C289.496 410.007 193.084 397.385 141.616 330.055Z" stroke="url(#paint13_linear_221_3723)" stroke-opacity="0.8" stroke-width="2.27114" stroke-miterlimit="10"/>
<path d="M129.417 339.411C75.8472 269.332 89.3422 168.847 159.559 114.973C229.775 61.0988 330.124 74.236 383.694 144.316C437.263 214.395 423.768 314.88 353.552 368.754C283.335 422.628 182.987 409.491 129.417 339.411Z" stroke="url(#paint14_linear_221_3723)" stroke-opacity="0.8" stroke-width="2.27114" stroke-miterlimit="10"/>
<path d="M117.196 348.784C61.5158 275.943 75.5425 171.5 148.525 115.504C221.508 59.5072 325.81 73.1618 381.49 146.002C437.17 218.842 423.143 323.285 350.16 379.282C277.177 435.278 172.876 421.624 117.196 348.784Z" stroke="url(#paint15_linear_221_3723)" stroke-opacity="0.8" stroke-width="2.27114" stroke-miterlimit="10"/>
<path d="M104.957 358.17C47.1589 282.558 61.719 174.142 137.478 116.016C213.237 57.8889 321.507 72.0631 379.305 147.674C437.103 223.286 422.543 331.702 346.784 389.829C271.025 447.955 162.755 433.781 104.957 358.17Z" stroke="url(#paint16_linear_221_3723)" stroke-opacity="0.8" stroke-width="2.27114" stroke-miterlimit="10"/>
</g>
<defs>
<linearGradient id="paint0_linear_221_3723" x1="404.419" y1="225.798" x2="310.415" y2="103.278" gradientUnits="userSpaceOnUse">
<stop stop-color="#FF7300"/>
<stop offset="0.548077" stop-color="#991F17"/>
<stop offset="0.783654" stop-color="white"/>
</linearGradient>
<linearGradient id="paint1_linear_221_3723" x1="400.365" y1="235.459" x2="300.029" y2="104.688" gradientUnits="userSpaceOnUse">
<stop stop-color="#FF7300"/>
<stop offset="0.548077" stop-color="#991F17"/>
<stop offset="0.783654" stop-color="white"/>
</linearGradient>
<linearGradient id="paint2_linear_221_3723" x1="396.425" y1="245.27" x2="289.529" y2="105.947" gradientUnits="userSpaceOnUse">
<stop stop-color="#FF7300"/>
<stop offset="0.548077" stop-color="#991F17"/>
<stop offset="0.783654" stop-color="white"/>
</linearGradient>
<linearGradient id="paint3_linear_221_3723" x1="392.58" y1="255.203" x2="278.935" y2="107.084" gradientUnits="userSpaceOnUse">
<stop stop-color="#FF7300"/>
<stop offset="0.548077" stop-color="#991F17"/>
<stop offset="0.783654" stop-color="white"/>
</linearGradient>
<linearGradient id="paint4_linear_221_3723" x1="388.813" y1="265.24" x2="268.26" y2="108.119" gradientUnits="userSpaceOnUse">
<stop stop-color="#FF7300"/>
<stop offset="0.548077" stop-color="#991F17"/>
<stop offset="0.783654" stop-color="white"/>
</linearGradient>
<linearGradient id="paint5_linear_221_3723" x1="385.112" y1="275.362" x2="257.52" y2="109.066" gradientUnits="userSpaceOnUse">
<stop stop-color="#FF7300"/>
<stop offset="0.548077" stop-color="#991F17"/>
<stop offset="0.783654" stop-color="white"/>
</linearGradient>
<linearGradient id="paint6_linear_221_3723" x1="381.467" y1="285.558" x2="246.724" y2="109.943" gradientUnits="userSpaceOnUse">
<stop stop-color="#FF7300"/>
<stop offset="0.548077" stop-color="#991F17"/>
<stop offset="0.783654" stop-color="white"/>
</linearGradient>
<linearGradient id="paint7_linear_221_3723" x1="377.868" y1="295.815" x2="235.881" y2="110.757" gradientUnits="userSpaceOnUse">
<stop stop-color="#FF7300"/>
<stop offset="0.548077" stop-color="#991F17"/>
<stop offset="0.783654" stop-color="white"/>
</linearGradient>
<linearGradient id="paint8_linear_221_3723" x1="374.311" y1="306.125" x2="224.998" y2="111.518" gradientUnits="userSpaceOnUse">
<stop stop-color="#FF7300"/>
<stop offset="0.548077" stop-color="#991F17"/>
<stop offset="0.783654" stop-color="white"/>
</linearGradient>
<linearGradient id="paint9_linear_221_3723" x1="370.787" y1="316.48" x2="214.078" y2="112.235" gradientUnits="userSpaceOnUse">
<stop stop-color="#FF7300"/>
<stop offset="0.548077" stop-color="#991F17"/>
<stop offset="0.783654" stop-color="white"/>
</linearGradient>
<linearGradient id="paint10_linear_221_3723" x1="367.294" y1="326.875" x2="203.13" y2="112.913" gradientUnits="userSpaceOnUse">
<stop stop-color="#FF7300"/>
<stop offset="0.548077" stop-color="#991F17"/>
<stop offset="0.783654" stop-color="white"/>
</linearGradient>
<linearGradient id="paint11_linear_221_3723" x1="363.827" y1="337.303" x2="192.156" y2="113.556" gradientUnits="userSpaceOnUse">
<stop stop-color="#FF7300"/>
<stop offset="0.548077" stop-color="#991F17"/>
<stop offset="0.783654" stop-color="white"/>
</linearGradient>
<linearGradient id="paint12_linear_221_3723" x1="360.382" y1="347.762" x2="181.157" y2="114.17" gradientUnits="userSpaceOnUse">
<stop stop-color="#FF7300"/>
<stop offset="0.548077" stop-color="#991F17"/>
<stop offset="0.783654" stop-color="white"/>
</linearGradient>
<linearGradient id="paint13_linear_221_3723" x1="356.958" y1="358.246" x2="170.139" y2="114.758" gradientUnits="userSpaceOnUse">
<stop stop-color="#FF7300"/>
<stop offset="0.548077" stop-color="#991F17"/>
<stop offset="0.783654" stop-color="white"/>
</linearGradient>
<linearGradient id="paint14_linear_221_3723" x1="353.552" y1="368.754" x2="159.104" y2="115.322" gradientUnits="userSpaceOnUse">
<stop stop-color="#FF7300"/>
<stop offset="0.548077" stop-color="#991F17"/>
<stop offset="0.783654" stop-color="white"/>
</linearGradient>
<linearGradient id="paint15_linear_221_3723" x1="350.16" y1="379.282" x2="148.053" y2="115.866" gradientUnits="userSpaceOnUse">
<stop stop-color="#FF7300"/>
<stop offset="0.548077" stop-color="#991F17"/>
<stop offset="0.783654" stop-color="white"/>
</linearGradient>
<linearGradient id="paint16_linear_221_3723" x1="346.784" y1="389.829" x2="136.988" y2="116.392" gradientUnits="userSpaceOnUse">
<stop stop-color="#FF7300"/>
<stop offset="0.548077" stop-color="#991F17"/>
<stop offset="0.783654" stop-color="white"/>
</linearGradient>
</defs>
</svg>
