<svg width="248" height="361" viewBox="0 0 248 361" fill="none" xmlns="http://www.w3.org/2000/svg">
<g opacity="0.9">
<path d="M-5.6052 166.165C-10.417 193.056 -34.7209 209.856 -59.8894 203.691C-85.0579 197.525 -101.56 170.729 -96.7485 143.838C-91.9367 116.948 -67.6329 100.147 -42.4643 106.313C-17.2958 112.478 -0.793401 139.275 -5.6052 166.165Z" stroke="url(#paint0_linear_2007_1540)" stroke-opacity="0.8" stroke-width="2.27114" stroke-miterlimit="10"/>
<path d="M4.2767 168.487C-0.854376 197.161 -26.7715 215.077 -53.6108 208.502C-80.4501 201.927 -98.0481 173.352 -92.917 144.678C-87.7859 116.004 -61.8688 98.0881 -35.0295 104.663C-8.19022 111.238 9.40777 139.813 4.2767 168.487Z" stroke="url(#paint1_linear_2007_1540)" stroke-opacity="0.8" stroke-width="2.27114" stroke-miterlimit="10"/>
<path d="M14.4795 170.887C8.99513 201.536 -18.7059 220.685 -47.3925 213.657C-76.079 206.63 -94.8882 176.088 -89.4039 145.439C-83.9196 114.791 -56.2186 95.642 -27.532 102.669C1.15463 109.696 19.9638 140.239 14.4795 170.887Z" stroke="url(#paint2_linear_2007_1540)" stroke-opacity="0.8" stroke-width="2.27114" stroke-miterlimit="10"/>
<path d="M24.9448 173.352C19.0795 206.129 -10.5455 226.608 -41.2246 219.093C-71.9036 211.577 -92.0192 178.914 -86.1539 146.136C-80.2887 113.359 -50.6636 92.88 -19.9846 100.395C10.6945 107.911 30.81 140.574 24.9448 173.352Z" stroke="url(#paint3_linear_2007_1540)" stroke-opacity="0.8" stroke-width="2.27114" stroke-miterlimit="10"/>
<path d="M35.624 175.868C29.3552 210.901 -2.30836 232.789 -35.0985 224.756C-67.8887 216.724 -89.3885 181.813 -83.1197 146.78C-76.8509 111.748 -45.1874 89.8597 -12.3972 97.8922C20.393 105.925 41.8928 140.836 35.624 175.868Z" stroke="url(#paint4_linear_2007_1540)" stroke-opacity="0.8" stroke-width="2.27114" stroke-miterlimit="10"/>
<path d="M46.4801 178.429C39.7891 215.821 5.99326 239.183 -29.005 230.609C-64.0033 222.036 -86.9508 184.774 -80.2598 147.382C-73.5688 109.99 -39.773 86.6278 -4.77471 95.2012C30.2236 103.775 53.1711 141.037 46.4801 178.429Z" stroke="url(#paint5_linear_2007_1540)" stroke-opacity="0.8" stroke-width="2.27114" stroke-miterlimit="10"/>
<path d="M57.4816 181.024C50.3531 220.861 14.3473 245.751 -22.9396 236.617C-60.2265 227.483 -84.6747 187.784 -77.5461 147.947C-70.4176 108.11 -34.4118 83.2205 2.87508 92.3545C40.162 101.488 64.6101 141.187 57.4816 181.024Z" stroke="url(#paint6_linear_2007_1540)" stroke-opacity="0.8" stroke-width="2.27114" stroke-miterlimit="10"/>
<path d="M68.6013 183.649C61.0227 226.001 22.7436 252.462 -16.8975 242.751C-56.5386 233.041 -82.5304 190.835 -74.9518 148.483C-67.3732 106.131 -29.0941 79.6699 10.547 89.3806C50.1881 99.0913 76.1799 141.297 68.6013 183.649Z" stroke="url(#paint7_linear_2007_1540)" stroke-opacity="0.8" stroke-width="2.27114" stroke-miterlimit="10"/>
<path d="M79.8214 186.298C71.7822 231.224 31.1767 259.294 -10.8736 248.993C-52.9239 238.692 -80.4954 193.922 -72.4562 148.995C-64.417 104.069 -23.8114 75.9999 18.2389 86.3008C60.2892 96.6016 87.8606 141.372 79.8214 186.298Z" stroke="url(#paint8_linear_2007_1540)" stroke-opacity="0.8" stroke-width="2.27114" stroke-miterlimit="10"/>
<path d="M91.1244 188.968C82.6158 236.518 39.6391 266.226 -4.86674 255.324C-49.3725 244.421 -78.554 197.037 -70.0453 149.487C-61.5367 101.937 -18.56 72.2287 25.9458 83.1311C70.4516 94.0335 99.6331 141.418 91.1244 188.968Z" stroke="url(#paint9_linear_2007_1540)" stroke-opacity="0.8" stroke-width="2.27114" stroke-miterlimit="10"/>
<path d="M102.498 191.655C93.5126 241.869 48.1275 273.243 1.12762 261.729C-45.8723 250.216 -76.689 200.176 -67.7035 149.961C-58.718 99.7469 -13.3329 68.3734 33.667 79.8868C80.6669 91.4001 111.484 141.44 102.498 191.655Z" stroke="url(#paint10_linear_2007_1540)" stroke-opacity="0.8" stroke-width="2.27114" stroke-miterlimit="10"/>
<path d="M113.932 194.356C104.463 247.27 56.6379 280.331 7.11065 268.198C-42.4166 256.066 -74.8905 203.335 -65.4219 150.421C-55.9533 97.5064 -8.1277 64.4461 41.3995 76.5786C90.9268 88.711 123.401 141.442 113.932 194.356Z" stroke="url(#paint11_linear_2007_1540)" stroke-opacity="0.8" stroke-width="2.27114" stroke-miterlimit="10"/>
<path d="M125.415 197.07C115.458 252.715 65.1651 287.481 13.0825 274.722C-39.0001 261.964 -73.1495 206.512 -63.1923 150.868C-53.2351 95.2231 -2.94193 60.457 49.1407 73.2154C101.223 85.9738 135.373 141.425 125.415 197.07Z" stroke="url(#paint12_linear_2007_1540)" stroke-opacity="0.8" stroke-width="2.27114" stroke-miterlimit="10"/>
<path d="M136.944 199.795C126.494 258.196 73.7097 294.684 19.0477 281.294C-35.6144 267.903 -71.4551 209.705 -61.0047 151.305C-50.5543 92.9041 2.2297 56.416 56.8918 69.8063C111.554 83.1966 147.394 141.395 136.944 199.795Z" stroke="url(#paint13_linear_2007_1540)" stroke-opacity="0.8" stroke-width="2.27114" stroke-miterlimit="10"/>
<path d="M148.511 202.529C137.563 263.708 82.2677 301.932 25.005 287.904C-32.2577 273.877 -69.8037 212.91 -58.8562 151.731C-47.9086 90.5523 7.38668 52.3285 64.6494 66.3558C121.912 80.3832 159.458 141.35 148.511 202.529Z" stroke="url(#paint14_linear_2007_1540)" stroke-opacity="0.8" stroke-width="2.27114" stroke-miterlimit="10"/>
<path d="M160.11 205.271C148.661 269.248 90.8371 309.22 30.9553 294.551C-28.9264 279.882 -68.1896 216.127 -56.7414 152.15C-45.2933 88.1735 12.531 48.2016 72.4128 62.8705C132.295 77.5395 171.558 141.294 160.11 205.271Z" stroke="url(#paint15_linear_2007_1540)" stroke-opacity="0.8" stroke-width="2.27114" stroke-miterlimit="10"/>
<path d="M171.738 208.021C159.786 274.813 99.4176 316.543 36.9014 301.229C-25.6147 285.915 -66.6052 219.355 -54.6533 152.563C-42.7015 85.7713 17.6668 44.0407 80.183 59.3549C142.699 74.6692 183.69 141.229 171.738 208.021Z" stroke="url(#paint16_linear_2007_1540)" stroke-opacity="0.8" stroke-width="2.27114" stroke-miterlimit="10"/>
<path d="M183.391 210.776C170.933 280.397 108.007 323.896 42.842 307.933C-22.3231 291.97 -65.0504 222.59 -52.5922 152.968C-40.134 83.3466 22.7922 39.8479 87.9573 55.8111C153.122 71.7743 195.85 141.154 183.391 210.776Z" stroke="url(#paint17_linear_2007_1540)" stroke-opacity="0.8" stroke-width="2.27114" stroke-miterlimit="10"/>
<path d="M195.067 213.536C182.1 286.001 116.604 331.276 48.7779 314.661C-19.0482 298.046 -63.5202 225.833 -50.5532 153.368C-37.5862 80.9035 27.9096 35.6283 95.7356 52.2433C163.562 68.8584 208.034 141.072 195.067 213.536Z" stroke="url(#paint18_linear_2007_1540)" stroke-opacity="0.8" stroke-width="2.27114" stroke-miterlimit="10"/>
<path d="M206.762 216.302C193.285 291.621 125.209 338.68 54.7105 321.411C-15.7877 304.141 -62.0117 229.083 -48.5339 153.763C-35.0561 78.4441 33.0199 31.3855 103.518 48.6551C174.016 65.9247 220.24 140.983 206.762 216.302Z" stroke="url(#paint19_linear_2007_1540)" stroke-opacity="0.8" stroke-width="2.27114" stroke-miterlimit="10"/>
<path d="M218.475 219.073C204.485 297.257 133.819 346.106 60.6392 328.18C-12.5406 310.253 -60.523 232.34 -46.5324 154.155C-32.5418 75.9702 38.1238 27.1212 111.304 45.0477C184.483 62.9742 232.466 140.888 218.475 219.073Z" stroke="url(#paint20_linear_2007_1540)" stroke-opacity="0.8" stroke-width="2.27114" stroke-miterlimit="10"/>
</g>
<defs>
<linearGradient id="paint0_linear_2007_1540" x1="-42.4643" y1="106.313" x2="-65.9546" y2="202.205" gradientUnits="userSpaceOnUse">
<stop stop-color="#FF7300"/>
<stop offset="0.548077" stop-color="#991F17"/>
<stop offset="0.783654" stop-color="white"/>
</linearGradient>
<linearGradient id="paint1_linear_2007_1540" x1="-35.0295" y1="104.663" x2="-60.0784" y2="206.918" gradientUnits="userSpaceOnUse">
<stop stop-color="#FF7300"/>
<stop offset="0.548077" stop-color="#991F17"/>
<stop offset="0.783654" stop-color="white"/>
</linearGradient>
<linearGradient id="paint2_linear_2007_1540" x1="-27.532" y1="102.669" x2="-54.3053" y2="211.964" gradientUnits="userSpaceOnUse">
<stop stop-color="#FF7300"/>
<stop offset="0.548077" stop-color="#991F17"/>
<stop offset="0.783654" stop-color="white"/>
</linearGradient>
<linearGradient id="paint3_linear_2007_1540" x1="-19.9846" y1="100.395" x2="-48.6176" y2="217.281" gradientUnits="userSpaceOnUse">
<stop stop-color="#FF7300"/>
<stop offset="0.548077" stop-color="#991F17"/>
<stop offset="0.783654" stop-color="white"/>
</linearGradient>
<linearGradient id="paint4_linear_2007_1540" x1="-12.3972" y1="97.8922" x2="-43.0003" y2="222.821" gradientUnits="userSpaceOnUse">
<stop stop-color="#FF7300"/>
<stop offset="0.548077" stop-color="#991F17"/>
<stop offset="0.783654" stop-color="white"/>
</linearGradient>
<linearGradient id="paint5_linear_2007_1540" x1="-4.7747" y1="95.2012" x2="-37.4389" y2="228.543" gradientUnits="userSpaceOnUse">
<stop stop-color="#FF7300"/>
<stop offset="0.548077" stop-color="#991F17"/>
<stop offset="0.783654" stop-color="white"/>
</linearGradient>
<linearGradient id="paint6_linear_2007_1540" x1="2.87507" y1="92.3545" x2="-31.925" y2="234.416" gradientUnits="userSpaceOnUse">
<stop stop-color="#FF7300"/>
<stop offset="0.548077" stop-color="#991F17"/>
<stop offset="0.783654" stop-color="white"/>
</linearGradient>
<linearGradient id="paint7_linear_2007_1540" x1="10.547" y1="89.3806" x2="-26.4502" y2="240.411" gradientUnits="userSpaceOnUse">
<stop stop-color="#FF7300"/>
<stop offset="0.548077" stop-color="#991F17"/>
<stop offset="0.783654" stop-color="white"/>
</linearGradient>
<linearGradient id="paint8_linear_2007_1540" x1="18.2389" y1="86.3008" x2="-21.0069" y2="246.51" gradientUnits="userSpaceOnUse">
<stop stop-color="#FF7300"/>
<stop offset="0.548077" stop-color="#991F17"/>
<stop offset="0.783654" stop-color="white"/>
</linearGradient>
<linearGradient id="paint9_linear_2007_1540" x1="25.9458" y1="83.1311" x2="-15.5917" y2="252.696" gradientUnits="userSpaceOnUse">
<stop stop-color="#FF7300"/>
<stop offset="0.548077" stop-color="#991F17"/>
<stop offset="0.783654" stop-color="white"/>
</linearGradient>
<linearGradient id="paint10_linear_2007_1540" x1="33.667" y1="79.8868" x2="-10.1985" y2="258.955" gradientUnits="userSpaceOnUse">
<stop stop-color="#FF7300"/>
<stop offset="0.548077" stop-color="#991F17"/>
<stop offset="0.783654" stop-color="white"/>
</linearGradient>
<linearGradient id="paint11_linear_2007_1540" x1="41.3995" y1="76.5786" x2="-4.82438" y2="265.275" gradientUnits="userSpaceOnUse">
<stop stop-color="#FF7300"/>
<stop offset="0.548077" stop-color="#991F17"/>
<stop offset="0.783654" stop-color="white"/>
</linearGradient>
<linearGradient id="paint12_linear_2007_1540" x1="49.1407" y1="73.2154" x2="0.531673" y2="271.648" gradientUnits="userSpaceOnUse">
<stop stop-color="#FF7300"/>
<stop offset="0.548077" stop-color="#991F17"/>
<stop offset="0.783654" stop-color="white"/>
</linearGradient>
<linearGradient id="paint13_linear_2007_1540" x1="56.8918" y1="69.8063" x2="5.87516" y2="278.067" gradientUnits="userSpaceOnUse">
<stop stop-color="#FF7300"/>
<stop offset="0.548077" stop-color="#991F17"/>
<stop offset="0.783654" stop-color="white"/>
</linearGradient>
<linearGradient id="paint14_linear_2007_1540" x1="64.6494" y1="66.3558" x2="11.2058" y2="284.524" gradientUnits="userSpaceOnUse">
<stop stop-color="#FF7300"/>
<stop offset="0.548077" stop-color="#991F17"/>
<stop offset="0.783654" stop-color="white"/>
</linearGradient>
<linearGradient id="paint15_linear_2007_1540" x1="72.4128" y1="62.8705" x2="16.5251" y2="291.016" gradientUnits="userSpaceOnUse">
<stop stop-color="#FF7300"/>
<stop offset="0.548077" stop-color="#991F17"/>
<stop offset="0.783654" stop-color="white"/>
</linearGradient>
<linearGradient id="paint16_linear_2007_1540" x1="80.183" y1="59.3549" x2="21.8363" y2="297.538" gradientUnits="userSpaceOnUse">
<stop stop-color="#FF7300"/>
<stop offset="0.548077" stop-color="#991F17"/>
<stop offset="0.783654" stop-color="white"/>
</linearGradient>
<linearGradient id="paint17_linear_2007_1540" x1="87.9573" y1="55.8111" x2="27.1386" y2="304.086" gradientUnits="userSpaceOnUse">
<stop stop-color="#FF7300"/>
<stop offset="0.548077" stop-color="#991F17"/>
<stop offset="0.783654" stop-color="white"/>
</linearGradient>
<linearGradient id="paint18_linear_2007_1540" x1="95.7356" y1="52.2433" x2="32.4332" y2="310.657" gradientUnits="userSpaceOnUse">
<stop stop-color="#FF7300"/>
<stop offset="0.548077" stop-color="#991F17"/>
<stop offset="0.783654" stop-color="white"/>
</linearGradient>
<linearGradient id="paint19_linear_2007_1540" x1="103.518" y1="48.6551" x2="37.7219" y2="317.249" gradientUnits="userSpaceOnUse">
<stop stop-color="#FF7300"/>
<stop offset="0.548077" stop-color="#991F17"/>
<stop offset="0.783654" stop-color="white"/>
</linearGradient>
<linearGradient id="paint20_linear_2007_1540" x1="111.304" y1="45.0477" x2="43.0044" y2="323.86" gradientUnits="userSpaceOnUse">
<stop stop-color="#FF7300"/>
<stop offset="0.548077" stop-color="#991F17"/>
<stop offset="0.783654" stop-color="white"/>
</linearGradient>
</defs>
</svg>
