<svg width="158" height="138" viewBox="0 0 158 138" fill="none" xmlns="http://www.w3.org/2000/svg">
<g opacity="0.9">
<path d="M183.191 -12.2466C169.273 10.2448 176.252 39.8424 198.779 53.8617C221.307 67.8809 250.852 61.0129 264.771 38.5216C278.689 16.0302 271.71 -13.5675 249.183 -27.5867C226.655 -41.606 197.11 -34.738 183.191 -12.2466Z" stroke="url(#paint0_linear_221_3618)" stroke-opacity="0.8" stroke-width="1.40909" stroke-miterlimit="10"/>
<path d="M175.659 -16.9311C160.803 7.07502 168.251 38.666 192.296 53.6293C216.341 68.5926 247.876 61.2619 262.732 37.2558C277.588 13.2496 270.139 -18.3413 246.094 -33.3046C222.05 -48.2679 190.515 -40.9372 175.659 -16.9311Z" stroke="url(#paint1_linear_221_3618)" stroke-opacity="0.8" stroke-width="1.40909" stroke-miterlimit="10"/>
<path d="M168.026 -21.6777C152.199 3.89821 160.135 37.5549 185.752 53.4967C211.369 69.4385 244.966 61.6285 260.793 36.0526C276.621 10.4768 268.685 -23.18 243.068 -39.1217C217.451 -55.0635 183.854 -47.2535 168.026 -21.6777Z" stroke="url(#paint2_linear_221_3618)" stroke-opacity="0.8" stroke-width="1.40909" stroke-miterlimit="10"/>
<path d="M160.313 -26.475C143.486 0.715671 151.923 36.4974 179.157 53.4457C206.392 70.394 242.11 62.0909 258.937 34.9003C275.764 7.70962 267.327 -28.0721 240.092 -45.0204C212.858 -61.9687 177.139 -53.6656 160.313 -26.475Z" stroke="url(#paint3_linear_221_3618)" stroke-opacity="0.8" stroke-width="1.40909" stroke-miterlimit="10"/>
<path d="M152.53 -31.3152C134.681 -2.472 143.63 35.4843 172.52 53.4627C201.41 71.441 239.299 62.6333 257.148 33.7902C274.998 4.94697 266.048 -33.0094 237.158 -50.9877C208.269 -68.9661 170.379 -60.1584 152.53 -31.3152Z" stroke="url(#paint4_linear_221_3618)" stroke-opacity="0.8" stroke-width="1.40909" stroke-miterlimit="10"/>
<path d="M144.691 -36.1905C125.799 -5.66301 135.271 34.5098 165.848 53.538C196.424 72.5662 236.526 63.2441 255.418 32.7166C274.31 2.1891 264.837 -37.9837 234.261 -57.0119C203.684 -76.0401 163.582 -66.718 144.691 -36.1905Z" stroke="url(#paint5_linear_221_3618)" stroke-opacity="0.8" stroke-width="1.40909" stroke-miterlimit="10"/>
<path d="M136.802 -41.0962C116.852 -8.85784 126.855 33.5663 159.145 53.6608C191.435 73.7553 233.784 63.9108 253.735 31.6725C273.685 -0.565853 263.682 -42.99 231.392 -63.0845C199.102 -83.179 156.753 -73.3345 136.802 -41.0962Z" stroke="url(#paint6_linear_221_3618)" stroke-opacity="0.8" stroke-width="1.40909" stroke-miterlimit="10"/>
<path d="M128.873 -46.028C107.85 -12.0563 118.391 32.649 152.417 53.824C186.444 74.9991 231.07 64.6254 252.093 30.6537C273.116 -3.31793 262.575 -48.0232 228.549 -69.1983C194.522 -90.3734 149.896 -79.9997 128.873 -46.028Z" stroke="url(#paint7_linear_221_3618)" stroke-opacity="0.8" stroke-width="1.40909" stroke-miterlimit="10"/>
<path d="M120.909 -50.9806C98.8016 -15.2561 109.887 31.7558 145.669 54.0234C181.45 76.291 228.379 65.382 250.487 29.6574C272.595 -6.06711 261.51 -53.079 225.728 -75.3466C189.946 -97.6142 143.017 -86.7052 120.909 -50.9806Z" stroke="url(#paint8_linear_221_3618)" stroke-opacity="0.8" stroke-width="1.40909" stroke-miterlimit="10"/>
<path d="M112.915 -55.9526C89.712 -18.4586 101.346 30.8817 138.9 54.2521C176.454 77.6226 225.707 66.1732 248.91 28.6792C272.113 -8.81483 260.479 -58.1552 222.925 -81.5256C185.371 -104.896 136.118 -93.4466 112.915 -55.9526Z" stroke="url(#paint9_linear_221_3618)" stroke-opacity="0.8" stroke-width="1.40909" stroke-miterlimit="10"/>
<path d="M104.894 -60.9407C80.5876 -21.6631 92.7752 30.0246 132.116 54.507C171.457 78.9893 223.053 66.9953 247.36 27.7176C271.667 -11.56 259.479 -63.2477 220.138 -87.7301C180.797 -112.212 129.201 -100.218 104.894 -60.9407Z" stroke="url(#paint10_linear_221_3618)" stroke-opacity="0.8" stroke-width="1.40909" stroke-miterlimit="10"/>
<path d="M96.8515 -65.943C71.4333 -24.869 84.1784 29.1825 125.318 54.7846C166.459 80.3867 220.415 67.8443 245.833 26.7703C271.251 -14.3036 258.506 -68.3552 217.366 -93.9572C176.226 -119.559 122.27 -107.017 96.8515 -65.943Z" stroke="url(#paint11_linear_221_3618)" stroke-opacity="0.8" stroke-width="1.40909" stroke-miterlimit="10"/>
<path d="M88.7885 -70.9576C62.2519 -28.0765 75.5575 28.3532 118.508 55.0816C161.458 81.81 217.788 68.7157 244.324 25.8346C270.861 -17.0466 257.555 -73.4763 214.605 -100.205C171.655 -126.933 115.325 -113.839 88.7885 -70.9576Z" stroke="url(#paint12_linear_221_3618)" stroke-opacity="0.8" stroke-width="1.40909" stroke-miterlimit="10"/>
<path d="M80.7081 -75.9831C53.0471 -31.2852 66.9167 27.5354 111.687 55.3963C156.457 83.2573 215.173 69.6082 242.834 24.9103C270.495 -19.7876 256.626 -78.6082 211.856 -106.469C167.086 -134.33 108.369 -120.681 80.7081 -75.9831Z" stroke="url(#paint13_linear_221_3618)" stroke-opacity="0.8" stroke-width="1.40909" stroke-miterlimit="10"/>
<path d="M72.6128 -81.018C43.8222 -34.4947 58.258 26.7279 104.856 55.7265C151.454 84.7251 212.569 70.5186 241.359 23.9953C270.15 -22.5281 255.714 -83.7507 209.116 -112.749C162.518 -141.748 101.403 -127.541 72.6128 -81.018Z" stroke="url(#paint14_linear_221_3618)" stroke-opacity="0.8" stroke-width="1.40909" stroke-miterlimit="10"/>
<path d="M64.5036 -86.0614C34.5788 -37.7053 49.5834 25.9291 98.0173 56.0701C146.451 86.2112 209.973 71.445 239.898 23.089C269.823 -25.267 254.818 -88.9014 206.384 -119.042C157.95 -149.184 94.4283 -134.417 64.5036 -86.0614Z" stroke="url(#paint15_linear_221_3618)" stroke-opacity="0.8" stroke-width="1.40909" stroke-miterlimit="10"/>
<path d="M56.3823 -91.1121C25.3191 -40.9165 40.8944 25.1387 91.1706 56.4263C141.447 87.7139 207.386 72.3859 238.449 22.1903C269.512 -28.0054 253.937 -94.0606 203.66 -125.348C153.384 -156.636 87.4455 -141.308 56.3823 -91.1121Z" stroke="url(#paint16_linear_221_3618)" stroke-opacity="0.8" stroke-width="1.40909" stroke-miterlimit="10"/>
</g>
<defs>
<linearGradient id="paint0_linear_221_3618" x1="249.183" y1="-27.5867" x2="198.575" y2="53.7348" gradientUnits="userSpaceOnUse">
<stop stop-color="#FF7300"/>
<stop offset="0.548077" stop-color="#991F17"/>
<stop offset="0.783654" stop-color="white"/>
</linearGradient>
<linearGradient id="paint1_linear_221_3618" x1="246.094" y1="-33.3046" x2="192.078" y2="53.4939" gradientUnits="userSpaceOnUse">
<stop stop-color="#FF7300"/>
<stop offset="0.548077" stop-color="#991F17"/>
<stop offset="0.783654" stop-color="white"/>
</linearGradient>
<linearGradient id="paint2_linear_221_3618" x1="243.068" y1="-39.1217" x2="185.52" y2="53.3524" gradientUnits="userSpaceOnUse">
<stop stop-color="#FF7300"/>
<stop offset="0.548077" stop-color="#991F17"/>
<stop offset="0.783654" stop-color="white"/>
</linearGradient>
<linearGradient id="paint3_linear_221_3618" x1="240.092" y1="-45.0204" x2="178.911" y2="53.2923" gradientUnits="userSpaceOnUse">
<stop stop-color="#FF7300"/>
<stop offset="0.548077" stop-color="#991F17"/>
<stop offset="0.783654" stop-color="white"/>
</linearGradient>
<linearGradient id="paint4_linear_221_3618" x1="237.158" y1="-50.9877" x2="172.259" y2="53.3" gradientUnits="userSpaceOnUse">
<stop stop-color="#FF7300"/>
<stop offset="0.548077" stop-color="#991F17"/>
<stop offset="0.783654" stop-color="white"/>
</linearGradient>
<linearGradient id="paint5_linear_221_3618" x1="234.261" y1="-57.0119" x2="165.571" y2="53.3658" gradientUnits="userSpaceOnUse">
<stop stop-color="#FF7300"/>
<stop offset="0.548077" stop-color="#991F17"/>
<stop offset="0.783654" stop-color="white"/>
</linearGradient>
<linearGradient id="paint6_linear_221_3618" x1="231.392" y1="-63.0845" x2="158.853" y2="53.479" gradientUnits="userSpaceOnUse">
<stop stop-color="#FF7300"/>
<stop offset="0.548077" stop-color="#991F17"/>
<stop offset="0.783654" stop-color="white"/>
</linearGradient>
<linearGradient id="paint7_linear_221_3618" x1="228.549" y1="-69.1983" x2="152.11" y2="53.6324" gradientUnits="userSpaceOnUse">
<stop stop-color="#FF7300"/>
<stop offset="0.548077" stop-color="#991F17"/>
<stop offset="0.783654" stop-color="white"/>
</linearGradient>
<linearGradient id="paint8_linear_221_3618" x1="225.728" y1="-75.3466" x2="145.345" y2="53.8219" gradientUnits="userSpaceOnUse">
<stop stop-color="#FF7300"/>
<stop offset="0.548077" stop-color="#991F17"/>
<stop offset="0.783654" stop-color="white"/>
</linearGradient>
<linearGradient id="paint9_linear_221_3618" x1="222.925" y1="-81.5256" x2="138.56" y2="54.0407" gradientUnits="userSpaceOnUse">
<stop stop-color="#FF7300"/>
<stop offset="0.548077" stop-color="#991F17"/>
<stop offset="0.783654" stop-color="white"/>
</linearGradient>
<linearGradient id="paint10_linear_221_3618" x1="220.138" y1="-87.7301" x2="131.76" y2="54.2854" gradientUnits="userSpaceOnUse">
<stop stop-color="#FF7300"/>
<stop offset="0.548077" stop-color="#991F17"/>
<stop offset="0.783654" stop-color="white"/>
</linearGradient>
<linearGradient id="paint11_linear_221_3618" x1="217.366" y1="-93.9572" x2="124.946" y2="54.553" gradientUnits="userSpaceOnUse">
<stop stop-color="#FF7300"/>
<stop offset="0.548077" stop-color="#991F17"/>
<stop offset="0.783654" stop-color="white"/>
</linearGradient>
<linearGradient id="paint12_linear_221_3618" x1="214.605" y1="-100.205" x2="118.119" y2="54.8398" gradientUnits="userSpaceOnUse">
<stop stop-color="#FF7300"/>
<stop offset="0.548077" stop-color="#991F17"/>
<stop offset="0.783654" stop-color="white"/>
</linearGradient>
<linearGradient id="paint13_linear_221_3618" x1="211.856" y1="-106.469" x2="111.282" y2="55.1442" gradientUnits="userSpaceOnUse">
<stop stop-color="#FF7300"/>
<stop offset="0.548077" stop-color="#991F17"/>
<stop offset="0.783654" stop-color="white"/>
</linearGradient>
<linearGradient id="paint14_linear_221_3618" x1="209.116" y1="-112.749" x2="104.434" y2="55.4641" gradientUnits="userSpaceOnUse">
<stop stop-color="#FF7300"/>
<stop offset="0.548077" stop-color="#991F17"/>
<stop offset="0.783654" stop-color="white"/>
</linearGradient>
<linearGradient id="paint15_linear_221_3618" x1="206.384" y1="-119.042" x2="97.579" y2="55.7974" gradientUnits="userSpaceOnUse">
<stop stop-color="#FF7300"/>
<stop offset="0.548077" stop-color="#991F17"/>
<stop offset="0.783654" stop-color="white"/>
</linearGradient>
<linearGradient id="paint16_linear_221_3618" x1="203.66" y1="-125.348" x2="90.7157" y2="56.1432" gradientUnits="userSpaceOnUse">
<stop stop-color="#FF7300"/>
<stop offset="0.548077" stop-color="#991F17"/>
<stop offset="0.783654" stop-color="white"/>
</linearGradient>
</defs>
</svg>
