<svg width="482" height="417" viewBox="0 0 482 417" fill="none" xmlns="http://www.w3.org/2000/svg">
<g opacity="0.9">
<path d="M145.057 191.479C138.715 221.649 109.025 241.01 78.7436 234.724C48.4621 228.437 29.0557 198.883 35.3983 168.713C41.7408 138.543 71.4304 119.182 101.712 125.469C131.993 131.755 151.4 161.309 145.057 191.479Z" stroke="url(#paint0_linear_221_3555)" stroke-opacity="0.8" stroke-width="2.27114" stroke-miterlimit="10"/>
<path d="M157.315 194.028C150.583 226.05 119.071 246.601 86.9302 239.928C54.7898 233.255 34.1923 201.886 40.9243 169.864C47.6563 137.841 79.1686 117.291 111.309 123.964C143.449 130.637 164.047 162.005 157.315 194.028Z" stroke="url(#paint1_linear_221_3555)" stroke-opacity="0.8" stroke-width="2.27114" stroke-miterlimit="10"/>
<path d="M170.068 196.68C162.89 230.828 129.286 252.741 95.0117 245.626C60.7377 238.51 38.7727 205.06 45.9514 170.912C53.1301 136.765 86.7341 114.851 121.008 121.967C155.282 129.083 177.247 162.533 170.068 196.68Z" stroke="url(#paint2_linear_221_3555)" stroke-opacity="0.8" stroke-width="2.27114" stroke-miterlimit="10"/>
<path d="M183.232 199.418C175.559 235.916 139.642 259.338 103.009 251.733C66.3759 244.127 42.8991 208.374 50.5721 171.876C58.245 135.378 94.162 111.955 130.795 119.561C167.428 127.166 190.905 162.919 183.232 199.418Z" stroke="url(#paint3_linear_221_3555)" stroke-opacity="0.8" stroke-width="2.27114" stroke-miterlimit="10"/>
<path d="M196.73 202.224C188.524 241.257 150.113 266.307 110.935 258.173C71.7581 250.039 46.6508 211.803 54.8567 172.769C63.0626 133.736 101.474 108.687 140.652 116.821C179.829 124.954 204.936 163.191 196.73 202.224Z" stroke="url(#paint4_linear_221_3555)" stroke-opacity="0.8" stroke-width="2.27114" stroke-miterlimit="10"/>
<path d="M210.502 205.088C201.732 246.807 160.677 273.579 118.804 264.886C76.9303 256.193 50.0952 215.325 58.8657 173.606C67.6362 131.887 108.691 105.115 150.564 113.808C192.438 122.501 219.273 163.369 210.502 205.088Z" stroke="url(#paint5_linear_221_3555)" stroke-opacity="0.8" stroke-width="2.27114" stroke-miterlimit="10"/>
<path d="M224.5 207.998C215.139 252.527 171.319 281.103 126.626 271.824C81.9331 262.545 53.291 218.926 62.6521 174.397C72.0133 129.868 115.833 101.292 160.526 110.571C205.219 119.85 233.861 163.47 224.5 207.998Z" stroke="url(#paint6_linear_221_3555)" stroke-opacity="0.8" stroke-width="2.27114" stroke-miterlimit="10"/>
<path d="M238.683 210.947C228.71 258.388 182.025 288.832 134.409 278.946C86.7936 269.061 56.2785 222.589 66.2518 175.149C76.2251 127.708 122.91 97.2638 170.526 107.149C218.141 117.035 248.656 163.507 238.683 210.947Z" stroke="url(#paint7_linear_221_3555)" stroke-opacity="0.8" stroke-width="2.27114" stroke-miterlimit="10"/>
<path d="M253.017 213.927C242.414 264.363 192.782 296.729 142.16 286.22C91.5381 275.71 59.0963 226.304 69.6993 175.868C80.3022 125.433 129.935 93.0662 180.557 103.576C231.179 114.086 263.62 163.492 253.017 213.927Z" stroke="url(#paint8_linear_221_3555)" stroke-opacity="0.8" stroke-width="2.27114" stroke-miterlimit="10"/>
<path d="M267.48 216.934C256.232 270.435 203.583 304.769 149.885 293.62C96.1865 282.472 61.7731 230.063 73.0205 176.562C84.2678 123.061 136.917 88.7275 190.615 99.8759C244.314 111.024 278.727 163.433 267.48 216.934Z" stroke="url(#paint9_linear_221_3555)" stroke-opacity="0.8" stroke-width="2.27114" stroke-miterlimit="10"/>
<path d="M282.048 219.963C270.144 276.588 214.421 312.927 157.586 301.127C100.752 289.328 64.3293 233.859 76.2335 177.234C88.1376 120.608 143.861 84.2699 200.695 96.0693C257.529 107.869 293.952 163.338 282.048 219.963Z" stroke="url(#paint10_linear_221_3555)" stroke-opacity="0.8" stroke-width="2.27114" stroke-miterlimit="10"/>
<path d="M296.707 223.011C284.135 282.809 225.289 321.184 165.27 308.724C105.251 296.263 66.787 237.685 79.3583 177.887C91.9296 118.088 150.776 79.7132 210.795 92.1738C270.814 104.634 309.278 163.212 296.707 223.011Z" stroke="url(#paint11_linear_221_3555)" stroke-opacity="0.8" stroke-width="2.27114" stroke-miterlimit="10"/>
<path d="M311.442 226.074C298.195 289.088 236.184 329.526 172.938 316.396C109.691 303.265 69.1589 241.538 82.4061 178.524C95.6533 115.51 157.664 75.0718 220.91 88.2025C284.157 101.333 324.689 163.06 311.442 226.074Z" stroke="url(#paint12_linear_221_3555)" stroke-opacity="0.8" stroke-width="2.27114" stroke-miterlimit="10"/>
<path d="M326.241 229.151C312.31 295.416 247.1 337.941 180.591 324.132C114.081 310.324 71.4571 245.412 85.3878 179.147C99.3185 112.882 164.528 70.3568 231.038 84.165C297.548 97.9732 340.172 162.885 326.241 229.151Z" stroke="url(#paint13_linear_221_3555)" stroke-opacity="0.8" stroke-width="2.27114" stroke-miterlimit="10"/>
<path d="M341.097 232.24C326.477 301.787 258.037 346.418 188.233 331.926C118.43 317.434 73.6949 249.307 88.3156 179.76C102.936 110.212 171.376 65.5811 241.18 80.0732C310.983 94.5652 355.718 162.693 341.097 232.24Z" stroke="url(#paint14_linear_221_3555)" stroke-opacity="0.8" stroke-width="2.27114" stroke-miterlimit="10"/>
<path d="M356.002 235.338C340.686 308.194 268.99 354.948 195.865 339.767C122.741 324.585 75.8775 253.217 91.1937 180.361C106.51 107.505 178.206 60.7509 251.331 75.9324C324.455 91.114 371.318 162.482 356.002 235.338Z" stroke="url(#paint15_linear_221_3555)" stroke-opacity="0.8" stroke-width="2.27114" stroke-miterlimit="10"/>
<path d="M370.948 238.446C354.932 314.633 279.957 363.526 203.488 347.65C127.018 331.774 78.0118 257.142 94.0285 180.954C110.045 104.766 185.02 55.8739 261.489 71.7497C337.959 87.6256 386.965 162.258 370.948 238.446Z" stroke="url(#paint16_linear_221_3555)" stroke-opacity="0.8" stroke-width="2.27114" stroke-miterlimit="10"/>
<path d="M385.932 241.561C369.211 321.101 290.937 372.145 211.104 355.57C131.27 338.996 80.1079 261.08 96.8294 181.54C113.551 102 191.824 50.9567 271.658 67.531C351.491 84.1053 402.653 162.021 385.932 241.561Z" stroke="url(#paint17_linear_221_3555)" stroke-opacity="0.8" stroke-width="2.27114" stroke-miterlimit="10"/>
<path d="M400.948 244.683C383.518 327.592 301.929 380.799 218.713 363.522C135.496 346.245 82.166 265.028 99.5959 182.119C117.026 99.2088 198.616 46.0025 281.832 63.2791C365.048 80.5558 418.378 161.773 400.948 244.683Z" stroke="url(#paint18_linear_221_3555)" stroke-opacity="0.8" stroke-width="2.27114" stroke-miterlimit="10"/>
<path d="M415.992 247.81C397.85 334.106 312.929 389.485 226.314 371.503C139.7 353.521 84.1922 268.987 102.334 182.691C120.476 96.3955 205.397 41.0163 292.011 58.9984C378.626 76.9805 434.134 161.514 415.992 247.81Z" stroke="url(#paint19_linear_221_3555)" stroke-opacity="0.8" stroke-width="2.27114" stroke-miterlimit="10"/>
<path d="M431.062 250.943C412.205 340.638 323.938 398.199 233.912 379.508C143.885 360.818 86.1906 272.954 105.047 183.259C123.903 93.5634 212.17 36.0027 302.197 54.6932C392.223 73.3837 449.918 161.248 431.062 250.943Z" stroke="url(#paint20_linear_221_3555)" stroke-opacity="0.8" stroke-width="2.27114" stroke-miterlimit="10"/>
<path d="M446.153 254.08C426.58 347.188 334.955 406.938 241.504 387.537C148.053 368.135 88.1635 276.929 107.737 183.821C127.311 90.7139 218.936 30.9634 312.387 50.3649C405.838 69.7663 465.727 160.973 446.153 254.08Z" stroke="url(#paint21_linear_221_3555)" stroke-opacity="0.8" stroke-width="2.27114" stroke-miterlimit="10"/>
</g>
<defs>
<linearGradient id="paint0_linear_221_3555" x1="101.712" y1="125.469" x2="79.0176" y2="234.78" gradientUnits="userSpaceOnUse">
<stop stop-color="#FF7300"/>
<stop offset="0.548077" stop-color="#991F17"/>
<stop offset="0.783654" stop-color="white"/>
</linearGradient>
<linearGradient id="paint1_linear_221_3555" x1="111.309" y1="123.964" x2="87.221" y2="239.988" gradientUnits="userSpaceOnUse">
<stop stop-color="#FF7300"/>
<stop offset="0.548077" stop-color="#991F17"/>
<stop offset="0.783654" stop-color="white"/>
</linearGradient>
<linearGradient id="paint2_linear_221_3555" x1="121.008" y1="121.967" x2="95.3218" y2="245.69" gradientUnits="userSpaceOnUse">
<stop stop-color="#FF7300"/>
<stop offset="0.548077" stop-color="#991F17"/>
<stop offset="0.783654" stop-color="white"/>
</linearGradient>
<linearGradient id="paint3_linear_221_3555" x1="130.795" y1="119.561" x2="103.34" y2="251.801" gradientUnits="userSpaceOnUse">
<stop stop-color="#FF7300"/>
<stop offset="0.548077" stop-color="#991F17"/>
<stop offset="0.783654" stop-color="white"/>
</linearGradient>
<linearGradient id="paint4_linear_221_3555" x1="140.652" y1="116.821" x2="111.29" y2="258.247" gradientUnits="userSpaceOnUse">
<stop stop-color="#FF7300"/>
<stop offset="0.548077" stop-color="#991F17"/>
<stop offset="0.783654" stop-color="white"/>
</linearGradient>
<linearGradient id="paint5_linear_221_3555" x1="150.564" y1="113.808" x2="119.182" y2="264.965" gradientUnits="userSpaceOnUse">
<stop stop-color="#FF7300"/>
<stop offset="0.548077" stop-color="#991F17"/>
<stop offset="0.783654" stop-color="white"/>
</linearGradient>
<linearGradient id="paint6_linear_221_3555" x1="160.526" y1="110.571" x2="127.03" y2="271.908" gradientUnits="userSpaceOnUse">
<stop stop-color="#FF7300"/>
<stop offset="0.548077" stop-color="#991F17"/>
<stop offset="0.783654" stop-color="white"/>
</linearGradient>
<linearGradient id="paint7_linear_221_3555" x1="170.526" y1="107.149" x2="134.84" y2="279.036" gradientUnits="userSpaceOnUse">
<stop stop-color="#FF7300"/>
<stop offset="0.548077" stop-color="#991F17"/>
<stop offset="0.783654" stop-color="white"/>
</linearGradient>
<linearGradient id="paint8_linear_221_3555" x1="180.557" y1="103.576" x2="142.618" y2="286.315" gradientUnits="userSpaceOnUse">
<stop stop-color="#FF7300"/>
<stop offset="0.548077" stop-color="#991F17"/>
<stop offset="0.783654" stop-color="white"/>
</linearGradient>
<linearGradient id="paint9_linear_221_3555" x1="190.615" y1="99.8759" x2="150.371" y2="293.721" gradientUnits="userSpaceOnUse">
<stop stop-color="#FF7300"/>
<stop offset="0.548077" stop-color="#991F17"/>
<stop offset="0.783654" stop-color="white"/>
</linearGradient>
<linearGradient id="paint10_linear_221_3555" x1="200.695" y1="96.0693" x2="158.101" y2="301.234" gradientUnits="userSpaceOnUse">
<stop stop-color="#FF7300"/>
<stop offset="0.548077" stop-color="#991F17"/>
<stop offset="0.783654" stop-color="white"/>
</linearGradient>
<linearGradient id="paint11_linear_221_3555" x1="210.795" y1="92.1738" x2="165.813" y2="308.836" gradientUnits="userSpaceOnUse">
<stop stop-color="#FF7300"/>
<stop offset="0.548077" stop-color="#991F17"/>
<stop offset="0.783654" stop-color="white"/>
</linearGradient>
<linearGradient id="paint12_linear_221_3555" x1="220.91" y1="88.2025" x2="173.51" y2="316.514" gradientUnits="userSpaceOnUse">
<stop stop-color="#FF7300"/>
<stop offset="0.548077" stop-color="#991F17"/>
<stop offset="0.783654" stop-color="white"/>
</linearGradient>
<linearGradient id="paint13_linear_221_3555" x1="231.038" y1="84.165" x2="181.192" y2="324.257" gradientUnits="userSpaceOnUse">
<stop stop-color="#FF7300"/>
<stop offset="0.548077" stop-color="#991F17"/>
<stop offset="0.783654" stop-color="white"/>
</linearGradient>
<linearGradient id="paint14_linear_221_3555" x1="241.18" y1="80.0732" x2="188.865" y2="332.057" gradientUnits="userSpaceOnUse">
<stop stop-color="#FF7300"/>
<stop offset="0.548077" stop-color="#991F17"/>
<stop offset="0.783654" stop-color="white"/>
</linearGradient>
<linearGradient id="paint15_linear_221_3555" x1="251.331" y1="75.9324" x2="196.527" y2="339.904" gradientUnits="userSpaceOnUse">
<stop stop-color="#FF7300"/>
<stop offset="0.548077" stop-color="#991F17"/>
<stop offset="0.783654" stop-color="white"/>
</linearGradient>
<linearGradient id="paint16_linear_221_3555" x1="261.489" y1="71.7497" x2="204.18" y2="347.793" gradientUnits="userSpaceOnUse">
<stop stop-color="#FF7300"/>
<stop offset="0.548077" stop-color="#991F17"/>
<stop offset="0.783654" stop-color="white"/>
</linearGradient>
<linearGradient id="paint17_linear_221_3555" x1="271.658" y1="67.531" x2="211.826" y2="355.72" gradientUnits="userSpaceOnUse">
<stop stop-color="#FF7300"/>
<stop offset="0.548077" stop-color="#991F17"/>
<stop offset="0.783654" stop-color="white"/>
</linearGradient>
<linearGradient id="paint18_linear_221_3555" x1="281.832" y1="63.2791" x2="219.465" y2="363.678" gradientUnits="userSpaceOnUse">
<stop stop-color="#FF7300"/>
<stop offset="0.548077" stop-color="#991F17"/>
<stop offset="0.783654" stop-color="white"/>
</linearGradient>
<linearGradient id="paint19_linear_221_3555" x1="292.011" y1="58.9984" x2="227.098" y2="371.666" gradientUnits="userSpaceOnUse">
<stop stop-color="#FF7300"/>
<stop offset="0.548077" stop-color="#991F17"/>
<stop offset="0.783654" stop-color="white"/>
</linearGradient>
<linearGradient id="paint20_linear_221_3555" x1="302.197" y1="54.6932" x2="234.726" y2="379.677" gradientUnits="userSpaceOnUse">
<stop stop-color="#FF7300"/>
<stop offset="0.548077" stop-color="#991F17"/>
<stop offset="0.783654" stop-color="white"/>
</linearGradient>
<linearGradient id="paint21_linear_221_3555" x1="312.387" y1="50.3649" x2="242.35" y2="387.712" gradientUnits="userSpaceOnUse">
<stop stop-color="#FF7300"/>
<stop offset="0.548077" stop-color="#991F17"/>
<stop offset="0.783654" stop-color="white"/>
</linearGradient>
</defs>
</svg>
