<svg width="630" height="605" viewBox="0 0 630 605" fill="none" xmlns="http://www.w3.org/2000/svg">
<g opacity="0.9">
<path d="M444.455 265.224C453.303 306.992 492.444 331.905 531.878 320.869C571.312 309.834 596.108 267.028 587.259 225.26C578.411 183.492 539.27 158.579 499.836 169.614C460.402 180.65 435.607 223.456 444.455 265.224Z" stroke="url(#paint0_linear_221_3655)" stroke-opacity="0.8" stroke-width="2.93261" stroke-miterlimit="10"/>
<path d="M428.675 269.49C438.067 313.822 479.61 340.266 521.465 328.553C563.321 316.84 589.637 271.405 580.246 227.073C570.854 182.74 529.311 156.296 487.456 168.009C445.601 179.722 419.284 225.157 428.675 269.49Z" stroke="url(#paint1_linear_221_3655)" stroke-opacity="0.8" stroke-width="2.93261" stroke-miterlimit="10"/>
<path d="M412.25 273.937C422.264 321.211 466.566 349.409 511.199 336.918C555.833 324.428 583.897 275.978 573.882 228.704C563.868 181.43 519.566 153.232 474.933 165.722C430.299 178.213 402.235 226.662 412.25 273.937Z" stroke="url(#paint2_linear_221_3655)" stroke-opacity="0.8" stroke-width="2.93261" stroke-miterlimit="10"/>
<path d="M395.291 278.532C405.995 329.061 453.345 359.201 501.051 345.85C548.757 332.5 578.752 280.715 568.048 230.186C557.344 179.657 509.993 149.518 462.288 162.868C414.582 176.219 384.587 228.003 395.291 278.532Z" stroke="url(#paint3_linear_221_3655)" stroke-opacity="0.8" stroke-width="2.93261" stroke-miterlimit="10"/>
<path d="M377.895 283.25C389.342 337.289 439.982 369.522 491.001 355.244C542.02 340.966 574.099 285.585 562.651 231.546C551.203 177.507 500.564 145.275 449.545 159.552C398.526 173.83 366.447 229.211 377.895 283.25Z" stroke="url(#paint4_linear_221_3655)" stroke-opacity="0.8" stroke-width="2.93261" stroke-miterlimit="10"/>
<path d="M360.143 288.068C372.378 345.825 426.502 380.275 481.032 365.015C535.562 349.755 569.849 290.563 557.613 232.806C545.378 175.049 491.254 140.599 436.724 155.859C382.194 171.119 347.908 230.311 360.143 288.068Z" stroke="url(#paint5_linear_221_3655)" stroke-opacity="0.8" stroke-width="2.93261" stroke-miterlimit="10"/>
<path d="M342.097 292.968C355.157 354.615 412.925 391.386 471.127 375.098C529.329 358.81 565.925 295.632 552.865 233.985C539.806 172.338 482.037 135.568 423.835 151.855C365.633 168.143 329.038 231.322 342.097 292.968Z" stroke="url(#paint6_linear_221_3655)" stroke-opacity="0.8" stroke-width="2.93261" stroke-miterlimit="10"/>
<path d="M323.81 297.936C337.724 363.614 399.27 402.789 461.278 385.436C523.286 368.083 562.274 300.774 548.361 235.096C534.447 169.418 472.901 130.243 410.893 147.596C348.885 164.949 309.897 232.258 323.81 297.936Z" stroke="url(#paint7_linear_221_3655)" stroke-opacity="0.8" stroke-width="2.93261" stroke-miterlimit="10"/>
<path d="M305.326 302.958C320.118 372.783 385.55 414.431 451.473 395.983C517.396 377.534 558.846 305.975 544.054 236.151C529.262 166.326 463.83 124.678 397.907 143.126C331.984 161.575 290.534 233.134 305.326 302.958Z" stroke="url(#paint8_linear_221_3655)" stroke-opacity="0.8" stroke-width="2.93261" stroke-miterlimit="10"/>
<path d="M286.675 308.028C302.366 382.096 371.775 426.275 441.704 406.706C511.633 387.136 555.603 311.228 539.912 237.16C524.221 163.091 454.812 118.912 384.883 138.481C314.954 158.051 270.984 233.96 286.675 308.028Z" stroke="url(#paint9_linear_221_3655)" stroke-opacity="0.8" stroke-width="2.93261" stroke-miterlimit="10"/>
<path d="M267.886 313.136C284.493 391.53 357.955 438.289 431.968 417.577C505.981 396.864 552.518 316.523 535.911 238.13C519.304 159.736 445.842 112.977 371.829 133.689C297.816 154.402 251.279 234.743 267.886 313.136Z" stroke="url(#paint10_linear_221_3655)" stroke-opacity="0.8" stroke-width="2.93261" stroke-miterlimit="10"/>
<path d="M248.98 318.278C266.518 401.065 344.096 450.445 422.257 428.572C500.417 406.698 549.562 321.855 532.024 239.068C514.487 156.281 436.908 106.901 358.747 128.774C280.587 150.648 231.442 235.491 248.98 318.278Z" stroke="url(#paint11_linear_221_3655)" stroke-opacity="0.8" stroke-width="2.93261" stroke-miterlimit="10"/>
<path d="M229.974 323.446C248.454 410.684 330.204 462.719 412.568 439.67C494.931 416.62 546.719 327.215 528.238 239.977C509.758 152.739 428.007 100.704 345.644 123.754C263.28 146.803 211.493 236.209 229.974 323.446Z" stroke="url(#paint12_linear_221_3655)" stroke-opacity="0.8" stroke-width="2.93261" stroke-miterlimit="10"/>
<path d="M210.885 328.638C230.319 420.377 316.287 475.097 402.9 450.858C489.513 426.62 543.972 332.601 524.538 240.862C505.104 149.123 419.136 94.4027 332.523 118.641C245.91 142.88 191.451 236.899 210.885 328.638Z" stroke="url(#paint13_linear_221_3655)" stroke-opacity="0.8" stroke-width="2.93261" stroke-miterlimit="10"/>
<path d="M191.721 333.851C212.117 430.134 302.343 487.565 393.246 462.126C484.149 436.687 541.305 338.011 520.908 241.728C500.512 145.445 410.286 88.015 319.383 113.454C228.48 138.893 171.324 237.568 191.721 333.851Z" stroke="url(#paint14_linear_221_3655)" stroke-opacity="0.8" stroke-width="2.93261" stroke-miterlimit="10"/>
<path d="M172.494 339.082C193.861 439.945 288.379 500.107 383.607 473.458C478.835 446.809 538.71 343.439 517.343 242.576C495.976 141.712 401.458 81.5499 306.23 108.199C211.002 134.849 151.127 238.218 172.494 339.082Z" stroke="url(#paint15_linear_221_3655)" stroke-opacity="0.8" stroke-width="2.93261" stroke-miterlimit="10"/>
<path d="M153.212 344.328C175.557 449.804 274.398 512.717 373.981 484.849C473.564 456.981 536.179 348.884 513.834 243.408C491.49 137.932 392.649 75.0179 293.066 102.886C193.483 130.754 130.868 238.851 153.212 344.328Z" stroke="url(#paint16_linear_221_3655)" stroke-opacity="0.8" stroke-width="2.93261" stroke-miterlimit="10"/>
<path d="M133.883 349.587C157.21 459.704 260.4 525.386 364.364 496.291C468.328 467.197 533.697 354.344 510.37 244.227C487.043 134.11 383.853 68.4284 279.889 97.5226C175.925 126.617 110.556 239.47 133.883 349.587Z" stroke="url(#paint17_linear_221_3655)" stroke-opacity="0.8" stroke-width="2.93261" stroke-miterlimit="10"/>
<path d="M114.511 354.858C138.827 469.64 246.389 538.105 354.758 507.778C463.127 477.451 531.266 359.816 506.95 245.034C482.635 130.252 375.073 61.7871 266.703 92.1141C158.334 122.441 90.1953 240.076 114.511 354.858Z" stroke="url(#paint18_linear_221_3655)" stroke-opacity="0.8" stroke-width="2.93261" stroke-miterlimit="10"/>
<path d="M95.1029 360.139C120.412 479.609 232.366 550.87 345.161 519.304C457.955 487.739 528.876 365.301 503.567 245.831C478.259 126.361 366.304 55.1001 253.51 86.6655C140.715 118.231 69.7942 240.669 95.1029 360.139Z" stroke="url(#paint19_linear_221_3655)" stroke-opacity="0.8" stroke-width="2.93261" stroke-miterlimit="10"/>
<path d="M75.6609 365.43C101.967 489.606 218.332 563.674 335.57 530.865C452.808 498.056 526.523 370.795 500.217 246.618C473.912 122.442 357.546 48.3743 240.308 81.1833C123.07 113.992 49.3552 241.254 75.6609 365.43Z" stroke="url(#paint20_linear_221_3655)" stroke-opacity="0.8" stroke-width="2.93261" stroke-miterlimit="10"/>
<path d="M56.1908 370.729C83.4972 499.629 204.289 576.515 325.986 542.458C447.684 508.401 524.203 376.298 496.897 247.398C469.591 118.497 348.799 41.6116 227.101 75.6686C105.404 109.726 28.8843 241.829 56.1908 370.729Z" stroke="url(#paint21_linear_221_3655)" stroke-opacity="0.8" stroke-width="2.93261" stroke-miterlimit="10"/>
</g>
<defs>
<linearGradient id="paint0_linear_221_3655" x1="499.836" y1="169.614" x2="541.418" y2="318.2" gradientUnits="userSpaceOnUse">
<stop stop-color="#FFC697"/>
<stop offset="0.317308" stop-color="#FF7300"/>
<stop offset="0.764423" stop-color="#FF7300"/>
</linearGradient>
<linearGradient id="paint1_linear_221_3655" x1="487.456" y1="168.009" x2="531.591" y2="325.719" gradientUnits="userSpaceOnUse">
<stop stop-color="#FFC697"/>
<stop offset="0.317308" stop-color="#FF7300"/>
<stop offset="0.764423" stop-color="#FF7300"/>
</linearGradient>
<linearGradient id="paint2_linear_221_3655" x1="474.933" y1="165.722" x2="521.996" y2="333.897" gradientUnits="userSpaceOnUse">
<stop stop-color="#FFC697"/>
<stop offset="0.317308" stop-color="#FF7300"/>
<stop offset="0.764423" stop-color="#FF7300"/>
</linearGradient>
<linearGradient id="paint3_linear_221_3655" x1="462.288" y1="162.868" x2="512.591" y2="342.621" gradientUnits="userSpaceOnUse">
<stop stop-color="#FFC697"/>
<stop offset="0.317308" stop-color="#FF7300"/>
<stop offset="0.764423" stop-color="#FF7300"/>
</linearGradient>
<linearGradient id="paint4_linear_221_3655" x1="449.545" y1="159.552" x2="503.343" y2="351.79" gradientUnits="userSpaceOnUse">
<stop stop-color="#FFC697"/>
<stop offset="0.317308" stop-color="#FF7300"/>
<stop offset="0.764423" stop-color="#FF7300"/>
</linearGradient>
<linearGradient id="paint5_linear_221_3655" x1="436.724" y1="155.859" x2="494.223" y2="361.324" gradientUnits="userSpaceOnUse">
<stop stop-color="#FFC697"/>
<stop offset="0.317308" stop-color="#FF7300"/>
<stop offset="0.764423" stop-color="#FF7300"/>
</linearGradient>
<linearGradient id="paint6_linear_221_3655" x1="423.835" y1="151.855" x2="485.207" y2="371.158" gradientUnits="userSpaceOnUse">
<stop stop-color="#FFC697"/>
<stop offset="0.317308" stop-color="#FF7300"/>
<stop offset="0.764423" stop-color="#FF7300"/>
</linearGradient>
<linearGradient id="paint7_linear_221_3655" x1="410.893" y1="147.596" x2="476.278" y2="381.238" gradientUnits="userSpaceOnUse">
<stop stop-color="#FFC697"/>
<stop offset="0.317308" stop-color="#FF7300"/>
<stop offset="0.764423" stop-color="#FF7300"/>
</linearGradient>
<linearGradient id="paint8_linear_221_3655" x1="397.907" y1="143.126" x2="467.42" y2="391.52" gradientUnits="userSpaceOnUse">
<stop stop-color="#FFC697"/>
<stop offset="0.317308" stop-color="#FF7300"/>
<stop offset="0.764423" stop-color="#FF7300"/>
</linearGradient>
<linearGradient id="paint9_linear_221_3655" x1="384.883" y1="138.481" x2="458.621" y2="401.972" gradientUnits="userSpaceOnUse">
<stop stop-color="#FFC697"/>
<stop offset="0.317308" stop-color="#FF7300"/>
<stop offset="0.764423" stop-color="#FF7300"/>
</linearGradient>
<linearGradient id="paint10_linear_221_3655" x1="371.829" y1="133.689" x2="449.872" y2="412.566" gradientUnits="userSpaceOnUse">
<stop stop-color="#FFC697"/>
<stop offset="0.317308" stop-color="#FF7300"/>
<stop offset="0.764423" stop-color="#FF7300"/>
</linearGradient>
<linearGradient id="paint11_linear_221_3655" x1="358.747" y1="128.774" x2="441.165" y2="423.28" gradientUnits="userSpaceOnUse">
<stop stop-color="#FFC697"/>
<stop offset="0.317308" stop-color="#FF7300"/>
<stop offset="0.764423" stop-color="#FF7300"/>
</linearGradient>
<linearGradient id="paint12_linear_221_3655" x1="345.644" y1="123.754" x2="432.492" y2="434.094" gradientUnits="userSpaceOnUse">
<stop stop-color="#FFC697"/>
<stop offset="0.317308" stop-color="#FF7300"/>
<stop offset="0.764423" stop-color="#FF7300"/>
</linearGradient>
<linearGradient id="paint13_linear_221_3655" x1="332.523" y1="118.641" x2="423.853" y2="444.995" gradientUnits="userSpaceOnUse">
<stop stop-color="#FFC697"/>
<stop offset="0.317308" stop-color="#FF7300"/>
<stop offset="0.764423" stop-color="#FF7300"/>
</linearGradient>
<linearGradient id="paint14_linear_221_3655" x1="319.383" y1="113.454" x2="415.236" y2="455.972" gradientUnits="userSpaceOnUse">
<stop stop-color="#FFC697"/>
<stop offset="0.317308" stop-color="#FF7300"/>
<stop offset="0.764423" stop-color="#FF7300"/>
</linearGradient>
<linearGradient id="paint15_linear_221_3655" x1="306.23" y1="108.199" x2="406.643" y2="467.011" gradientUnits="userSpaceOnUse">
<stop stop-color="#FFC697"/>
<stop offset="0.317308" stop-color="#FF7300"/>
<stop offset="0.764423" stop-color="#FF7300"/>
</linearGradient>
<linearGradient id="paint16_linear_221_3655" x1="293.066" y1="102.886" x2="398.071" y2="478.107" gradientUnits="userSpaceOnUse">
<stop stop-color="#FFC697"/>
<stop offset="0.317308" stop-color="#FF7300"/>
<stop offset="0.764423" stop-color="#FF7300"/>
</linearGradient>
<linearGradient id="paint17_linear_221_3655" x1="279.889" y1="97.5226" x2="389.514" y2="489.253" gradientUnits="userSpaceOnUse">
<stop stop-color="#FFC697"/>
<stop offset="0.317308" stop-color="#FF7300"/>
<stop offset="0.764423" stop-color="#FF7300"/>
</linearGradient>
<linearGradient id="paint18_linear_221_3655" x1="266.703" y1="92.1141" x2="380.974" y2="500.442" gradientUnits="userSpaceOnUse">
<stop stop-color="#FFC697"/>
<stop offset="0.317308" stop-color="#FF7300"/>
<stop offset="0.764423" stop-color="#FF7300"/>
</linearGradient>
<linearGradient id="paint19_linear_221_3655" x1="253.51" y1="86.6655" x2="372.447" y2="511.668" gradientUnits="userSpaceOnUse">
<stop stop-color="#FFC697"/>
<stop offset="0.317308" stop-color="#FF7300"/>
<stop offset="0.764423" stop-color="#FF7300"/>
</linearGradient>
<linearGradient id="paint20_linear_221_3655" x1="240.308" y1="81.1833" x2="363.931" y2="522.928" gradientUnits="userSpaceOnUse">
<stop stop-color="#FFC697"/>
<stop offset="0.317308" stop-color="#FF7300"/>
<stop offset="0.764423" stop-color="#FF7300"/>
</linearGradient>
<linearGradient id="paint21_linear_221_3655" x1="227.101" y1="75.6686" x2="355.426" y2="534.219" gradientUnits="userSpaceOnUse">
<stop stop-color="#FFC697"/>
<stop offset="0.317308" stop-color="#FF7300"/>
<stop offset="0.764423" stop-color="#FF7300"/>
</linearGradient>
</defs>
</svg>
