<svg width="537" height="491" viewBox="0 0 537 491" fill="none" xmlns="http://www.w3.org/2000/svg">
<g opacity="0.9">
<path d="M184.006 277.719C168.653 250.218 134.485 241.022 107.689 257.18C80.8928 273.337 71.6164 308.73 86.9694 336.231C102.322 363.731 136.491 372.927 163.287 356.77C190.083 340.612 199.359 305.22 184.006 277.719Z" stroke="url(#paint0_linear_221_4632)" stroke-opacity="0.8" stroke-width="2.27114" stroke-miterlimit="10"/>
<path d="M194.795 271.256C178.499 242.066 142.233 232.306 113.792 249.455C85.3507 266.604 75.5051 304.17 91.8009 333.359C108.097 362.549 144.363 372.31 172.804 355.16C201.245 338.011 211.09 300.446 194.795 271.256Z" stroke="url(#paint1_linear_221_4632)" stroke-opacity="0.8" stroke-width="2.27114" stroke-miterlimit="10"/>
<path d="M206.021 264.527C188.644 233.4 149.971 222.992 119.642 241.28C89.3132 259.568 78.8137 299.626 96.1907 330.753C113.568 361.879 152.241 372.287 182.57 353.999C212.899 335.711 223.399 295.653 206.021 264.527Z" stroke="url(#paint2_linear_221_4632)" stroke-opacity="0.8" stroke-width="2.27114" stroke-miterlimit="10"/>
<path d="M217.611 257.58C199.038 224.31 157.703 213.186 125.286 232.732C92.8697 252.279 81.6477 295.094 100.221 328.364C118.794 361.633 160.13 372.758 192.546 353.211C224.963 333.665 236.185 290.849 217.611 257.58Z" stroke="url(#paint3_linear_221_4632)" stroke-opacity="0.8" stroke-width="2.27114" stroke-miterlimit="10"/>
<path d="M229.498 250.455C209.634 214.874 165.428 202.977 130.76 223.881C96.092 244.785 84.0906 290.575 103.954 326.155C123.818 361.736 168.024 373.633 202.692 352.729C237.36 331.825 249.361 286.035 229.498 250.455Z" stroke="url(#paint4_linear_221_4632)" stroke-opacity="0.8" stroke-width="2.27114" stroke-miterlimit="10"/>
<path d="M241.626 243.183C220.396 205.155 173.147 192.439 136.094 214.781C99.0403 237.124 86.2129 286.064 107.443 324.093C128.673 362.121 175.921 374.837 212.975 352.494C250.029 330.152 262.856 281.211 241.626 243.183Z" stroke="url(#paint5_linear_221_4632)" stroke-opacity="0.8" stroke-width="2.27114" stroke-miterlimit="10"/>
<path d="M253.954 235.79C231.294 195.201 180.864 181.629 141.315 205.476C101.766 229.323 88.0752 281.559 110.735 322.149C133.395 362.738 183.825 376.311 223.374 352.463C262.923 328.616 276.614 276.38 253.954 235.79Z" stroke="url(#paint6_linear_221_4632)" stroke-opacity="0.8" stroke-width="2.27114" stroke-miterlimit="10"/>
<path d="M266.446 228.299C242.304 185.056 188.576 170.596 146.442 196.003C104.307 221.409 89.7203 277.061 113.862 320.305C138.004 363.549 191.731 378.008 233.866 352.602C276.001 327.195 290.588 271.543 266.446 228.299Z" stroke="url(#paint7_linear_221_4632)" stroke-opacity="0.8" stroke-width="2.27114" stroke-miterlimit="10"/>
<path d="M279.072 220.727C253.407 174.754 196.287 159.381 151.491 186.392C106.696 213.402 91.1888 272.568 116.855 318.542C142.521 364.516 199.641 379.889 244.436 352.878C289.231 325.867 304.738 266.701 279.072 220.727Z" stroke="url(#paint8_linear_221_4632)" stroke-opacity="0.8" stroke-width="2.27114" stroke-miterlimit="10"/>
<path d="M291.812 213.087C264.586 164.319 203.994 148.012 156.477 176.664C108.959 205.316 92.5093 268.078 119.735 316.846C146.961 365.614 207.552 381.921 255.07 353.269C302.588 324.617 319.037 261.855 291.812 213.087Z" stroke="url(#paint9_linear_221_4632)" stroke-opacity="0.8" stroke-width="2.27114" stroke-miterlimit="10"/>
<path d="M304.645 205.39C275.829 153.774 211.699 136.515 161.407 166.84C111.114 197.166 93.7041 263.592 122.52 315.208C151.335 366.824 215.465 384.083 265.758 353.758C316.05 323.432 333.46 257.006 304.645 205.39Z" stroke="url(#paint10_linear_221_4632)" stroke-opacity="0.8" stroke-width="2.27114" stroke-miterlimit="10"/>
<path d="M317.557 197.646C287.127 143.137 219.403 124.911 166.293 156.935C113.182 188.96 94.7958 259.109 125.226 313.618C155.657 368.127 223.38 386.353 276.491 354.328C329.602 322.303 347.988 252.154 317.557 197.646Z" stroke="url(#paint11_linear_221_4632)" stroke-opacity="0.8" stroke-width="2.27114" stroke-miterlimit="10"/>
<path d="M330.538 189.86C298.472 132.42 227.106 113.214 171.14 146.961C115.173 180.708 95.7981 254.629 127.865 312.068C159.932 369.508 231.297 388.714 287.263 354.967C343.23 321.22 362.605 247.299 330.538 189.86Z" stroke="url(#paint12_linear_221_4632)" stroke-opacity="0.8" stroke-width="2.27114" stroke-miterlimit="10"/>
<path d="M343.575 182.041C309.854 121.637 234.807 101.44 175.952 136.928C117.098 172.416 96.7236 250.151 130.445 310.554C164.166 370.957 239.214 391.155 298.068 355.667C356.922 320.179 377.297 242.444 343.575 182.041Z" stroke="url(#paint13_linear_221_4632)" stroke-opacity="0.8" stroke-width="2.27114" stroke-miterlimit="10"/>
<path d="M356.663 174.189C321.272 110.794 242.507 89.5965 180.738 126.842C118.969 164.088 97.5856 245.673 132.977 309.068C168.369 372.463 247.133 393.661 308.902 356.415C370.671 319.169 392.055 237.584 356.663 174.189Z" stroke="url(#paint14_linear_221_4632)" stroke-opacity="0.8" stroke-width="2.27114" stroke-miterlimit="10"/>
<path d="M369.794 166.313C332.719 99.9027 250.207 77.6964 185.499 116.714C120.791 155.732 98.3903 241.199 135.465 307.609C172.541 374.02 255.052 396.226 319.76 357.208C384.468 318.191 406.869 232.724 369.794 166.313Z" stroke="url(#paint15_linear_221_4632)" stroke-opacity="0.8" stroke-width="2.27114" stroke-miterlimit="10"/>
<path d="M382.961 158.415C344.191 88.9675 257.905 65.7458 190.238 106.548C122.57 147.35 99.1448 236.726 137.916 306.174C176.686 375.621 262.971 398.843 330.639 358.041C398.306 317.238 421.732 227.863 382.961 158.415Z" stroke="url(#paint16_linear_221_4632)" stroke-opacity="0.8" stroke-width="2.27114" stroke-miterlimit="10"/>
<path d="M396.162 150.497C355.685 77.994 265.604 53.7504 194.959 96.3478C124.315 138.945 99.8589 232.253 140.335 304.756C180.812 377.26 270.893 401.503 341.538 358.906C412.182 316.308 436.638 223.001 396.162 150.497Z" stroke="url(#paint17_linear_221_4632)" stroke-opacity="0.8" stroke-width="2.27114" stroke-miterlimit="10"/>
<path d="M409.391 142.561C367.2 66.986 273.302 41.7154 199.664 86.1177C126.026 130.52 100.534 227.781 142.725 303.356C184.916 378.931 278.815 404.202 352.452 359.8C426.09 315.397 451.583 218.136 409.391 142.561Z" stroke="url(#paint18_linear_221_4632)" stroke-opacity="0.8" stroke-width="2.27114" stroke-miterlimit="10"/>
<path d="M422.644 134.611C378.73 55.9494 280.997 29.6466 204.353 75.862C127.708 122.077 101.175 223.31 145.089 301.972C189.004 380.634 286.736 406.936 363.381 360.721C440.026 314.505 466.559 213.273 422.644 134.611Z" stroke="url(#paint19_linear_221_4632)" stroke-opacity="0.8" stroke-width="2.27114" stroke-miterlimit="10"/>
<path d="M435.921 126.647C390.277 44.8868 288.694 17.548 209.03 65.5842C129.365 113.62 101.787 218.841 147.431 300.601C193.076 382.362 294.659 409.701 374.323 361.664C453.987 313.628 481.566 208.407 435.921 126.647Z" stroke="url(#paint20_linear_221_4632)" stroke-opacity="0.8" stroke-width="2.27114" stroke-miterlimit="10"/>
<path d="M449.217 118.671C401.836 33.8007 296.389 5.42158 213.695 55.285C131 105.148 102.373 214.372 149.753 299.243C197.134 384.114 302.581 412.493 385.276 362.629C467.971 312.766 496.598 203.542 449.217 118.671Z" stroke="url(#paint21_linear_221_4632)" stroke-opacity="0.8" stroke-width="2.27114" stroke-miterlimit="10"/>
</g>
<defs>
<linearGradient id="paint0_linear_221_4632" x1="163.287" y1="356.77" x2="104.423" y2="259.149" gradientUnits="userSpaceOnUse">
<stop stop-color="#FF7300"/>
<stop offset="0.548077" stop-color="#991F17"/>
<stop offset="1" stop-color="white"/>
</linearGradient>
<linearGradient id="paint1_linear_221_4632" x1="172.804" y1="355.16" x2="110.326" y2="251.545" gradientUnits="userSpaceOnUse">
<stop stop-color="#FF7300"/>
<stop offset="0.548077" stop-color="#991F17"/>
<stop offset="1" stop-color="white"/>
</linearGradient>
<linearGradient id="paint2_linear_221_4632" x1="182.57" y1="353.999" x2="115.946" y2="243.509" gradientUnits="userSpaceOnUse">
<stop stop-color="#FF7300"/>
<stop offset="0.548077" stop-color="#991F17"/>
<stop offset="1" stop-color="white"/>
</linearGradient>
<linearGradient id="paint3_linear_221_4632" x1="192.546" y1="353.211" x2="121.336" y2="235.114" gradientUnits="userSpaceOnUse">
<stop stop-color="#FF7300"/>
<stop offset="0.548077" stop-color="#991F17"/>
<stop offset="1" stop-color="white"/>
</linearGradient>
<linearGradient id="paint4_linear_221_4632" x1="202.692" y1="352.729" x2="126.535" y2="226.429" gradientUnits="userSpaceOnUse">
<stop stop-color="#FF7300"/>
<stop offset="0.548077" stop-color="#991F17"/>
<stop offset="1" stop-color="white"/>
</linearGradient>
<linearGradient id="paint5_linear_221_4632" x1="212.975" y1="352.494" x2="131.578" y2="217.504" gradientUnits="userSpaceOnUse">
<stop stop-color="#FF7300"/>
<stop offset="0.548077" stop-color="#991F17"/>
<stop offset="1" stop-color="white"/>
</linearGradient>
<linearGradient id="paint6_linear_221_4632" x1="223.374" y1="352.463" x2="136.495" y2="208.382" gradientUnits="userSpaceOnUse">
<stop stop-color="#FF7300"/>
<stop offset="0.548077" stop-color="#991F17"/>
<stop offset="1" stop-color="white"/>
</linearGradient>
<linearGradient id="paint7_linear_221_4632" x1="233.866" y1="352.602" x2="141.307" y2="199.099" gradientUnits="userSpaceOnUse">
<stop stop-color="#FF7300"/>
<stop offset="0.548077" stop-color="#991F17"/>
<stop offset="1" stop-color="white"/>
</linearGradient>
<linearGradient id="paint8_linear_221_4632" x1="244.436" y1="352.878" x2="146.032" y2="189.683" gradientUnits="userSpaceOnUse">
<stop stop-color="#FF7300"/>
<stop offset="0.548077" stop-color="#991F17"/>
<stop offset="1" stop-color="white"/>
</linearGradient>
<linearGradient id="paint9_linear_221_4632" x1="255.07" y1="353.269" x2="150.686" y2="180.156" gradientUnits="userSpaceOnUse">
<stop stop-color="#FF7300"/>
<stop offset="0.548077" stop-color="#991F17"/>
<stop offset="1" stop-color="white"/>
</linearGradient>
<linearGradient id="paint10_linear_221_4632" x1="265.758" y1="353.758" x2="155.278" y2="170.536" gradientUnits="userSpaceOnUse">
<stop stop-color="#FF7300"/>
<stop offset="0.548077" stop-color="#991F17"/>
<stop offset="1" stop-color="white"/>
</linearGradient>
<linearGradient id="paint11_linear_221_4632" x1="276.491" y1="354.328" x2="159.82" y2="160.838" gradientUnits="userSpaceOnUse">
<stop stop-color="#FF7300"/>
<stop offset="0.548077" stop-color="#991F17"/>
<stop offset="1" stop-color="white"/>
</linearGradient>
<linearGradient id="paint12_linear_221_4632" x1="287.263" y1="354.967" x2="164.319" y2="151.074" gradientUnits="userSpaceOnUse">
<stop stop-color="#FF7300"/>
<stop offset="0.548077" stop-color="#991F17"/>
<stop offset="1" stop-color="white"/>
</linearGradient>
<linearGradient id="paint13_linear_221_4632" x1="298.068" y1="355.667" x2="168.78" y2="141.253" gradientUnits="userSpaceOnUse">
<stop stop-color="#FF7300"/>
<stop offset="0.548077" stop-color="#991F17"/>
<stop offset="1" stop-color="white"/>
</linearGradient>
<linearGradient id="paint14_linear_221_4632" x1="308.902" y1="356.415" x2="173.211" y2="131.381" gradientUnits="userSpaceOnUse">
<stop stop-color="#FF7300"/>
<stop offset="0.548077" stop-color="#991F17"/>
<stop offset="1" stop-color="white"/>
</linearGradient>
<linearGradient id="paint15_linear_221_4632" x1="319.76" y1="357.208" x2="177.614" y2="121.469" gradientUnits="userSpaceOnUse">
<stop stop-color="#FF7300"/>
<stop offset="0.548077" stop-color="#991F17"/>
<stop offset="1" stop-color="white"/>
</linearGradient>
<linearGradient id="paint16_linear_221_4632" x1="330.639" y1="358.041" x2="181.992" y2="111.521" gradientUnits="userSpaceOnUse">
<stop stop-color="#FF7300"/>
<stop offset="0.548077" stop-color="#991F17"/>
<stop offset="1" stop-color="white"/>
</linearGradient>
<linearGradient id="paint17_linear_221_4632" x1="341.538" y1="358.906" x2="186.35" y2="101.539" gradientUnits="userSpaceOnUse">
<stop stop-color="#FF7300"/>
<stop offset="0.548077" stop-color="#991F17"/>
<stop offset="1" stop-color="white"/>
</linearGradient>
<linearGradient id="paint18_linear_221_4632" x1="352.452" y1="359.8" x2="190.69" y2="91.5288" gradientUnits="userSpaceOnUse">
<stop stop-color="#FF7300"/>
<stop offset="0.548077" stop-color="#991F17"/>
<stop offset="1" stop-color="white"/>
</linearGradient>
<linearGradient id="paint19_linear_221_4632" x1="363.381" y1="360.721" x2="195.012" y2="81.4941" gradientUnits="userSpaceOnUse">
<stop stop-color="#FF7300"/>
<stop offset="0.548077" stop-color="#991F17"/>
<stop offset="1" stop-color="white"/>
</linearGradient>
<linearGradient id="paint20_linear_221_4632" x1="374.323" y1="361.664" x2="199.321" y2="71.4381" gradientUnits="userSpaceOnUse">
<stop stop-color="#FF7300"/>
<stop offset="0.548077" stop-color="#991F17"/>
<stop offset="1" stop-color="white"/>
</linearGradient>
<linearGradient id="paint21_linear_221_4632" x1="385.276" y1="362.629" x2="203.617" y2="61.3617" gradientUnits="userSpaceOnUse">
<stop stop-color="#FF7300"/>
<stop offset="0.548077" stop-color="#991F17"/>
<stop offset="1" stop-color="white"/>
</linearGradient>
</defs>
</svg>
