<svg width="392" height="406" viewBox="0 0 392 406" fill="none" xmlns="http://www.w3.org/2000/svg">
<g opacity="0.9">
<path d="M405.797 368.329C386.872 396.185 395.656 436.438 425.418 458.237C455.179 480.037 494.647 475.128 513.573 447.273C532.498 419.418 523.714 379.165 493.953 357.365C464.191 335.565 424.723 340.474 405.797 368.329Z" stroke="url(#paint0_linear_221_4526)" stroke-opacity="0.8" stroke-width="2.80022" stroke-miterlimit="10"/>
<path d="M393.826 359.7C373.739 389.265 383.062 431.99 414.65 455.128C446.239 478.266 488.13 473.055 508.218 443.489C528.306 413.924 518.982 371.199 487.394 348.061C455.806 324.923 413.914 330.134 393.826 359.7Z" stroke="url(#paint1_linear_221_4526)" stroke-opacity="0.8" stroke-width="2.80022" stroke-miterlimit="10"/>
<path d="M381.368 350.713C359.948 382.24 369.891 427.801 403.576 452.474C437.261 477.148 481.933 471.592 503.354 440.065C524.774 408.538 514.831 362.977 481.146 338.304C447.461 313.63 402.789 319.186 381.368 350.713Z" stroke="url(#paint2_linear_221_4526)" stroke-opacity="0.8" stroke-width="2.80022" stroke-miterlimit="10"/>
<path d="M368.508 341.431C345.613 375.129 356.24 423.825 392.243 450.197C428.247 476.569 475.994 470.63 498.889 436.932C521.784 403.235 511.158 354.538 475.154 328.166C439.15 301.794 391.403 307.733 368.508 341.431Z" stroke="url(#paint3_linear_221_4526)" stroke-opacity="0.8" stroke-width="2.80022" stroke-miterlimit="10"/>
<path d="M355.318 331.907C330.833 367.945 342.197 420.024 380.702 448.228C419.206 476.432 470.27 470.08 494.755 434.042C519.24 398.003 507.876 345.924 469.371 317.721C430.867 289.517 379.803 295.868 355.318 331.907Z" stroke="url(#paint4_linear_221_4526)" stroke-opacity="0.8" stroke-width="2.80022" stroke-miterlimit="10"/>
<path d="M341.858 322.187C315.688 360.706 327.835 416.368 368.989 446.512C410.143 476.657 464.72 469.869 490.89 431.351C517.061 392.833 504.914 337.17 463.76 307.026C422.606 276.881 368.029 283.669 341.858 322.187Z" stroke="url(#paint5_linear_221_4526)" stroke-opacity="0.8" stroke-width="2.80022" stroke-miterlimit="10"/>
<path d="M328.178 312.305C300.246 353.417 313.21 412.828 357.136 445.003C401.061 477.177 459.313 469.932 487.246 428.819C515.179 387.707 502.214 328.296 458.289 296.122C414.363 263.947 356.111 271.193 328.178 312.305Z" stroke="url(#paint6_linear_221_4526)" stroke-opacity="0.8" stroke-width="2.80022" stroke-miterlimit="10"/>
<path d="M314.315 302.289C284.556 346.089 298.369 409.385 345.166 443.664C391.964 477.942 454.026 470.223 483.785 426.422C513.544 382.622 499.731 319.326 452.934 285.048C406.136 250.769 344.074 258.488 314.315 302.289Z" stroke="url(#paint7_linear_221_4526)" stroke-opacity="0.8" stroke-width="2.80022" stroke-miterlimit="10"/>
<path d="M300.304 292.164C268.666 338.73 283.351 406.022 333.103 442.464C382.856 478.907 448.836 470.701 480.474 424.135C512.112 377.569 497.427 310.277 447.675 273.834C397.922 237.391 331.942 245.598 300.304 292.164Z" stroke="url(#paint8_linear_221_4526)" stroke-opacity="0.8" stroke-width="2.80022" stroke-miterlimit="10"/>
<path d="M286.167 281.946C252.606 331.342 268.183 402.724 320.959 441.381C373.735 480.039 443.725 471.334 477.286 421.938C510.847 372.542 495.27 301.16 442.494 262.502C389.717 223.845 319.727 232.55 286.167 281.946Z" stroke="url(#paint9_linear_221_4526)" stroke-opacity="0.8" stroke-width="2.80022" stroke-miterlimit="10"/>
<path d="M271.925 271.653C236.404 323.933 252.891 399.483 308.749 440.398C364.607 481.313 438.684 472.099 474.205 419.819C509.725 367.538 493.239 291.988 437.381 251.073C381.523 210.158 307.446 219.372 271.925 271.653Z" stroke="url(#paint10_linear_221_4526)" stroke-opacity="0.8" stroke-width="2.80022" stroke-miterlimit="10"/>
<path d="M257.595 261.295C220.083 316.506 237.494 396.289 296.482 439.497C355.47 482.705 433.699 472.975 471.21 417.764C508.721 362.554 491.311 282.77 432.323 239.562C373.334 196.354 295.106 206.085 257.595 261.295Z" stroke="url(#paint11_linear_221_4526)" stroke-opacity="0.8" stroke-width="2.80022" stroke-miterlimit="10"/>
<path d="M243.189 250.881C203.661 309.06 222.008 393.134 284.168 438.665C346.328 484.196 428.763 473.943 468.291 415.764C507.819 357.585 489.473 273.511 427.312 227.98C365.152 182.449 282.717 192.702 243.189 250.881Z" stroke="url(#paint12_linear_221_4526)" stroke-opacity="0.8" stroke-width="2.80022" stroke-miterlimit="10"/>
<path d="M228.721 240.422C187.154 301.603 206.447 390.014 271.814 437.895C337.182 485.775 423.87 474.993 465.438 413.812C507.005 352.631 487.712 264.219 422.345 216.339C356.977 168.459 270.289 179.241 228.721 240.422Z" stroke="url(#paint13_linear_221_4526)" stroke-opacity="0.8" stroke-width="2.80022" stroke-miterlimit="10"/>
<path d="M214.196 229.921C170.57 294.132 190.818 386.923 259.423 437.174C328.028 487.426 419.01 476.11 462.636 411.899C506.263 347.687 486.014 254.897 417.409 204.645C348.804 154.393 257.823 165.71 214.196 229.921Z" stroke="url(#paint14_linear_221_4526)" stroke-opacity="0.8" stroke-width="2.80022" stroke-miterlimit="10"/>
<path d="M199.624 219.385C153.922 286.651 175.135 383.856 247.004 436.499C318.872 489.142 414.182 477.287 459.884 410.021C505.586 342.755 484.374 245.55 412.505 192.908C340.636 140.265 245.326 152.12 199.624 219.385Z" stroke="url(#paint15_linear_221_4526)" stroke-opacity="0.8" stroke-width="2.80022" stroke-miterlimit="10"/>
<path d="M185.011 208.819C137.219 279.162 159.402 380.812 234.558 435.863C309.714 490.913 409.383 478.516 457.175 408.174C504.967 337.832 482.784 236.181 407.628 181.131C332.472 126.081 232.803 138.477 185.011 208.819Z" stroke="url(#paint16_linear_221_4526)" stroke-opacity="0.8" stroke-width="2.80022" stroke-miterlimit="10"/>
<path d="M170.362 198.227C120.467 271.664 143.626 377.787 222.088 435.259C300.55 492.732 404.605 479.79 454.499 406.352C504.394 332.915 481.236 226.792 402.773 169.32C324.311 111.848 220.257 124.79 170.362 198.227Z" stroke="url(#paint17_linear_221_4526)" stroke-opacity="0.8" stroke-width="2.80022" stroke-miterlimit="10"/>
<path d="M155.68 187.612C103.671 264.16 127.811 374.779 209.598 434.687C291.385 494.594 399.848 481.104 451.857 404.555C503.866 328.007 479.726 217.388 397.939 157.48C316.152 97.5728 207.689 111.063 155.68 187.612Z" stroke="url(#paint18_linear_221_4526)" stroke-opacity="0.8" stroke-width="2.80022" stroke-miterlimit="10"/>
<path d="M140.972 176.976C86.8389 256.65 111.964 371.787 197.091 434.141C282.218 496.494 395.11 482.453 449.242 402.778C503.375 323.104 478.25 207.967 393.123 145.613C307.997 83.2596 195.105 97.301 140.972 176.976Z" stroke="url(#paint19_linear_221_4526)" stroke-opacity="0.8" stroke-width="2.80022" stroke-miterlimit="10"/>
<path d="M126.237 166.321C69.9721 249.134 96.0875 368.806 184.568 433.616C273.048 498.427 390.387 483.832 446.653 401.019C502.918 318.206 476.802 198.533 388.322 133.723C299.842 68.9129 182.503 83.5073 126.237 166.321Z" stroke="url(#paint20_linear_221_4526)" stroke-opacity="0.8" stroke-width="2.80022" stroke-miterlimit="10"/>
<path d="M111.481 155.651C53.0756 241.615 80.1842 365.84 172.03 433.115C263.876 500.391 385.679 485.241 444.085 399.277C502.491 313.313 475.382 189.088 383.536 121.813C291.69 54.5374 169.887 69.6873 111.481 155.651Z" stroke="url(#paint21_linear_221_4526)" stroke-opacity="0.8" stroke-width="2.80022" stroke-miterlimit="10"/>
</g>
<defs>
<linearGradient id="paint0_linear_221_4526" x1="493.953" y1="357.365" x2="421.934" y2="455.686" gradientUnits="userSpaceOnUse">
<stop stop-color="#FFC697"/>
<stop offset="0.317308" stop-color="#FF7300"/>
<stop offset="0.764423" stop-color="#FF7300"/>
</linearGradient>
<linearGradient id="paint1_linear_221_4526" x1="487.394" y1="348.061" x2="410.953" y2="452.42" gradientUnits="userSpaceOnUse">
<stop stop-color="#FFC697"/>
<stop offset="0.317308" stop-color="#FF7300"/>
<stop offset="0.764423" stop-color="#FF7300"/>
</linearGradient>
<linearGradient id="paint2_linear_221_4526" x1="481.146" y1="338.304" x2="399.633" y2="449.587" gradientUnits="userSpaceOnUse">
<stop stop-color="#FFC697"/>
<stop offset="0.317308" stop-color="#FF7300"/>
<stop offset="0.764423" stop-color="#FF7300"/>
</linearGradient>
<linearGradient id="paint3_linear_221_4526" x1="475.154" y1="328.166" x2="388.029" y2="447.11" gradientUnits="userSpaceOnUse">
<stop stop-color="#FFC697"/>
<stop offset="0.317308" stop-color="#FF7300"/>
<stop offset="0.764423" stop-color="#FF7300"/>
</linearGradient>
<linearGradient id="paint4_linear_221_4526" x1="469.371" y1="317.721" x2="376.195" y2="444.927" gradientUnits="userSpaceOnUse">
<stop stop-color="#FFC697"/>
<stop offset="0.317308" stop-color="#FF7300"/>
<stop offset="0.764423" stop-color="#FF7300"/>
</linearGradient>
<linearGradient id="paint5_linear_221_4526" x1="463.76" y1="307.026" x2="364.173" y2="442.984" gradientUnits="userSpaceOnUse">
<stop stop-color="#FFC697"/>
<stop offset="0.317308" stop-color="#FF7300"/>
<stop offset="0.764423" stop-color="#FF7300"/>
</linearGradient>
<linearGradient id="paint6_linear_221_4526" x1="458.289" y1="296.122" x2="351.995" y2="441.237" gradientUnits="userSpaceOnUse">
<stop stop-color="#FFC697"/>
<stop offset="0.317308" stop-color="#FF7300"/>
<stop offset="0.764423" stop-color="#FF7300"/>
</linearGradient>
<linearGradient id="paint7_linear_221_4526" x1="452.934" y1="285.048" x2="339.689" y2="439.652" gradientUnits="userSpaceOnUse">
<stop stop-color="#FFC697"/>
<stop offset="0.317308" stop-color="#FF7300"/>
<stop offset="0.764423" stop-color="#FF7300"/>
</linearGradient>
<linearGradient id="paint8_linear_221_4526" x1="447.675" y1="273.834" x2="327.28" y2="438.199" gradientUnits="userSpaceOnUse">
<stop stop-color="#FFC697"/>
<stop offset="0.317308" stop-color="#FF7300"/>
<stop offset="0.764423" stop-color="#FF7300"/>
</linearGradient>
<linearGradient id="paint9_linear_221_4526" x1="442.494" y1="262.502" x2="314.782" y2="436.857" gradientUnits="userSpaceOnUse">
<stop stop-color="#FFC697"/>
<stop offset="0.317308" stop-color="#FF7300"/>
<stop offset="0.764423" stop-color="#FF7300"/>
</linearGradient>
<linearGradient id="paint10_linear_221_4526" x1="437.381" y1="251.073" x2="302.211" y2="435.609" gradientUnits="userSpaceOnUse">
<stop stop-color="#FFC697"/>
<stop offset="0.317308" stop-color="#FF7300"/>
<stop offset="0.764423" stop-color="#FF7300"/>
</linearGradient>
<linearGradient id="paint11_linear_221_4526" x1="432.323" y1="239.562" x2="289.578" y2="434.44" gradientUnits="userSpaceOnUse">
<stop stop-color="#FFC697"/>
<stop offset="0.317308" stop-color="#FF7300"/>
<stop offset="0.764423" stop-color="#FF7300"/>
</linearGradient>
<linearGradient id="paint12_linear_221_4526" x1="427.312" y1="227.98" x2="276.893" y2="433.336" gradientUnits="userSpaceOnUse">
<stop stop-color="#FFC697"/>
<stop offset="0.317308" stop-color="#FF7300"/>
<stop offset="0.764423" stop-color="#FF7300"/>
</linearGradient>
<linearGradient id="paint13_linear_221_4526" x1="422.345" y1="216.339" x2="264.164" y2="432.291" gradientUnits="userSpaceOnUse">
<stop stop-color="#FFC697"/>
<stop offset="0.317308" stop-color="#FF7300"/>
<stop offset="0.764423" stop-color="#FF7300"/>
</linearGradient>
<linearGradient id="paint14_linear_221_4526" x1="417.409" y1="204.645" x2="251.394" y2="431.293" gradientUnits="userSpaceOnUse">
<stop stop-color="#FFC697"/>
<stop offset="0.317308" stop-color="#FF7300"/>
<stop offset="0.764423" stop-color="#FF7300"/>
</linearGradient>
<linearGradient id="paint15_linear_221_4526" x1="412.505" y1="192.908" x2="238.592" y2="430.338" gradientUnits="userSpaceOnUse">
<stop stop-color="#FFC697"/>
<stop offset="0.317308" stop-color="#FF7300"/>
<stop offset="0.764423" stop-color="#FF7300"/>
</linearGradient>
<linearGradient id="paint16_linear_221_4526" x1="407.628" y1="181.131" x2="225.762" y2="429.42" gradientUnits="userSpaceOnUse">
<stop stop-color="#FFC697"/>
<stop offset="0.317308" stop-color="#FF7300"/>
<stop offset="0.764423" stop-color="#FF7300"/>
</linearGradient>
<linearGradient id="paint17_linear_221_4526" x1="402.773" y1="169.32" x2="212.905" y2="428.533" gradientUnits="userSpaceOnUse">
<stop stop-color="#FFC697"/>
<stop offset="0.317308" stop-color="#FF7300"/>
<stop offset="0.764423" stop-color="#FF7300"/>
</linearGradient>
<linearGradient id="paint18_linear_221_4526" x1="397.939" y1="157.48" x2="200.026" y2="427.675" gradientUnits="userSpaceOnUse">
<stop stop-color="#FFC697"/>
<stop offset="0.317308" stop-color="#FF7300"/>
<stop offset="0.764423" stop-color="#FF7300"/>
</linearGradient>
<linearGradient id="paint19_linear_221_4526" x1="393.123" y1="145.613" x2="187.128" y2="426.843" gradientUnits="userSpaceOnUse">
<stop stop-color="#FFC697"/>
<stop offset="0.317308" stop-color="#FF7300"/>
<stop offset="0.764423" stop-color="#FF7300"/>
</linearGradient>
<linearGradient id="paint20_linear_221_4526" x1="388.322" y1="133.723" x2="174.212" y2="426.031" gradientUnits="userSpaceOnUse">
<stop stop-color="#FFC697"/>
<stop offset="0.317308" stop-color="#FF7300"/>
<stop offset="0.764423" stop-color="#FF7300"/>
</linearGradient>
<linearGradient id="paint21_linear_221_4526" x1="383.536" y1="121.813" x2="161.281" y2="425.241" gradientUnits="userSpaceOnUse">
<stop stop-color="#FFC697"/>
<stop offset="0.317308" stop-color="#FF7300"/>
<stop offset="0.764423" stop-color="#FF7300"/>
</linearGradient>
</defs>
</svg>
