<svg width="302" height="283" viewBox="0 0 302 283" fill="none" xmlns="http://www.w3.org/2000/svg">
<g opacity="0.9">
<path d="M326.641 351.373C300.213 396.253 315.022 463.16 359.716 500.814C404.41 538.467 462.065 532.608 488.492 487.728C514.919 442.848 500.111 375.941 455.417 338.287C410.723 300.634 353.068 306.493 326.641 351.373Z" stroke="url(#paint0_linear_2007_2964)" stroke-opacity="0.8" stroke-width="2.80022" stroke-miterlimit="10"/>
<path d="M312.686 339.82C284.531 387.635 300.308 458.917 347.925 499.032C395.541 539.148 456.967 532.906 485.122 485.091C513.277 437.276 497.5 365.995 449.884 325.879C402.267 285.763 340.841 292.005 312.686 339.82Z" stroke="url(#paint1_linear_2007_2964)" stroke-opacity="0.8" stroke-width="2.80022" stroke-miterlimit="10"/>
<path d="M298.582 328.139C268.649 378.973 285.422 454.756 336.045 497.404C386.668 540.053 451.972 533.417 481.904 482.583C511.837 431.749 495.064 355.967 444.441 313.318C393.818 270.67 328.514 277.305 298.582 328.139Z" stroke="url(#paint2_linear_2007_2964)" stroke-opacity="0.8" stroke-width="2.80022" stroke-miterlimit="10"/>
<path d="M284.348 316.35C252.596 370.273 270.388 450.661 324.088 495.902C377.788 541.142 447.061 534.103 478.813 480.18C510.565 426.257 492.772 345.868 439.073 300.628C385.373 255.388 316.1 262.427 284.348 316.35Z" stroke="url(#paint3_linear_2007_2964)" stroke-opacity="0.8" stroke-width="2.80022" stroke-miterlimit="10"/>
<path d="M270.009 304.473C236.403 361.545 255.234 446.628 312.069 494.51C368.905 542.392 442.223 534.942 475.829 477.87C509.435 420.798 490.604 335.715 433.768 287.833C376.933 239.951 303.615 247.401 270.009 304.473Z" stroke="url(#paint4_linear_2007_2964)" stroke-opacity="0.8" stroke-width="2.80022" stroke-miterlimit="10"/>
<path d="M255.58 292.52C220.09 352.791 239.976 442.641 299.997 493.207C360.018 543.772 437.444 535.905 472.934 475.634C508.423 415.363 488.537 325.512 428.516 274.947C368.496 224.382 291.069 232.249 255.58 292.52Z" stroke="url(#paint5_linear_2007_2964)" stroke-opacity="0.8" stroke-width="2.80022" stroke-miterlimit="10"/>
<path d="M241.073 280.502C203.676 344.013 224.632 438.695 287.88 491.979C351.128 545.264 432.718 536.974 470.115 473.462C507.513 409.951 486.557 315.269 423.309 261.985C360.061 208.7 278.471 216.99 241.073 280.502Z" stroke="url(#paint6_linear_2007_2964)" stroke-opacity="0.8" stroke-width="2.80022" stroke-miterlimit="10"/>
<path d="M226.504 268.43C187.177 335.218 209.214 434.785 275.725 490.819C342.237 546.853 428.036 538.134 467.363 471.346C506.691 404.558 484.654 304.991 418.142 248.957C351.631 192.923 265.831 201.641 226.504 268.43Z" stroke="url(#paint7_linear_2007_2964)" stroke-opacity="0.8" stroke-width="2.80022" stroke-miterlimit="10"/>
<path d="M211.876 256.309C170.601 326.406 193.729 430.904 263.535 489.713C333.34 548.522 423.389 539.372 464.664 469.275C505.94 399.179 482.811 294.68 413.006 235.872C343.2 177.063 253.152 186.213 211.876 256.309Z" stroke="url(#paint8_linear_2007_2964)" stroke-opacity="0.8" stroke-width="2.80022" stroke-miterlimit="10"/>
<path d="M197.201 244.149C153.962 317.58 178.191 427.05 251.318 488.657C324.444 550.264 418.777 540.679 462.016 467.248C505.255 393.817 481.026 284.347 407.899 222.74C334.773 161.133 240.44 170.718 197.201 244.149Z" stroke="url(#paint9_linear_2007_2964)" stroke-opacity="0.8" stroke-width="2.80022" stroke-miterlimit="10"/>
<path d="M182.484 231.953C137.268 308.742 162.605 423.219 239.076 487.643C315.547 552.068 414.195 542.044 459.411 465.255C504.627 388.466 479.29 273.989 402.819 209.565C326.347 145.14 227.7 155.164 182.484 231.953Z" stroke="url(#paint10_linear_2007_2964)" stroke-opacity="0.8" stroke-width="2.80022" stroke-miterlimit="10"/>
<path d="M167.73 219.725C120.524 299.893 146.976 419.406 226.811 486.665C306.647 553.924 409.634 543.459 456.84 463.291C504.045 383.124 477.594 263.611 397.758 196.352C317.923 129.093 214.935 139.558 167.73 219.725Z" stroke="url(#paint11_linear_2007_2964)" stroke-opacity="0.8" stroke-width="2.80022" stroke-miterlimit="10"/>
<path d="M152.943 207.471C103.737 291.036 131.31 415.612 214.528 485.721C297.746 555.83 405.097 544.922 454.303 461.357C503.508 377.793 475.936 253.216 392.717 183.108C309.499 112.999 202.148 123.907 152.943 207.471Z" stroke="url(#paint12_linear_2007_2964)" stroke-opacity="0.8" stroke-width="2.80022" stroke-miterlimit="10"/>
<path d="M138.128 195.193C86.9132 282.17 115.612 411.834 202.228 484.806C288.844 557.777 400.579 546.424 451.794 459.447C503.009 372.47 474.311 242.806 387.695 169.834C301.078 96.8625 189.344 108.216 138.128 195.193Z" stroke="url(#paint13_linear_2007_2964)" stroke-opacity="0.8" stroke-width="2.80022" stroke-miterlimit="10"/>
<path d="M123.288 182.892C70.0548 273.295 99.884 408.067 189.913 483.914C279.942 559.76 396.078 547.959 449.311 457.556C502.543 367.153 472.714 232.381 382.685 156.534C292.657 80.6878 176.52 92.4885 123.288 182.892Z" stroke="url(#paint14_linear_2007_2964)" stroke-opacity="0.8" stroke-width="2.80022" stroke-miterlimit="10"/>
<path d="M108.425 170.574C53.1671 264.417 84.1307 404.316 177.584 483.048C271.038 561.779 391.592 549.529 446.85 455.687C502.108 361.844 471.144 221.945 377.691 143.213C284.237 64.4819 163.683 76.7319 108.425 170.574Z" stroke="url(#paint15_linear_2007_2964)" stroke-opacity="0.8" stroke-width="2.80022" stroke-miterlimit="10"/>
</g>
<defs>
<linearGradient id="paint0_linear_2007_2964" x1="455.417" y1="338.287" x2="335.606" y2="480.502" gradientUnits="userSpaceOnUse">
<stop stop-color="#FFC697"/>
<stop offset="0.317308" stop-color="#FF7300"/>
<stop offset="0.764423" stop-color="#FF7300"/>
</linearGradient>
<linearGradient id="paint1_linear_2007_2964" x1="449.884" y1="325.879" x2="322.238" y2="477.393" gradientUnits="userSpaceOnUse">
<stop stop-color="#FFC697"/>
<stop offset="0.317308" stop-color="#FF7300"/>
<stop offset="0.764423" stop-color="#FF7300"/>
</linearGradient>
<linearGradient id="paint2_linear_2007_2964" x1="444.441" y1="313.318" x2="308.737" y2="474.398" gradientUnits="userSpaceOnUse">
<stop stop-color="#FFC697"/>
<stop offset="0.317308" stop-color="#FF7300"/>
<stop offset="0.764423" stop-color="#FF7300"/>
</linearGradient>
<linearGradient id="paint3_linear_2007_2964" x1="439.073" y1="300.628" x2="295.121" y2="471.497" gradientUnits="userSpaceOnUse">
<stop stop-color="#FFC697"/>
<stop offset="0.317308" stop-color="#FF7300"/>
<stop offset="0.764423" stop-color="#FF7300"/>
</linearGradient>
<linearGradient id="paint4_linear_2007_2964" x1="433.768" y1="287.833" x2="281.41" y2="468.68" gradientUnits="userSpaceOnUse">
<stop stop-color="#FFC697"/>
<stop offset="0.317308" stop-color="#FF7300"/>
<stop offset="0.764423" stop-color="#FF7300"/>
</linearGradient>
<linearGradient id="paint5_linear_2007_2964" x1="428.516" y1="274.947" x2="267.619" y2="465.93" gradientUnits="userSpaceOnUse">
<stop stop-color="#FFC697"/>
<stop offset="0.317308" stop-color="#FF7300"/>
<stop offset="0.764423" stop-color="#FF7300"/>
</linearGradient>
<linearGradient id="paint6_linear_2007_2964" x1="423.309" y1="261.985" x2="253.761" y2="463.236" gradientUnits="userSpaceOnUse">
<stop stop-color="#FFC697"/>
<stop offset="0.317308" stop-color="#FF7300"/>
<stop offset="0.764423" stop-color="#FF7300"/>
</linearGradient>
<linearGradient id="paint7_linear_2007_2964" x1="418.142" y1="248.957" x2="239.846" y2="460.592" gradientUnits="userSpaceOnUse">
<stop stop-color="#FFC697"/>
<stop offset="0.317308" stop-color="#FF7300"/>
<stop offset="0.764423" stop-color="#FF7300"/>
</linearGradient>
<linearGradient id="paint8_linear_2007_2964" x1="413.006" y1="235.872" x2="225.879" y2="457.989" gradientUnits="userSpaceOnUse">
<stop stop-color="#FFC697"/>
<stop offset="0.317308" stop-color="#FF7300"/>
<stop offset="0.764423" stop-color="#FF7300"/>
</linearGradient>
<linearGradient id="paint9_linear_2007_2964" x1="407.899" y1="222.74" x2="211.87" y2="455.424" gradientUnits="userSpaceOnUse">
<stop stop-color="#FFC697"/>
<stop offset="0.317308" stop-color="#FF7300"/>
<stop offset="0.764423" stop-color="#FF7300"/>
</linearGradient>
<linearGradient id="paint10_linear_2007_2964" x1="402.819" y1="209.565" x2="197.825" y2="452.89" gradientUnits="userSpaceOnUse">
<stop stop-color="#FFC697"/>
<stop offset="0.317308" stop-color="#FF7300"/>
<stop offset="0.764423" stop-color="#FF7300"/>
</linearGradient>
<linearGradient id="paint11_linear_2007_2964" x1="397.758" y1="196.352" x2="183.745" y2="450.383" gradientUnits="userSpaceOnUse">
<stop stop-color="#FFC697"/>
<stop offset="0.317308" stop-color="#FF7300"/>
<stop offset="0.764423" stop-color="#FF7300"/>
</linearGradient>
<linearGradient id="paint12_linear_2007_2964" x1="392.717" y1="183.108" x2="169.637" y2="447.902" gradientUnits="userSpaceOnUse">
<stop stop-color="#FFC697"/>
<stop offset="0.317308" stop-color="#FF7300"/>
<stop offset="0.764423" stop-color="#FF7300"/>
</linearGradient>
<linearGradient id="paint13_linear_2007_2964" x1="387.695" y1="169.834" x2="155.504" y2="445.442" gradientUnits="userSpaceOnUse">
<stop stop-color="#FFC697"/>
<stop offset="0.317308" stop-color="#FF7300"/>
<stop offset="0.764423" stop-color="#FF7300"/>
</linearGradient>
<linearGradient id="paint14_linear_2007_2964" x1="382.685" y1="156.534" x2="141.348" y2="442.999" gradientUnits="userSpaceOnUse">
<stop stop-color="#FFC697"/>
<stop offset="0.317308" stop-color="#FF7300"/>
<stop offset="0.764423" stop-color="#FF7300"/>
</linearGradient>
<linearGradient id="paint15_linear_2007_2964" x1="377.691" y1="143.213" x2="127.172" y2="440.577" gradientUnits="userSpaceOnUse">
<stop stop-color="#FFC697"/>
<stop offset="0.317308" stop-color="#FF7300"/>
<stop offset="0.764423" stop-color="#FF7300"/>
</linearGradient>
</defs>
</svg>
