<svg width="819" height="830" viewBox="0 0 819 830" fill="none" xmlns="http://www.w3.org/2000/svg">
<g opacity="0.9">
<path d="M288.255 421.675C298.777 389.684 279.246 353.407 244.631 340.648C210.017 327.888 173.427 343.478 162.905 375.468C152.384 407.458 171.915 443.735 206.53 456.495C241.144 469.254 277.734 453.665 288.255 421.675Z" stroke="url(#paint0_linear_4271_514)" stroke-opacity="0.8" stroke-width="2.80022" stroke-miterlimit="10"/>
<path d="M302.14 426.673C313.308 392.718 292.578 354.214 255.838 340.671C219.099 327.128 180.263 343.675 169.095 377.63C157.928 411.585 178.658 450.089 215.397 463.632C252.136 477.175 290.973 460.627 302.14 426.673Z" stroke="url(#paint1_linear_4271_514)" stroke-opacity="0.8" stroke-width="2.80022" stroke-miterlimit="10"/>
<path d="M316.592 431.881C328.5 395.673 306.394 354.614 267.216 340.172C228.037 325.73 186.623 343.375 174.715 379.583C162.806 415.79 184.913 456.85 224.091 471.292C263.269 485.734 304.683 468.089 316.592 431.881Z" stroke="url(#paint2_linear_4271_514)" stroke-opacity="0.8" stroke-width="2.80022" stroke-miterlimit="10"/>
<path d="M331.511 437.261C344.239 398.561 320.612 354.675 278.737 339.239C236.862 323.803 192.598 342.663 179.869 381.363C167.141 420.064 190.768 463.95 232.643 479.386C274.518 494.821 318.782 475.962 331.511 437.261Z" stroke="url(#paint3_linear_4271_514)" stroke-opacity="0.8" stroke-width="2.80022" stroke-miterlimit="10"/>
<path d="M346.814 442.785C360.427 401.397 335.158 354.462 290.375 337.954C245.591 321.447 198.252 341.616 184.64 383.005C171.027 424.393 196.296 471.328 241.079 487.836C285.862 504.344 333.201 484.174 346.814 442.785Z" stroke="url(#paint4_linear_4271_514)" stroke-opacity="0.8" stroke-width="2.80022" stroke-miterlimit="10"/>
<path d="M362.43 448.422C376.979 404.185 349.971 354.022 302.106 336.378C254.242 318.734 203.645 340.291 189.096 384.527C174.547 428.763 201.555 478.927 249.419 496.571C297.284 514.215 347.881 492.658 362.43 448.422Z" stroke="url(#paint5_linear_4271_514)" stroke-opacity="0.8" stroke-width="2.80022" stroke-miterlimit="10"/>
<path d="M378.303 454.153C393.832 406.937 365.005 353.395 313.917 334.563C262.829 315.731 208.826 338.741 193.297 385.956C177.768 433.172 206.594 486.714 257.682 505.546C308.77 524.378 362.774 501.368 378.303 454.153Z" stroke="url(#paint6_linear_4271_514)" stroke-opacity="0.8" stroke-width="2.80022" stroke-miterlimit="10"/>
<path d="M394.388 459.964C410.933 409.661 380.221 352.618 325.793 332.554C271.364 312.491 213.829 337.004 197.284 387.307C180.74 437.61 211.451 494.653 265.88 514.717C320.309 534.78 377.844 510.267 394.388 459.964Z" stroke="url(#paint7_linear_4271_514)" stroke-opacity="0.8" stroke-width="2.80022" stroke-miterlimit="10"/>
<path d="M410.646 465.839C428.235 412.36 395.585 351.715 337.719 330.385C279.854 309.054 218.686 335.116 201.097 388.595C183.508 442.074 216.159 502.718 274.024 524.049C331.889 545.379 393.057 519.317 410.646 465.839Z" stroke="url(#paint8_linear_4271_514)" stroke-opacity="0.8" stroke-width="2.80022" stroke-miterlimit="10"/>
<path d="M427.051 471.767C445.709 415.038 411.074 350.708 349.692 328.081C288.31 305.454 223.425 333.1 204.767 389.829C186.109 446.558 220.743 510.888 282.126 533.515C343.508 556.142 408.393 528.496 427.051 471.767Z" stroke="url(#paint9_linear_4271_514)" stroke-opacity="0.8" stroke-width="2.80022" stroke-miterlimit="10"/>
<path d="M443.577 477.74C463.325 417.698 426.667 349.611 361.701 325.663C296.734 301.715 228.06 330.975 208.312 391.017C188.565 451.059 225.222 519.146 290.189 543.094C355.155 567.042 423.829 537.782 443.577 477.74Z" stroke="url(#paint10_linear_4271_514)" stroke-opacity="0.8" stroke-width="2.80022" stroke-miterlimit="10"/>
<path d="M460.206 483.75C481.06 420.343 442.349 348.44 373.741 323.15C305.134 297.86 232.611 328.76 211.757 392.167C190.903 455.573 229.614 527.476 298.222 552.766C366.829 578.056 439.352 547.156 460.206 483.75Z" stroke="url(#paint11_linear_4271_514)" stroke-opacity="0.8" stroke-width="2.80022" stroke-miterlimit="10"/>
<path d="M476.922 489.794C498.898 422.978 458.105 347.209 385.808 320.559C313.512 293.909 237.089 326.47 215.114 393.286C193.138 460.102 233.932 535.871 306.228 562.52C378.524 589.17 454.947 556.609 476.922 489.794Z" stroke="url(#paint12_linear_4271_514)" stroke-opacity="0.8" stroke-width="2.80022" stroke-miterlimit="10"/>
<path d="M493.711 495.864C516.821 425.6 473.923 345.922 397.896 317.897C321.87 289.872 241.504 324.113 218.395 394.377C195.285 464.64 238.183 544.318 314.21 572.343C390.236 600.368 470.602 566.127 493.711 495.864Z" stroke="url(#paint13_linear_4271_514)" stroke-opacity="0.8" stroke-width="2.80022" stroke-miterlimit="10"/>
<path d="M510.567 501.958C534.821 428.214 489.798 344.589 410.006 315.176C330.215 285.764 245.869 321.701 221.615 395.444C197.361 469.188 242.383 552.813 322.175 582.225C401.967 611.638 486.313 575.701 510.567 501.958Z" stroke="url(#paint14_linear_4271_514)" stroke-opacity="0.8" stroke-width="2.80022" stroke-miterlimit="10"/>
<path d="M527.477 508.073C552.885 430.821 505.72 343.218 422.132 312.406C338.544 281.593 250.185 319.24 224.777 396.492C199.37 473.743 246.534 561.346 330.122 592.159C413.71 622.971 502.069 585.324 527.477 508.073Z" stroke="url(#paint15_linear_4271_514)" stroke-opacity="0.8" stroke-width="2.80022" stroke-miterlimit="10"/>
<path d="M544.435 514.205C571.005 433.42 521.683 341.811 434.272 309.589C346.86 277.368 254.46 316.736 227.891 397.521C201.321 478.305 250.643 569.915 338.054 602.136C425.465 634.358 517.865 594.989 544.435 514.205Z" stroke="url(#paint16_linear_4271_514)" stroke-opacity="0.8" stroke-width="2.80022" stroke-miterlimit="10"/>
<path d="M561.435 520.354C589.174 436.015 537.682 340.375 446.425 306.736C355.168 273.097 258.703 314.197 230.965 398.536C203.226 482.875 254.717 578.515 345.974 612.154C437.231 645.793 533.696 604.693 561.435 520.354Z" stroke="url(#paint17_linear_4271_514)" stroke-opacity="0.8" stroke-width="2.80022" stroke-miterlimit="10"/>
<path d="M578.473 526.514C607.387 438.602 553.713 338.909 458.59 303.845C363.466 268.781 262.914 311.622 234 399.535C205.086 487.447 258.759 587.139 353.883 622.204C449.006 657.268 549.559 614.426 578.473 526.514Z" stroke="url(#paint18_linear_4271_514)" stroke-opacity="0.8" stroke-width="2.80022" stroke-miterlimit="10"/>
<path d="M595.542 532.689C625.637 441.186 569.772 337.423 470.764 300.926C371.756 264.43 267.098 309.022 237.003 400.524C206.908 492.027 262.773 595.79 361.781 632.286C460.789 668.783 565.447 624.191 595.542 532.689Z" stroke="url(#paint19_linear_4271_514)" stroke-opacity="0.8" stroke-width="2.80022" stroke-miterlimit="10"/>
<path d="M612.641 538.873C643.921 443.766 585.855 335.915 482.947 297.981C380.039 260.047 271.257 306.394 239.977 401.501C208.696 496.609 266.762 604.46 369.671 642.394C472.579 680.328 581.36 633.98 612.641 538.873Z" stroke="url(#paint20_linear_4271_514)" stroke-opacity="0.8" stroke-width="2.80022" stroke-miterlimit="10"/>
<path d="M629.765 545.065C662.235 446.34 601.96 334.386 495.138 295.009C388.315 255.632 275.395 303.743 242.925 402.469C210.454 501.194 270.729 613.148 377.552 652.525C484.375 691.902 597.294 643.791 629.765 545.065Z" stroke="url(#paint21_linear_4271_514)" stroke-opacity="0.8" stroke-width="2.80022" stroke-miterlimit="10"/>
</g>
<g filter="url(#filter0_f_4271_514)">
<ellipse cx="295.138" cy="314.569" rx="314" ry="351.947" transform="rotate(-129.043 295.138 314.569)" fill="#12100F"/>
</g>
<defs>
<filter id="filter0_f_4271_514" x="-227.888" y="-200.614" width="1046.05" height="1030.37" filterUnits="userSpaceOnUse" color-interpolation-filters="sRGB">
<feFlood flood-opacity="0" result="BackgroundImageFix"/>
<feBlend mode="normal" in="SourceGraphic" in2="BackgroundImageFix" result="shape"/>
<feGaussianBlur stdDeviation="92.8" result="effect1_foregroundBlur_4271_514"/>
</filter>
<linearGradient id="paint0_linear_4271_514" x1="206.53" y1="456.495" x2="248.683" y2="342.141" gradientUnits="userSpaceOnUse">
<stop stop-color="#FFC697"/>
<stop offset="0.317308" stop-color="#FF7300"/>
<stop offset="0.764423" stop-color="#FF7300"/>
</linearGradient>
<linearGradient id="paint1_linear_4271_514" x1="215.397" y1="463.632" x2="260.138" y2="342.256" gradientUnits="userSpaceOnUse">
<stop stop-color="#FFC697"/>
<stop offset="0.317308" stop-color="#FF7300"/>
<stop offset="0.764423" stop-color="#FF7300"/>
</linearGradient>
<linearGradient id="paint2_linear_4271_514" x1="224.091" y1="471.292" x2="271.801" y2="341.862" gradientUnits="userSpaceOnUse">
<stop stop-color="#FFC697"/>
<stop offset="0.317308" stop-color="#FF7300"/>
<stop offset="0.764423" stop-color="#FF7300"/>
</linearGradient>
<linearGradient id="paint3_linear_4271_514" x1="232.643" y1="479.386" x2="283.638" y2="341.046" gradientUnits="userSpaceOnUse">
<stop stop-color="#FFC697"/>
<stop offset="0.317308" stop-color="#FF7300"/>
<stop offset="0.764423" stop-color="#FF7300"/>
</linearGradient>
<linearGradient id="paint4_linear_4271_514" x1="241.079" y1="487.836" x2="295.616" y2="339.887" gradientUnits="userSpaceOnUse">
<stop stop-color="#FFC697"/>
<stop offset="0.317308" stop-color="#FF7300"/>
<stop offset="0.764423" stop-color="#FF7300"/>
</linearGradient>
<linearGradient id="paint5_linear_4271_514" x1="249.419" y1="496.571" x2="307.709" y2="338.443" gradientUnits="userSpaceOnUse">
<stop stop-color="#FFC697"/>
<stop offset="0.317308" stop-color="#FF7300"/>
<stop offset="0.764423" stop-color="#FF7300"/>
</linearGradient>
<linearGradient id="paint6_linear_4271_514" x1="257.682" y1="505.546" x2="319.897" y2="336.767" gradientUnits="userSpaceOnUse">
<stop stop-color="#FFC697"/>
<stop offset="0.317308" stop-color="#FF7300"/>
<stop offset="0.764423" stop-color="#FF7300"/>
</linearGradient>
<linearGradient id="paint7_linear_4271_514" x1="265.88" y1="514.717" x2="332.163" y2="334.902" gradientUnits="userSpaceOnUse">
<stop stop-color="#FFC697"/>
<stop offset="0.317308" stop-color="#FF7300"/>
<stop offset="0.764423" stop-color="#FF7300"/>
</linearGradient>
<linearGradient id="paint8_linear_4271_514" x1="274.024" y1="524.049" x2="344.492" y2="332.881" gradientUnits="userSpaceOnUse">
<stop stop-color="#FFC697"/>
<stop offset="0.317308" stop-color="#FF7300"/>
<stop offset="0.764423" stop-color="#FF7300"/>
</linearGradient>
<linearGradient id="paint9_linear_4271_514" x1="282.126" y1="533.515" x2="356.876" y2="330.729" gradientUnits="userSpaceOnUse">
<stop stop-color="#FFC697"/>
<stop offset="0.317308" stop-color="#FF7300"/>
<stop offset="0.764423" stop-color="#FF7300"/>
</linearGradient>
<linearGradient id="paint10_linear_4271_514" x1="290.189" y1="543.094" x2="369.305" y2="328.466" gradientUnits="userSpaceOnUse">
<stop stop-color="#FFC697"/>
<stop offset="0.317308" stop-color="#FF7300"/>
<stop offset="0.764423" stop-color="#FF7300"/>
</linearGradient>
<linearGradient id="paint11_linear_4271_514" x1="298.221" y1="552.766" x2="381.771" y2="326.11" gradientUnits="userSpaceOnUse">
<stop stop-color="#FFC697"/>
<stop offset="0.317308" stop-color="#FF7300"/>
<stop offset="0.764423" stop-color="#FF7300"/>
</linearGradient>
<linearGradient id="paint12_linear_4271_514" x1="306.228" y1="562.52" x2="394.27" y2="323.678" gradientUnits="userSpaceOnUse">
<stop stop-color="#FFC697"/>
<stop offset="0.317308" stop-color="#FF7300"/>
<stop offset="0.764423" stop-color="#FF7300"/>
</linearGradient>
<linearGradient id="paint13_linear_4271_514" x1="314.21" y1="572.343" x2="406.794" y2="321.177" gradientUnits="userSpaceOnUse">
<stop stop-color="#FFC697"/>
<stop offset="0.317308" stop-color="#FF7300"/>
<stop offset="0.764423" stop-color="#FF7300"/>
</linearGradient>
<linearGradient id="paint14_linear_4271_514" x1="322.175" y1="582.225" x2="419.345" y2="318.619" gradientUnits="userSpaceOnUse">
<stop stop-color="#FFC697"/>
<stop offset="0.317308" stop-color="#FF7300"/>
<stop offset="0.764423" stop-color="#FF7300"/>
</linearGradient>
<linearGradient id="paint15_linear_4271_514" x1="330.122" y1="592.159" x2="431.915" y2="316.012" gradientUnits="userSpaceOnUse">
<stop stop-color="#FFC697"/>
<stop offset="0.317308" stop-color="#FF7300"/>
<stop offset="0.764423" stop-color="#FF7300"/>
</linearGradient>
<linearGradient id="paint16_linear_4271_514" x1="338.054" y1="602.136" x2="444.502" y2="313.36" gradientUnits="userSpaceOnUse">
<stop stop-color="#FFC697"/>
<stop offset="0.317308" stop-color="#FF7300"/>
<stop offset="0.764423" stop-color="#FF7300"/>
</linearGradient>
<linearGradient id="paint17_linear_4271_514" x1="345.974" y1="612.154" x2="457.106" y2="310.673" gradientUnits="userSpaceOnUse">
<stop stop-color="#FFC697"/>
<stop offset="0.317308" stop-color="#FF7300"/>
<stop offset="0.764423" stop-color="#FF7300"/>
</linearGradient>
<linearGradient id="paint18_linear_4271_514" x1="353.883" y1="622.204" x2="469.723" y2="307.949" gradientUnits="userSpaceOnUse">
<stop stop-color="#FFC697"/>
<stop offset="0.317308" stop-color="#FF7300"/>
<stop offset="0.764423" stop-color="#FF7300"/>
</linearGradient>
<linearGradient id="paint19_linear_4271_514" x1="361.781" y1="632.286" x2="482.352" y2="305.198" gradientUnits="userSpaceOnUse">
<stop stop-color="#FFC697"/>
<stop offset="0.317308" stop-color="#FF7300"/>
<stop offset="0.764423" stop-color="#FF7300"/>
</linearGradient>
<linearGradient id="paint20_linear_4271_514" x1="369.671" y1="642.394" x2="494.991" y2="302.42" gradientUnits="userSpaceOnUse">
<stop stop-color="#FFC697"/>
<stop offset="0.317308" stop-color="#FF7300"/>
<stop offset="0.764423" stop-color="#FF7300"/>
</linearGradient>
<linearGradient id="paint21_linear_4271_514" x1="377.552" y1="652.525" x2="507.64" y2="299.618" gradientUnits="userSpaceOnUse">
<stop stop-color="#FFC697"/>
<stop offset="0.317308" stop-color="#FF7300"/>
<stop offset="0.764423" stop-color="#FF7300"/>
</linearGradient>
</defs>
</svg>
