<svg xmlns="http://www.w3.org/2000/svg" fill="none" viewBox="0 0 1047 1031"><g stroke-miterlimit="10" stroke-opacity=".8" stroke-width="2.8" opacity=".9"><path stroke="url(#a)" d="M577.816 636.83c9.673-35.491-11.233-76.959-46.696-92.62-35.463-15.662-72.052.413-81.726 35.904-9.673 35.491 11.233 76.958 46.696 92.62 35.462 15.662 72.052-.413 81.726-35.904Z"/><path stroke="url(#b)" d="M591.795 642.663c10.267-37.67-11.923-81.684-49.562-98.307-37.64-16.624-76.476.439-86.743 38.109-10.268 37.671 11.922 81.685 49.562 98.308 37.639 16.623 76.475-.439 86.743-38.11Z"/><path stroke="url(#c)" d="M606.354 648.754c10.949-40.17-12.714-87.105-52.852-104.832-40.138-17.726-81.552.467-92.501 40.638-10.948 40.17 12.714 87.104 52.853 104.831 40.138 17.727 81.552-.467 92.5-40.637Z"/><path stroke="url(#d)" d="M621.393 655.056c11.703-42.935-13.589-93.101-56.49-112.048-42.9-18.947-87.165.5-98.867 43.436-11.703 42.935 13.589 93.101 56.489 112.048 42.901 18.947 87.166-.5 98.868-43.436Z"/><path stroke="url(#e)" d="M636.825 661.533c12.516-45.918-14.532-99.568-60.413-119.83-45.88-20.263-93.219.534-105.735 46.452-12.515 45.918 14.533 99.568 60.414 119.831 45.88 20.263 93.219-.535 105.734-46.453Z"/><path stroke="url(#f)" d="M652.578 668.149c13.376-49.077-15.533-106.418-64.571-128.076-49.037-21.657-99.634.572-113.01 49.649-13.377 49.077 15.533 106.419 64.57 128.076 49.038 21.657 99.635-.571 113.011-49.649Z"/><path stroke="url(#g)" d="M668.594 674.883c14.277-52.382-16.579-113.585-68.919-136.701-52.34-23.116-106.343.61-120.621 52.992-14.277 52.383 16.579 113.586 68.919 136.702 52.34 23.116 106.344-.61 120.621-52.993Z"/><path stroke="url(#h)" d="M684.828 681.713c15.21-55.808-17.663-121.013-73.426-145.64-55.762-24.628-113.297.649-128.508 56.457-15.211 55.808 17.663 121.013 73.425 145.641 55.763 24.627 113.298-.65 128.509-56.458Z"/><path stroke="url(#i)" d="M701.238 688.622c16.171-59.331-18.778-128.653-78.061-154.836-59.284-26.182-120.451.691-136.622 60.022-16.172 59.332 18.778 128.654 78.061 154.836 59.283 26.182 120.451-.691 136.622-60.022Z"/><path stroke="url(#j)" d="M717.799 695.597c17.154-62.938-19.919-136.473-82.806-164.246-62.886-27.774-127.771.732-144.925 63.67-17.154 62.937 19.919 136.472 82.806 164.246 62.886 27.773 127.771-.733 144.925-63.67Z"/><path stroke="url(#k)" d="M734.484 702.627c18.155-66.613-21.083-144.443-87.641-173.838-66.559-29.395-135.233.776-153.389 67.388-18.155 66.613 21.083 144.442 87.641 173.838 66.559 29.395 135.233-.776 153.389-67.388Z"/><path stroke="url(#l)" d="M751.274 709.702c19.173-70.346-22.264-152.537-92.552-183.58-70.288-31.042-142.811.82-161.984 71.165-19.173 70.346 22.264 152.537 92.552 183.579 70.288 31.043 142.811-.819 161.984-71.164Z"/><path stroke="url(#m)" d="M768.155 716.818c20.204-74.128-23.462-160.738-97.53-193.45-74.068-32.711-150.49.863-170.694 74.991-20.204 74.128 23.461 160.738 97.529 193.45 74.068 32.711 150.491-.863 170.695-74.991Z"/><path stroke="url(#n)" d="M785.109 723.967c21.246-77.953-24.672-169.033-102.561-203.432-77.89-34.399-158.255.907-179.502 78.86-21.246 77.953 24.672 169.032 102.561 203.432 77.89 34.399 158.255-.908 179.502-78.86Z"/><path stroke="url(#o)" d="M802.132 731.144c22.298-81.814-25.894-177.404-107.641-213.507-81.747-36.103-166.093.952-188.392 82.766C483.8 682.217 531.993 777.807 613.74 813.91c81.747 36.104 166.093-.952 188.392-82.766Z"/><path stroke="url(#p)" d="M819.21 738.349c23.36-85.706-27.125-185.844-112.762-223.665-85.636-37.821-173.995.998-197.355 86.703-23.359 85.706 27.126 185.844 112.763 223.665 85.636 37.821 173.995-.998 197.354-86.703Z"/><path stroke="url(#q)" d="M836.338 745.573c24.427-89.625-28.367-194.343-117.92-233.893-89.553-39.551-181.953 1.043-206.381 90.668-24.428 89.625 28.367 194.343 117.92 233.894 89.553 39.55 181.953-1.043 206.381-90.669Z"/><path stroke="url(#r)" d="M853.508 752.817c25.503-93.568-29.614-202.893-123.107-244.184s-189.958 1.089-215.461 94.658c-25.502 93.569 29.615 202.894 123.108 244.184 93.493 41.291 189.958-1.089 215.46-94.658Z"/><path stroke="url(#s)" d="M870.718 760.078c26.583-97.533-30.87-211.49-128.324-254.53-97.454-43.04-198.007 1.135-224.59 98.668s30.869 211.49 128.324 254.53c97.454 43.041 198.006-1.135 224.59-98.668Z"/><path stroke="url(#t)" d="M887.959 767.354c27.669-101.516-32.13-220.127-133.563-264.925-101.434-44.797-206.093 1.182-233.762 102.698-27.668 101.516 32.13 220.127 133.564 264.925 101.434 44.797 206.092-1.182 233.761-102.698Z"/><path stroke="url(#u)" d="M905.231 774.643c28.759-105.515-33.396-228.799-138.825-275.361-105.43-46.563-214.212 1.228-242.971 106.743-28.758 105.515 33.396 228.799 138.826 275.361 105.43 46.562 214.211-1.228 242.97-106.743Z"/><path stroke="url(#v)" d="M922.529 781.942c29.853-109.529-34.666-237.503-144.106-285.836-109.441-48.334-222.36 1.275-252.213 110.804-29.853 109.529 34.665 237.503 144.106 285.836 109.44 48.334 222.36-1.275 252.213-110.804Z"/></g><g filter="url(#w)"><ellipse cx="523.138" cy="515.568" fill="#12100F" rx="314" ry="351.947" transform="rotate(-129.043 523.138 515.568)"/></g><defs><linearGradient id="a" x1="496.09" x2="549.305" y1="672.734" y2="552.241" gradientUnits="userSpaceOnUse"><stop stop-color="#FFC697"/><stop offset=".317" stop-color="#FF7300"/><stop offset=".764" stop-color="#FF7300"/></linearGradient><linearGradient id="b" x1="505.052" x2="561.535" y1="680.773" y2="552.88" gradientUnits="userSpaceOnUse"><stop stop-color="#FFC697"/><stop offset=".317" stop-color="#FF7300"/><stop offset=".764" stop-color="#FF7300"/></linearGradient><linearGradient id="c" x1="513.854" x2="574.084" y1="689.391" y2="553.012" gradientUnits="userSpaceOnUse"><stop stop-color="#FFC697"/><stop offset=".317" stop-color="#FF7300"/><stop offset=".764" stop-color="#FF7300"/></linearGradient><linearGradient id="d" x1="522.525" x2="586.903" y1="698.492" y2="552.724" gradientUnits="userSpaceOnUse"><stop stop-color="#FFC697"/><stop offset=".317" stop-color="#FF7300"/><stop offset=".764" stop-color="#FF7300"/></linearGradient><linearGradient id="e" x1="531.091" x2="599.94" y1="707.986" y2="552.093" gradientUnits="userSpaceOnUse"><stop stop-color="#FFC697"/><stop offset=".317" stop-color="#FF7300"/><stop offset=".764" stop-color="#FF7300"/></linearGradient><linearGradient id="f" x1="539.567" x2="613.154" y1="717.798" y2="551.179" gradientUnits="userSpaceOnUse"><stop stop-color="#FFC697"/><stop offset=".317" stop-color="#FF7300"/><stop offset=".764" stop-color="#FF7300"/></linearGradient><linearGradient id="g" x1="547.973" x2="626.515" y1="727.876" y2="550.036" gradientUnits="userSpaceOnUse"><stop stop-color="#FFC697"/><stop offset=".317" stop-color="#FF7300"/><stop offset=".764" stop-color="#FF7300"/></linearGradient><linearGradient id="h" x1="556.319" x2="639.997" y1="738.171" y2="548.701" gradientUnits="userSpaceOnUse"><stop stop-color="#FFC697"/><stop offset=".317" stop-color="#FF7300"/><stop offset=".764" stop-color="#FF7300"/></linearGradient><linearGradient id="i" x1="564.616" x2="653.577" y1="748.644" y2="547.213" gradientUnits="userSpaceOnUse"><stop stop-color="#FFC697"/><stop offset=".317" stop-color="#FF7300"/><stop offset=".764" stop-color="#FF7300"/></linearGradient><linearGradient id="j" x1="572.874" x2="667.241" y1="759.267" y2="545.593" gradientUnits="userSpaceOnUse"><stop stop-color="#FFC697"/><stop offset=".317" stop-color="#FF7300"/><stop offset=".764" stop-color="#FF7300"/></linearGradient><linearGradient id="k" x1="581.095" x2="680.974" y1="770.015" y2="543.863" gradientUnits="userSpaceOnUse"><stop stop-color="#FFC697"/><stop offset=".317" stop-color="#FF7300"/><stop offset=".764" stop-color="#FF7300"/></linearGradient><linearGradient id="l" x1="589.29" x2="694.766" y1="780.866" y2="542.041" gradientUnits="userSpaceOnUse"><stop stop-color="#FFC697"/><stop offset=".317" stop-color="#FF7300"/><stop offset=".764" stop-color="#FF7300"/></linearGradient><linearGradient id="m" x1="597.46" x2="708.607" y1="791.809" y2="540.143" gradientUnits="userSpaceOnUse"><stop stop-color="#FFC697"/><stop offset=".317" stop-color="#FF7300"/><stop offset=".764" stop-color="#FF7300"/></linearGradient><linearGradient id="n" x1="605.607" x2="722.489" y1="802.827" y2="538.175" gradientUnits="userSpaceOnUse"><stop stop-color="#FFC697"/><stop offset=".317" stop-color="#FF7300"/><stop offset=".764" stop-color="#FF7300"/></linearGradient><linearGradient id="o" x1="613.74" x2="736.411" y1="813.91" y2="536.15" gradientUnits="userSpaceOnUse"><stop stop-color="#FFC697"/><stop offset=".317" stop-color="#FF7300"/><stop offset=".764" stop-color="#FF7300"/></linearGradient><linearGradient id="p" x1="621.856" x2="750.362" y1="825.052" y2="534.078" gradientUnits="userSpaceOnUse"><stop stop-color="#FFC697"/><stop offset=".317" stop-color="#FF7300"/><stop offset=".764" stop-color="#FF7300"/></linearGradient><linearGradient id="q" x1="629.957" x2="764.34" y1="836.242" y2="531.961" gradientUnits="userSpaceOnUse"><stop stop-color="#FFC697"/><stop offset=".317" stop-color="#FF7300"/><stop offset=".764" stop-color="#FF7300"/></linearGradient><linearGradient id="r" x1="638.048" x2="778.344" y1="847.475" y2="529.807" gradientUnits="userSpaceOnUse"><stop stop-color="#FFC697"/><stop offset=".317" stop-color="#FF7300"/><stop offset=".764" stop-color="#FF7300"/></linearGradient><linearGradient id="s" x1="646.128" x2="792.368" y1="858.746" y2="527.619" gradientUnits="userSpaceOnUse"><stop stop-color="#FFC697"/><stop offset=".317" stop-color="#FF7300"/><stop offset=".764" stop-color="#FF7300"/></linearGradient><linearGradient id="t" x1="654.198" x2="806.411" y1="870.052" y2="525.402" gradientUnits="userSpaceOnUse"><stop stop-color="#FFC697"/><stop offset=".317" stop-color="#FF7300"/><stop offset=".764" stop-color="#FF7300"/></linearGradient><linearGradient id="u" x1="662.261" x2="820.47" y1="881.386" y2="523.159" gradientUnits="userSpaceOnUse"><stop stop-color="#FFC697"/><stop offset=".317" stop-color="#FF7300"/><stop offset=".764" stop-color="#FF7300"/></linearGradient><linearGradient id="v" x1="670.316" x2="834.544" y1="892.746" y2="520.891" gradientUnits="userSpaceOnUse"><stop stop-color="#FFC697"/><stop offset=".317" stop-color="#FF7300"/><stop offset=".764" stop-color="#FF7300"/></linearGradient><filter id="w" width="1046.05" height="1030.37" x=".112" y=".385" color-interpolation-filters="sRGB" filterUnits="userSpaceOnUse"><feFlood flood-opacity="0" result="BackgroundImageFix"/><feBlend in="SourceGraphic" in2="BackgroundImageFix" result="shape"/><feGaussianBlur result="effect1_foregroundBlur_6019_454" stdDeviation="92.8"/></filter></defs></svg>