<svg width="401" height="580" viewBox="0 0 401 580" fill="none" xmlns="http://www.w3.org/2000/svg">
<g opacity="0.9">
<path d="M422.302 356.41C403.188 387.965 413.607 428.081 445.573 446.012C477.539 463.942 518.948 452.897 538.062 421.342C557.176 389.787 546.757 349.672 514.791 331.741C482.825 313.811 441.416 324.855 422.302 356.41Z" stroke="url(#paint0_linear_4271_515)" stroke-opacity="0.8" stroke-width="2.66025" stroke-miterlimit="10"/>
<path d="M409.475 349.168C389.187 382.661 400.245 425.24 434.174 444.271C468.102 463.302 512.053 451.579 532.341 418.086C552.629 384.594 541.571 342.015 507.642 322.983C473.714 303.952 429.763 315.676 409.475 349.168Z" stroke="url(#paint1_linear_4271_515)" stroke-opacity="0.8" stroke-width="2.66025" stroke-miterlimit="10"/>
<path d="M396.124 341.632C374.49 377.347 386.282 422.752 422.463 443.046C458.644 463.341 505.512 450.84 527.146 415.125C548.779 379.41 536.987 334.005 500.806 313.711C464.626 293.416 417.758 305.917 396.124 341.632Z" stroke="url(#paint2_linear_4271_515)" stroke-opacity="0.8" stroke-width="2.66025" stroke-miterlimit="10"/>
<path d="M382.34 333.852C359.217 372.026 371.821 420.556 410.492 442.247C449.163 463.939 499.257 450.577 522.38 412.403C545.503 374.229 532.9 325.699 494.229 304.008C455.558 282.316 405.464 295.678 382.34 333.852Z" stroke="url(#paint3_linear_4271_515)" stroke-opacity="0.8" stroke-width="2.66025" stroke-miterlimit="10"/>
<path d="M368.203 325.874C343.473 366.699 356.953 418.6 398.309 441.798C439.666 464.996 493.24 450.706 517.969 409.881C542.699 369.055 529.22 317.154 487.863 293.956C446.506 270.759 392.932 285.048 368.203 325.874Z" stroke="url(#paint4_linear_4271_515)" stroke-opacity="0.8" stroke-width="2.66025" stroke-miterlimit="10"/>
<path d="M353.777 317.735C327.346 361.369 341.753 416.841 385.956 441.635C430.158 466.43 487.418 451.157 513.849 407.523C540.28 363.888 525.873 308.416 481.67 283.622C437.468 258.827 380.208 274.1 353.777 317.735Z" stroke="url(#paint5_linear_4271_515)" stroke-opacity="0.8" stroke-width="2.66025" stroke-miterlimit="10"/>
<path d="M339.112 309.463C310.901 356.036 326.278 415.244 373.458 441.708C420.637 468.171 481.753 451.87 509.964 405.297C538.175 358.724 522.798 299.516 475.619 273.052C428.439 246.588 367.323 262.89 339.112 309.463Z" stroke="url(#paint6_linear_4271_515)" stroke-opacity="0.8" stroke-width="2.66025" stroke-miterlimit="10"/>
<path d="M324.252 301.079C294.197 350.697 310.579 413.777 360.844 441.972C411.108 470.166 476.22 452.798 506.276 403.18C536.332 353.562 519.949 290.482 469.685 262.287C419.421 234.093 354.308 251.461 324.252 301.079Z" stroke="url(#paint7_linear_4271_515)" stroke-opacity="0.8" stroke-width="2.66025" stroke-miterlimit="10"/>
<path d="M309.232 292.607C277.278 345.358 294.695 412.42 348.133 442.395C401.571 472.369 470.795 453.905 502.748 401.154C534.701 348.403 517.285 281.34 463.847 251.366C410.409 221.391 341.185 239.856 309.232 292.607Z" stroke="url(#paint8_linear_4271_515)" stroke-opacity="0.8" stroke-width="2.66025" stroke-miterlimit="10"/>
<path d="M294.077 284.058C260.181 340.015 278.657 411.153 335.342 442.949C392.028 474.746 465.459 455.159 499.354 399.202C533.249 343.245 514.774 272.107 458.088 240.311C401.403 208.514 327.972 228.101 294.077 284.058Z" stroke="url(#paint9_linear_4271_515)" stroke-opacity="0.8" stroke-width="2.66025" stroke-miterlimit="10"/>
<path d="M278.81 275.447C242.935 334.672 262.489 409.964 322.485 443.617C382.481 477.27 460.199 456.54 496.074 397.315C531.949 338.09 512.395 262.798 452.399 229.145C392.403 195.492 314.684 216.222 278.81 275.447Z" stroke="url(#paint10_linear_4271_515)" stroke-opacity="0.8" stroke-width="2.66025" stroke-miterlimit="10"/>
<path d="M263.448 266.783C225.562 329.326 246.212 408.838 309.57 444.377C372.928 479.916 455.002 458.024 492.887 395.48C530.773 332.936 510.123 253.424 446.765 217.886C383.407 182.347 301.333 204.239 263.448 266.783Z" stroke="url(#paint11_linear_4271_515)" stroke-opacity="0.8" stroke-width="2.66025" stroke-miterlimit="10"/>
<path d="M248.004 258.072C208.082 323.978 229.843 407.766 296.608 445.215C363.373 482.665 449.86 459.597 489.782 393.69C529.704 327.783 507.944 243.996 441.179 206.546C374.414 169.096 287.926 192.165 248.004 258.072Z" stroke="url(#paint12_linear_4271_515)" stroke-opacity="0.8" stroke-width="2.66025" stroke-miterlimit="10"/>
<path d="M232.495 249.325C190.513 318.632 213.396 406.742 283.605 446.125C353.815 485.507 444.765 461.248 486.747 391.94C528.729 322.633 505.846 234.523 435.636 195.141C365.426 155.758 274.477 180.018 232.495 249.325Z" stroke="url(#paint13_linear_4271_515)" stroke-opacity="0.8" stroke-width="2.66025" stroke-miterlimit="10"/>
<path d="M216.924 240.543C172.862 313.283 196.879 405.757 270.566 447.09C344.253 488.422 439.707 462.961 483.768 390.221C527.829 317.481 503.813 225.007 430.126 183.674C356.439 142.342 260.985 167.803 216.924 240.543Z" stroke="url(#paint14_linear_4271_515)" stroke-opacity="0.8" stroke-width="2.66025" stroke-miterlimit="10"/>
<path d="M201.302 231.732C155.144 307.933 180.303 404.806 257.496 448.105C334.689 491.404 434.684 464.732 480.842 388.532C526.999 312.331 501.84 215.458 424.647 172.159C347.455 128.86 247.459 155.531 201.302 231.732Z" stroke="url(#paint15_linear_4271_515)" stroke-opacity="0.8" stroke-width="2.66025" stroke-miterlimit="10"/>
<path d="M185.636 222.898C137.367 302.583 163.677 403.887 244.401 449.166C325.124 494.446 429.693 466.554 477.961 386.869C526.23 307.184 499.92 205.88 419.196 160.6C338.473 115.321 233.904 143.212 185.636 222.898Z" stroke="url(#paint16_linear_4271_515)" stroke-opacity="0.8" stroke-width="2.66025" stroke-miterlimit="10"/>
<path d="M169.931 214.041C119.539 297.232 147.006 402.993 231.281 450.265C315.555 497.536 424.724 468.417 475.117 385.226C525.509 302.035 498.041 196.274 413.767 149.002C329.492 101.731 220.323 130.849 169.931 214.041Z" stroke="url(#paint17_linear_4271_515)" stroke-opacity="0.8" stroke-width="2.66025" stroke-miterlimit="10"/>
<path d="M154.191 205.165C101.664 291.881 130.295 402.123 218.14 451.397C305.986 500.672 419.781 470.319 472.308 383.603C524.835 296.887 496.204 186.645 408.358 137.371C320.513 88.0961 206.718 118.449 154.191 205.165Z" stroke="url(#paint18_linear_4271_515)" stroke-opacity="0.8" stroke-width="2.66025" stroke-miterlimit="10"/>
<path d="M138.422 196.272C83.7501 286.529 113.55 401.273 204.983 452.56C296.416 503.846 414.857 472.254 469.53 381.997C524.202 291.739 494.402 176.995 402.969 125.709C311.536 74.4222 193.095 106.014 138.422 196.272Z" stroke="url(#paint19_linear_4271_515)" stroke-opacity="0.8" stroke-width="2.66025" stroke-miterlimit="10"/>
<path d="M122.626 187.364C65.8001 281.177 96.7744 400.441 191.809 453.748C286.844 507.055 409.951 474.218 466.778 380.405C523.604 286.592 492.629 167.328 397.594 114.021C302.56 60.7141 179.452 93.5506 122.626 187.364Z" stroke="url(#paint20_linear_4271_515)" stroke-opacity="0.8" stroke-width="2.66025" stroke-miterlimit="10"/>
<path d="M106.807 178.443C47.8192 275.825 79.9715 399.626 178.621 454.961C277.271 510.296 405.062 476.21 464.05 378.828C523.038 281.446 490.885 157.644 392.236 102.309C293.586 46.9746 165.795 81.0606 106.807 178.443Z" stroke="url(#paint21_linear_4271_515)" stroke-opacity="0.8" stroke-width="2.66025" stroke-miterlimit="10"/>
</g>
<g filter="url(#filter0_f_4271_515)">
<ellipse cx="415.129" cy="367" rx="200.129" ry="184" fill="white"/>
</g>
<defs>
<filter id="filter0_f_4271_515" x="61.4" y="29.4" width="707.458" height="675.2" filterUnits="userSpaceOnUse" color-interpolation-filters="sRGB">
<feFlood flood-opacity="0" result="BackgroundImageFix"/>
<feBlend mode="normal" in="SourceGraphic" in2="BackgroundImageFix" result="shape"/>
<feGaussianBlur stdDeviation="76.8" result="effect1_foregroundBlur_4271_515"/>
</filter>
<linearGradient id="paint0_linear_4271_515" x1="514.791" y1="331.741" x2="449.469" y2="448.197" gradientUnits="userSpaceOnUse">
<stop stop-color="#FF7300"/>
<stop offset="0.548077" stop-color="#991F17"/>
<stop offset="1" stop-color="white"/>
</linearGradient>
<linearGradient id="paint1_linear_4271_515" x1="507.642" y1="322.983" x2="438.309" y2="446.59" gradientUnits="userSpaceOnUse">
<stop stop-color="#FF7300"/>
<stop offset="0.548077" stop-color="#991F17"/>
<stop offset="1" stop-color="white"/>
</linearGradient>
<linearGradient id="paint2_linear_4271_515" x1="500.806" y1="313.711" x2="426.872" y2="445.519" gradientUnits="userSpaceOnUse">
<stop stop-color="#FF7300"/>
<stop offset="0.548077" stop-color="#991F17"/>
<stop offset="1" stop-color="white"/>
</linearGradient>
<linearGradient id="paint3_linear_4271_515" x1="494.229" y1="304.008" x2="415.204" y2="444.891" gradientUnits="userSpaceOnUse">
<stop stop-color="#FF7300"/>
<stop offset="0.548077" stop-color="#991F17"/>
<stop offset="1" stop-color="white"/>
</linearGradient>
<linearGradient id="paint4_linear_4271_515" x1="487.863" y1="293.956" x2="403.349" y2="444.625" gradientUnits="userSpaceOnUse">
<stop stop-color="#FF7300"/>
<stop offset="0.548077" stop-color="#991F17"/>
<stop offset="1" stop-color="white"/>
</linearGradient>
<linearGradient id="paint5_linear_4271_515" x1="481.67" y1="283.622" x2="391.342" y2="444.657" gradientUnits="userSpaceOnUse">
<stop stop-color="#FF7300"/>
<stop offset="0.548077" stop-color="#991F17"/>
<stop offset="1" stop-color="white"/>
</linearGradient>
<linearGradient id="paint6_linear_4271_515" x1="475.619" y1="273.052" x2="379.207" y2="444.933" gradientUnits="userSpaceOnUse">
<stop stop-color="#FF7300"/>
<stop offset="0.548077" stop-color="#991F17"/>
<stop offset="1" stop-color="white"/>
</linearGradient>
<linearGradient id="paint7_linear_4271_515" x1="469.685" y1="262.287" x2="366.969" y2="445.407" gradientUnits="userSpaceOnUse">
<stop stop-color="#FF7300"/>
<stop offset="0.548077" stop-color="#991F17"/>
<stop offset="1" stop-color="white"/>
</linearGradient>
<linearGradient id="paint8_linear_4271_515" x1="463.847" y1="251.366" x2="354.646" y2="446.048" gradientUnits="userSpaceOnUse">
<stop stop-color="#FF7300"/>
<stop offset="0.548077" stop-color="#991F17"/>
<stop offset="1" stop-color="white"/>
</linearGradient>
<linearGradient id="paint9_linear_4271_515" x1="458.088" y1="240.311" x2="342.251" y2="446.824" gradientUnits="userSpaceOnUse">
<stop stop-color="#FF7300"/>
<stop offset="0.548077" stop-color="#991F17"/>
<stop offset="1" stop-color="white"/>
</linearGradient>
<linearGradient id="paint10_linear_4271_515" x1="452.399" y1="229.145" x2="329.796" y2="447.718" gradientUnits="userSpaceOnUse">
<stop stop-color="#FF7300"/>
<stop offset="0.548077" stop-color="#991F17"/>
<stop offset="1" stop-color="white"/>
</linearGradient>
<linearGradient id="paint11_linear_4271_515" x1="446.765" y1="217.886" x2="317.292" y2="448.708" gradientUnits="userSpaceOnUse">
<stop stop-color="#FF7300"/>
<stop offset="0.548077" stop-color="#991F17"/>
<stop offset="1" stop-color="white"/>
</linearGradient>
<linearGradient id="paint12_linear_4271_515" x1="441.179" y1="206.546" x2="304.744" y2="449.779" gradientUnits="userSpaceOnUse">
<stop stop-color="#FF7300"/>
<stop offset="0.548077" stop-color="#991F17"/>
<stop offset="1" stop-color="white"/>
</linearGradient>
<linearGradient id="paint13_linear_4271_515" x1="435.636" y1="195.141" x2="292.162" y2="450.924" gradientUnits="userSpaceOnUse">
<stop stop-color="#FF7300"/>
<stop offset="0.548077" stop-color="#991F17"/>
<stop offset="1" stop-color="white"/>
</linearGradient>
<linearGradient id="paint14_linear_4271_515" x1="430.126" y1="183.674" x2="279.546" y2="452.127" gradientUnits="userSpaceOnUse">
<stop stop-color="#FF7300"/>
<stop offset="0.548077" stop-color="#991F17"/>
<stop offset="1" stop-color="white"/>
</linearGradient>
<linearGradient id="paint15_linear_4271_515" x1="424.647" y1="172.159" x2="266.903" y2="453.382" gradientUnits="userSpaceOnUse">
<stop stop-color="#FF7300"/>
<stop offset="0.548077" stop-color="#991F17"/>
<stop offset="1" stop-color="white"/>
</linearGradient>
<linearGradient id="paint16_linear_4271_515" x1="419.196" y1="160.6" x2="254.238" y2="454.684" gradientUnits="userSpaceOnUse">
<stop stop-color="#FF7300"/>
<stop offset="0.548077" stop-color="#991F17"/>
<stop offset="1" stop-color="white"/>
</linearGradient>
<linearGradient id="paint17_linear_4271_515" x1="413.767" y1="149.002" x2="241.551" y2="456.026" gradientUnits="userSpaceOnUse">
<stop stop-color="#FF7300"/>
<stop offset="0.548077" stop-color="#991F17"/>
<stop offset="1" stop-color="white"/>
</linearGradient>
<linearGradient id="paint18_linear_4271_515" x1="408.358" y1="137.371" x2="228.846" y2="457.402" gradientUnits="userSpaceOnUse">
<stop stop-color="#FF7300"/>
<stop offset="0.548077" stop-color="#991F17"/>
<stop offset="1" stop-color="white"/>
</linearGradient>
<linearGradient id="paint19_linear_4271_515" x1="402.969" y1="125.709" x2="216.126" y2="458.81" gradientUnits="userSpaceOnUse">
<stop stop-color="#FF7300"/>
<stop offset="0.548077" stop-color="#991F17"/>
<stop offset="1" stop-color="white"/>
</linearGradient>
<linearGradient id="paint20_linear_4271_515" x1="397.594" y1="114.021" x2="203.391" y2="460.244" gradientUnits="userSpaceOnUse">
<stop stop-color="#FF7300"/>
<stop offset="0.548077" stop-color="#991F17"/>
<stop offset="1" stop-color="white"/>
</linearGradient>
<linearGradient id="paint21_linear_4271_515" x1="392.236" y1="102.309" x2="190.643" y2="461.704" gradientUnits="userSpaceOnUse">
<stop stop-color="#FF7300"/>
<stop offset="0.548077" stop-color="#991F17"/>
<stop offset="1" stop-color="white"/>
</linearGradient>
</defs>
</svg>
